<svg width="11" height="12" viewBox="0 0 11 12" fill="none" xmlns="http://www.w3.org/2000/svg"><path d="M5.612 9.396a.837.837 0 0 1-.593-1.432l.404-.403H2.931A.931.931 0 0 1 2 6.63c0-.511.419-.93.931-.93h2.501l-.415-.428A.836.836 0 0 1 5.02 4.09a.857.857 0 0 1 1.188 0L8.36 6.237a.542.542 0 0 1 0 .766L6.209 9.15a.836.836 0 0 1-.597.245z" fill="#59C7BF"/><path fill-rule="evenodd" clip-rule="evenodd" d="M5.5 11.842A5.5 5.5 0 0 1 0 6.348 5.502 5.502 0 0 1 5.5.854c3.034 0 5.5 2.464 5.5 5.494a5.5 5.5 0 0 1-5.5 5.494zM1 6.348a4.5 4.5 0 0 0 9 0 4.502 4.502 0 0 0-4.5-4.494A4.502 4.502 0 0 0 1 6.348z" fill="#59C7BF"/></svg>