<svg width="90" height="90" viewBox="0 0 90 90" fill="none" xmlns="http://www.w3.org/2000/svg"><g clip-path="url(#clip0)" fill="#6F7B8E"><path d="M50.56 81.44a1.498 1.498 0 0 0-2.12 0 1.498 1.498 0 0 0 0 2.12l6 6a1.496 1.496 0 0 0 2.12 0 1.498 1.498 0 0 0 0-2.12l-6-6zM45 72a1.5 1.5 0 0 0-1.5 1.5v3.879l-10.06 10.06A1.499 1.499 0 0 0 34.5 90c.384 0 .768-.146 1.06-.439l10.5-10.5c.281-.282.44-.663.44-1.06v-4.5A1.5 1.5 0 0 0 45 72zM88.5 3h-42V1.5a1.5 1.5 0 1 0-3 0V3h-42A1.5 1.5 0 0 0 0 4.5v6c0 .828.67 1.5 1.5 1.5h78a1.5 1.5 0 1 0 0-3H3V6h84v3h-1.5a1.5 1.5 0 0 0-1.5 1.5v51c0 2.48-2.019 4.5-4.5 4.5h-69A4.506 4.506 0 0 1 6 61.5v-45a1.5 1.5 0 1 0-3 0v45c0 4.135 3.364 7.5 7.5 7.5h69c4.135 0 7.5-3.365 7.5-7.5V12h1.5a1.5 1.5 0 0 0 1.5-1.5v-6A1.5 1.5 0 0 0 88.5 3z"/><path d="M67.5 30c4.232 0 4.491 3.752 4.5 4.508a1.5 1.5 0 0 0 3-.008c0-2.595-1.568-7.5-7.5-7.5-5.933 0-7.5 4.905-7.5 7.5v6c0 2.593 1.567 7.5 7.5 7.5 5.932 0 7.5-4.906 7.5-7.5 0-.825-.666-1.491-1.491-1.495h-.01c-.821 0-1.49.664-1.499 1.487-.009.754-.266 4.508-4.5 4.508-4.235 0-4.491-3.755-4.5-4.5v-5.992c.009-.753.265-4.508 4.5-4.508zM30.116 44.078a1.498 1.498 0 0 0 1.961.806 1.5 1.5 0 0 0 .807-1.962l-7.5-18a1.502 1.502 0 0 0-2.768 0l-7.5 18a1.5 1.5 0 1 0 2.768 1.156L18.75 42h3.75a1.5 1.5 0 1 0 0-3H20l4-9.6 6.116 14.678zM40.5 33a1.5 1.5 0 0 0-1.5 1.5v18c0 .828.67 1.5 1.5 1.5h6c2.593 0 7.5-1.254 7.5-6 0-1.904-.79-3.246-1.902-4.17C53.36 42.75 54 41.127 54 39c0-2.223-.7-3.898-2.079-4.974-2.292-1.79-5.434-1.068-5.784-.981a1.5 1.5 0 1 0 .726 2.91c.021-.006 2.062-.462 3.211.435.614.48.926 1.358.926 2.61 0 1.248-.31 2.124-.918 2.604-.501.396-1.197.535-1.83.56A10.12 10.12 0 0 0 46.5 42c-.758 0-1.397.564-1.488 1.317a1.498 1.498 0 0 0 1.125 1.638c.157.04.885.207 1.845.216C49.296 45.444 51 46.155 51 48c0 2.937-4.322 2.998-4.5 3H42V34.5a1.5 1.5 0 0 0-1.5-1.5z"/></g><defs><clipPath id="clip0"><path fill="#fff" d="M0 0h90v90H0z"/></clipPath></defs></svg>