<svg width="24" height="24" viewBox="0 0 24 24" fill="none" xmlns="http://www.w3.org/2000/svg"><rect x=".5" y=".5" width="23" height="23" rx="11.5" stroke="#23AAEA"/><path d="M9.133 10.027c.134-.12.2-.262.2-.427 0-.665.259-1.23.775-1.695.523-.47 1.153-.705 1.892-.705.739 0 1.367.235 1.883.705.523.465.784 1.03.784 1.695s-.261 1.232-.784 1.703l-1.375 1.147c-.783.705-1.175 1.555-1.175 2.55a.57.57 0 0 0 .192.428.704.704 0 0 0 .475.172.673.673 0 0 0 .467-.172c.133-.12.2-.263.2-.428 0-.665.26-1.232.783-1.703l1.375-1.147C15.608 11.445 16 10.595 16 9.6c0-.995-.392-1.842-1.175-2.542C14.047 6.353 13.105 6 12 6c-1.106 0-2.05.353-2.833 1.058C8.389 7.758 8 8.604 8 9.6c0 .165.064.308.192.428a.704.704 0 0 0 .475.172.673.673 0 0 0 .466-.172zm3.575 7.681A.964.964 0 0 0 13 17a.964.964 0 0 0-.292-.708A.964.964 0 0 0 12 16a.964.964 0 0 0-.708.292A.964.964 0 0 0 11 17a.96.96 0 0 0 .292.708A.96.96 0 0 0 12 18a.964.964 0 0 0 .708-.292z" fill="#23AAEA"/></svg>