<svg width="27" height="22" viewBox="0 0 27 22" fill="none" xmlns="http://www.w3.org/2000/svg"><path d="M13.889 8.396a3.907 3.907 0 1 0 0 7.813 3.907 3.907 0 0 0 0-7.813zm10.417-3.907h-3.125c-.43 0-.893-.333-1.029-.741l-.807-2.425c-.137-.407-.6-.74-1.029-.74H9.461c-.43 0-.893.333-1.028.74l-.808 2.425c-.137.408-.6.74-1.029.74H3.471A2.612 2.612 0 0 0 .866 7.094v11.72a2.612 2.612 0 0 0 2.605 2.605h20.835a2.612 2.612 0 0 0 2.605-2.605V7.093a2.612 2.612 0 0 0-2.605-2.604zM13.89 18.813a6.511 6.511 0 1 1 0-13.022 6.511 6.511 0 0 1 0 13.022zm9.506-9.898a.912.912 0 1 1 0-1.824.912.912 0 0 1 0 1.824z" fill="#fff"/></svg>