<svg width="15" height="17" viewBox="0 0 15 17" fill="none" xmlns="http://www.w3.org/2000/svg"><path d="M4.275 10.888h8.894A1.827 1.827 0 0 0 15 9.073V5.324c0-.006 0-.013-.003-.02 0-.006-.004-.016-.004-.022 0-.007-.003-.013-.003-.02l-.007-.023-.006-.02c-.004-.006-.004-.013-.007-.02-.003-.006-.007-.013-.01-.023-.003-.006-.006-.013-.01-.016l-.01-.02-.01-.016c-.003-.007-.01-.013-.013-.02a.06.06 0 0 0-.013-.016c-.004-.007-.01-.01-.014-.017-.003-.006-.01-.01-.013-.016-.003-.007-.01-.01-.013-.013l-.017-.017c-.006-.003-.01-.01-.016-.013-.007-.003-.013-.01-.02-.013l-.017-.01a.07.07 0 0 1-.02-.013l-.02-.01-.02-.01-.02-.01c-.006-.003-.013-.003-.02-.006a.062.062 0 0 0-.022-.007c-.007 0-.014-.003-.017-.003-.01-.003-.017-.003-.026-.003-.004 0-.007-.004-.014-.004L3.343 3.381V1.822c0-.016 0-.033-.003-.046 0-.003 0-.006-.004-.013l-.003-.03c-.003-.01-.003-.016-.007-.026 0-.006-.003-.01-.003-.016l-.01-.03-.003-.013a.098.098 0 0 0-.014-.026c-.003-.004-.003-.01-.006-.013-.004-.007-.007-.014-.014-.02l-.01-.017-.01-.016c-.003-.007-.01-.013-.013-.02l-.01-.01-.02-.02-.01-.01-.023-.019c-.003-.003-.01-.006-.013-.01l-.02-.016a.306.306 0 0 0-.026-.017c-.004-.003-.007-.003-.01-.006l-.043-.02L.623.388a.449.449 0 0 0-.588.237.442.442 0 0 0 .24.582l2.169.908v9.727c0 .92.696 1.683 1.595 1.799-.162.27-.258.585-.258.92 0 .99.812 1.793 1.808 1.793.995 0 1.808-.806 1.808-1.793 0-.329-.09-.64-.25-.904h4.028c-.16.266-.249.575-.249.904 0 .99.813 1.793 1.808 1.793.995 0 1.808-.806 1.808-1.793 0-.986-.813-1.792-1.808-1.792H4.275a.932.932 0 0 1-.935-.927v-1.204c.272.158.593.25.935.25zm2.23 3.67a.912.912 0 1 1-1.825 0 .912.912 0 0 1 1.824 0zm7.145 0a.912.912 0 1 1-1.825 0 .912.912 0 0 1 1.825 0zm-.481-4.557H4.275a.932.932 0 0 1-.935-.928V4.275l10.764 1.47V9.07c0 .516-.421.93-.935.93z" fill="#000"/></svg>