<svg width="75" height="76" viewBox="0 0 75 76" fill="none" xmlns="http://www.w3.org/2000/svg"><path fill-rule="evenodd" clip-rule="evenodd" d="M44.154 1.354H74v73H1v-73h29.105v7.873h6.02V33.84h-4.168a10.41 10.41 0 0 0-10.406-9.402c-4.014 0-7.5 2.324-9.19 5.599l5.282 14.366c1.267.528 2.535.845 4.014.845 5.354 0 9.87-4.095 10.405-9.401H42.4a10.41 10.41 0 0 0 10.416 9.506c1.795 0 3.591-.528 5.07-1.373l4.648-12.887c-1.48-3.909-5.282-6.655-9.718-6.655-5.355 0-9.87 4.095-10.405 9.402h-4.173V9.227h5.916V1.354zm0-1H75v75H0v-75h44.154z" fill="url(#paint0_radial)"/><defs><radialGradient id="paint0_radial" cx="0" cy="0" r="1" gradientUnits="userSpaceOnUse" gradientTransform="rotate(90.403 18.839 19.057) scale(75.0019)"><stop stop-color="#35A7E0"/><stop offset="1" stop-color="#579DC0"/></radialGradient></defs></svg>