<svg width="24" height="24" viewBox="0 0 24 24" xmlns="http://www.w3.org/2000/svg"><path d="M9 10.5a1.5 1.5 0 1 1-3 0 1.5 1.5 0 0 1 3 0zm4.5 0a1.5 1.5 0 1 1-3 0 1.5 1.5 0 0 1 3 0zm4.5 0a1.5 1.5 0 1 1-3 0 1.5 1.5 0 0 1 3 0z"/><path fill-rule="evenodd" clip-rule="evenodd" d="M5.197 5.687C3.367 6.907 2.25 8.574 2.25 10.5c0 1.976.983 3.428 2.018 4.415a8.836 8.836 0 0 0 1.887 1.364l.123.063.028.013.004.002a.75.75 0 0 1 .43.8l-.435 2.738 2.965-2.471a.75.75 0 0 1 .48-.174H12c2.494 0 4.97-.715 6.803-1.937 1.83-1.22 2.947-2.887 2.947-4.813 0-1.926-1.117-3.594-2.947-4.813C16.97 4.465 14.493 3.75 12 3.75c-2.494 0-4.97.715-6.803 1.937zm4.824 13.063H12c2.756 0 5.53-.785 7.635-2.189 2.107-1.405 3.615-3.487 3.615-6.061s-1.508-4.656-3.615-6.062C17.529 3.035 14.756 2.25 12 2.25c-2.756 0-5.53.785-7.635 2.188C2.258 5.844.75 7.926.75 10.5c0 2.524 1.267 4.342 2.482 5.5a10.331 10.331 0 0 0 1.943 1.452l-.666 4.18a.75.75 0 0 0 1.221.694l4.291-3.576z"/></svg>