<svg width="46" height="39" viewBox="0 0 46 39" fill="none" xmlns="http://www.w3.org/2000/svg"><path fill-rule="evenodd" clip-rule="evenodd" d="M7.865 5.642c0 .74-.633 1.374-1.373 1.374S5.12 6.382 5.12 5.642c0-.74.634-1.373 1.373-1.373.845 0 1.373.634 1.373 1.373zm34.543 8.134l-.212-2.958c-1.795-2.007-5.493.529-5.493.529l-.195.233c-1.94 2.33-8.059 9.68-14.276.506C19.168 2.262 9.239 1.311 9.239 1.311S8.922.044 7.232.361c-1.69.317-2.747 3.063-2.747 3.063l-2.64 8.556-.951 3.486s1.478 4.965 7.71 1.69l4.966-5.81-.19 16.515-6.46-.036a1.056 1.056 0 0 0-.744 1.813l.013.011c.287.26 1.104.994 1.609 1.405a39.84 39.84 0 0 0 4.321 3.06c3.618 2.214 8.674 4.486 14.231 4.486 5.56 0 10.38-2.22 13.774-4.392a34.108 34.108 0 0 0 4.004-2.999c.47-.41.834-.753 1.084-.996l.391-.394.004-.003a1.056 1.056 0 0 0-.765-1.78l-5.314-.029c-.061-3.484-.207-11.566-.29-13.703.634-1.056 3.17-.528 3.17-.528zM35.96 27.987c-1.334-2.415-4.361-6.33-9.926-6.183-5.558.074-8.383 3.793-9.594 6.075l19.52.108zm-12.564-16.64s.74 4.014 5.493 4.014 5.493-4.226 5.493-4.226l-10.986.212zM13.222 32.312a37.833 37.833 0 0 1-3.413-2.358l32.321.18a32.188 32.188 0 0 1-3.145 2.295c-3.208 2.053-7.63 4.058-12.635 4.058-5.006 0-9.669-2.058-13.128-4.175z" fill="url(#paint0_radial)"/><defs><radialGradient id="paint0_radial" cx="0" cy="0" r="1" gradientUnits="userSpaceOnUse" gradientTransform="matrix(-.31691 38.29019 -44.99806 -.37243 23.71 .31)"><stop stop-color="#52CC5B"/><stop offset="1" stop-color="#5BA861"/></radialGradient></defs></svg>