<svg width="16" height="16" viewBox="0 0 16 16" fill="none" xmlns="http://www.w3.org/2000/svg"><path fill-rule="evenodd" clip-rule="evenodd" d="M10.09 10.5H5.91a3.41 3.41 0 0 0-3.386 3h10.952a3.41 3.41 0 0 0-3.385-3zM5.91 9A4.91 4.91 0 0 0 1 13.91c0 .602.488 1.09 1.09 1.09h11.82A1.09 1.09 0 0 0 15 13.91 4.91 4.91 0 0 0 10.09 9H5.91z" fill="#fff"/><path fill-rule="evenodd" clip-rule="evenodd" d="M10.09 10.5H5.91a3.41 3.41 0 0 0-3.386 3h10.952a3.41 3.41 0 0 0-3.385-3zM5.91 9A4.91 4.91 0 0 0 1 13.91c0 .602.488 1.09 1.09 1.09h11.82A1.09 1.09 0 0 0 15 13.91 4.91 4.91 0 0 0 10.09 9H5.91z" fill="url(#paint0_linear)"/><path fill-rule="evenodd" clip-rule="evenodd" d="M8 6.5a2 2 0 1 0 0-4 2 2 0 0 0 0 4zM8 8a3.5 3.5 0 1 0 0-7 3.5 3.5 0 0 0 0 7z" fill="#fff"/><path fill-rule="evenodd" clip-rule="evenodd" d="M8 6.5a2 2 0 1 0 0-4 2 2 0 0 0 0 4zM8 8a3.5 3.5 0 1 0 0-7 3.5 3.5 0 0 0 0 7z" fill="url(#paint1_linear)"/><defs><linearGradient id="paint0_linear" x1="8" y1="1" x2="8" y2="15" gradientUnits="userSpaceOnUse"><stop stop-color="#fff"/><stop offset="1" stop-color="#fff" stop-opacity="0"/></linearGradient><linearGradient id="paint1_linear" x1="8" y1="1" x2="8" y2="15" gradientUnits="userSpaceOnUse"><stop stop-color="#fff"/><stop offset="1" stop-color="#fff" stop-opacity="0"/></linearGradient></defs></svg>