<svg width="676" height="228" viewBox="0 0 676 228" fill="none" xmlns="http://www.w3.org/2000/svg"><path d="M9.326 146.5L0 179.722h43.562l11.707-36.168h-.113L101.736 0h-46.58L9.326 146.5z" fill="#0F5862"/><path d="M148.59 179.722h31.236v-36.168H148.59V87.66h-41.922v55.894h-51.4l-11.706 36.168h61.736V220h43.292v-40.278z" fill="#0F5862"/><path fill-rule="evenodd" clip-rule="evenodd" d="M148.59 220V87.66h-41.922v55.894l-1.37 36.168V220h43.292z" fill="#4EB1AA"/><mask id="mask0" maskUnits="userSpaceOnUse" x="105" y="87" width="44" height="133"><path fill-rule="evenodd" clip-rule="evenodd" d="M148.59 220V87.66h-41.922v55.894l-1.37 36.168V220h43.292z" fill="#2871DE"/></mask><g mask="url(#mask0)"><g opacity=".7" filter="url(#filter0_f)"><circle cx="87.061" cy="164.5" r="25" fill="#172F47"/></g><g opacity=".7" filter="url(#filter1_f)"><circle cx="171.062" cy="162.5" r="31" fill="#172F47"/></g></g><path d="M9.326 146.5L0 179.722h43.562l11.707-36.168h-.113L101.736 0h-46.58L9.326 146.5z" fill="#4EB1AA"/><mask id="mask1" maskUnits="userSpaceOnUse" x="0" y="0" width="102" height="180"><path d="M9.326 146.5L0 179.722h43.562l11.707-36.168h-.113L101.736 0h-46.58L9.326 146.5z" fill="#2871DE"/></mask><g opacity=".8" filter="url(#filter2_f)" mask="url(#mask1)"><circle cx="74.061" cy="167.5" r="31" fill="#172F47"/></g><path d="M505.388 146.5l-9.326 33.222h43.561l11.707-36.168h-.112L597.798 0h-46.58l-45.83 146.5z" fill="#0F5862"/><path d="M644.652 179.722h31.236v-36.168h-31.236V87.66H602.73v55.894h-51.4l-11.707 36.168h61.737V220h43.292v-40.278z" fill="#0F5862"/><path fill-rule="evenodd" clip-rule="evenodd" d="M644.652 220V87.66H602.73v55.894l-1.37 36.168V220h43.292z" fill="#4EB1AA"/><mask id="mask2" maskUnits="userSpaceOnUse" x="601" y="87" width="44" height="133"><path fill-rule="evenodd" clip-rule="evenodd" d="M644.652 220V87.66H602.73v55.894l-1.37 36.168V220h43.292z" fill="#2871DE"/></mask><g mask="url(#mask2)"><g opacity=".7" filter="url(#filter3_f)"><circle cx="583.123" cy="164.5" r="25" fill="#172F47"/></g><g opacity=".7" filter="url(#filter4_f)"><circle cx="667.123" cy="162.5" r="31" fill="#172F47"/></g></g><path d="M505.388 146.5l-9.326 33.222h43.561l11.707-36.168h-.112L597.798 0h-46.58l-45.83 146.5z" fill="#4EB1AA"/><mask id="mask3" maskUnits="userSpaceOnUse" x="496" y="0" width="102" height="180"><path d="M505.388 146.5l-9.326 33.222h43.561l11.707-36.168h-.112L597.798 0h-46.58l-45.83 146.5z" fill="#2871DE"/></mask><g opacity=".8" filter="url(#filter5_f)" mask="url(#mask3)"><circle cx="570.123" cy="167.5" r="31" fill="#172F47"/></g><path d="M338.062 227.5c-11.991 0-22.991-2.491-33-7.474a72.406 72.406 0 0 1-9.367-5.592c-12.391-8.711-22.14-21.271-29.247-37.68-6.924-16.611-10.386-36.363-10.386-59.254s3.462-42.541 10.386-58.95c7.107-16.612 16.856-29.273 29.247-37.984C308.086 11.856 322.208 7.5 338.062 7.5c12.786 0 24.446 2.834 34.98 8.5a72.762 72.762 0 0 1 7.386 4.566c12.391 8.711 22.049 21.372 28.974 37.984 7.106 16.409 10.66 36.059 10.66 58.95 0 22.891-3.554 42.643-10.66 59.254-6.925 16.409-16.583 28.969-28.974 37.68-12.391 8.711-26.513 13.066-42.366 13.066zm0-41.63c11.662 0 20.773-5.571 27.333-16.713 6.742-11.141 10.113-28.36 10.113-51.657 0-23.296-3.371-40.516-10.113-51.657-1.898-3.224-4.009-5.98-6.333-8.271-5.712-5.628-12.712-8.442-21-8.442-11.48 0-20.592 5.57-27.334 16.712-6.56 11.142-9.84 28.362-9.84 51.658 0 23.297 3.28 40.516 9.84 51.657 2.384 3.94 5.064 7.183 8.041 9.73 5.441 4.655 11.872 6.983 19.293 6.983z" fill="#4EB1AA"/><mask id="mask4" maskUnits="userSpaceOnUse" x="256" y="7" width="165" height="221"><path d="M338.062 227.5c-11.991 0-22.991-2.491-33-7.474a72.406 72.406 0 0 1-9.367-5.592c-12.391-8.711-22.14-21.271-29.247-37.68-6.924-16.611-10.386-36.363-10.386-59.254s3.462-42.541 10.386-58.95c7.107-16.612 16.856-29.273 29.247-37.984C308.086 11.856 322.208 7.5 338.062 7.5c12.786 0 24.446 2.834 34.98 8.5a72.762 72.762 0 0 1 7.386 4.566c12.391 8.711 22.049 21.372 28.974 37.984 7.106 16.409 10.66 36.059 10.66 58.95 0 22.891-3.554 42.643-10.66 59.254-6.925 16.409-16.583 28.969-28.974 37.68-12.391 8.711-26.513 13.066-42.366 13.066zm0-41.63c11.662 0 20.773-5.571 27.333-16.713 6.742-11.141 10.113-28.36 10.113-51.657 0-23.296-3.371-40.516-10.113-51.657-1.898-3.224-4.009-5.98-6.333-8.271-5.712-5.628-12.712-8.442-21-8.442-11.48 0-20.592 5.57-27.334 16.712-6.56 11.142-9.84 28.362-9.84 51.658 0 23.297 3.28 40.516 9.84 51.657 2.384 3.94 5.064 7.183 8.041 9.73 5.441 4.655 11.872 6.983 19.293 6.983z" fill="#4EB1AA"/></mask><g mask="url(#mask4)"><g opacity=".8" filter="url(#filter6_f)"><circle cx="290.062" cy="184.5" r="31" fill="#0F5862"/></g><g opacity=".8" filter="url(#filter7_f)"><circle cx="344.062" cy="35.5" r="31" fill="#172F47"/></g></g><path fill-rule="evenodd" clip-rule="evenodd" d="M295.695 214.434a72.406 72.406 0 0 0 9.367 5.592l13.707-41.139c-2.977-2.547-5.657-5.79-8.041-9.73-6.56-11.141-9.84-28.36-9.84-51.657 0-23.296 3.28-40.516 9.84-51.657C317.47 54.7 326.582 49.13 338.062 49.13c8.288 0 15.288 2.814 21 8.442l.096.096L373.042 16c-10.534-5.666-22.194-8.5-34.98-8.5-15.854 0-29.976 4.355-42.367 13.066-12.391 8.711-22.14 21.372-29.247 37.984-6.924 16.409-10.386 36.059-10.386 58.95 0 22.891 3.462 42.643 10.386 59.254 7.107 16.409 16.856 28.969 29.247 37.68z" fill="#0F5862"/><defs><filter id="filter0_f" x="38.062" y="115.5" width="98" height="98" filterUnits="userSpaceOnUse" color-interpolation-filters="sRGB"><feFlood flood-opacity="0" result="BackgroundImageFix"/><feBlend in="SourceGraphic" in2="BackgroundImageFix" result="shape"/><feGaussianBlur stdDeviation="12" result="effect1_foregroundBlur"/></filter><filter id="filter1_f" x="116.062" y="107.5" width="110" height="110" filterUnits="userSpaceOnUse" color-interpolation-filters="sRGB"><feFlood flood-opacity="0" result="BackgroundImageFix"/><feBlend in="SourceGraphic" in2="BackgroundImageFix" result="shape"/><feGaussianBlur stdDeviation="12" result="effect1_foregroundBlur"/></filter><filter id="filter2_f" x="19.061" y="112.5" width="110" height="110" filterUnits="userSpaceOnUse" color-interpolation-filters="sRGB"><feFlood flood-opacity="0" result="BackgroundImageFix"/><feBlend in="SourceGraphic" in2="BackgroundImageFix" result="shape"/><feGaussianBlur stdDeviation="12" result="effect1_foregroundBlur"/></filter><filter id="filter3_f" x="534.123" y="115.5" width="98" height="98" filterUnits="userSpaceOnUse" color-interpolation-filters="sRGB"><feFlood flood-opacity="0" result="BackgroundImageFix"/><feBlend in="SourceGraphic" in2="BackgroundImageFix" result="shape"/><feGaussianBlur stdDeviation="12" result="effect1_foregroundBlur"/></filter><filter id="filter4_f" x="612.123" y="107.5" width="110" height="110" filterUnits="userSpaceOnUse" color-interpolation-filters="sRGB"><feFlood flood-opacity="0" result="BackgroundImageFix"/><feBlend in="SourceGraphic" in2="BackgroundImageFix" result="shape"/><feGaussianBlur stdDeviation="12" result="effect1_foregroundBlur"/></filter><filter id="filter5_f" x="515.123" y="112.5" width="110" height="110" filterUnits="userSpaceOnUse" color-interpolation-filters="sRGB"><feFlood flood-opacity="0" result="BackgroundImageFix"/><feBlend in="SourceGraphic" in2="BackgroundImageFix" result="shape"/><feGaussianBlur stdDeviation="12" result="effect1_foregroundBlur"/></filter><filter id="filter6_f" x="235.062" y="129.5" width="110" height="110" filterUnits="userSpaceOnUse" color-interpolation-filters="sRGB"><feFlood flood-opacity="0" result="BackgroundImageFix"/><feBlend in="SourceGraphic" in2="BackgroundImageFix" result="shape"/><feGaussianBlur stdDeviation="12" result="effect1_foregroundBlur"/></filter><filter id="filter7_f" x="289.062" y="-19.5" width="110" height="110" filterUnits="userSpaceOnUse" color-interpolation-filters="sRGB"><feFlood flood-opacity="0" result="BackgroundImageFix"/><feBlend in="SourceGraphic" in2="BackgroundImageFix" result="shape"/><feGaussianBlur stdDeviation="12" result="effect1_foregroundBlur"/></filter></defs></svg>