<svg width="32" height="33" viewBox="0 0 32 33" fill="none" xmlns="http://www.w3.org/2000/svg"><path fill-rule="evenodd" clip-rule="evenodd" d="M17.093 32.853H1.767c-.976 0-1.766-.79-1.766-1.766V2.62c0-.976.79-1.766 1.766-1.766h28.468C31.21.854 32 1.644 32 2.62v28.467c0 .976-.79 1.766-1.766 1.766H22.08V20.461h4.159l.623-4.83H22.08V12.55c0-1.399.388-2.351 2.393-2.351l2.557-.002v-4.32c-.442-.058-1.96-.19-3.726-.19-3.688 0-6.212 2.251-6.212 6.384v3.562h-4.17v4.83h4.17v12.391z" fill="#4460A0"/></svg>