<svg width="30" height="30" viewBox="0 0 30 30" fill="none" xmlns="http://www.w3.org/2000/svg"><path d="M11.25 12.25h1.5v1.5h-1.5v-1.5zm3 0h1.5v1.5h-1.5v-1.5zm3 0h1.5v1.5h-1.5v-1.5zm3 0h1.5v1.5h-1.5v-1.5zm4.5 0v1.5h-1.5v-1.5h1.5zm-18 3v1.5h-1.5v-1.5h1.5zm1.5 0h1.5v1.5h-1.5v-1.5zm3 0h1.5v1.5h-1.5v-1.5zm3 0h1.5v1.5h-1.5v-1.5zm3 0h1.5v1.5h-1.5v-1.5zm3 0h1.5v1.5h-1.5v-1.5zm4.5 0v1.5h-1.5v-1.5h1.5zm-18 3v1.5h-1.5v-1.5h1.5zm1.5 0h1.5v1.5h-1.5v-1.5zm3 0h1.5v1.5h-1.5v-1.5zm3 0h1.5v1.5h-1.5v-1.5zm3 0h1.5v1.5h-1.5v-1.5zm3 0h1.5v1.5h-1.5v-1.5zm4.5 0v1.5h-1.5v-1.5h1.5zm-18 3v1.5h-1.5v-1.5h1.5zm1.5 0h1.5v1.5h-1.5v-1.5zm3 0h1.5v1.5h-1.5v-1.5zm3 0h1.5v1.5h-1.5v-1.5zm3 0h1.5v1.5h-1.5v-1.5zm3 0h1.5v1.5h-1.5v-1.5zm4.5 0v1.5h-1.5v-1.5h1.5zm-18 3v1.5h-1.5v-1.5h1.5zm1.5 0h1.5v1.5h-1.5v-1.5zm3 0h1.5v1.5h-1.5v-1.5zm3 0h1.5v1.5h-1.5v-1.5z" fill="#BAC1CC"/><path fill-rule="evenodd" clip-rule="evenodd" d="M8.75 0h-4v2.5H.25V30h29.5V2.5h-5V0h-4v2.5h-12V0zm0 4v2.5h-4V4h-3v4.5h26.5V4h-3.5v2.5h-4V4h-12zm-2.5 1V1.5h1V5h-1zm16 0V1.5h1V5h-1zM1.75 28.5V10h26.5v18.5H1.75z" fill="#BAC1CC"/></svg>