<svg width="24" height="24" viewBox="0 0 24 24" fill="none" xmlns="http://www.w3.org/2000/svg"><g opacity=".01"><path fill="#fff" d="M.5.5h23v23H.5z"/><path fill="url(#paint0_linear)" d="M.5.5h23v23H.5z"/><path stroke="#fff" d="M.5.5h23v23H.5z"/><path stroke="url(#paint1_linear)" d="M.5.5h23v23H.5z"/></g><path d="M13.999 5a2 2 0 1 1-4 0 2 2 0 0 1 4 0zm0 14a2 2 0 1 1-4 0 2 2 0 0 1 4 0zm0-7a2 2 0 1 1-4 0 2 2 0 0 1 4 0z" fill="#C8D0D9"/><defs><linearGradient id="paint0_linear" x1="12" y1="0" x2="12" y2="24" gradientUnits="userSpaceOnUse"><stop stop-color="#fff"/><stop offset="1" stop-color="#fff" stop-opacity="0"/></linearGradient><linearGradient id="paint1_linear" x1="12" y1="0" x2="12" y2="24" gradientUnits="userSpaceOnUse"><stop stop-color="#fff"/><stop offset="1" stop-color="#fff" stop-opacity="0"/></linearGradient></defs></svg>