<svg width="71" height="72" viewBox="0 0 71 72" fill="none" xmlns="http://www.w3.org/2000/svg"><path fill-rule="evenodd" clip-rule="evenodd" d="M1 1.354h69v69H1v-69zm70-1H0v71h71v-71zm-51.6 22.4c.7 0 1.3-.6 1.3-1.3 0-.7-.5-1.3-1.3-1.3-.7 0-1.3.6-1.3 1.3 0 .7.6 1.3 1.3 1.3zm33.8 3.6l.2 2.8s-2.4-.5-3 .5c.078 2.022.216 9.673.274 12.972l5.031.028a1 1 0 0 1 .724 1.683l-.003.004-.37.373c-.237.23-.582.555-1.027.943a32.302 32.302 0 0 1-3.79 2.839c-3.213 2.056-7.777 4.157-13.04 4.157-5.26 0-10.046-2.15-13.471-4.246a37.743 37.743 0 0 1-4.091-2.897 51.407 51.407 0 0 1-1.523-1.33l-.013-.01a1 1 0 0 1 .704-1.717l6.116.035.18-15.634-4.7 5.5c-5.9 3.1-7.3-1.6-7.3-1.6l.9-3.3 2.5-8.1s1-2.6 2.6-2.9c1.6-.3 1.9.9 1.9.9s9.4.9 12.3 10.2c5.885 8.684 11.678 1.727 13.514-.48l.185-.22s3.5-2.4 5.2-.5zm-24.382 16.15l18.478.103c-1.262-2.287-4.128-5.992-9.396-5.853-5.262.069-7.936 3.59-9.082 5.75zM45.8 26.654l-10.4.2s.7 3.8 5.2 3.8 5.2-4 5.2-4zM25.772 46.7a35.85 35.85 0 0 1-3.23-2.231l30.596.17a30.45 30.45 0 0 1-2.977 2.172c-3.037 1.944-7.224 3.843-11.961 3.843-4.74 0-9.153-1.95-12.428-3.954z" fill="url(#paint0_radial)"/><defs><radialGradient id="paint0_radial" cx="0" cy="0" r="1" gradientUnits="userSpaceOnUse" gradientTransform="matrix(-.13135 70.99998 -18.67127 -.03454 9.466 .353)"><stop stop-color="#52CC5B"/><stop offset="1" stop-color="#5BA861"/></radialGradient></defs></svg>