<svg width="24" height="24" viewBox="0 0 24 24" fill="none" xmlns="http://www.w3.org/2000/svg"><g opacity=".01"><path fill="#fff" d="M.5.5h23v23H.5z"/><path fill="url(#paint0_linear)" d="M.5.5h23v23H.5z"/><path stroke="#fff" d="M.5.5h23v23H.5z"/><path stroke="url(#paint1_linear)" d="M.5.5h23v23H.5z"/></g><path d="M20.614 7.795c.154.428-.348 1.413-1.507 2.953a66.4 66.4 0 0 1-.653.854c-.267.341-.452.582-.552.723-.1.14-.204.308-.311.502-.1.188-.141.328-.121.422.027.087.07.2.13.341.068.141.178.285.332.432.154.148.345.325.573.533.026.013.043.027.05.04.944.877 1.584 1.617 1.918 2.22a.81.81 0 0 1 .06.13.86.86 0 0 1 .071.261.733.733 0 0 1 0 .342c-.027.1-.11.194-.251.281-.14.08-.338.12-.593.12l-2.571.041c-.16.034-.348.017-.563-.05a2.443 2.443 0 0 1-.522-.221l-.2-.12a4.696 4.696 0 0 1-.704-.644 24.333 24.333 0 0 1-.693-.773 2.943 2.943 0 0 0-.613-.583c-.214-.16-.402-.214-.562-.16a.696.696 0 0 0-.251.18c-.08.08-.155.181-.221.302a2.24 2.24 0 0 0-.171.522 3.451 3.451 0 0 0-.06.774.95.95 0 0 1-.04.28.592.592 0 0 1-.071.182l-.04.05c-.12.127-.298.2-.533.22H10.79a4.653 4.653 0 0 1-1.466-.16 6.015 6.015 0 0 1-1.326-.532c-.375-.221-.72-.442-1.035-.663a6.443 6.443 0 0 1-.703-.583l-.25-.24a8.457 8.457 0 0 1-.282-.302 28.14 28.14 0 0 1-.713-.914 25.14 25.14 0 0 1-1.065-1.517 31.947 31.947 0 0 1-1.236-2.12A34.237 34.237 0 0 1 1.41 8.187a.801.801 0 0 1-.06-.27c0-.074.01-.128.03-.161l.04-.06c.1-.128.291-.192.572-.192l2.752-.02c.08.014.158.037.231.07a.589.589 0 0 1 .161.081l.05.03c.108.074.188.18.242.322.133.334.287.683.462 1.044.174.355.311.626.411.814l.161.291c.194.402.382.75.563 1.045.18.294.341.525.482.693.147.16.288.288.422.382.134.093.247.14.341.14a.749.749 0 0 0 .271-.05.172.172 0 0 0 .05-.05c.02-.027.06-.1.121-.221.06-.12.104-.278.13-.472.034-.195.068-.466.101-.814a7.805 7.805 0 0 0 0-1.256 4.668 4.668 0 0 0-.09-.733 1.923 1.923 0 0 0-.14-.462l-.061-.12c-.168-.228-.452-.372-.854-.432-.087-.014-.07-.094.05-.241a1.19 1.19 0 0 1 .382-.302c.355-.174 1.155-.254 2.4-.24.55.006 1.002.05 1.357.13a1 1 0 0 1 .331.14.498.498 0 0 1 .211.241c.047.1.08.208.1.322.027.107.04.258.04.452s-.003.378-.01.552a63.81 63.81 0 0 1-.03.714c-.006.294-.01.569-.01.823 0 .074-.003.215-.01.422-.006.208-.01.368-.01.482.007.114.02.251.04.412.02.154.057.285.111.392.06.1.137.18.231.24.054.014.11.028.17.041.061.013.148-.023.262-.11.114-.088.241-.201.382-.342a5.71 5.71 0 0 0 .522-.673c.208-.308.435-.67.683-1.085.402-.696.76-1.45 1.075-2.26a.605.605 0 0 1 .1-.17.425.425 0 0 1 .11-.111l.041-.03a.383.383 0 0 1 .05-.02.333.333 0 0 1 .13-.03.675.675 0 0 1 .202-.01l2.892-.02c.262-.034.476-.024.643.03.168.046.272.1.312.16l.06.1z" fill="#0C2947"/><defs><linearGradient id="paint0_linear" x1="12" y1="0" x2="12" y2="24" gradientUnits="userSpaceOnUse"><stop stop-color="#fff"/><stop offset="1" stop-color="#fff" stop-opacity="0"/></linearGradient><linearGradient id="paint1_linear" x1="12" y1="0" x2="12" y2="24" gradientUnits="userSpaceOnUse"><stop stop-color="#fff"/><stop offset="1" stop-color="#fff" stop-opacity="0"/></linearGradient></defs></svg>