<svg width="38" height="38" viewBox="0 0 38 38" fill="none" xmlns="http://www.w3.org/2000/svg"><path fill-rule="evenodd" clip-rule="evenodd" d="M6.25 2A.75.75 0 0 1 7 1.25h24a.75.75 0 0 1 .75.75v11a.75.75 0 0 1-1.5 0V2.75H7.75V13a.75.75 0 0 1-1.5 0V2zm5 5a.75.75 0 0 1 .75-.75h14a.75.75 0 0 1 0 1.5H12a.75.75 0 0 1-.75-.75zM5.03 9.47a.75.75 0 0 1 0 1.06l-1.5 1.5-.131.132a5.666 5.666 0 0 0-.492.526c-.142.184-.157.274-.157.312v22c0 .138.112.25.25.25h32a.25.25 0 0 0 .25-.25V13c0-.038-.015-.128-.157-.312a5.675 5.675 0 0 0-.492-.527 39.043 39.043 0 0 1-.131-.13l-1.5-1.5a.75.75 0 1 1 1.06-1.061l1.5 1.5.109.107c.207.205.451.447.643.696.233.303.468.713.468 1.227v22A1.75 1.75 0 0 1 35 36.75H3A1.75 1.75 0 0 1 1.25 35V13c0-.514.235-.925.468-1.227.191-.248.436-.49.643-.696l.109-.107 1.5-1.5a.75.75 0 0 1 1.06 0zM11.25 11a.75.75 0 0 1 .75-.75h14a.75.75 0 0 1 0 1.5H12a.75.75 0 0 1-.75-.75zm-6.781 3.136a.75.75 0 0 1 1.06 0l9 9c.16.16.319.329.48.5.408.434.84.892 1.385 1.311.729.56 1.572.97 2.605.97s1.876-.41 2.605-.97c.546-.42.977-.877 1.385-1.31.161-.172.32-.34.48-.5l9-9a.75.75 0 0 1 1.06 1.06l-9 9c-.107.108-.232.24-.372.389-.425.452-.988 1.05-1.638 1.55-.896.69-2.053 1.28-3.52 1.28s-2.624-.59-3.52-1.28c-.65-.5-1.213-1.098-1.638-1.55a18.81 18.81 0 0 0-.372-.389l-9-9a.75.75 0 0 1 0-1.06zM11.25 15a.75.75 0 0 1 .75-.75h14a.75.75 0 0 1 0 1.5H12a.75.75 0 0 1-.75-.75zm1.28 10.136a.75.75 0 0 1 0 1.061l-7 7a.75.75 0 0 1-1.061-1.06l7-7a.75.75 0 0 1 1.06 0zm12.94 1.061a.75.75 0 0 1 1.06-1.06l7 7a.75.75 0 0 1-1.06 1.06l-7-7z" fill="#6F7B8E"/></svg>