<svg width="30" height="30" viewBox="0 0 30 30" fill="none" xmlns="http://www.w3.org/2000/svg"><path fill-rule="evenodd" clip-rule="evenodd" d="M10.19.25h17.56v29.5H2.25V8.19L10.19.25zm16.06 1.5h-15v7.5h-7.5v19h22.5V1.75zm-21.44 6h4.94V2.81L4.81 7.75z" fill="#fff"/><path fill-rule="evenodd" clip-rule="evenodd" d="M10.19.25h17.56v29.5H2.25V8.19L10.19.25zm16.06 1.5h-15v7.5h-7.5v19h22.5V1.75zm-21.44 6h4.94V2.81L4.81 7.75z" fill="url(#paint0_linear)"/><path fill-rule="evenodd" clip-rule="evenodd" d="M6 11.25h18v7.5H6v-7.5zm1.5 1.5v4.5h15v-4.5h-15z" fill="#fff"/><path fill-rule="evenodd" clip-rule="evenodd" d="M6 11.25h18v7.5H6v-7.5zm1.5 1.5v4.5h15v-4.5h-15z" fill="url(#paint1_linear)"/><path d="M13 5h1.5v1.5H13V5z" fill="#fff"/><path d="M13 5h1.5v1.5H13V5z" fill="url(#paint2_linear)"/><path d="M13 7.75h1.5v1.5H13v-1.5z" fill="#fff"/><path d="M13 7.75h1.5v1.5H13v-1.5z" fill="url(#paint3_linear)"/><path d="M6 21h1.5v1.5H6V21z" fill="#fff"/><path d="M6 21h1.5v1.5H6V21z" fill="url(#paint4_linear)"/><path d="M6 24h1.5v1.5H6V24z" fill="#fff"/><path d="M6 24h1.5v1.5H6V24z" fill="url(#paint5_linear)"/><path d="M15.5 5H24v1.5h-8.5V5z" fill="#fff"/><path d="M15.5 5H24v1.5h-8.5V5z" fill="url(#paint6_linear)"/><path d="M15.5 7.75H24v1.5h-8.5v-1.5z" fill="#fff"/><path d="M15.5 7.75H24v1.5h-8.5v-1.5z" fill="url(#paint7_linear)"/><path d="M8.75 21H24v1.5H8.75V21z" fill="#fff"/><path d="M8.75 21H24v1.5H8.75V21z" fill="url(#paint8_linear)"/><path d="M8.75 24H24v1.5H8.75V24z" fill="#fff"/><path d="M8.75 24H24v1.5H8.75V24z" fill="url(#paint9_linear)"/><defs><linearGradient id="paint0_linear" x1="15" y1=".25" x2="15" y2="29.75" gradientUnits="userSpaceOnUse"><stop stop-color="#fff"/><stop offset="1" stop-color="#fff" stop-opacity="0"/></linearGradient><linearGradient id="paint1_linear" x1="15" y1=".25" x2="15" y2="29.75" gradientUnits="userSpaceOnUse"><stop stop-color="#fff"/><stop offset="1" stop-color="#fff" stop-opacity="0"/></linearGradient><linearGradient id="paint2_linear" x1="15" y1=".25" x2="15" y2="29.75" gradientUnits="userSpaceOnUse"><stop stop-color="#fff"/><stop offset="1" stop-color="#fff" stop-opacity="0"/></linearGradient><linearGradient id="paint3_linear" x1="15" y1=".25" x2="15" y2="29.75" gradientUnits="userSpaceOnUse"><stop stop-color="#fff"/><stop offset="1" stop-color="#fff" stop-opacity="0"/></linearGradient><linearGradient id="paint4_linear" x1="15" y1=".25" x2="15" y2="29.75" gradientUnits="userSpaceOnUse"><stop stop-color="#fff"/><stop offset="1" stop-color="#fff" stop-opacity="0"/></linearGradient><linearGradient id="paint5_linear" x1="15" y1=".25" x2="15" y2="29.75" gradientUnits="userSpaceOnUse"><stop stop-color="#fff"/><stop offset="1" stop-color="#fff" stop-opacity="0"/></linearGradient><linearGradient id="paint6_linear" x1="15" y1=".25" x2="15" y2="29.75" gradientUnits="userSpaceOnUse"><stop stop-color="#fff"/><stop offset="1" stop-color="#fff" stop-opacity="0"/></linearGradient><linearGradient id="paint7_linear" x1="15" y1=".25" x2="15" y2="29.75" gradientUnits="userSpaceOnUse"><stop stop-color="#fff"/><stop offset="1" stop-color="#fff" stop-opacity="0"/></linearGradient><linearGradient id="paint8_linear" x1="15" y1=".25" x2="15" y2="29.75" gradientUnits="userSpaceOnUse"><stop stop-color="#fff"/><stop offset="1" stop-color="#fff" stop-opacity="0"/></linearGradient><linearGradient id="paint9_linear" x1="15" y1=".25" x2="15" y2="29.75" gradientUnits="userSpaceOnUse"><stop stop-color="#fff"/><stop offset="1" stop-color="#fff" stop-opacity="0"/></linearGradient></defs></svg>