<svg width="24" height="24" viewBox="0 0 24 24" fill="none" xmlns="http://www.w3.org/2000/svg"><path fill-rule="evenodd" clip-rule="evenodd" d="M4.75.75a.75.75 0 011.5 0V5H7a1 1 0 011 1v5a1 1 0 01-1 1h-.75v11.25a.75.75 0 01-1.5 0V12H4a1 1 0 01-1-1V6a1 1 0 011-1h.75V.75zM4.5 10.5v-4h2v4h-2z" fill="#fff"/><path fill-rule="evenodd" clip-rule="evenodd" d="M4.75.75a.75.75 0 011.5 0V5H7a1 1 0 011 1v5a1 1 0 01-1 1h-.75v11.25a.75.75 0 01-1.5 0V12H4a1 1 0 01-1-1V6a1 1 0 011-1h.75V.75zM4.5 10.5v-4h2v4h-2z" fill="url(#paint0_linear)"/><path fill-rule="evenodd" clip-rule="evenodd" d="M11.25.75a.75.75 0 011.5 0V13h.75a1 1 0 011 1v5a1 1 0 01-1 1h-.75v3.25a.75.75 0 01-1.5 0V20h-.75a1 1 0 01-1-1v-5a1 1 0 011-1h.75V.75zM11 18.5v-4h2v4h-2z" fill="#fff"/><path fill-rule="evenodd" clip-rule="evenodd" d="M11.25.75a.75.75 0 011.5 0V13h.75a1 1 0 011 1v5a1 1 0 01-1 1h-.75v3.25a.75.75 0 01-1.5 0V20h-.75a1 1 0 01-1-1v-5a1 1 0 011-1h.75V.75zM11 18.5v-4h2v4h-2z" fill="url(#paint1_linear)"/><path fill-rule="evenodd" clip-rule="evenodd" d="M17.75.75a.75.75 0 011.5 0V7H20a1 1 0 011 1v5a1 1 0 01-1 1h-.75v9.25a.75.75 0 01-1.5 0V14H17a1 1 0 01-1-1V8a1 1 0 011-1h.75V.75zM17.5 12.5v-4h2v4h-2z" fill="#fff"/><path fill-rule="evenodd" clip-rule="evenodd" d="M17.75.75a.75.75 0 011.5 0V7H20a1 1 0 011 1v5a1 1 0 01-1 1h-.75v9.25a.75.75 0 01-1.5 0V14H17a1 1 0 01-1-1V8a1 1 0 011-1h.75V.75zM17.5 12.5v-4h2v4h-2z" fill="url(#paint2_linear)"/><defs><linearGradient id="paint0_linear" x1="12" y1="0" x2="12" y2="24" gradientUnits="userSpaceOnUse"><stop stop-color="#fff"/><stop offset="1" stop-color="#fff" stop-opacity="0"/></linearGradient><linearGradient id="paint1_linear" x1="12" y1="0" x2="12" y2="24" gradientUnits="userSpaceOnUse"><stop stop-color="#fff"/><stop offset="1" stop-color="#fff" stop-opacity="0"/></linearGradient><linearGradient id="paint2_linear" x1="12" y1="0" x2="12" y2="24" gradientUnits="userSpaceOnUse"><stop stop-color="#fff"/><stop offset="1" stop-color="#fff" stop-opacity="0"/></linearGradient></defs></svg>