<svg width="24" height="24" viewBox="0 0 24 24" fill="none" xmlns="http://www.w3.org/2000/svg"><g opacity=".01"><path fill="#fff" d="M.5.5h23v23H.5z"/><path fill="url(#paint0_linear)" d="M.5.5h23v23H.5z"/><path stroke="#fff" d="M.5.5h23v23H.5z"/><path stroke="url(#paint1_linear)" d="M.5.5h23v23H.5z"/></g><path d="M18 18l.707-.707a1 1 0 0 1-1.414 1.414L18 18z" fill="#E64A19"/><path d="M6.707 5.293L12 10.586l5.293-5.293L18 6l.707.707L13.414 12l5.293 5.293L18 18l-.707.707L12 13.414l-5.293 5.293a1 1 0 0 1-1.414-1.414L10.586 12 5.293 6.707a1 1 0 0 1 1.414-1.414z" fill="#E64A19"/><path d="M18.707 5.293a1 1 0 0 0-1.415 0L18 6l.707.707a1 1 0 0 0 0-1.414z" fill="#E64A19"/><defs><linearGradient id="paint0_linear" x1="12" y1="0" x2="12" y2="24" gradientUnits="userSpaceOnUse"><stop stop-color="#fff"/><stop offset="1" stop-color="#fff" stop-opacity="0"/></linearGradient><linearGradient id="paint1_linear" x1="12" y1="0" x2="12" y2="24" gradientUnits="userSpaceOnUse"><stop stop-color="#fff"/><stop offset="1" stop-color="#fff" stop-opacity="0"/></linearGradient></defs></svg>