<svg width="71" height="72" viewBox="0 0 71 72" fill="none" xmlns="http://www.w3.org/2000/svg"><path fill-rule="evenodd" clip-rule="evenodd" d="M1 1.267h69v69H1v-69zm70-1H0v71h71v-71zm-41.7 21c1-1 2.1-1.5 3.3-1.5 1.9 0 3.9 1.2 5.7 3.8-.9-.3-1.7-.5-2.6-.5-1.3 0-2.4.5-3.3 1.3l-7.4 7.4.8.8-2.8 2.8-4.8-4.8 2.8-2.8.9.9 7.4-7.4zm-6.2 4.5l3.4-3.4.7.7-3.4 3.4-.7-.7zm21.9.3l3.7 3.7 3.8-3.8.044.213c.083.406.156.76.156 1.187 0 1.4-.4 2.5-1.4 3.5-1 .9-2.1 1.4-3.5 1.4-.5 0-1-.1-1.5-.2l-4.8 4.8 10.8 10.4-4.3 4.3-10.3-10.9-4.6 4.6c.1.5.2 1 .2 1.5 0 1.4-.5 2.5-1.4 3.5-1 .9-2.1 1.4-3.5 1.4-.427 0-.781-.073-1.188-.156L27 51.467l3.8-3.8-3.7-3.7-3.8 3.8-.043-.213c-.084-.405-.157-.76-.157-1.187 0-1.4.4-2.5 1.4-3.5 1-.9 2.1-1.4 3.5-1.4.427 0 .78.073 1.186.157l.214.043 4.7-4.7-6.8-7.1 3.4-3.4 7 6.8 5-4.9-.043-.213c-.084-.406-.157-.76-.157-1.187 0-1.4.4-2.5 1.4-3.5 1-.9 2.1-1.4 3.5-1.4.427 0 .781.073 1.187.157l.213.043-3.8 3.8z" fill="url(#paint0_radial)"/><defs><radialGradient id="paint0_radial" cx="0" cy="0" r="1" gradientUnits="userSpaceOnUse" gradientTransform="matrix(0 71 -18.6704 0 9.335 .267)"><stop stop-color="#8A9096"/><stop offset="1" stop-color="#666C73"/></radialGradient></defs></svg>