<svg width="71" height="72" viewBox="0 0 71 72" fill="none" xmlns="http://www.w3.org/2000/svg"><path fill-rule="evenodd" clip-rule="evenodd" d="M1 1.354h69v69H1v-69zm70-1H0v71h71v-71zM19.599 34.639c1.2-1.4 2.2-2.8 2.8-4 .6-1.2 1.2-2.9 1.5-5 .5 2.1 1.1 3.8 1.7 5 .6 1.2 1.5 2.6 2.8 4l.6.6c1.7 1.9 2.5 3.7 2.5 5.6 0 2.1-.7 3.8-2.2 5.3-1.5 1.5-3.2 2.2-5.3 2.2-2 0-3.8-.7-5.3-2.2-1.5-1.5-2.2-3.2-2.2-5.3 0-1.9.8-3.7 2.5-5.6l.6-.6zm14.6-16.9c-.6 1.1-1.4 2.3-2.6 3.6l-.5.6c-1.5 1.7-2.2 3.3-2.2 5 0 1.8.7 3.4 2 4.8 1.3 1.3 2.9 2 4.8 2s3.5-.7 4.8-2c1.3-1.3 2-2.9 2-4.8 0-1.7-.7-3.3-2.2-5l-.5-.6c-1.1-1.3-2-2.5-2.6-3.6-.6-1.1-1.1-2.6-1.5-4.5-.4 1.9-.9 3.4-1.5 4.5zm9.5 15.5c1-1.1 1.8-2.2 2.3-3.2.5-.9.9-2.3 1.3-3.9.4 1.7.8 3 1.3 4s1.3 2 2.3 3.2l.6.4c1.3 1.5 2 3 2 4.5 0 1.6-.6 3-1.8 4.2-1.2 1.2-2.6 1.8-4.3 1.8-1.7 0-3.1-.6-4.3-1.8-1.2-1.2-1.8-2.6-1.8-4.2 0-1.5.7-3 2-4.5l.4-.5z" fill="url(#paint0_radial)"/><defs><radialGradient id="paint0_radial" cx="0" cy="0" r="1" gradientUnits="userSpaceOnUse" gradientTransform="rotate(90.573 4.809 5.108) scale(12.4501 17.6914)"><stop stop-color="#35CBBA"/><stop offset="1" stop-color="#21A697"/></radialGradient></defs></svg>