<svg width="30" height="30" viewBox="0 0 30 30" fill="none" xmlns="http://www.w3.org/2000/svg"><path fill-rule="evenodd" clip-rule="evenodd" d="M15 .25a.75.75 0 0 1 .75.75v1.25h14v4.5h-1.5v17h-12.5v.913l4.248 3.776a.75.75 0 0 1-.996 1.122L15 26.003l-4.002 3.558a.75.75 0 0 1-.996-1.122l4.248-3.776v-.913H1.75v-17H.25v-4.5h14V1A.75.75 0 0 1 15 .25zm-13.25 5h26.5v-1.5H1.75v1.5zm1.5 1.5v15.5h23.5V6.75H3.25z" fill="#BAC1CC"/><path fill-rule="evenodd" clip-rule="evenodd" d="M23.638 17.27c-.76.909-1.882 1.48-3.28 1.48-2.417 0-3.664-1.408-4.209-2.023a3.86 3.86 0 0 0-.18-.197.75.75 0 1 1 1.061-1.06c.083.082.168.176.26.278.564.62 1.366 1.502 3.067 1.502.958 0 1.658-.376 2.13-.942.485-.58.763-1.401.763-2.308 0-1.944-1.42-3.25-2.893-3.25-1.133 0-2.056.53-2.844 1.28-.685.652-1.216 1.417-1.671 2.074l-.229.328-.207.297c-.45.652-1.078 1.56-1.884 2.327-.953.907-2.227 1.694-3.88 1.694-2.383 0-4.392-2.063-4.392-4.75 0-2.42 1.743-4.75 4.393-4.75 2.416 0 3.663 1.408 4.208 2.023.071.081.13.148.18.197a.75.75 0 1 1-1.061 1.06 6.803 6.803 0 0 1-.26-.278c-.564-.62-1.366-1.502-3.067-1.502-1.636 0-2.893 1.46-2.893 3.25 0 1.944 1.42 3.25 2.893 3.25 1.133 0 2.056-.53 2.844-1.28.685-.652 1.216-1.417 1.671-2.074l.229-.328.207-.297c.45-.652 1.078-1.56 1.884-2.327.953-.908 2.227-1.694 3.88-1.694 2.383 0 4.392 2.063 4.392 4.75 0 1.198-.365 2.377-1.112 3.27z" fill="#BAC1CC"/></svg>