<svg width="24" height="24" viewBox="0 0 24 24" fill="none" xmlns="http://www.w3.org/2000/svg"><g clip-path="url(#clip0)"><g opacity=".01"><path fill="#fff" d="M.501.5h23v23h-23z"/><path fill="url(#paint0_linear)" d="M.501.5h23v23h-23z"/><path stroke="#fff" d="M.501.5h23v23h-23z"/><path stroke="url(#paint1_linear)" d="M.501.5h23v23h-23z"/></g><path fill-rule="evenodd" clip-rule="evenodd" d="M1.252 2a.75.75 0 0 1 .75-.75h18a.75.75 0 0 1 .75.75v13a.75.75 0 0 1-1.5 0v-3.25h-16.5v7.5h10.75a.75.75 0 0 1 0 1.5h-11.5a.75.75 0 0 1-.75-.75V2zm1.5 8.25h16.5v-7.5h-16.5v7.5zm5.75-5a.75.75 0 0 1 .75.75v.25h3.5V6a.75.75 0 1 1 1.5 0v1a.75.75 0 0 1-.75.75h-5a.75.75 0 0 1-.75-.75V6a.75.75 0 0 1 .75-.75zm0 9a.75.75 0 0 1 .75.75v.25h3.5V15a.75.75 0 1 1 1.5 0v1a.75.75 0 0 1-.75.75h-5a.75.75 0 0 1-.75-.75v-1a.75.75 0 0 1 .75-.75zm6.97 1.22a.75.75 0 0 1 1.06 0l2.97 2.97 2.97-2.97a.75.75 0 0 1 1.06 1.06l-2.97 2.97 2.97 2.97a.75.75 0 1 1-1.06 1.06l-2.97-2.97-2.97 2.97a.75.75 0 0 1-1.06-1.06l2.97-2.97-2.97-2.97a.75.75 0 0 1 0-1.06z" fill="#0C2947"/></g><defs><linearGradient id="paint0_linear" x1="12.001" y1="0" x2="12.001" y2="24" gradientUnits="userSpaceOnUse"><stop stop-color="#fff"/><stop offset="1" stop-color="#fff" stop-opacity="0"/></linearGradient><linearGradient id="paint1_linear" x1="12.001" y1="0" x2="12.001" y2="24" gradientUnits="userSpaceOnUse"><stop stop-color="#fff"/><stop offset="1" stop-color="#fff" stop-opacity="0"/></linearGradient><clipPath id="clip0"><path fill="#fff" transform="translate(.001)" d="M0 0h24v24H0z"/></clipPath></defs></svg>