<svg width="18" height="18" viewBox="0 0 18 18" fill="none" xmlns="http://www.w3.org/2000/svg"><g opacity=".01"><path fill="#fff" d="M.5.5h17v17H.5z"/><path fill="url(#paint0_linear)" d="M.5.5h17v17H.5z"/><path stroke="#fff" d="M.5.5h17v17H.5z"/><path stroke="url(#paint1_linear)" d="M.5.5h17v17H.5z"/></g><path d="M10 1a1 1 0 1 0-2 0v7H1a1 1 0 1 0 0 2h7v7a1 1 0 1 0 2 0v-7h7a1 1 0 1 0 0-2h-7V1z" fill="#fff"/><path d="M10 1a1 1 0 1 0-2 0v7H1a1 1 0 1 0 0 2h7v7a1 1 0 1 0 2 0v-7h7a1 1 0 1 0 0-2h-7V1z" fill="url(#paint2_linear)"/><defs><linearGradient id="paint0_linear" x1="9" y1="0" x2="9" y2="18" gradientUnits="userSpaceOnUse"><stop stop-color="#fff"/><stop offset="1" stop-color="#fff" stop-opacity="0"/></linearGradient><linearGradient id="paint1_linear" x1="9" y1="0" x2="9" y2="18" gradientUnits="userSpaceOnUse"><stop stop-color="#fff"/><stop offset="1" stop-color="#fff" stop-opacity="0"/></linearGradient><linearGradient id="paint2_linear" x1="9" y1="0" x2="9" y2="18" gradientUnits="userSpaceOnUse"><stop stop-color="#fff"/><stop offset="1" stop-color="#fff" stop-opacity="0"/></linearGradient></defs></svg>