<svg width="24" height="24" viewBox="0 0 24 24" fill="none" xmlns="http://www.w3.org/2000/svg"><g opacity=".01"><path fill="#fff" d="M.5.5h23v23H.5z"/><path fill="url(#paint0_linear)" d="M.5.5h23v23H.5z"/><path stroke="#fff" d="M.5.5h23v23H.5z"/><path stroke="url(#paint1_linear)" d="M.5.5h23v23H.5z"/></g><path d="M15.728 10.346c-.89.89-1.965 1.336-3.224 1.336-1.26 0-2.334-.445-3.225-1.336-.89-.89-1.335-1.962-1.335-3.214 0-1.26.445-2.334 1.335-3.225.891-.89 1.966-1.335 3.225-1.335 1.259 0 2.334.445 3.224 1.335.89.891 1.336 1.966 1.336 3.225 0 1.252-.445 2.323-1.336 3.214zm-1.647-4.801a2.133 2.133 0 0 0-1.577-.663c-.616 0-1.145.22-1.587.663a2.16 2.16 0 0 0-.653 1.587c0 .616.217 1.145.653 1.587.442.435.97.653 1.587.653a2.15 2.15 0 0 0 1.577-.653c.442-.442.663-.971.663-1.587 0-.623-.221-1.152-.663-1.587zm3.676 6.69c.087.18.137.348.15.502a.877.877 0 0 1-.05.402c-.04.12-.127.25-.26.391a3.813 3.813 0 0 1-.433.372c-.147.107-.351.244-.612.412-.77.489-1.825.803-3.164.944l.733.723 2.682 2.682c.2.208.301.455.301.743s-.1.533-.301.734l-.12.13c-.208.201-.456.302-.744.302s-.536-.1-.743-.302a630.405 630.405 0 0 0-2.682-2.692L9.832 20.27a1.032 1.032 0 0 1-.743.302.998.998 0 0 1-.734-.302l-.12-.13a.982.982 0 0 1-.312-.734c0-.288.104-.535.312-.743l2.682-2.682.723-.723c-1.36-.14-2.42-.455-3.184-.944a20.792 20.792 0 0 1-.623-.412 4.394 4.394 0 0 1-.422-.372 1.256 1.256 0 0 1-.271-.391.975.975 0 0 1-.04-.402c.013-.154.063-.322.15-.502a1.09 1.09 0 0 1 .282-.352c.12-.1.26-.174.422-.221.16-.047.348-.04.562.02a1.9 1.9 0 0 1 .653.352c.033.026.084.063.15.11a5.685 5.685 0 0 0 1.126.553c.24.087.549.167.924.24a6.028 6.028 0 0 0 2.883-.14c.555-.174.957-.345 1.205-.512l.382-.251a1.9 1.9 0 0 1 .652-.352 1.02 1.02 0 0 1 .563-.02 1.106 1.106 0 0 1 .703.573z" fill="#0C2947"/><defs><linearGradient id="paint0_linear" x1="12" y1="0" x2="12" y2="24" gradientUnits="userSpaceOnUse"><stop stop-color="#fff"/><stop offset="1" stop-color="#fff" stop-opacity="0"/></linearGradient><linearGradient id="paint1_linear" x1="12" y1="0" x2="12" y2="24" gradientUnits="userSpaceOnUse"><stop stop-color="#fff"/><stop offset="1" stop-color="#fff" stop-opacity="0"/></linearGradient></defs></svg>