<svg width="18" height="18" viewBox="0 0 18 18" fill="none" xmlns="http://www.w3.org/2000/svg"><path d="M8.997 7.467h7.283c.08.448.12.877.12 1.285 0 1.453-.304 2.752-.914 3.898a6.598 6.598 0 0 1-2.611 2.671c-1.125.643-2.418.965-3.878.965a7.53 7.53 0 0 1-3.003-.613 7.648 7.648 0 0 1-2.46-1.637 7.782 7.782 0 0 1-1.648-2.461 7.638 7.638 0 0 1-.603-3.004c0-1.05.201-2.052.603-3.003a7.783 7.783 0 0 1 1.647-2.46A7.647 7.647 0 0 1 5.994 1.47 7.53 7.53 0 0 1 8.997.857c2.01 0 3.734.673 5.174 2.02l-2.1 2.018C11.248 4.098 10.223 3.7 8.997 3.7c-.863 0-1.664.217-2.4.653A4.812 4.812 0 0 0 4.859 6.13a4.8 4.8 0 0 0-.643 2.44c0 .884.215 1.701.643 2.451a4.835 4.835 0 0 0 1.738 1.768 4.636 4.636 0 0 0 2.4.653 5.12 5.12 0 0 0 1.608-.241c.489-.16.89-.362 1.205-.603.315-.24.59-.515.824-.823.234-.308.405-.6.512-.874a3.53 3.53 0 0 0 .231-.784h-4.38v-2.65z" fill="#4285F4"/></svg>