<svg width="24" height="24" viewBox="0 0 24 24" fill="none" xmlns="http://www.w3.org/2000/svg"><g opacity=".01"><path fill="#fff" d="M.5.5h23v23H.5z"/><path fill="url(#paint0_linear)" d="M.5.5h23v23H.5z"/><path stroke="#fff" d="M.5.5h23v23H.5z"/><path stroke="url(#paint1_linear)" d="M.5.5h23v23H.5z"/></g><path d="M15.991 2.692v2.652h-1.577c-.576 0-.964.12-1.165.361-.2.242-.301.603-.301 1.085v1.9h2.943l-.392 2.973h-2.551v7.624H9.874v-7.624H7.313V8.689h2.561v-2.19c0-1.246.348-2.21 1.045-2.893.696-.69 1.623-1.034 2.782-1.034.984 0 1.748.04 2.29.12z" fill="#0C2947"/><defs><linearGradient id="paint0_linear" x1="12" y1="0" x2="12" y2="24" gradientUnits="userSpaceOnUse"><stop stop-color="#fff"/><stop offset="1" stop-color="#fff" stop-opacity="0"/></linearGradient><linearGradient id="paint1_linear" x1="12" y1="0" x2="12" y2="24" gradientUnits="userSpaceOnUse"><stop stop-color="#fff"/><stop offset="1" stop-color="#fff" stop-opacity="0"/></linearGradient></defs></svg>