<svg width="71" height="72" viewBox="0 0 71 72" fill="none" xmlns="http://www.w3.org/2000/svg"><path fill-rule="evenodd" clip-rule="evenodd" d="M41.8 1.354H70v69H1v-69h27.5v7.4h5.7v23.3h-3.95a9.854 9.854 0 0 0-9.85-8.9c-3.8 0-7.1 2.2-8.7 5.3l5 13.6c1.2.5 2.4.8 3.8.8 5.068 0 9.344-3.877 9.85-8.9h9.79a9.854 9.854 0 0 0 9.86 9c1.7 0 3.4-.5 4.8-1.3l4.4-12.2c-1.4-3.7-5-6.3-9.2-6.3-5.068 0-9.344 3.876-9.85 8.9H36.2v-23.3h5.6v-7.4zm0-1H71v71H0v-71h41.8z" fill="url(#paint0_radial)"/><defs><radialGradient id="paint0_radial" cx="0" cy="0" r="1" gradientUnits="userSpaceOnUse" gradientTransform="matrix(-.11833 12.44694 -16.80264 -.15974 8.52 .354)"><stop stop-color="#35A7E0"/><stop offset="1" stop-color="#579DC0"/></radialGradient></defs></svg>