<svg width="71" height="72" viewBox="0 0 71 72" fill="none" xmlns="http://www.w3.org/2000/svg"><path fill-rule="evenodd" clip-rule="evenodd" d="M70 1.354H1v69h69v-69zm0-1h1v71H0v-71h70z" fill="url(#paint0_radial)"/><path d="M53 32.693c-6.8-2.688-18-14.24-18-14.24s-10.2 11.552-17 14.24c0 .1 2.8-.1 3.3 1.494 2.5 6.97 9.8 28.777 9.8 28.777l4.3 2.49 4.3-2.49s7.3-21.707 9.8-28.777" fill="#5A89CB"/><path d="M36 .454h-2v33h2v-33z" fill="#5A89CB"/><path d="M48 33.353L38.353 62.25h-1.868V34.393L48 33.353zm-13.59 29h-1.866l-9.544-29 11.41 1.144v27.856z" fill="#fff"/><defs><radialGradient id="paint0_radial" cx="0" cy="0" r="1" gradientUnits="userSpaceOnUse" gradientTransform="matrix(0 71 -18.6704 0 9.335 .354)"><stop stop-color="#2D7DEC"/><stop offset="1" stop-color="#5A89CB"/></radialGradient></defs></svg>