<svg width="71" height="72" viewBox="0 0 71 72" fill="none" xmlns="http://www.w3.org/2000/svg"><path fill="#fff" d="M0 .527h71v70.644H0z"/><path fill-rule="evenodd" clip-rule="evenodd" d="M70 1.354H1v69h69v-69zm0-1h1v71H0v-71h70z" fill="#BAD432"/><path d="M48.867 43.495c0 2.596-.768 5.01-2.087 7.032H25.167a12.83 12.83 0 0 1-2.086-7.032c0-7.12 5.773-12.893 12.893-12.893 7.12 0 12.893 5.772 12.893 12.893z" fill="#BAD432"/><path d="M47.758 30.848a.867.867 0 0 0-.018 1.22 16.366 16.366 0 0 1 4.642 11.427 16.32 16.32 0 0 1-4.108 10.847c-.305.34-.276.862.047 1.19a.885.885 0 0 0 1.289-.047 18.101 18.101 0 0 0 4.53-11.99c0-4.905-1.952-9.36-5.122-12.63a.885.885 0 0 0-1.26-.017zM17.806 43.495c0 4.583 1.711 8.79 4.536 11.99a.89.89 0 0 0 1.29.047.87.87 0 0 0 .046-1.19 16.296 16.296 0 0 1-4.114-10.847c0-4.437 1.77-8.468 4.641-11.422a.872.872 0 0 0-.017-1.219.884.884 0 0 0-1.26.018 18.064 18.064 0 0 0-5.122 12.623z" fill="#BAD432"/><path d="M52.312 26.295a.886.886 0 0 0 .006 1.248 22.741 22.741 0 0 1 6.51 15.952c0 5.913-2.261 11.31-5.965 15.372a.885.885 0 0 0 .017 1.224.874.874 0 0 0 1.26-.017c4.003-4.378 6.447-10.203 6.447-16.58 0-6.697-2.684-12.769-7.038-17.205a.877.877 0 0 0-1.237.006zm-32.677 0c-.34-.34-.903-.352-1.237-.006-4.354 4.436-7.038 10.508-7.038 17.206a24.483 24.483 0 0 0 6.447 16.579.88.88 0 0 0 1.26.017.89.89 0 0 0 .017-1.224 22.748 22.748 0 0 1-5.966-15.372 22.742 22.742 0 0 1 6.511-15.952.88.88 0 0 0 .006-1.248zM36.56 1.3h-1.172v49.227h1.172V1.3z" fill="#BAD432"/></svg>