<svg width="30" height="30" viewBox="0 0 30 30" fill="none" xmlns="http://www.w3.org/2000/svg"><path d="M4 3.75h24.25V22h1.5V2.25H4v1.5z" fill="#fff"/><path d="M4 3.75h24.25V22h1.5V2.25H4v1.5z" fill="url(#paint0_linear)"/><path d="M2 6.75h23.25V24.5h1.5V5.25H2v1.5z" fill="#fff"/><path d="M2 6.75h23.25V24.5h1.5V5.25H2v1.5z" fill="url(#paint1_linear)"/><path d="M12.5 19.75H21v-1.5h-8.5v1.5z" fill="#fff"/><path d="M12.5 19.75H21v-1.5h-8.5v1.5z" fill="url(#paint2_linear)"/><path d="M12.5 22.75H18v-1.5h-5.5v1.5z" fill="#fff"/><path d="M12.5 22.75H18v-1.5h-5.5v1.5z" fill="url(#paint3_linear)"/><path fill-rule="evenodd" clip-rule="evenodd" d="M7.5 12.25a4.25 4.25 0 100 8.5 4.25 4.25 0 000-8.5zm-.75 1.604a2.751 2.751 0 103.396 3.396H6.75v-3.396zm3.396 1.896a2.756 2.756 0 00-1.896-1.896v1.896h1.896z" fill="#fff"/><path fill-rule="evenodd" clip-rule="evenodd" d="M7.5 12.25a4.25 4.25 0 100 8.5 4.25 4.25 0 000-8.5zm-.75 1.604a2.751 2.751 0 103.396 3.396H6.75v-3.396zm3.396 1.896a2.756 2.756 0 00-1.896-1.896v1.896h1.896z" fill="url(#paint4_linear)"/><path fill-rule="evenodd" clip-rule="evenodd" d="M23.75 8.25H.25v18.5h23.5V8.25zm-22 17V9.75h20.5v15.5H1.75z" fill="#fff"/><path fill-rule="evenodd" clip-rule="evenodd" d="M23.75 8.25H.25v18.5h23.5V8.25zm-22 17V9.75h20.5v15.5H1.75z" fill="url(#paint5_linear)"/><defs><linearGradient id="paint0_linear" x1="15" y1="2.25" x2="15" y2="26.75" gradientUnits="userSpaceOnUse"><stop stop-color="#fff"/><stop offset="1" stop-color="#fff" stop-opacity="0"/></linearGradient><linearGradient id="paint1_linear" x1="15" y1="2.25" x2="15" y2="26.75" gradientUnits="userSpaceOnUse"><stop stop-color="#fff"/><stop offset="1" stop-color="#fff" stop-opacity="0"/></linearGradient><linearGradient id="paint2_linear" x1="15" y1="2.25" x2="15" y2="26.75" gradientUnits="userSpaceOnUse"><stop stop-color="#fff"/><stop offset="1" stop-color="#fff" stop-opacity="0"/></linearGradient><linearGradient id="paint3_linear" x1="15" y1="2.25" x2="15" y2="26.75" gradientUnits="userSpaceOnUse"><stop stop-color="#fff"/><stop offset="1" stop-color="#fff" stop-opacity="0"/></linearGradient><linearGradient id="paint4_linear" x1="15" y1="2.25" x2="15" y2="26.75" gradientUnits="userSpaceOnUse"><stop stop-color="#fff"/><stop offset="1" stop-color="#fff" stop-opacity="0"/></linearGradient><linearGradient id="paint5_linear" x1="15" y1="2.25" x2="15" y2="26.75" gradientUnits="userSpaceOnUse"><stop stop-color="#fff"/><stop offset="1" stop-color="#fff" stop-opacity="0"/></linearGradient></defs></svg>