<svg width="24" height="25" viewBox="0 0 24 25" fill="none" xmlns="http://www.w3.org/2000/svg"><path fill-rule="evenodd" clip-rule="evenodd" d="M10.5 1.75a3.25 3.25 0 1 0 0 6.5 3.25 3.25 0 0 0 0-6.5zM5.75 5a4.75 4.75 0 1 1 9.5 0 4.75 4.75 0 0 1-9.5 0zm-5 12.75c0-3.91 3.243-7 6.795-7h5.373c.57 0 1.071.163 1.414.312a4.084 4.084 0 0 1 .577.309l.012.008.004.003.002.001.001.001L14.5 12l.428-.616a.75.75 0 0 1-.853 1.234l-.002-.001.002.001-.012-.008a2.595 2.595 0 0 0-.329-.172 2.104 2.104 0 0 0-.816-.188H7.545c-2.717 0-5.295 2.41-5.295 5.5a2.75 2.75 0 0 0 .037.5H14a.75.75 0 0 1 0 1.5H2.172c-.176 0-.39-.026-.603-.127a1.242 1.242 0 0 1-.53-.48C.81 18.768.75 18.275.75 17.75zm16.99-4.785c-.335.415-.49.984-.49 1.535a.75.75 0 0 1-1.5 0c0-.799.22-1.73.822-2.477.625-.774 1.598-1.273 2.928-1.273 1.305 0 2.284.444 2.92 1.207.616.74.83 1.682.83 2.543 0 .886-.225 1.567-.605 2.108-.367.523-.844.862-1.234 1.117a30.8 30.8 0 0 1-.244.157c-.294.19-.5.321-.665.489a.804.804 0 0 0-.252.629v.75a.75.75 0 0 1-1.5 0V19c0-.738.281-1.274.685-1.683.295-.299.677-.542.98-.736l.174-.111c.36-.236.633-.446.829-.724.182-.26.332-.632.332-1.246 0-.639-.161-1.197-.482-1.582-.302-.362-.823-.668-1.768-.668-.92 0-1.447.326-1.76.715z" fill="#23AAEA"/><path d="M21 23.5a1.5 1.5 0 1 1-3 0 1.5 1.5 0 0 1 3 0z" fill="#23AAEA"/></svg>