<svg width="16" height="16" viewBox="0 0 16 16" xmlns="http://www.w3.org/2000/svg"><g opacity=".01"><path fill="#fff" d="M.5.5h15v15H.5z"/><path fill="url(#paint0_linear)" d="M.5.5h15v15H.5z"/><path stroke="#fff" d="M.5.5h15v15H.5z"/><path stroke="url(#paint1_linear)" d="M.5.5h15v15H.5z"/></g><path fill-rule="evenodd" clip-rule="evenodd" d="M11.447 2.22a.75.75 0 0 0-1.06 0L2.22 10.386a.75.75 0 0 0-.22.53v2.334c0 .414.336.75.75.75h2.333a.75.75 0 0 0 .53-.22l8.167-8.166a.75.75 0 0 0 0-1.061L11.447 2.22zM3.5 12.5v-1.273l5.667-5.666 1.272 1.272L4.773 12.5H3.5zm8-6.727l.69-.69-1.273-1.272-.69.689L11.5 5.773z"/><path fill-rule="evenodd" clip-rule="evenodd" d="M11.447 2.22a.75.75 0 0 0-1.06 0L2.22 10.386a.75.75 0 0 0-.22.53v2.334c0 .414.336.75.75.75h2.333a.75.75 0 0 0 .53-.22l8.167-8.166a.75.75 0 0 0 0-1.061L11.447 2.22zM3.5 12.5v-1.273l5.667-5.666 1.272 1.272L4.773 12.5H3.5zm8-6.727l.69-.69-1.273-1.272-.69.689L11.5 5.773z"/><defs><linearGradient id="paint0_linear" x1="8" y1="0" x2="8" y2="16" gradientUnits="userSpaceOnUse"><stop stop-color="#fff"/><stop offset="1" stop-color="#fff" stop-opacity="0"/></linearGradient><linearGradient id="paint1_linear" x1="8" y1="0" x2="8" y2="16" gradientUnits="userSpaceOnUse"><stop stop-color="#fff"/><stop offset="1" stop-color="#fff" stop-opacity="0"/></linearGradient><linearGradient id="paint2_linear" x1="8" y1="2" x2="8" y2="14" gradientUnits="userSpaceOnUse"><stop stop-color="#fff"/><stop offset="1" stop-color="#fff" stop-opacity="0"/></linearGradient></defs></svg>