<svg width="24" height="24" viewBox="0 0 24 24" fill="none" xmlns="http://www.w3.org/2000/svg"><path d="M3.5.75a.75.75 0 00-.643.364l-1.5 2.5A.75.75 0 001.25 4v12c0 .414.336.75.75.75h8.5a.75.75 0 000-1.5H2.75V4.208L3.925 2.25h6.264l2.28 2.28a.75.75 0 00.531.22h6.25V9a.75.75 0 001.5 0V4a.75.75 0 00-.75-.75h-6.69L11.03.97a.75.75 0 00-.53-.22h-7z" fill="#23AAEA"/><path d="M9 5.75a.75.75 0 01.75.75v3.69l1.72-1.72a.75.75 0 111.06 1.06l-3 3a.748.748 0 01-1.06 0l-3-3a.75.75 0 011.06-1.06l1.72 1.72V6.5A.75.75 0 019 5.75z" fill="#23AAEA"/><path fill-rule="evenodd" clip-rule="evenodd" d="M21 15v-1.5c0-.657-.238-1.51-.783-2.21C19.65 10.56 18.751 10 17.5 10c-1.25 0-2.15.56-2.717 1.29-.545.7-.783 1.553-.783 2.21V15a2 2 0 00-2 2v4a2 2 0 002 2h7a2 2 0 002-2v-4a2 2 0 00-2-2zm-5.033-2.79c-.33.424-.467.947-.467 1.29V15h4v-1.5c0-.343-.137-.866-.467-1.29-.308-.395-.784-.71-1.533-.71-.75 0-1.225.315-1.533.71zM13.5 17a.5.5 0 01.5-.5h7a.5.5 0 01.5.5v4a.5.5 0 01-.5.5h-7a.5.5 0 01-.5-.5v-4z" fill="#23AAEA"/></svg>