<svg width="24" height="24" viewBox="0 0 24 24" fill="none" xmlns="http://www.w3.org/2000/svg"><path d="M11.999 7.956a.75.75 0 0 1 .75.75v6.001l3.224-3.182a.75.75 0 1 1 1.054 1.067l-4.5 4.442a.748.748 0 0 1-1.077-.023l-4.477-4.419a.75.75 0 1 1 1.054-1.067l3.222 3.18V8.706a.75.75 0 0 1 .75-.75z" fill="#fff"/><path d="M11.999 7.956a.75.75 0 0 1 .75.75v6.001l3.224-3.182a.75.75 0 1 1 1.054 1.067l-4.5 4.442a.748.748 0 0 1-1.077-.023l-4.477-4.419a.75.75 0 1 1 1.054-1.067l3.222 3.18V8.706a.75.75 0 0 1 .75-.75z" fill="url(#paint0_linear)"/><path fill-rule="evenodd" clip-rule="evenodd" d="M3 1.25a.75.75 0 0 0-.624.334l-2 3A.75.75 0 0 0 .25 5v16c0 .414.336.75.75.75h22a.75.75 0 0 0 .75-.75V5a.75.75 0 0 0-.75-.75h-8.149l-2.275-2.73A.75.75 0 0 0 12 1.25H3zM1.75 5.227L3.401 2.75h8.248l2.275 2.73a.75.75 0 0 0 .576.27h7.75v14.5H1.75V5.227z" fill="#fff"/><path fill-rule="evenodd" clip-rule="evenodd" d="M3 1.25a.75.75 0 0 0-.624.334l-2 3A.75.75 0 0 0 .25 5v16c0 .414.336.75.75.75h22a.75.75 0 0 0 .75-.75V5a.75.75 0 0 0-.75-.75h-8.149l-2.275-2.73A.75.75 0 0 0 12 1.25H3zM1.75 5.227L3.401 2.75h8.248l2.275 2.73a.75.75 0 0 0 .576.27h7.75v14.5H1.75V5.227z" fill="url(#paint1_linear)"/><defs><linearGradient id="paint0_linear" x1="12" y1="1.25" x2="12" y2="21.75" gradientUnits="userSpaceOnUse"><stop stop-color="#fff"/><stop offset="1" stop-color="#fff" stop-opacity="0"/></linearGradient><linearGradient id="paint1_linear" x1="12" y1="1.25" x2="12" y2="21.75" gradientUnits="userSpaceOnUse"><stop stop-color="#fff"/><stop offset="1" stop-color="#fff" stop-opacity="0"/></linearGradient></defs></svg>