<svg width="30" height="30" viewBox="0 0 30 30" fill="none" xmlns="http://www.w3.org/2000/svg"><g clip-path="url(#clip0)"><path fill-rule="evenodd" clip-rule="evenodd" d="M6.596 4.163C8.29 1.997 11 .25 15 .25s6.71 1.747 8.404 3.913C25.07 6.298 25.75 8.836 25.75 10.5v3.682a3.762 3.762 0 0 1 1.795 2.093c.396.062.892.24 1.328.552.59.421 1.127 1.13 1.127 2.173 0 1.043-.537 1.752-1.127 2.173-.436.312-.932.49-1.328.552a3.755 3.755 0 0 1-2.914 2.472c-.142.62-.393 1.402-.79 2.107-.526.94-1.432 1.946-2.841 1.946h-1.268A1.75 1.75 0 0 1 18 29.75h-3A1.75 1.75 0 0 1 13.25 28v-1c0-.966.784-1.75 1.75-1.75h3a1.75 1.75 0 0 1 1.732 1.5H21c.59 0 1.102-.41 1.533-1.18.238-.423.414-.895.536-1.32H22a1.75 1.75 0 0 1-1.75-1.75v-7c0-.966.784-1.75 1.75-1.75h.25V11c0-1.587-.571-3.413-1.762-4.83C19.314 4.772 17.522 3.75 15 3.75c-2.522 0-4.314 1.022-5.488 2.42C8.32 7.587 7.75 9.413 7.75 11v2.75H8c.966 0 1.75.784 1.75 1.75v7A1.75 1.75 0 0 1 8 24.25H6a3.752 3.752 0 0 1-3.545-2.525 3.232 3.232 0 0 1-1.328-.552C.537 20.752 0 20.043 0 19c0-1.043.537-1.752 1.127-2.173.436-.312.932-.49 1.328-.552a3.762 3.762 0 0 1 1.795-2.092V10.5c0-1.664.679-4.202 2.346-6.337zm21.406 15.79c-.084.059-.17.108-.252.147v-2.2c.082.04.168.088.252.148.285.204.498.495.498.952 0 .457-.213.748-.498.952zm-1.752.547a2.25 2.25 0 0 1-2 2.236v-7.472a2.25 2.25 0 0 1 2 2.236v3zm-3.5-5.25v7.5H22a.25.25 0 0 1-.25-.25v-7a.25.25 0 0 1 .25-.25h.75zM1.998 18.048c.084-.06.17-.109.252-.148v2.2a1.699 1.699 0 0 1-.252-.148c-.285-.204-.498-.495-.498-.952 0-.457.213-.748.498-.952zM23.75 13.75h.5V10.5c0-1.336-.571-3.548-2.029-5.413C20.79 3.253 18.502 1.75 15 1.75c-3.5 0-5.79 1.503-7.221 3.337C6.32 6.952 5.75 9.164 5.75 10.5v3.25h.5V11c0-1.913.679-4.087 2.113-5.795C9.814 3.478 12.023 2.25 15 2.25c2.978 0 5.186 1.228 6.637 2.955C23.07 6.913 23.75 9.087 23.75 11v2.75zm-20 3.75a2.25 2.25 0 0 1 2-2.236v7.472a2.25 2.25 0 0 1-2-2.236v-3zm3.5 5.25v-7.5H8a.25.25 0 0 1 .25.25v7a.25.25 0 0 1-.25.25h-.75zm7.5 4.25a.25.25 0 0 1 .25-.25h3a.25.25 0 0 1 .25.25v1a.25.25 0 0 1-.25.25h-3a.25.25 0 0 1-.25-.25v-1z" fill="#BAC1CC"/></g><defs><clipPath id="clip0"><path fill="#fff" d="M0 0h30v30H0z"/></clipPath></defs></svg>