<svg width="24" height="24" viewBox="0 0 24 24" fill="none" xmlns="http://www.w3.org/2000/svg"><g opacity=".01"><path fill="#fff" d="M.5.5h23v23H.5z"/><path fill="url(#paint0_linear)" d="M.5.5h23v23H.5z"/><path stroke="#fff" d="M.5.5h23v23H.5z"/><path stroke="url(#paint1_linear)" d="M.5.5h23v23H.5z"/></g><path fill-rule="evenodd" clip-rule="evenodd" d="M1.251 2a.75.75 0 01.75-.75h18a.75.75 0 01.75.75v13a.75.75 0 01-1.5 0v-3.25h-16.5v7.5h5.25a.75.75 0 010 1.5h-6a.75.75 0 01-.75-.75V2zm1.5 8.25h16.5v-7.5h-16.5v7.5zm5.75-5a.75.75 0 01.75.75v.25h3.5V6a.75.75 0 011.5 0v1a.75.75 0 01-.75.75h-5a.75.75 0 01-.75-.75V6a.75.75 0 01.75-.75zm0 9a.75.75 0 01.75.75v.25h3.5V15a.75.75 0 011.5 0v1a.75.75 0 01-.75.75h-5a.75.75 0 01-.75-.75v-1a.75.75 0 01.75-.75zm13.97 1.22a.75.75 0 011.06 1.06l-7 7a.75.75 0 01-1.06 0l-4-4a.75.75 0 011.06-1.06l3.47 3.47 6.47-6.47z" fill="#0C2947"/><defs><linearGradient id="paint0_linear" x1="12" y1="0" x2="12" y2="24" gradientUnits="userSpaceOnUse"><stop stop-color="#fff"/><stop offset="1" stop-color="#fff" stop-opacity="0"/></linearGradient><linearGradient id="paint1_linear" x1="12" y1="0" x2="12" y2="24" gradientUnits="userSpaceOnUse"><stop stop-color="#fff"/><stop offset="1" stop-color="#fff" stop-opacity="0"/></linearGradient></defs></svg>