<svg width="38" height="38" viewBox="0 0 38 38" fill="none" xmlns="http://www.w3.org/2000/svg"><path fill-rule="evenodd" clip-rule="evenodd" d="M1.25 8c0-.966.784-1.75 1.75-1.75h32c.967 0 1.75.784 1.75 1.75v22A1.75 1.75 0 0 1 35 31.75H3A1.75 1.75 0 0 1 1.25 30V8zM3 7.75a.25.25 0 0 0-.25.25v22c0 .138.112.25.25.25h32a.25.25 0 0 0 .25-.25V8a.25.25 0 0 0-.25-.25H3z" fill="#6F7B8E"/><path fill-rule="evenodd" clip-rule="evenodd" d="M4.47 9.136a.75.75 0 0 1 1.06 0l9 9c.16.16.318.329.48.5.408.434.839.892 1.385 1.311.728.56 1.571.97 2.605.97 1.033 0 1.876-.41 2.605-.97.545-.42.976-.877 1.384-1.31.162-.172.32-.34.48-.5l9-9a.75.75 0 0 1 1.061 1.06l-9 9c-.108.108-.233.24-.372.389-.425.452-.989 1.05-1.639 1.55-.896.69-2.053 1.28-3.52 1.28-1.466 0-2.623-.59-3.52-1.28-.649-.5-1.212-1.098-1.637-1.55-.14-.149-.265-.281-.373-.389l-9-9a.75.75 0 0 1 0-1.06zm8.06 11a.75.75 0 0 1 0 1.061l-7 7a.75.75 0 1 1-1.06-1.06l7-7a.75.75 0 0 1 1.06 0zm12.94 0a.75.75 0 0 1 1.06 0l7 7a.75.75 0 0 1-1.06 1.061l-7-7a.75.75 0 0 1 0-1.06z" fill="#6F7B8E"/></svg>