<svg width="24" height="24" viewBox="0 0 24 24" fill="none" xmlns="http://www.w3.org/2000/svg"><path fill-rule="evenodd" clip-rule="evenodd" d="M15.135 15.749H8.863a5.115 5.115 0 0 0-5.078 4.5h16.428a5.115 5.115 0 0 0-5.078-4.5zm-6.272-2.25a7.364 7.364 0 0 0-7.364 7.364c0 .903.733 1.636 1.636 1.636h17.728c.903 0 1.636-.733 1.636-1.636a7.364 7.364 0 0 0-7.364-7.364H8.863z" fill="#fff"/><path fill-rule="evenodd" clip-rule="evenodd" d="M15.135 15.749H8.863a5.115 5.115 0 0 0-5.078 4.5h16.428a5.115 5.115 0 0 0-5.078-4.5zm-6.272-2.25a7.364 7.364 0 0 0-7.364 7.364c0 .903.733 1.636 1.636 1.636h17.728c.903 0 1.636-.733 1.636-1.636a7.364 7.364 0 0 0-7.364-7.364H8.863z" fill="url(#paint0_linear)"/><path fill-rule="evenodd" clip-rule="evenodd" d="M11.999 9.749a3 3 0 1 0 0-6 3 3 0 0 0 0 6zm0 2.25a5.25 5.25 0 1 0 0-10.5 5.25 5.25 0 0 0 0 10.5z" fill="#fff"/><path fill-rule="evenodd" clip-rule="evenodd" d="M11.999 9.749a3 3 0 1 0 0-6 3 3 0 0 0 0 6zm0 2.25a5.25 5.25 0 1 0 0-10.5 5.25 5.25 0 0 0 0 10.5z" fill="url(#paint1_linear)"/><defs><linearGradient id="paint0_linear" x1="11.999" y1="1.499" x2="11.999" y2="22.499" gradientUnits="userSpaceOnUse"><stop stop-color="#fff"/><stop offset="1" stop-color="#fff" stop-opacity="0"/></linearGradient><linearGradient id="paint1_linear" x1="11.999" y1="1.499" x2="11.999" y2="22.499" gradientUnits="userSpaceOnUse"><stop stop-color="#fff"/><stop offset="1" stop-color="#fff" stop-opacity="0"/></linearGradient></defs></svg>