<svg width="24" height="24" viewBox="0 0 24 24" fill="none" xmlns="http://www.w3.org/2000/svg"><g opacity=".01"><path fill="#fff" d="M.5.5h23v23H.5z"/><path fill="url(#paint0_linear)" d="M.5.5h23v23H.5z"/><path stroke="#fff" d="M.5.5h23v23H.5z"/><path stroke="url(#paint1_linear)" d="M.5.5h23v23H.5z"/></g><path fill-rule="evenodd" clip-rule="evenodd" d="M1.921 12.116a14.824 14.824 0 0 0 2.343 2.362C6.01 15.876 8.55 17.25 11.8 17.25s5.789-1.373 7.535-2.773a14.829 14.829 0 0 0 1.983-1.92c.143-.168.263-.317.36-.441a15.139 15.139 0 0 0-2.355-2.478C17.575 8.178 15.04 6.75 11.8 6.75c-3.24 0-5.775 1.427-7.523 2.888a15.144 15.144 0 0 0-2.355 2.478zm20.678.009l.634-.4-.001-.003-.004-.005-.01-.017a9.12 9.12 0 0 0-.186-.272c-.129-.18-.317-.434-.564-.735a16.642 16.642 0 0 0-2.184-2.206c-1.917-1.602-4.782-3.237-8.485-3.237-3.703 0-6.568 1.635-8.485 3.237a16.64 16.64 0 0 0-2.184 2.206 13.695 13.695 0 0 0-.71.947l-.04.06-.01.017-.004.005v.002s-.002.001.633.401l-.635-.4a.75.75 0 0 0 .008.812L1 12.125l-.627.412.002.003.004.005.01.017a5.013 5.013 0 0 0 .188.262c.128.173.316.416.564.706a16.323 16.323 0 0 0 2.186 2.118c1.919 1.538 4.78 3.102 8.473 3.102 3.694 0 6.554-1.564 8.473-3.102.96-.77 1.692-1.54 2.186-2.118a13.215 13.215 0 0 0 .712-.91l.04-.058.01-.017.004-.005.001-.002s.001-.001-.626-.413zm0 0l.627.412a.75.75 0 0 0 .007-.812l-.634.4zM12 8.75a3.25 3.25 0 1 0 0 6.5 3.25 3.25 0 0 0 0-6.5zM7.25 12a4.75 4.75 0 1 1 9.5 0 4.75 4.75 0 0 1-9.5 0z" fill="#6F7B8E"/><path d="M13.5 12a1.5 1.5 0 1 1-3 0 1.5 1.5 0 0 1 3 0z" fill="#6F7B8E"/><defs><linearGradient id="paint0_linear" x1="12" y1="0" x2="12" y2="24" gradientUnits="userSpaceOnUse"><stop stop-color="#fff"/><stop offset="1" stop-color="#fff" stop-opacity="0"/></linearGradient><linearGradient id="paint1_linear" x1="12" y1="0" x2="12" y2="24" gradientUnits="userSpaceOnUse"><stop stop-color="#fff"/><stop offset="1" stop-color="#fff" stop-opacity="0"/></linearGradient></defs></svg>