<svg width="24" height="24" viewBox="0 0 24 24" fill="none" xmlns="http://www.w3.org/2000/svg"><g opacity=".01"><path fill="#fff" d="M.5.5h23v23H.5z"/><path fill="url(#paint0_linear)" d="M.5.5h23v23H.5z"/><path stroke="#fff" d="M.5.5h23v23H.5z"/><path stroke="url(#paint1_linear)" d="M.5.5h23v23H.5z"/></g><path fill-rule="evenodd" clip-rule="evenodd" d="M12 3.75c-7.046 0-9.25 4.866-9.25 7.25 0 2.02 1.184 3.646 1.816 4.372a.75.75 0 01.14.749l-.9 2.478 2.89-1.284a.75.75 0 01.617.003c.919.422 2.312.932 4.687.932 7.046 0 9.25-4.866 9.25-7.25 0-2.384-2.204-7.25-9.25-7.25zM1.25 11c0-3.13 2.796-8.75 10.75-8.75 7.954 0 10.75 5.62 10.75 8.75S19.954 19.75 12 19.75c-2.383 0-3.926-.47-5-.93l-4.195 1.865a.75.75 0 01-1.01-.94l1.353-3.732c-.753-.95-1.898-2.75-1.898-5.013z" fill="#fff"/><path fill-rule="evenodd" clip-rule="evenodd" d="M12 3.75c-7.046 0-9.25 4.866-9.25 7.25 0 2.02 1.184 3.646 1.816 4.372a.75.75 0 01.14.749l-.9 2.478 2.89-1.284a.75.75 0 01.617.003c.919.422 2.312.932 4.687.932 7.046 0 9.25-4.866 9.25-7.25 0-2.384-2.204-7.25-9.25-7.25zM1.25 11c0-3.13 2.796-8.75 10.75-8.75 7.954 0 10.75 5.62 10.75 8.75S19.954 19.75 12 19.75c-2.383 0-3.926-.47-5-.93l-4.195 1.865a.75.75 0 01-1.01-.94l1.353-3.732c-.753-.95-1.898-2.75-1.898-5.013z" fill="url(#paint2_linear)"/><path d="M12 8a1 1 0 100-2 1 1 0 000 2z" fill="#fff"/><path d="M12 8a1 1 0 100-2 1 1 0 000 2z" fill="url(#paint3_linear)"/><path d="M13 10.5a1 1 0 10-2 0V15a1 1 0 102 0v-4.5z" fill="#fff"/><path d="M13 10.5a1 1 0 10-2 0V15a1 1 0 102 0v-4.5z" fill="url(#paint4_linear)"/><defs><linearGradient id="paint0_linear" x1="12" y1="0" x2="12" y2="24" gradientUnits="userSpaceOnUse"><stop stop-color="#fff"/><stop offset="1" stop-color="#fff" stop-opacity="0"/></linearGradient><linearGradient id="paint1_linear" x1="12" y1="0" x2="12" y2="24" gradientUnits="userSpaceOnUse"><stop stop-color="#fff"/><stop offset="1" stop-color="#fff" stop-opacity="0"/></linearGradient><linearGradient id="paint2_linear" x1="12" y1="2.25" x2="12" y2="20.75" gradientUnits="userSpaceOnUse"><stop stop-color="#fff"/><stop offset="1" stop-color="#fff" stop-opacity="0"/></linearGradient><linearGradient id="paint3_linear" x1="12" y1="2.25" x2="12" y2="20.75" gradientUnits="userSpaceOnUse"><stop stop-color="#fff"/><stop offset="1" stop-color="#fff" stop-opacity="0"/></linearGradient><linearGradient id="paint4_linear" x1="12" y1="2.25" x2="12" y2="20.75" gradientUnits="userSpaceOnUse"><stop stop-color="#fff"/><stop offset="1" stop-color="#fff" stop-opacity="0"/></linearGradient></defs></svg>