<svg width="30" height="30" viewBox="0 0 30 30" fill="none" xmlns="http://www.w3.org/2000/svg"><path d="M20.53 9.47a.75.75 0 0 1 0 1.06L16.06 15l4.47 4.47a.75.75 0 1 1-1.06 1.06L15 16.06l-4.47 4.47a.75.75 0 1 1-1.06-1.06L13.94 15l-4.47-4.47a.75.75 0 1 1 1.06-1.06L15 13.94l4.47-4.47a.75.75 0 0 1 1.06 0z" fill="#fff"/><path d="M20.53 9.47a.75.75 0 0 1 0 1.06L16.06 15l4.47 4.47a.75.75 0 1 1-1.06 1.06L15 16.06l-4.47 4.47a.75.75 0 1 1-1.06-1.06L13.94 15l-4.47-4.47a.75.75 0 1 1 1.06-1.06L15 13.94l4.47-4.47a.75.75 0 0 1 1.06 0z" fill="url(#paint0_linear)"/><path fill-rule="evenodd" clip-rule="evenodd" d="M27.75 2.25H2.25v25.5h25.5V2.25zm-24 24V3.75h22.5v22.5H3.75z" fill="#fff"/><path fill-rule="evenodd" clip-rule="evenodd" d="M27.75 2.25H2.25v25.5h25.5V2.25zm-24 24V3.75h22.5v22.5H3.75z" fill="url(#paint1_linear)"/><defs><linearGradient id="paint0_linear" x1="15" y1="2.25" x2="15" y2="27.75" gradientUnits="userSpaceOnUse"><stop stop-color="#fff"/><stop offset="1" stop-color="#fff" stop-opacity="0"/></linearGradient><linearGradient id="paint1_linear" x1="15" y1="2.25" x2="15" y2="27.75" gradientUnits="userSpaceOnUse"><stop stop-color="#fff"/><stop offset="1" stop-color="#fff" stop-opacity="0"/></linearGradient></defs></svg>