<svg width="24" height="24" viewBox="0 0 24 24" fill="none" xmlns="http://www.w3.org/2000/svg"><g opacity=".01"><path fill="#fff" d="M.5.5h23v23H.5z"/><path fill="url(#paint0_linear)" d="M.5.5h23v23H.5z"/><path stroke="#fff" d="M.5.5h23v23H.5z"/><path stroke="url(#paint1_linear)" d="M.5.5h23v23H.5z"/></g><path fill-rule="evenodd" clip-rule="evenodd" d="M7.25 3A.75.75 0 0 1 8 2.25h11a.75.75 0 0 1 .75.75v15a.75.75 0 0 1-1.5 0V3.75H8A.75.75 0 0 1 7.25 3zm-3 3A.75.75 0 0 1 5 5.25h11a.75.75 0 0 1 .75.75v15a.75.75 0 0 1-.75.75H5a.75.75 0 0 1-.75-.75V6zm1.5.75v13.5h9.5V6.75h-9.5z" fill="#0C2947"/><defs><linearGradient id="paint0_linear" x1="12" y1="0" x2="12" y2="24" gradientUnits="userSpaceOnUse"><stop stop-color="#fff"/><stop offset="1" stop-color="#fff" stop-opacity="0"/></linearGradient><linearGradient id="paint1_linear" x1="12" y1="0" x2="12" y2="24" gradientUnits="userSpaceOnUse"><stop stop-color="#fff"/><stop offset="1" stop-color="#fff" stop-opacity="0"/></linearGradient></defs></svg>