<svg width="24" height="24" viewBox="0 0 24 24" fill="none" xmlns="http://www.w3.org/2000/svg"><path fill-rule="evenodd" clip-rule="evenodd" d="M12.5 2.25a4 4 0 1 0 0 8 4 4 0 0 0 0-8zm-5.5 4a5.5 5.5 0 1 1 11 0 5.5 5.5 0 0 1-11 0zM1.5 20.5c0-3.987 3.662-7 7.5-7h6c2.221 0 3.873 1.014 4.416 1.376a.75.75 0 1 1-.832 1.248C18.127 15.82 16.779 15 15 15H9c-3.162 0-6 2.487-6 5.5a2.396 2.396 0 0 0 .043.5H9.5a.75.75 0 0 1 0 1.5H3c-.38 0-.85-.112-1.169-.575-.264-.384-.331-.893-.331-1.425zm22.03-5.03a.75.75 0 0 1 0 1.06l-7 7a.75.75 0 0 1-1.06 0l-4-4a.75.75 0 1 1 1.06-1.06L16 21.94l6.47-6.47a.75.75 0 0 1 1.06 0z" fill="#67B930"/></svg>