<svg width="24" height="24" viewBox="0 0 24 24" fill="none" xmlns="http://www.w3.org/2000/svg"><g opacity=".01"><path fill="#fff" d="M.5.5h23v23H.5z"/><path fill="url(#paint0_linear)" d="M.5.5h23v23H.5z"/><path stroke="#fff" d="M.5.5h23v23H.5z"/><path stroke="url(#paint1_linear)" d="M.5.5h23v23H.5z"/></g><path d="M20.414 6.67a6.799 6.799 0 0 1-1.627 1.677 9.267 9.267 0 0 1-.372 3.033 9.353 9.353 0 0 1-1.165 2.492 9.802 9.802 0 0 1-1.848 2.119c-.717.61-1.58 1.098-2.592 1.467A9.564 9.564 0 0 1 9.566 18a9.01 9.01 0 0 1-4.982-1.456c.234.026.495.04.783.04 1.507 0 2.85-.462 4.028-1.386a3.181 3.181 0 0 1-1.888-.643 3.2 3.2 0 0 1-1.145-1.607c.22.033.425.05.612.05.288 0 .573-.037.854-.11a3.224 3.224 0 0 1-1.868-1.116 3.167 3.167 0 0 1-.734-2.069v-.04c.456.254.945.392 1.467.412A3.24 3.24 0 0 1 5.638 8.92a3.161 3.161 0 0 1-.391-1.547c0-.59.147-1.135.442-1.638a9.274 9.274 0 0 0 2.953 2.401 9.123 9.123 0 0 0 3.736.995 3.602 3.602 0 0 1-.08-.744c0-.897.315-1.66.944-2.29a3.135 3.135 0 0 1 2.3-.954c.938 0 1.728.341 2.37 1.024a6.361 6.361 0 0 0 2.06-.783 3.15 3.15 0 0 1-1.426 1.788 6.465 6.465 0 0 0 1.868-.502z" fill="#0C2947"/><defs><linearGradient id="paint0_linear" x1="12" y1="0" x2="12" y2="24" gradientUnits="userSpaceOnUse"><stop stop-color="#fff"/><stop offset="1" stop-color="#fff" stop-opacity="0"/></linearGradient><linearGradient id="paint1_linear" x1="12" y1="0" x2="12" y2="24" gradientUnits="userSpaceOnUse"><stop stop-color="#fff"/><stop offset="1" stop-color="#fff" stop-opacity="0"/></linearGradient></defs></svg>