<svg width="24" height="24" viewBox="0 0 24 24" fill="none" xmlns="http://www.w3.org/2000/svg"><path d="M12 6.45c-1.306 0-2.399.691-3.141 1.557-.736.86-1.21 1.981-1.21 3.011V13.2a.75.75 0 101.5 0v-2.182c0-.606.3-1.393.849-2.034C10.54 8.35 11.248 7.95 12 7.95a.75.75 0 000-1.5z" fill="#fff"/><path d="M12 6.45c-1.306 0-2.399.691-3.141 1.557-.736.86-1.21 1.981-1.21 3.011V13.2a.75.75 0 101.5 0v-2.182c0-.606.3-1.393.849-2.034C10.54 8.35 11.248 7.95 12 7.95a.75.75 0 000-1.5z" fill="url(#paint0_linear)"/><path fill-rule="evenodd" clip-rule="evenodd" d="M13.964 3.78a2.4 2.4 0 10-3.929 0A7.003 7.003 0 005 10.5v5a2 2 0 00-2 2v1a2 2 0 002 2h3.5a3.5 3.5 0 107 0H19a2 2 0 002-2v-1a2 2 0 00-2-2v-5a7.003 7.003 0 00-5.036-6.72zM12.9 2.4a.9.9 0 11-1.8 0 .9.9 0 011.8 0zM14 20.5h-4a1.996 1.996 0 002 2 1.996 1.996 0 002-2zm5-1.5a.5.5 0 00.5-.5v-1a.5.5 0 00-.5-.5h-1.5v-6.5a5.5 5.5 0 10-11 0V17H5a.5.5 0 00-.5.5v1a.5.5 0 00.5.5h14z" fill="#fff"/><path fill-rule="evenodd" clip-rule="evenodd" d="M13.964 3.78a2.4 2.4 0 10-3.929 0A7.003 7.003 0 005 10.5v5a2 2 0 00-2 2v1a2 2 0 002 2h3.5a3.5 3.5 0 107 0H19a2 2 0 002-2v-1a2 2 0 00-2-2v-5a7.003 7.003 0 00-5.036-6.72zM12.9 2.4a.9.9 0 11-1.8 0 .9.9 0 011.8 0zM14 20.5h-4a1.996 1.996 0 002 2 1.996 1.996 0 002-2zm5-1.5a.5.5 0 00.5-.5v-1a.5.5 0 00-.5-.5h-1.5v-6.5a5.5 5.5 0 10-11 0V17H5a.5.5 0 00-.5.5v1a.5.5 0 00.5.5h14z" fill="url(#paint1_linear)"/><defs><linearGradient id="paint0_linear" x1="12" y1="0" x2="12" y2="24" gradientUnits="userSpaceOnUse"><stop stop-color="#fff"/><stop offset="1" stop-color="#fff" stop-opacity="0"/></linearGradient><linearGradient id="paint1_linear" x1="12" y1="0" x2="12" y2="24" gradientUnits="userSpaceOnUse"><stop stop-color="#fff"/><stop offset="1" stop-color="#fff" stop-opacity="0"/></linearGradient></defs></svg>