<svg width="24" height="24" viewBox="0 0 24 24" fill="none" xmlns="http://www.w3.org/2000/svg"><g opacity=".01"><path fill="#fff" d="M.5.5h23v23H.5z"/><path fill="url(#paint0_linear)" d="M.5.5h23v23H.5z"/><path stroke="#fff" d="M.5.5h23v23H.5z"/><path stroke="url(#paint1_linear)" d="M.5.5h23v23H.5z"/></g><path d="M8.72 14.705c.374.375.562.83.562 1.367 0 .535-.188.99-.563 1.366A1.86 1.86 0 0 1 7.353 18a1.86 1.86 0 0 1-1.366-.563 1.86 1.86 0 0 1-.562-1.366c0-.535.187-.99.562-1.366a1.86 1.86 0 0 1 1.366-.562c.536 0 .991.187 1.366.562zm5.705 2.602a.608.608 0 0 1-.171.482.592.592 0 0 1-.472.211h-1.356a.628.628 0 0 1-.432-.16.63.63 0 0 1-.2-.423 6.215 6.215 0 0 0-1.86-3.927 6.216 6.216 0 0 0-3.927-1.858.63.63 0 0 1-.421-.201.628.628 0 0 1-.161-.432V9.643c0-.194.07-.352.21-.472A.585.585 0 0 1 6.069 9h.05a8.938 8.938 0 0 1 3.074.814 8.804 8.804 0 0 1 2.601 1.818 8.804 8.804 0 0 1 1.818 2.601c.455.978.727 2.002.814 3.074zm5.143.02a.58.58 0 0 1-.181.472.594.594 0 0 1-.462.201h-1.437a.656.656 0 0 1-.452-.17.627.627 0 0 1-.19-.433A11.19 11.19 0 0 0 15.83 13.3a11.408 11.408 0 0 0-2.33-3.375 11.408 11.408 0 0 0-3.375-2.33A11.334 11.334 0 0 0 6.026 6.57a.627.627 0 0 1-.431-.19.643.643 0 0 1-.171-.443V4.5c0-.187.067-.341.2-.462a.606.606 0 0 1 .443-.18h.03c1.754.086 3.432.488 5.032 1.205 1.607.716 3.034 1.7 4.28 2.953a14.062 14.062 0 0 1 2.952 4.279 13.897 13.897 0 0 1 1.206 5.032z" fill="#0C2947"/><defs><linearGradient id="paint0_linear" x1="12" y1="0" x2="12" y2="24" gradientUnits="userSpaceOnUse"><stop stop-color="#fff"/><stop offset="1" stop-color="#fff" stop-opacity="0"/></linearGradient><linearGradient id="paint1_linear" x1="12" y1="0" x2="12" y2="24" gradientUnits="userSpaceOnUse"><stop stop-color="#fff"/><stop offset="1" stop-color="#fff" stop-opacity="0"/></linearGradient></defs></svg>