<svg width="30" height="30" viewBox="0 0 30 30" fill="none" xmlns="http://www.w3.org/2000/svg"><path fill-rule="evenodd" clip-rule="evenodd" d="M7.11 12.013c-.788.84-1.36 2.148-1.36 3.987 0 3.046 2.623 5.25 5.25 5.25 1.287 0 2.379-.537 3.162-1.152A5.25 5.25 0 0015 19.28v-2.363a.75.75 0 01.22-.53l8.166-8.167a.75.75 0 011.061 0l2.333 2.333a.75.75 0 010 1.06l-8.166 8.167a.75.75 0 01-.53.22h-1.747a4.342 4.342 0 01-.102.137c-.274.356-.662.76-1.147 1.14-.967.76-2.375 1.473-4.088 1.473-3.373 0-6.75-2.796-6.75-6.75 0-2.16.678-3.854 1.765-5.013A5.445 5.445 0 0110 9.25c.91 0 1.844.302 2.56.94.731.649 1.19 1.607 1.19 2.81 0 1.383-.892 2.255-1.888 2.586-.941.314-2.14.198-2.892-.556a.75.75 0 111.06-1.06c.247.246.799.38 1.358.194.504-.169.862-.546.862-1.164 0-.796-.291-1.339-.686-1.69-.408-.362-.974-.56-1.564-.56a3.945 3.945 0 00-2.89 1.263zm9.449 6.487h1.214l5.583-5.583-1.273-1.273-5.583 5.583v1.214a.82.82 0 01.059.059zm8.63-7.417l-.772.773-1.273-1.273.773-.772 1.272 1.272z" fill="#fff"/><path fill-rule="evenodd" clip-rule="evenodd" d="M7.11 12.013c-.788.84-1.36 2.148-1.36 3.987 0 3.046 2.623 5.25 5.25 5.25 1.287 0 2.379-.537 3.162-1.152A5.25 5.25 0 0015 19.28v-2.363a.75.75 0 01.22-.53l8.166-8.167a.75.75 0 011.061 0l2.333 2.333a.75.75 0 010 1.06l-8.166 8.167a.75.75 0 01-.53.22h-1.747a4.342 4.342 0 01-.102.137c-.274.356-.662.76-1.147 1.14-.967.76-2.375 1.473-4.088 1.473-3.373 0-6.75-2.796-6.75-6.75 0-2.16.678-3.854 1.765-5.013A5.445 5.445 0 0110 9.25c.91 0 1.844.302 2.56.94.731.649 1.19 1.607 1.19 2.81 0 1.383-.892 2.255-1.888 2.586-.941.314-2.14.198-2.892-.556a.75.75 0 111.06-1.06c.247.246.799.38 1.358.194.504-.169.862-.546.862-1.164 0-.796-.291-1.339-.686-1.69-.408-.362-.974-.56-1.564-.56a3.945 3.945 0 00-2.89 1.263zm9.449 6.487h1.214l5.583-5.583-1.273-1.273-5.583 5.583v1.214a.82.82 0 01.059.059zm8.63-7.417l-.772.773-1.273-1.273.773-.772 1.272 1.272z" fill="url(#paint0_linear)"/><path fill-rule="evenodd" clip-rule="evenodd" d="M.25 26.75V3.25h29.5v23.5H.25zm1.5-22v20.5h26.5V4.75H1.75z" fill="#fff"/><path fill-rule="evenodd" clip-rule="evenodd" d="M.25 26.75V3.25h29.5v23.5H.25zm1.5-22v20.5h26.5V4.75H1.75z" fill="url(#paint1_linear)"/><defs><linearGradient id="paint0_linear" x1="15" y1="3.25" x2="15" y2="26.75" gradientUnits="userSpaceOnUse"><stop stop-color="#fff"/><stop offset="1" stop-color="#fff" stop-opacity="0"/></linearGradient><linearGradient id="paint1_linear" x1="15" y1="3.25" x2="15" y2="26.75" gradientUnits="userSpaceOnUse"><stop stop-color="#fff"/><stop offset="1" stop-color="#fff" stop-opacity="0"/></linearGradient></defs></svg>