<svg width="30" height="30" viewBox="0 0 30 30" fill="none" xmlns="http://www.w3.org/2000/svg"><g clip-path="url(#clip0)"><path fill-rule="evenodd" clip-rule="evenodd" d="M.25.625A.75.75 0 0 1 1-.125h28a.75.75 0 0 1 .75.75v28.75a.75.75 0 0 1-.75.75H1a.75.75 0 0 1-.75-.75V.625zm1.5.75v3.5h26.5v-3.5H1.75zm26.5 5H1.75v22.25h26.5V6.375z" fill="#fff"/><path fill-rule="evenodd" clip-rule="evenodd" d="M.25.625A.75.75 0 0 1 1-.125h28a.75.75 0 0 1 .75.75v28.75a.75.75 0 0 1-.75.75H1a.75.75 0 0 1-.75-.75V.625zm1.5.75v3.5h26.5v-3.5H1.75zm26.5 5H1.75v22.25h26.5V6.375z" fill="url(#paint0_linear)"/><path fill-rule="evenodd" clip-rule="evenodd" d="M3.75 8.25h22.5v14.5H3.75V8.25zm1.5 1.5v11.5h19.5V9.75H5.25zm7 1.487l7.816 4.263-7.816 4.263v-8.526zm1.5 2.526v3.474l3.184-1.737-3.184-1.737z" fill="#fff"/><path fill-rule="evenodd" clip-rule="evenodd" d="M3.75 8.25h22.5v14.5H3.75V8.25zm1.5 1.5v11.5h19.5V9.75H5.25zm7 1.487l7.816 4.263-7.816 4.263v-8.526zm1.5 2.526v3.474l3.184-1.737-3.184-1.737z" fill="url(#paint1_linear)"/><path fill-rule="evenodd" clip-rule="evenodd" d="M6.25 25.25V24h1.5v1.25H26v1.5H7.75V28h-1.5v-1.25H4v-1.5h2.25z" fill="#fff"/><path fill-rule="evenodd" clip-rule="evenodd" d="M6.25 25.25V24h1.5v1.25H26v1.5H7.75V28h-1.5v-1.25H4v-1.5h2.25z" fill="url(#paint2_linear)"/><path d="M3.25 2.5H4.5v1.25H3.25V2.5z" fill="#fff"/><path d="M3.25 2.5H4.5v1.25H3.25V2.5z" fill="url(#paint3_linear)"/><path d="M5.75 2.5H7v1.25H5.75V2.5z" fill="#fff"/><path d="M5.75 2.5H7v1.25H5.75V2.5z" fill="url(#paint4_linear)"/><path d="M8.25 2.5H9.5v1.25H8.25V2.5z" fill="#fff"/><path d="M8.25 2.5H9.5v1.25H8.25V2.5z" fill="url(#paint5_linear)"/></g><defs><linearGradient id="paint0_linear" x1="15" y1="-.125" x2="15" y2="30.125" gradientUnits="userSpaceOnUse"><stop stop-color="#fff"/><stop offset="1" stop-color="#fff" stop-opacity="0"/></linearGradient><linearGradient id="paint1_linear" x1="15" y1="-.125" x2="15" y2="30.125" gradientUnits="userSpaceOnUse"><stop stop-color="#fff"/><stop offset="1" stop-color="#fff" stop-opacity="0"/></linearGradient><linearGradient id="paint2_linear" x1="15" y1="-.125" x2="15" y2="30.125" gradientUnits="userSpaceOnUse"><stop stop-color="#fff"/><stop offset="1" stop-color="#fff" stop-opacity="0"/></linearGradient><linearGradient id="paint3_linear" x1="15" y1="-.125" x2="15" y2="30.125" gradientUnits="userSpaceOnUse"><stop stop-color="#fff"/><stop offset="1" stop-color="#fff" stop-opacity="0"/></linearGradient><linearGradient id="paint4_linear" x1="15" y1="-.125" x2="15" y2="30.125" gradientUnits="userSpaceOnUse"><stop stop-color="#fff"/><stop offset="1" stop-color="#fff" stop-opacity="0"/></linearGradient><linearGradient id="paint5_linear" x1="15" y1="-.125" x2="15" y2="30.125" gradientUnits="userSpaceOnUse"><stop stop-color="#fff"/><stop offset="1" stop-color="#fff" stop-opacity="0"/></linearGradient><clipPath id="clip0"><path fill="#fff" d="M0 0h30v30H0z"/></clipPath></defs></svg>