<svg width="24" height="24" viewBox="0 0 24 24" fill="none" xmlns="http://www.w3.org/2000/svg"><path d="M13 18a1 1 0 1 1-2 0 1 1 0 0 1 2 0z" fill="#fff"/><path d="M13 18a1 1 0 1 1-2 0 1 1 0 0 1 2 0z" fill="url(#paint0_linear)"/><path d="M12 7a1 1 0 0 0-1 1v6a1 1 0 1 0 2 0V8a1 1 0 0 0-1-1z" fill="#fff"/><path d="M12 7a1 1 0 0 0-1 1v6a1 1 0 1 0 2 0V8a1 1 0 0 0-1-1z" fill="url(#paint1_linear)"/><path fill-rule="evenodd" clip-rule="evenodd" d="M10.051 2.875c.866-1.5 3.031-1.5 3.897 0l9.094 15.75c.866 1.5-.217 3.375-1.949 3.375H2.907C1.175 22 .092 20.125.958 18.625l9.093-15.75zm2.598.75a.75.75 0 0 0-1.299 0l-9.093 15.75a.75.75 0 0 0 .65 1.125h18.186a.75.75 0 0 0 .65-1.125L12.65 3.625z" fill="#fff"/><path fill-rule="evenodd" clip-rule="evenodd" d="M10.051 2.875c.866-1.5 3.031-1.5 3.897 0l9.094 15.75c.866 1.5-.217 3.375-1.949 3.375H2.907C1.175 22 .092 20.125.958 18.625l9.093-15.75zm2.598.75a.75.75 0 0 0-1.299 0l-9.093 15.75a.75.75 0 0 0 .65 1.125h18.186a.75.75 0 0 0 .65-1.125L12.65 3.625z" fill="url(#paint2_linear)"/><defs><linearGradient id="paint0_linear" x1="12" y1="7" x2="12" y2="19" gradientUnits="userSpaceOnUse"><stop stop-color="#fff"/><stop offset="1" stop-color="#fff" stop-opacity="0"/></linearGradient><linearGradient id="paint1_linear" x1="12" y1="7" x2="12" y2="19" gradientUnits="userSpaceOnUse"><stop stop-color="#fff"/><stop offset="1" stop-color="#fff" stop-opacity="0"/></linearGradient><linearGradient id="paint2_linear" x1="12" y1="1.75" x2="12" y2="22" gradientUnits="userSpaceOnUse"><stop stop-color="#fff"/><stop offset="1" stop-color="#fff" stop-opacity="0"/></linearGradient></defs></svg>