<svg width="90" height="90" viewBox="0 0 90 90" fill="none" xmlns="http://www.w3.org/2000/svg"><g clip-path="url(#clip0)"><path d="M33 6h3v3h-3V6zm6 0h3v3h-3V6zm6 0h3v3h-3V6zM6 81h3v3H6v-3zm6 0h30v3H12v-3zm33 0h3v3h-3v-3z" fill="#23AAEA"/><path d="M27 0v21H10.5C4.704 21.007.007 25.704 0 31.5v51A7.509 7.509 0 007.5 90H54V66h36V0H27zm-6 24v13.698L18 35.7l-3 2V24h6zm30 63H7.5a4.5 4.5 0 010-9H51v9zm0-12H7.5A7.426 7.426 0 003 76.539V31.5a7.509 7.509 0 017.5-7.5H12v19.302l6-4.002 6 4V24h3v42h24v9zm36-12H30V15h57v48zM30 12V3h57v9H30z" fill="#23AAEA"/><path d="M84 21H33v33h51V21zm-3 30H36V24h45v27z" fill="#67B930"/><path d="M52.5 27.3v20.415L68.83 37.5 52.5 27.3zm3 5.415l7.67 4.785-7.67 4.8v-9.585zM39 61.5h3V60h42v-3H42v-1.5h-3V57h-6v3h6v1.5z" fill="#67B930"/></g><defs><clipPath id="clip0"><path fill="#fff" d="M0 0h90v90H0z"/></clipPath></defs></svg>