<svg width="90" height="90" viewBox="0 0 90 90" fill="none" xmlns="http://www.w3.org/2000/svg"><path d="M6 6h3v3H6V6zm6 0h3v3h-3V6zm6 0h3v3h-3V6z" fill="#23AAEA"/><path d="M0 0v79.5h7.5v-3H3V15h84v61.5h-4.5v3H90V0H0zm87 12H3V3h84v9z" fill="#23AAEA"/><path d="M33 76.5h24v3H33v-3zm6-21.45L57.09 45 39 34.95v20.1zm3-15L50.91 45 42 49.95v-9.9zM28.5 60h33v3h-33v-3z" fill="#23AAEA"/><path d="M9 63h9v-3h-6V24h66v36h-6v3h9V21H9v42z" fill="#23AAEA"/><path d="M76.367 72.173A7.51 7.51 0 0 0 70.5 66.15V51c0-14.083-11.417-25.5-25.5-25.5S19.5 36.917 19.5 51v15.15a7.511 7.511 0 0 0-5.867 6.02A5.972 5.972 0 0 0 9 78a6.002 6.002 0 0 0 4.635 5.83A7.5 7.5 0 0 0 21 90h7.5a3 3 0 0 0 3-3V69a3 3 0 0 0-3-3H27V51c0-9.941 8.059-18 18-18s18 8.059 18 18v15h-1.5a3 3 0 0 0-3 3v18a3 3 0 0 0 3 3H69a7.5 7.5 0 0 0 7.365-6.17 5.986 5.986 0 0 0 2.876-10.07 5.943 5.943 0 0 0-2.874-1.587zM12 78a2.934 2.934 0 0 1 1.5-2.583v5.166A2.99 2.99 0 0 1 12 78zm12 9h-3a4.5 4.5 0 0 1-4.5-4.5v-9A4.5 4.5 0 0 1 21 69h3v18zm4.5-18v18H27V69h1.5zM45 30c-11.593.012-20.988 9.407-21 21v15h-1.5V51c0-12.426 10.074-22.5 22.5-22.5S67.5 38.574 67.5 51v15H66V51c-.012-11.593-9.407-20.988-21-21zm18 57h-1.5V69H63v18zm10.5-4.5A4.5 4.5 0 0 1 69 87h-3V69h3a4.5 4.5 0 0 1 4.5 4.5v9zm3-1.917v-5.166a2.975 2.975 0 0 1 0 5.166z" fill="#67B930"/></svg>