<svg width="90" height="90" viewBox="0 0 90 90" fill="none" xmlns="http://www.w3.org/2000/svg"><g clip-path="url(#clip0)"><path d="M77.221 82.895l-15.909-15.91-15.908 15.91-8.486-8.486L52.827 58.5l-15.91-15.909 8.487-8.486 15.908 15.91 15.91-15.91 8.485 8.486L69.798 58.5l15.91 15.909-8.487 8.486zM61.312 62.744l15.91 15.909 4.243-4.244L65.556 58.5l15.91-15.909-4.245-4.244-15.909 15.91-15.908-15.91-4.244 4.244L57.069 58.5l-15.91 15.909 4.245 4.244 15.908-15.91z" fill="#67B930"/><path d="M67.313 42V0H23.19L4.313 18.879V90h63V75h-3v12h-57V21h18V3h39v39h3zM9.432 18l12.88-12.879V18H9.432z" fill="#23AAEA"/><path d="M31.313 12h3v3h-3v-3zm6 0h21v3h-21v-3zm-6 6h3v3h-3v-3zm6 0h21v3h-21v-3zm-24 27h3v3h-3v-3zm6 0h15v3h-15v-3zm15-3h-21V24h45v16.5h-3V27h-39v12h18v3z" fill="#23AAEA"/></g><defs><clipPath id="clip0"><path fill="#fff" d="M0 0h90v90H0z"/></clipPath></defs></svg>