<svg width="64" height="64" viewBox="0 0 64 64" fill="none" xmlns="http://www.w3.org/2000/svg"><path fill-rule="evenodd" clip-rule="evenodd" d="M1.25 8A.75.75 0 0 1 2 7.25h60a.75.75 0 0 1 .75.75v48a.75.75 0 0 1-.75.75H2a.75.75 0 0 1-.75-.75V8zm1.5.75v46.5h58.5V8.75H2.75z" fill="#6F7B8E"/><path fill-rule="evenodd" clip-rule="evenodd" d="M5.25 12a.75.75 0 0 1 .75-.75h52a.75.75 0 0 1 .75.75v32a.75.75 0 0 1-.75.75H6a.75.75 0 0 1-.75-.75V12zm1.5.75v30.5h50.5v-30.5H6.75z" fill="#6F7B8E"/><path fill-rule="evenodd" clip-rule="evenodd" d="M18.5 16.75a2.75 2.75 0 1 0 0 5.5 2.75 2.75 0 0 0 0-5.5zm-4.25 2.75a4.25 4.25 0 1 1 8.5 0 4.25 4.25 0 0 1-8.5 0zm30.77-1.25a.75.75 0 0 1 .537.248l9 10a.75.75 0 1 1-1.114 1.004l-8.472-9.413L34.061 31l2.47 2.47a.75.75 0 1 1-1.061 1.06L26 25.06 10.53 40.53a.75.75 0 1 1-1.06-1.06l16-16a.75.75 0 0 1 1.06 0L33 29.94l11.47-11.47a.75.75 0 0 1 .55-.22zM5.25 50a.75.75 0 0 1 .75-.75h27a.75.75 0 0 1 0 1.5H6a.75.75 0 0 1-.75-.75zm41.75.75H36a.75.75 0 0 1 0-1.5h11a.75.75 0 0 1 0 1.5z" fill="#6F7B8E"/></svg>