<svg width="120" height="120" viewBox="0 0 120 120" fill="none" xmlns="http://www.w3.org/2000/svg"><g clip-path="url(#clip0)"><path d="M24 30h4v4h-4v-4zm8 0h4v4h-4v-4zm8 0h4v4h-4v-4zm8 0h4v4h-4v-4zm8 0h4v4h-4v-4zM8 42v-4h4v4H8zm8-4h4v4h-4v-4zm8 0h4v4h-4v-4zm8 0h4v4h-4v-4zm8 0h4v4h-4v-4zm8 0h4v4h-4v-4zm8 0h4v4h-4v-4zM8 50v-4h4v4H8zm8-4h4v4h-4v-4zm8 0h4v4h-4v-4zm8 0h4v4h-4v-4zM8 58v-4h4v4H8zm8-4h4v4h-4v-4zm8 0h4v4h-4v-4zm8 0h4v4h-4v-4zM8 66v-4h4v4H8zm8-4h4v4h-4v-4zm8 0h4v4h-4v-4zm8 0h4v4h-4v-4z" fill="#23AAEA"/><path fill-rule="evenodd" clip-rule="evenodd" d="M20 2H10v6H0v66h42v29h35v3.097l-11.865 10.546a2 2 0 002.658 2.99L79 109.671l11.207 9.962a2 2 0 002.657-2.99L81 106.097V103h35V56.067h4V44H81v-3.862a2 2 0 10-4 0V44h-9V8H58V2H48v5.965H20V2zm44 42V26H4v44h38V56.067h-4V44h26zm-6-26v-6h6v10H4V12h6v6h10v-6.035h28V18h10zm-42-4h-2V6h2v8zm36 0h2V6h-2v8zm60 85V56.067H46V99h66zM42 52.067V48h74v4.067H42z" fill="#23AAEA"/><path d="M79 68.138a2 2 0 012 2v4h4a2 2 0 110 4h-4v4a2 2 0 01-4 0v-4h-4a2 2 0 010-4h4v-4a2 2 0 012-2z" fill="#67B930"/><path fill-rule="evenodd" clip-rule="evenodd" d="M79 93c9.389 0 17-7.611 17-17s-7.611-17-17-17-17 7.611-17 17 7.611 17 17 17zm0-4c7.18 0 13-5.82 13-13s-5.82-13-13-13-13 5.82-13 13 5.82 13 13 13z" fill="#67B930"/></g><defs><clipPath id="clip0"><path fill="#fff" d="M0 0h120v120H0z"/></clipPath></defs></svg>