<svg width="120" height="120" viewBox="0 0 120 120" fill="none" xmlns="http://www.w3.org/2000/svg"><g opacity=".5"><path d="M114 4H6a6 6 0 00-6 6v76a6 6 0 006 6h36v12H22v12h76v-12H78V92h36a6 6 0 006-6V10a6 6 0 00-6-6zM94 108v4H26v-4h68zm-20-4H46V92h28v12zm42-18a2 2 0 01-2 2H6a2 2 0 01-2-2V10a2 2 0 012-2h108a2 2 0 012 2v76z" fill="#23AAEA"/><path d="M64 20h8v4h-8v-4zm12 0h28v4H76v-4zm-12 8h8v4h-8v-4zm28 0h12v4H92v-4zm-4 8h16v4H88v-4zm-18 8h4v4h-4v-4zm8 0h26v4H78v-4zm-18 8h44v4H60v-4zm0 8h44v4H60v-4z" fill="#23AAEA"/><path fill-rule="evenodd" clip-rule="evenodd" d="M8 76V12h104v64H8zm4-4V16h96v56H12z" fill="#23AAEA"/><path d="M32 42c-5.523 0-10-4.477-10-10s4.477-10 10-10 10 4.477 10 10c-.007 5.52-4.48 9.993-10 10zm0-16a6 6 0 100 12 6 6 0 000-12z" fill="#67B930"/><path d="M18 54v16h-4V54c.007-5.52 4.48-9.993 10-10h23.548l12.55-5.972a5.819 5.819 0 015.446.622.51.51 0 01.075.067c.02.02.039.039.06.056l20.86-11.62 1.945 3.495-20.64 11.494A5.671 5.671 0 0164.2 48.78L48.435 56H46v14h-4V52h5.565l15.13-6.918A1.841 1.841 0 0064 43.368a1.763 1.763 0 00-2.36-1.656L48.452 48H24a6 6 0 00-6 6z" fill="#67B930"/></g></svg>