<svg width="120" height="120" viewBox="0 0 120 120" fill="none" xmlns="http://www.w3.org/2000/svg"><g opacity=".5" clip-path="url(#clip0)"><path d="M38 27c-8.837 0-16 7.163-16 16s7.163 16 16 16 16-7.163 16-16c-.01-8.832-7.168-15.99-16-16zm0 28c-6.627 0-12-5.373-12-12s5.373-12 12-12 12 5.373 12 12c-.007 6.625-5.375 11.993-12 12z" fill="#23AAEA"/><path d="M116 81V17c-.007-5.52-4.479-9.993-10-10H14c-5.52.007-9.993 4.48-10 10v48.222A13.942 13.942 0 000 75v38h76v-12h34a10.012 10.012 0 0010-10V81h-4zM14 11h92a6 6 0 016 6v64H76v-4h32V15H12v46.16c-1.387.2-2.735.607-4 1.21V17a6 6 0 016-6zm61.84 62A14 14 0 0062 61H16V19h88v54H75.84zM72 109H60V79h-4v30H20V79h-4v30H4V75c.007-5.52 4.48-9.993 10-10h48c5.52.007 9.993 4.48 10 10v34zm44-18a6 6 0 01-6 6H76V85h40v6z" fill="#23AAEA"/><path d="M82 41c-5.522 0-10-4.477-10-10s4.478-10 10-10 10 4.477 10 10c-.007 5.52-4.48 9.993-10 10zm0-16a6 6 0 100 12 6 6 0 000-12zm8 18H74c-5.52.007-9.993 4.48-10 10v6h4v-6a6 6 0 016-6h16a6 6 0 016 6v12h4V53c-.007-5.52-4.48-9.993-10-10z" fill="#67B930"/></g><defs><clipPath id="clip0"><path fill="#fff" d="M0 0h120v120H0z"/></clipPath></defs></svg>