<svg width="90" height="90" viewBox="0 0 90 90" fill="none" xmlns="http://www.w3.org/2000/svg"><g clip-path="url(#clip0)"><path d="M27 27.186l4.035-3.45-1.95-2.28L27 23.236V21H9v18h18V27.186zM12 36V24h12v1.8l-5.988 5.129-3.474-3.434-2.1 2.134 5.436 5.372L24 29.755V36H12zm15 15.186l4.035-3.45-1.95-2.28L27 47.236V45H9v18h18V51.186zM12 60V48h12v1.8l-5.988 5.129-3.474-3.434-2.1 2.134 5.436 5.372L24 53.755V60H12z" fill="#67B930"/><path d="M0 0v75h50.616c.25.9.38 1.829.384 2.763V78h-3v12h33V78h-3.021l.01-1.2a4.513 4.513 0 01.395-1.8H90V0H0zm78 87H51v-6h27v6zm-24-9v-.237a13.537 13.537 0 00-1.56-6.3l-1.566-2.968-5.157-14.1a1.517 1.517 0 00-.11-.235 1.5 1.5 0 011.683-2.195c.385.1.712.352.91.697l3.202 5.55a3 3 0 005.598-1.5V36a1.5 1.5 0 013 0v13.5a1.5 1.5 0 001.376 1.5l12.498 1.04A4.525 4.525 0 0178 56.523v12.162a4.485 4.485 0 01-.75 2.496l-.998 1.5a7.482 7.482 0 00-1.258 4.106L74.98 78H54zm33-6h-6.783c.513-1.03.78-2.166.783-3.316V56.522a7.545 7.545 0 00-6.877-7.472L63 48.12V36a4.5 4.5 0 00-9 0v20.712l-3.2-5.55a4.5 4.5 0 00-7.861 4.374l5.153 14.08c.023.064.05.125.082.185L49.332 72H3V15h84v57zM3 12V3h84v9H3z" fill="#23AAEA"/><path d="M6 6h3v3H6V6zm6 0h3v3h-3V6zm6 0h3v3h-3V6zm27 15h6v3h-6v-3zm9 0h27v3H54v-3zm-9 6h36v3H45v-3zm0 7.5h6v3h-6v-3zm21 0h15v3H66v-3zm0 6h15v3H66v-3zm-21 0h6v3h-6v-3z" fill="#23AAEA"/></g><defs><clipPath id="clip0"><path fill="#fff" d="M0 0h90v90H0z"/></clipPath></defs></svg>