<svg width="90" height="90" viewBox="0 0 90 90" fill="none" xmlns="http://www.w3.org/2000/svg"><g clip-path="url(#clip0)"><path d="M82.5 9h-3v3h3a4.5 4.5 0 0 1 4.5 4.5V54H76.5V0H32.379L13.5 18.879V54H3V16.5A4.5 4.5 0 0 1 7.5 12H18V9H7.5A7.509 7.509 0 0 0 0 16.5v48A7.509 7.509 0 0 0 7.5 72H33v6h-9a4.5 4.5 0 0 0-4.5 4.5V90h51v-7.5A4.5 4.5 0 0 0 66 78h-3v3h3a1.5 1.5 0 0 1 1.5 1.5V87h-45v-4.5A1.5 1.5 0 0 1 24 81h36v-3h-3v-6h25.5a7.509 7.509 0 0 0 7.5-7.5v-48A7.509 7.509 0 0 0 82.5 9zm-51-3.879V18H18.621L31.5 5.121zM16.5 21h18V3h39v51h-57V21zM54 78H36v-6h18v6zm28.5-9h-75A4.5 4.5 0 0 1 3 64.5V57h84v7.5a4.5 4.5 0 0 1-4.5 4.5z" fill="#23AAEA"/><path d="M45 58.5a4.5 4.5 0 1 0 0 9 4.5 4.5 0 0 0 0-9zm0 6a1.5 1.5 0 1 1 0-3 1.5 1.5 0 0 1 0 3z" fill="#23AAEA"/><path d="M37.5 12h3v3h-3v-3zm6 0h24v3h-24v-3zm-6 6h3v3h-3v-3zm6 0h24v3h-24v-3zm-21 24h45V24h-45v18zm3-15h39v12h-39V27zm-3 18h3v3h-3v-3zm6 0h39v3h-39v-3z" fill="#67B930"/></g><defs><clipPath id="clip0"><path fill="#fff" d="M0 0h90v90H0z"/></clipPath></defs></svg>