<svg width="30" height="30" viewBox="0 0 30 30" xmlns="http://www.w3.org/2000/svg"><path fill-rule="evenodd" clip-rule="evenodd" d="M.25 3A.75.75 0 0 1 1 2.25h28a.75.75 0 0 1 .75.75v24a.75.75 0 0 1-.75.75H1A.75.75 0 0 1 .25 27V3zm1.5.75v22.5h26.5V3.75H1.75zM3.25 6A.75.75 0 0 1 4 5.25h22a.75.75 0 0 1 .75.75v15a.75.75 0 0 1-.75.75H4a.75.75 0 0 1-.75-.75V6zm1.5.75v13.5h20.5V6.75H4.75zm4.75 2a.75.75 0 1 0 0 1.5.75.75 0 0 0 0-1.5zm-2.25.75a2.25 2.25 0 1 1 4.5 0 2.25 2.25 0 0 1-4.5 0zm11.749.583c.204 0 .4.083.542.23l4 4.168a.75.75 0 1 1-1.082 1.038l-3.457-3.601-2.942 3.081.97.97a.75.75 0 1 1-1.06 1.061l-3.47-3.47-4.97 4.97a.75.75 0 0 1-1.06-1.06l5.5-5.5a.75.75 0 0 1 1.06 0L15 13.938l3.457-3.623a.75.75 0 0 1 .542-.232zM14 23.25v1.5H3.5v-1.5H14zm6 1.5h-5v-1.5h5v1.5z"/><path fill-rule="evenodd" clip-rule="evenodd" d="M.25 3A.75.75 0 0 1 1 2.25h28a.75.75 0 0 1 .75.75v24a.75.75 0 0 1-.75.75H1A.75.75 0 0 1 .25 27V3zm1.5.75v22.5h26.5V3.75H1.75zM3.25 6A.75.75 0 0 1 4 5.25h22a.75.75 0 0 1 .75.75v15a.75.75 0 0 1-.75.75H4a.75.75 0 0 1-.75-.75V6zm1.5.75v13.5h20.5V6.75H4.75zm4.75 2a.75.75 0 1 0 0 1.5.75.75 0 0 0 0-1.5zm-2.25.75a2.25 2.25 0 1 1 4.5 0 2.25 2.25 0 0 1-4.5 0zm11.749.583c.204 0 .4.083.542.23l4 4.168a.75.75 0 1 1-1.082 1.038l-3.457-3.601-2.942 3.081.97.97a.75.75 0 1 1-1.06 1.061l-3.47-3.47-4.97 4.97a.75.75 0 0 1-1.06-1.06l5.5-5.5a.75.75 0 0 1 1.06 0L15 13.938l3.457-3.623a.75.75 0 0 1 .542-.232zM14 23.25v1.5H3.5v-1.5H14zm6 1.5h-5v-1.5h5v1.5z"/><defs><linearGradient id="paint0_linear" x1="15" y1="2.25" x2="15" y2="27.75" gradientUnits="userSpaceOnUse"><stop stop-color="#fff"/><stop offset="1" stop-color="#fff" stop-opacity="0"/></linearGradient></defs></svg>