<svg width="90" height="90" viewBox="0 0 90 90" fill="none" xmlns="http://www.w3.org/2000/svg"><g clip-path="url(#clip0)"><path d="M13.5 55.5A7.5 7.5 0 1 1 21 48a7.509 7.509 0 0 1-7.5 7.5zm0-12a4.5 4.5 0 1 0 0 9 4.5 4.5 0 0 0 0-9zm76.5 33H24v9h3V90h3v-4.5h54V90h3v-4.5h3v-9zm-3 6H27v-3h60v3z" fill="#23AAEA"/><path d="M19.5 87H3V67.5a7.509 7.509 0 0 1 7.5-7.5h9.95l8.34 9h5.173s-.59 2.784-.592 3h-6.463l-7.8-8.514-2.21 2.028L25.592 75H73.8a2.98 2.98 0 0 0 2.928-2.349l5.334-24A2.998 2.998 0 0 0 79.129 45H41.7a2.98 2.98 0 0 0-2.927 2.349L34.63 66H30.1l-8.339-9H10.5C4.704 57.007.007 61.704 0 67.5V90h22.5V73.5h-3V87zm22.2-39h37.43L73.8 72H36.37l5.33-24z" fill="#23AAEA"/><path d="M24 49.622V36h-7.5A7.509 7.509 0 0 1 9 28.5v-21A7.509 7.509 0 0 1 16.5 0h57A7.509 7.509 0 0 1 81 7.5v21a7.509 7.509 0 0 1-7.5 7.5H41.027L24 49.622zM16.5 3A4.5 4.5 0 0 0 12 7.5v21a4.5 4.5 0 0 0 4.5 4.5H27v10.378L39.973 33H73.5a4.5 4.5 0 0 0 4.5-4.5v-21A4.5 4.5 0 0 0 73.5 3h-57z" fill="#67B930"/><path d="M27 10.5h3v3h-3v-3zm6 0h30v3H33v-3zm-6 6h3v3h-3v-3zm6 0h30v3H33v-3zm-6 6h3v3h-3v-3zm6 0h30v3H33v-3z" fill="#67B930"/></g><defs><clipPath id="clip0"><path fill="#fff" d="M0 0h90v90H0z"/></clipPath></defs></svg>