<svg width="84" height="40" viewBox="0 0 84 40" fill="none" xmlns="http://www.w3.org/2000/svg"><path fill-rule="evenodd" clip-rule="evenodd" d="M84 19.765c0 10.223-7.206 19.764-17.862 19.764-12.069 0-17.625-7.685-21.858-13.352l-.542-.724a1.445 1.445 0 0 1 .29-2.025 1.45 1.45 0 0 1 2.027.29c.15.198.3.399.45.6 4.29 5.73 9.225 12.319 19.633 12.319 8.654 0 14.965-7.813 14.965-16.872 0-9.914-7.178-16.873-14.965-16.873-5.766 0-10.372 2.757-14.139 6.402-3.244 3.14-5.759 6.829-7.807 9.833-.347.509-.68.998-1.001 1.46a230.7 230.7 0 0 0-.96 1.403c-2.04 2.994-4.739 6.958-8.214 10.323-4.079 3.947-9.37 7.216-16.155 7.216C8.27 39.53 0 31.062 0 19.765 0 9.542 7.206 0 17.862 0 29.746 0 35.487 7.685 39.72 13.352l.542.724c.48.64.35 1.546-.29 2.025a1.45 1.45 0 0 1-2.027-.29c-.15-.198-.3-.398-.45-.6-4.29-5.729-9.225-12.319-19.633-12.319-8.654 0-14.965 7.813-14.965 16.873 0 9.913 7.178 16.872 14.965 16.872 5.766 0 10.372-2.756 14.139-6.401 3.244-3.14 5.759-6.83 7.807-9.834.347-.508.68-.997 1.001-1.46.302-.436.622-.906.96-1.402 2.04-2.995 4.739-6.959 8.214-10.323C54.062 3.27 59.353 0 66.138 0 75.73 0 84 8.467 84 19.765z" fill="#2A58AD"/></svg>