<svg width="160" height="38" viewBox="0 0 160 38" fill="none" xmlns="http://www.w3.org/2000/svg"><rect x=".5" y=".5" width="159" height="37" rx="2.5" fill="#fff"/><rect x=".5" y=".5" width="159" height="37" rx="2.5" fill="url(#paint0_linear)"/><rect x=".5" y=".5" width="159" height="37" rx="2.5" stroke="#C8D0D9"/><path d="M42.11 24h-4.864V13.328h4.752c.918 0 1.643.25 2.177.752.544.501.816 1.157.816 1.968 0 .64-.182 1.184-.544 1.632-.363.437-.806.71-1.329.816.566.085 1.051.384 1.456.896a2.67 2.67 0 0 1 .625 1.728c0 .864-.278 1.562-.832 2.096-.544.522-1.296.784-2.256.784zm-.335-6.048c.586 0 1.04-.16 1.36-.48.32-.32.48-.73.48-1.232s-.166-.912-.497-1.232c-.32-.33-.768-.496-1.343-.496h-3.2v3.44h3.2zm.064 4.864c.618 0 1.104-.166 1.456-.496.352-.33.527-.779.527-1.344 0-.523-.175-.96-.528-1.312-.34-.352-.826-.528-1.455-.528h-3.264v3.68h3.264zm9.23 1.376c-1.088 0-1.957-.454-2.608-1.36v4.112h-1.2V16.272h1.2v1.152c.288-.406.661-.73 1.12-.976a3.106 3.106 0 0 1 1.488-.368c1.024 0 1.85.368 2.48 1.104.64.725.96 1.706.96 2.944 0 1.237-.32 2.224-.96 2.96-.63.736-1.456 1.104-2.48 1.104zm-.304-1.072c.757 0 1.36-.278 1.808-.832.448-.566.672-1.286.672-2.16 0-.875-.224-1.59-.672-2.144-.448-.555-1.05-.832-1.808-.832-.459 0-.907.122-1.344.368-.427.234-.747.522-.96.864v3.488c.213.352.533.65.96.896.437.234.885.352 1.344.352zm9.14 1.072c-1.152 0-2.096-.374-2.832-1.12-.736-.758-1.104-1.739-1.104-2.944 0-1.13.363-2.086 1.088-2.864.726-.79 1.632-1.184 2.72-1.184 1.142 0 2.043.394 2.704 1.184.672.778 1.008 1.765 1.008 2.96v.304h-6.256c.054.757.331 1.392.832 1.904.502.512 1.152.768 1.952.768.96 0 1.755-.326 2.384-.976l.576.784c-.789.79-1.813 1.184-3.072 1.184zm2.4-4.544a2.766 2.766 0 0 0-.672-1.776c-.437-.534-1.061-.8-1.872-.8-.768 0-1.376.261-1.824.784a2.942 2.942 0 0 0-.704 1.792h5.072zM73.321 24h-1.2v-6.064L69.609 24h-.448l-2.528-6.064V24h-1.2v-7.728h1.584L69.385 22l2.336-5.728h1.6V24zm3.545 0h-1.408l2.064-3.04c-.587-.075-1.067-.32-1.44-.736-.362-.416-.544-.944-.544-1.584 0-.683.219-1.248.656-1.696.438-.448 1.035-.672 1.792-.672h4.08V24h-1.2v-2.992h-2.112L76.866 24zm1.248-4.048h2.752v-2.624h-2.752c-.416 0-.746.122-.992.368-.234.234-.352.55-.352.944 0 .394.118.714.352.96.235.234.566.352.992.352z" fill="#6F7B8E"/><path d="M90.477 17.776h-.736l.08-1.84-1.536 1.008-.352-.64 1.632-.832-1.632-.832.352-.624 1.536.992-.08-1.84h.736l-.096 1.84 1.536-.992.368.624-1.632.832 1.632.832-.368.64-1.536-1.008.096 1.84z" fill="#67B930"/><path d="M18 20a.75.75 0 0 1-.75-.75v-4a.75.75 0 0 1 1.5 0v3.25h1.75a.75.75 0 0 1 0 1.5H18z" fill="#6F7B8E"/><path fill-rule="evenodd" clip-rule="evenodd" d="M18 27a8 8 0 1 0 0-16 8 8 0 0 0 0 16zm0-1.5a6.5 6.5 0 1 0 0-13 6.5 6.5 0 0 0 0 13z" fill="#6F7B8E"/><defs><linearGradient id="paint0_linear" x1="80" y1="0" x2="80" y2="38" gradientUnits="userSpaceOnUse"><stop stop-color="#fff"/><stop offset="1" stop-color="#fff" stop-opacity="0"/></linearGradient></defs></svg>