<svg width="350" height="38" viewBox="0 0 350 38" fill="none" xmlns="http://www.w3.org/2000/svg"><rect x=".5" y=".5" width="349" height="37" rx="2.5" fill="#fff"/><rect x=".5" y=".5" width="349" height="37" rx="2.5" fill="url(#paint0_linear)"/><rect x=".5" y=".5" width="349" height="37" rx="2.5" stroke="#C8D0D9"/><path d="M22.102 24h-1.328v-1.04c-1.536-.107-2.746-.544-3.632-1.312-.885-.768-1.327-1.76-1.327-2.976 0-1.206.442-2.192 1.327-2.96.886-.768 2.096-1.206 3.633-1.312v-1.072h1.328V14.4c1.525.106 2.735.55 3.631 1.328.896.768 1.344 1.75 1.344 2.944 0 1.216-.447 2.208-1.343 2.976-.886.768-2.096 1.205-3.633 1.312V24zm2.64-3.216c.64-.555.96-1.259.96-2.112 0-.854-.32-1.558-.96-2.112-.64-.555-1.52-.88-2.64-.976v6.176c1.12-.096 2-.422 2.64-.976zm-6.608-4.224c-.629.554-.944 1.258-.944 2.112 0 .853.315 1.557.944 2.112.64.554 1.52.88 2.64.976v-6.176c-1.12.096-2 .421-2.64.976zM35.121 24h-1.2v-.88c-.65.714-1.504 1.072-2.56 1.072-.715 0-1.344-.23-1.888-.688-.544-.459-.816-1.083-.816-1.872 0-.81.267-1.435.8-1.872a2.905 2.905 0 0 1 1.904-.672c1.099 0 1.952.352 2.56 1.056v-1.392c0-.512-.181-.912-.544-1.2-.363-.288-.832-.432-1.408-.432-.907 0-1.696.357-2.368 1.072l-.56-.832c.822-.854 1.85-1.28 3.088-1.28.886 0 1.605.213 2.16.64.555.426.832 1.082.832 1.968V24zm-3.328-.672c.96 0 1.67-.32 2.128-.96v-1.456c-.459-.64-1.168-.96-2.128-.96-.555 0-1.013.16-1.376.48-.352.31-.528.714-.528 1.216 0 .49.176.896.528 1.216.363.31.821.464 1.376.464zM45.415 24h-1.2v-6.064L41.703 24h-.448l-2.528-6.064V24h-1.2v-7.728h1.584L41.479 22l2.336-5.728h1.6V24zm3.545 0h-1.152v-7.728h1.2v5.904l4.048-5.904h1.184V24h-1.2v-6.016L48.96 24zm6.764.192V23.2c.363 0 .661-.24.896-.72s.427-1.28.576-2.4l.496-3.808h5.376V24h-1.2v-6.672h-3.12l-.352 2.896c-.17 1.418-.47 2.437-.896 3.056-.427.608-1.019.912-1.776.912zM66.616 24h-1.152v-7.728h1.2v5.904l4.048-5.904h1.184V24h-1.2v-6.016L66.616 24zm8.828 0h-1.408l2.064-3.04c-.586-.075-1.066-.32-1.44-.736-.362-.416-.544-.944-.544-1.584 0-.683.219-1.248.656-1.696.438-.448 1.035-.672 1.792-.672h4.08V24h-1.2v-2.992h-2.112L75.444 24zm1.248-4.048h2.752v-2.624h-2.752c-.416 0-.746.122-.992.368-.234.234-.352.55-.352.944 0 .394.118.714.352.96.235.234.566.352.992.352z" fill="#6F7B8E"/><path d="M89.28 18.144h-1.01l.08-1.76-1.488.944-.496-.864 1.552-.8-1.552-.8.496-.88 1.488.944-.08-1.76h1.008l-.08 1.76 1.472-.944.512.88-1.552.8 1.552.8-.512.864-1.472-.944.08 1.76z" fill="#67B930"/><defs><linearGradient id="paint0_linear" x1="175" y1="0" x2="175" y2="38" gradientUnits="userSpaceOnUse"><stop stop-color="#fff"/><stop offset="1" stop-color="#fff" stop-opacity="0"/></linearGradient></defs></svg>