<svg width="160" height="38" viewBox="0 0 160 38" fill="none" xmlns="http://www.w3.org/2000/svg"><rect x=".5" y=".5" width="159" height="37" rx="2.5" fill="#fff"/><rect x=".5" y=".5" width="159" height="37" rx="2.5" fill="url(#paint0_linear)"/><rect x=".5" y=".5" width="159" height="37" rx="2.5" stroke="#C8D0D9"/><path d="M46.51 25.968v-3.04c.47-.032.843-.144 1.12-.336.278-.192.528-.598.752-1.216.235-.619.427-1.515.577-2.688l.655-5.36h6.529v9.488h.975v3.152H55.79V24h-7.95v1.968h-1.33zm3.76-7.184c-.245 2.058-.789 3.402-1.632 4.032h6.177v-8.304h-4.017l-.528 4.272zM64.793 24h-1.2v-.88c-.65.714-1.504 1.072-2.56 1.072-.715 0-1.344-.23-1.888-.688-.544-.459-.816-1.083-.816-1.872 0-.81.267-1.435.8-1.872a2.905 2.905 0 011.904-.672c1.099 0 1.952.352 2.56 1.056v-1.392c0-.512-.181-.912-.544-1.2-.363-.288-.832-.432-1.408-.432-.907 0-1.696.357-2.368 1.072l-.56-.832c.821-.854 1.85-1.28 3.088-1.28.885 0 1.605.213 2.16.64.555.426.832 1.082.832 1.968V24zm-3.328-.672c.96 0 1.67-.32 2.128-.96v-1.456c-.459-.64-1.168-.96-2.128-.96-.555 0-1.013.16-1.376.48-.352.31-.528.714-.528 1.216 0 .49.176.896.528 1.216.363.31.821.464 1.376.464zm8.341.672h-1.2v-6.672h-2.24v-1.056h5.697v1.056h-2.257V24zm9.862 0h-1.2v-.88c-.65.714-1.504 1.072-2.56 1.072-.715 0-1.344-.23-1.888-.688-.544-.459-.816-1.083-.816-1.872 0-.81.267-1.435.8-1.872a2.905 2.905 0 011.904-.672c1.099 0 1.952.352 2.56 1.056v-1.392c0-.512-.181-.912-.544-1.2-.363-.288-.832-.432-1.408-.432-.907 0-1.696.357-2.368 1.072l-.56-.832c.821-.854 1.85-1.28 3.088-1.28.885 0 1.605.213 2.16.64.555.426.832 1.082.832 1.968V24zm-3.328-.672c.96 0 1.67-.32 2.128-.96v-1.456c-.459-.64-1.168-.96-2.128-.96-.555 0-1.013.16-1.376.48-.352.31-.528.714-.528 1.216 0 .49.176.896.528 1.216.363.31.821.464 1.376.464z" fill="#6F7B8E"/><path d="M88.087 17.776h-.737l.08-1.84-1.536 1.008-.352-.64 1.632-.832-1.632-.832.352-.624 1.536.992-.08-1.84h.737l-.097 1.84 1.537-.992.367.624-1.632.832 1.632.832-.368.64-1.535-1.008.096 1.84z" fill="#67B930"/><path fill-rule="evenodd" clip-rule="evenodd" d="M18.25 11.75V13H18a2 2 0 00-2 2v10a2 2 0 002 2h10a2 2 0 002-2V15a2 2 0 00-2-2h-.25v-1.25a.75.75 0 00-1.5 0V13h-6.5v-1.25a.75.75 0 00-1.5 0zM18 14.5h10a.5.5 0 01.5.5v1.25h-11V15a.5.5 0 01.5-.5zm-.5 3.25V25a.5.5 0 00.5.5h10a.5.5 0 00.5-.5v-7.25h-11z" fill="#6F7B8E"/><defs><linearGradient id="paint0_linear" x1="80" y1="0" x2="80" y2="38" gradientUnits="userSpaceOnUse"><stop stop-color="#fff"/><stop offset="1" stop-color="#fff" stop-opacity="0"/></linearGradient></defs></svg>