<svg width="160" height="59" viewBox="0 0 160 59" fill="none" xmlns="http://www.w3.org/2000/svg"><path fill-rule="evenodd" clip-rule="evenodd" d="M62.57 17.423v.018a2.5 2.5 0 0 1-1.66 2.354v8.583c0 2.746-1.316 5.159-3.322 6.695 0 .012.003.023.003.035 0 1.86-1.485 3.365-3.319 3.365-.182 0-.36-.025-.536-.055-.974 3.069-3.252 5.433-6.102 6.331v.455c0 .928-.743 1.682-1.66 1.682h-1.659c-.916 0-1.66-.754-1.66-1.682V25.013c0-.929.744-1.683 1.66-1.683h1.66c.916 0 1.66.754 1.66 1.683v.452c1.806.576 3.38 1.742 4.538 3.308-.359-3.094-.951-6.075-1.792-8.88-1.159.032-2.226-.715-2.496-1.905l-.374-1.64c-.035-.15-.005-.293-.011-.443C42.533 7.164 35.466 5.048 28.796 5.048S15.058 7.164 10.09 15.905c-.006.15.024.293-.011.443l-.374 1.64c-.27 1.19-1.337 1.937-2.496 1.905-.84 2.805-1.433 5.786-1.792 8.88 1.159-1.566 2.732-2.732 4.539-3.308v-.452c0-.929.743-1.683 1.66-1.683h1.659c.916 0 1.66.754 1.66 1.683v20.19c0 .93-.744 1.683-1.66 1.683h-1.66c-.916 0-1.66-.754-1.66-1.682v-.455c-2.848-.898-5.127-3.262-6.101-6.331-.176.03-.353.055-.536.055C1.485 38.473 0 36.968 0 35.108c0-1.859 1.485-3.365 3.319-3.365.061 0 .12.014.18.019.265-4.382 1.008-8.565 2.19-12.441-.684-.593-1.05-1.52-.833-2.469l.373-1.64c.309-1.353 1.636-2.196 2.972-1.891C13.404 3.138 21.444 0 28.795 0c7.352 0 15.392 3.138 20.595 13.32 1.336-.304 2.663.539 2.972 1.892l.373 1.64c.216.95-.149 1.876-.833 2.469 1.182 3.876 1.925 8.06 2.19 12.44.06-.005.119-.018.18-.018 1.187 0 2.219.636 2.806 1.585a6.733 6.733 0 0 0 2.172-4.95v-8.583a2.5 2.5 0 0 1-1.659-2.354v-.018a4.208 4.208 0 0 1-1.66-3.347V9.028c0-2.323 1.858-4.206 4.15-4.206 2.291 0 4.148 1.883 4.148 4.206v5.048a4.208 4.208 0 0 1-1.66 3.347z" fill="#67B930"/><path d="M21.563 58.239V53.91l3.833-.742v-28.17l-3.833-.742v-4.353h14.912v4.353l-3.858.742v27.701h12.274l.347-3.303h5.514v8.843H21.563z" fill="#fff"/><path d="M21.563 58.239V53.91l3.833-.742v-28.17l-3.833-.742v-4.353h14.912v4.353l-3.858.742v27.701h12.274l.347-3.303h5.514v8.843H21.563z" fill="url(#paint0_linear)"/><path d="M67.656 58.672c-3.215 0-5.784-1.03-7.708-3.092-1.923-2.06-2.885-4.678-2.885-7.851v-.825c0-3.31.907-6.038 2.72-8.18 1.828-2.144 4.273-3.209 7.337-3.195 3.009 0 5.344.907 7.007 2.72 1.662 1.814 2.493 4.266 2.493 7.357v3.277H63.308l-.042.123c.11 1.47.598 2.68 1.464 3.627.879.948 2.067 1.422 3.565 1.422 1.332 0 2.438-.13 3.318-.391.879-.275 1.84-.7 2.885-1.278l1.628 3.71c-.92.728-2.116 1.34-3.586 1.834-1.456.494-3.084.742-4.884.742zm-.536-18.506c-1.113 0-1.992.426-2.638 1.277-.645.852-1.044 1.972-1.195 3.36l.062.103h7.377v-.536c0-1.278-.302-2.295-.906-3.05-.591-.77-1.491-1.154-2.7-1.154z" fill="#fff"/><path d="M67.656 58.672c-3.215 0-5.784-1.03-7.708-3.092-1.923-2.06-2.885-4.678-2.885-7.851v-.825c0-3.31.907-6.038 2.72-8.18 1.828-2.144 4.273-3.209 7.337-3.195 3.009 0 5.344.907 7.007 2.72 1.662 1.814 2.493 4.266 2.493 7.357v3.277H63.308l-.042.123c.11 1.47.598 2.68 1.464 3.627.879.948 2.067 1.422 3.565 1.422 1.332 0 2.438-.13 3.318-.391.879-.275 1.84-.7 2.885-1.278l1.628 3.71c-.92.728-2.116 1.34-3.586 1.834-1.456.494-3.084.742-4.884.742zm-.536-18.506c-1.113 0-1.992.426-2.638 1.277-.645.852-1.044 1.972-1.195 3.36l.062.103h7.377v-.536c0-1.278-.302-2.295-.906-3.05-.591-.77-1.491-1.154-2.7-1.154z" fill="url(#paint1_linear)"/><path d="M78.846 29.718V26.09h9.212v18.63h1.34l3.461-4.884-1.957-.268v-3.627h10.963v3.627l-2.638.598-4.018 5.523 5.626 8.47 2.287.474v3.606H92.818v-3.606l1.237-.207-3.421-5.523h-2.576v5.111l2.596.618v3.607H79.155v-3.606l2.906-.619V30.336l-3.215-.618z" fill="#fff"/><path d="M78.846 29.718V26.09h9.212v18.63h1.34l3.461-4.884-1.957-.268v-3.627h10.963v3.627l-2.638.598-4.018 5.523 5.626 8.47 2.287.474v3.606H92.818v-3.606l1.237-.207-3.421-5.523h-2.576v5.111l2.596.618v3.607H79.155v-3.606l2.906-.619V30.336l-3.215-.618z" fill="url(#paint2_linear)"/><path d="M114.127 30.48v5.461h3.915v4.225h-3.915V51.52c0 .865.178 1.483.536 1.854.357.371.838.557 1.442.557.412 0 .769-.014 1.072-.041.316-.042.666-.103 1.051-.186l.515 4.348c-.673.207-1.34.358-1.999.454-.659.11-1.374.165-2.143.165-2.075 0-3.675-.57-4.802-1.71-1.113-1.141-1.669-2.948-1.669-5.42V40.165h-3.277V35.94h3.277v-5.46h5.997z" fill="#fff"/><path d="M114.127 30.48v5.461h3.915v4.225h-3.915V51.52c0 .865.178 1.483.536 1.854.357.371.838.557 1.442.557.412 0 .769-.014 1.072-.041.316-.042.666-.103 1.051-.186l.515 4.348c-.673.207-1.34.358-1.999.454-.659.11-1.374.165-2.143.165-2.075 0-3.675-.57-4.802-1.71-1.113-1.141-1.669-2.948-1.669-5.42V40.165h-3.277V35.94h3.277v-5.46h5.997z" fill="url(#paint3_linear)"/><path d="M120.371 46.884c0-3.325.927-6.045 2.782-8.16 1.868-2.13 4.444-3.195 7.728-3.195 3.297 0 5.873 1.058 7.728 3.173 1.868 2.116 2.803 4.843 2.803 8.182v.433c0 3.352-.935 6.086-2.803 8.202-1.855 2.102-4.417 3.153-7.687 3.153-3.311 0-5.901-1.051-7.769-3.153-1.855-2.116-2.782-4.85-2.782-8.202v-.433zm6.017.433c0 2.033.358 3.668 1.072 4.904.714 1.223 1.869 1.835 3.462 1.835 1.553 0 2.686-.619 3.401-1.855.728-1.237 1.092-2.865 1.092-4.884v-.433c0-1.978-.364-3.593-1.092-4.843-.729-1.25-1.876-1.875-3.442-1.875-1.566 0-2.707.625-3.421 1.875s-1.072 2.865-1.072 4.843v.433z" fill="#fff"/><path d="M120.371 46.884c0-3.325.927-6.045 2.782-8.16 1.868-2.13 4.444-3.195 7.728-3.195 3.297 0 5.873 1.058 7.728 3.173 1.868 2.116 2.803 4.843 2.803 8.182v.433c0 3.352-.935 6.086-2.803 8.202-1.855 2.102-4.417 3.153-7.687 3.153-3.311 0-5.901-1.051-7.769-3.153-1.855-2.116-2.782-4.85-2.782-8.202v-.433zm6.017.433c0 2.033.358 3.668 1.072 4.904.714 1.223 1.869 1.835 3.462 1.835 1.553 0 2.686-.619 3.401-1.855.728-1.237 1.092-2.865 1.092-4.884v-.433c0-1.978-.364-3.593-1.092-4.843-.729-1.25-1.876-1.875-3.442-1.875-1.566 0-2.707.625-3.421 1.875s-1.072 2.865-1.072 4.843v.433z" fill="url(#paint4_linear)"/><path d="M144.482 54.633l2.885-.619V40.186l-3.194-.618v-3.627h8.8l.268 3.256c.522-1.154 1.195-2.054 2.019-2.7.825-.645 1.779-.968 2.865-.968.316 0 .645.027.989.082.357.042.652.097.886.165l-.639 5.482-2.473-.062c-.879 0-1.607.172-2.184.515a3.329 3.329 0 0 0-1.319 1.464v10.84l2.885.617v3.607h-11.788v-3.606z" fill="#fff"/><path d="M144.482 54.633l2.885-.619V40.186l-3.194-.618v-3.627h8.8l.268 3.256c.522-1.154 1.195-2.054 2.019-2.7.825-.645 1.779-.968 2.865-.968.316 0 .645.027.989.082.357.042.652.097.886.165l-.639 5.482-2.473-.062c-.879 0-1.607.172-2.184.515a3.329 3.329 0 0 0-1.319 1.464v10.84l2.885.617v3.607h-11.788v-3.606z" fill="url(#paint5_linear)"/><defs><linearGradient id="paint0_linear" x1="90.782" y1="19.903" x2="90.782" y2="58.672" gradientUnits="userSpaceOnUse"><stop stop-color="#fff"/><stop offset="1" stop-color="#fff" stop-opacity="0"/></linearGradient><linearGradient id="paint1_linear" x1="90.782" y1="19.903" x2="90.782" y2="58.672" gradientUnits="userSpaceOnUse"><stop stop-color="#fff"/><stop offset="1" stop-color="#fff" stop-opacity="0"/></linearGradient><linearGradient id="paint2_linear" x1="90.782" y1="19.903" x2="90.782" y2="58.672" gradientUnits="userSpaceOnUse"><stop stop-color="#fff"/><stop offset="1" stop-color="#fff" stop-opacity="0"/></linearGradient><linearGradient id="paint3_linear" x1="90.782" y1="19.903" x2="90.782" y2="58.672" gradientUnits="userSpaceOnUse"><stop stop-color="#fff"/><stop offset="1" stop-color="#fff" stop-opacity="0"/></linearGradient><linearGradient id="paint4_linear" x1="90.782" y1="19.903" x2="90.782" y2="58.672" gradientUnits="userSpaceOnUse"><stop stop-color="#fff"/><stop offset="1" stop-color="#fff" stop-opacity="0"/></linearGradient><linearGradient id="paint5_linear" x1="90.782" y1="19.903" x2="90.782" y2="58.672" gradientUnits="userSpaceOnUse"><stop stop-color="#fff"/><stop offset="1" stop-color="#fff" stop-opacity="0"/></linearGradient></defs></svg>