<svg width="14" height="15" viewBox="0 0 14 15" fill="none" xmlns="http://www.w3.org/2000/svg"><path d="M13.61 9.49c.252-.721.39-1.496.39-2.303a6.969 6.969 0 0 0-.412-2.366C12.616 2.122 10.03.187 7 .187 3.97.187 1.384 2.122.412 4.821A6.97 6.97 0 0 0 0 7.187a6.97 6.97 0 0 0 .412 2.366A7.01 7.01 0 0 0 7 14.187c3.03 0 5.616-1.935 6.588-4.634a.497.497 0 0 0 .022-.063zM7 13.184c-.267 0-.696-.483-1.056-1.56a10.987 10.987 0 0 1-.413-1.769h2.938c-.101.65-.24 1.248-.413 1.768-.36 1.078-.79 1.56-1.056 1.56zM5.41 8.852a18.587 18.587 0 0 1 0-3.33h3.18a18.59 18.59 0 0 1 0 3.33H5.41zM1.002 7.187c0-.577.083-1.135.236-1.664h3.164a19.532 19.532 0 0 0 0 3.329H1.239a5.98 5.98 0 0 1-.236-1.665zM7 1.191c.266 0 .696.482 1.056 1.56.173.52.312 1.118.413 1.768H5.53c.101-.65.24-1.248.413-1.768.36-1.078.79-1.56 1.056-1.56zm2.597 4.332h3.164a5.983 5.983 0 0 1 0 3.329H9.597a19.528 19.528 0 0 0 0-3.33zm2.772-1.004H9.482c-.179-1.23-.485-2.334-.914-3.12a6.023 6.023 0 0 1 3.801 3.12zM5.432 1.4c-.43.786-.736 1.89-.914 3.12H1.63A6.023 6.023 0 0 1 5.432 1.4zM1.631 9.855h2.887c.178 1.23.485 2.335.914 3.12a6.022 6.022 0 0 1-3.801-3.12zm6.937 3.12c.43-.785.735-1.89.914-3.12h2.887a6.022 6.022 0 0 1-3.801 3.12z" fill="#121B1B"/></svg>