<svg width="216" height="150" viewBox="0 0 216 150" fill="none" xmlns="http://www.w3.org/2000/svg"><mask id="mask0" maskUnits="userSpaceOnUse" x="0" y="0" width="216" height="150"><path fill="#C4C4C4" d="M.522.854h215.477v149H.522z"/></mask><g mask="url(#mask0)" fill="#59C7BF"><path d="M2.072 144.905a.2.2 0 0 0-.201-.2.2.2 0 0 0-.202.2c0 .11.09.2.202.2a.2.2 0 0 0 .201-.2zm0-14.605a.2.2 0 0 0-.201-.2.2.2 0 0 0-.202.2c0 .111.09.2.202.2a.2.2 0 0 0 .201-.2zm0-14.805a.201.201 0 1 0-.404 0c.001.111.091.2.203.2a.2.2 0 0 0 .201-.2zm0-14.805a.201.201 0 1 0-.404 0c.001.111.091.2.203.2a.2.2 0 0 0 .201-.2zm0-14.805a.2.2 0 0 0-.201-.2.2.2 0 0 0-.202.2c0 .11.09.2.202.2a.2.2 0 0 0 .201-.2zm0-14.805a.2.2 0 0 0-.201-.2.2.2 0 0 0-.202.2c0 .11.09.2.202.2a.2.2 0 0 0 .201-.2zm0-14.605a.201.201 0 1 0-.404 0c.001.11.091.2.203.2a.2.2 0 0 0 .201-.2zm0-14.805a.201.201 0 1 0-.404 0c.001.111.091.2.203.2a.2.2 0 0 0 .201-.2zm0-14.805a.2.2 0 0 0-.201-.2.2.2 0 0 0-.202.2c0 .11.09.2.202.2a.2.2 0 0 0 .201-.2zm0-14.805a.2.2 0 0 0-.201-.2.2.2 0 0 0-.202.2c0 .111.09.2.202.2a.2.2 0 0 0 .201-.2zm14.931 132.845a.2.2 0 0 0-.202-.2.2.2 0 0 0-.201.2.201.201 0 1 0 .404 0zm0-14.605a.2.2 0 0 0-.202-.2.2.2 0 0 0-.201.2c0 .111.09.2.201.2a.2.2 0 0 0 .202-.2zm0-14.805c0-.11-.09-.2-.202-.2a.201.201 0 0 0-.201.2c0 .111.09.2.201.2a.2.2 0 0 0 .202-.2zm0-14.805c0-.11-.09-.2-.202-.2a.201.201 0 0 0-.201.2c0 .111.09.2.201.2a.2.2 0 0 0 .202-.2zm0-14.805a.2.2 0 0 0-.202-.2.2.2 0 0 0-.201.2.2.2 0 1 0 .404 0zm0-14.605a.2.2 0 0 0-.202-.2.201.201 0 0 0-.201.2.2.2 0 1 0 .404 0zm0-14.805a.2.2 0 0 0-.202-.2.201.201 0 0 0-.201.2.2.2 0 1 0 .404 0zm0-14.805a.2.2 0 0 0-.202-.2.201.201 0 0 0-.201.2c0 .111.09.2.201.2a.2.2 0 0 0 .202-.2zm0-14.805a.2.2 0 0 0-.202-.2.2.2 0 0 0-.201.2.2.2 0 1 0 .404 0zm0-14.805a.2.2 0 0 0-.202-.2.2.2 0 0 0-.201.2c0 .111.09.2.201.2a.2.2 0 0 0 .202-.2zm15.132 132.845c0-.221-.18-.4-.403-.4a.402.402 0 0 0-.404.4c0 .221.18.4.404.4a.402.402 0 0 0 .403-.4zm0-14.605c0-.221-.18-.4-.403-.4a.402.402 0 0 0-.404.4c0 .221.18.4.404.4a.402.402 0 0 0 .403-.4zm0-14.805c0-.221-.18-.4-.403-.4a.402.402 0 0 0-.404.4c0 .221.18.4.404.4a.402.402 0 0 0 .403-.4zm0-14.805c0-.221-.18-.4-.403-.4a.402.402 0 0 0-.404.4c0 .221.18.4.404.4a.402.402 0 0 0 .403-.4zm0-14.805c0-.22-.18-.4-.403-.4a.402.402 0 0 0-.404.4c0 .221.18.4.404.4a.401.401 0 0 0 .403-.4zm0-14.805c0-.22-.18-.4-.403-.4a.402.402 0 0 0-.404.4c0 .221.18.4.404.4a.401.401 0 0 0 .403-.4zm0-14.604c0-.221-.18-.4-.403-.4a.402.402 0 0 0-.404.4c0 .22.18.4.404.4.223 0 .403-.18.403-.4zm0-14.806c0-.22-.18-.4-.403-.4a.402.402 0 0 0-.404.4c0 .221.18.4.404.4a.4.4 0 0 0 .403-.4zm0-14.804c0-.221-.18-.4-.403-.4a.402.402 0 0 0-.404.4c0 .221.18.4.404.4a.401.401 0 0 0 .403-.4zm0-14.806c0-.22-.18-.4-.403-.4a.402.402 0 0 0-.404.4c0 .222.18.4.404.4a.4.4 0 0 0 .403-.4zm14.729 132.845c0-.221-.181-.4-.404-.4a.402.402 0 0 0-.403.4c0 .221.18.4.403.4a.402.402 0 0 0 .404-.4zm0-14.605c0-.221-.181-.4-.404-.4a.402.402 0 0 0-.403.4c0 .221.18.4.403.4a.402.402 0 0 0 .404-.4zm0-14.805c0-.221-.181-.4-.404-.4a.402.402 0 0 0-.403.4c0 .221.18.4.403.4a.402.402 0 0 0 .404-.4zm0-14.805c0-.221-.181-.4-.404-.4a.402.402 0 0 0-.403.4c0 .221.18.4.403.4a.402.402 0 0 0 .404-.4zm0-14.805c0-.22-.181-.4-.404-.4a.402.402 0 0 0-.403.4c0 .221.18.4.403.4a.402.402 0 0 0 .404-.4zm0-14.805c0-.22-.181-.4-.404-.4a.402.402 0 0 0-.403.4c0 .221.18.4.403.4a.402.402 0 0 0 .404-.4zm0-14.604c0-.221-.181-.4-.404-.4a.402.402 0 0 0-.403.4c0 .22.18.4.403.4.223 0 .404-.18.404-.4zm0-14.806c0-.22-.181-.4-.404-.4a.402.402 0 0 0-.403.4c0 .221.18.4.403.4a.401.401 0 0 0 .404-.4zm0-14.804c0-.221-.181-.4-.404-.4a.402.402 0 0 0-.403.4c0 .221.18.4.403.4a.402.402 0 0 0 .404-.4zm0-14.806c0-.22-.181-.4-.404-.4a.402.402 0 0 0-.403.4c0 .222.18.4.403.4a.401.401 0 0 0 .404-.4zm15.132 132.845a.603.603 0 0 0-.606-.601.603.603 0 0 0-.605.601c0 .331.271.6.605.6a.603.603 0 0 0 .606-.6zm0-14.605c0-.332-.271-.6-.606-.6a.602.602 0 0 0-.605.6c0 .331.271.6.605.6a.603.603 0 0 0 .606-.6zm0-14.805c0-.332-.271-.6-.606-.6a.602.602 0 0 0-.605.6c0 .331.271.6.605.6a.603.603 0 0 0 .606-.6zm0-14.805c0-.331-.271-.6-.606-.6a.603.603 0 0 0-.605.6c0 .332.271.6.605.6a.602.602 0 0 0 .606-.6zm0-14.805c0-.331-.271-.6-.606-.6a.603.603 0 0 0-.605.6c0 .332.271.6.605.6a.603.603 0 0 0 .606-.6zm0-14.805c0-.331-.271-.6-.606-.6a.603.603 0 0 0-.605.6c0 .332.271.6.605.6a.603.603 0 0 0 .606-.6zm0-14.605c0-.331-.271-.6-.606-.6a.603.603 0 0 0-.605.6c0 .332.271.6.605.6a.603.603 0 0 0 .606-.6zm0-14.805c0-.33-.271-.6-.606-.6a.603.603 0 0 0-.605.6c0 .332.271.601.605.601a.603.603 0 0 0 .606-.6zm0-14.804c0-.332-.271-.6-.606-.6a.603.603 0 0 0-.605.6c0 .331.271.6.605.6a.603.603 0 0 0 .606-.6zm0-14.806c0-.331-.271-.6-.606-.6a.603.603 0 0 0-.605.6c0 .332.271.6.605.6a.603.603 0 0 0 .606-.6zm15.133 132.845a.804.804 0 0 0-.807-.801.804.804 0 0 0-.807.801c0 .442.361.8.807.8a.803.803 0 0 0 .807-.8zm0-14.605c0-.442-.362-.8-.807-.8a.803.803 0 0 0-.807.8c0 .442.361.8.807.8a.803.803 0 0 0 .807-.8zm0-14.805c0-.442-.362-.8-.807-.8a.803.803 0 0 0-.807.8c0 .442.361.801.807.801a.804.804 0 0 0 .807-.801zm0-14.805c0-.442-.362-.8-.807-.8a.803.803 0 0 0-.807.8c0 .442.361.8.807.8a.803.803 0 0 0 .807-.8zm0-14.805c0-.442-.362-.8-.807-.8a.804.804 0 0 0-.807.8c0 .442.361.8.807.8a.804.804 0 0 0 .807-.8zm0-14.805c0-.441-.362-.8-.807-.8a.804.804 0 0 0-.807.8c0 .443.361.801.807.801a.804.804 0 0 0 .807-.8zm0-14.604c0-.442-.362-.8-.807-.8a.804.804 0 0 0-.807.8c0 .441.361.8.807.8a.804.804 0 0 0 .807-.8zm0-14.806c0-.442-.362-.8-.807-.8a.804.804 0 0 0-.807.8c0 .442.361.8.807.8a.804.804 0 0 0 .807-.8zm0-14.805c0-.442-.362-.8-.807-.8a.804.804 0 0 0-.807.8c0 .442.361.8.807.8a.804.804 0 0 0 .807-.8zm0-14.805c0-.442-.362-.8-.807-.8a.804.804 0 0 0-.807.8c0 .442.361.8.807.8a.804.804 0 0 0 .807-.8zm14.929 132.845a.804.804 0 0 0-.807-.801.804.804 0 0 0-.807.801c0 .442.362.8.807.8a.803.803 0 0 0 .807-.8zm0-14.605c0-.442-.36-.8-.807-.8a.803.803 0 0 0-.807.8c0 .442.362.8.807.8a.803.803 0 0 0 .807-.8zm0-14.805c0-.442-.36-.8-.807-.8a.803.803 0 0 0-.807.8c0 .442.362.801.807.801a.804.804 0 0 0 .807-.801zm0-14.805c0-.442-.36-.8-.807-.8a.804.804 0 0 0-.807.8c0 .442.362.8.807.8a.803.803 0 0 0 .807-.8zm0-14.805c0-.442-.36-.8-.807-.8a.804.804 0 0 0-.807.8c0 .442.362.8.807.8a.804.804 0 0 0 .807-.8zm0-14.805c0-.441-.36-.8-.807-.8a.804.804 0 0 0-.807.8c0 .443.362.801.807.801a.804.804 0 0 0 .807-.8zm0-14.604c0-.442-.36-.8-.807-.8a.804.804 0 0 0-.807.8c0 .441.362.8.807.8a.804.804 0 0 0 .807-.8zm0-14.806c0-.442-.36-.8-.807-.8a.804.804 0 0 0-.807.8c0 .442.362.8.807.8a.804.804 0 0 0 .807-.8zm0-14.805c0-.442-.36-.8-.807-.8a.804.804 0 0 0-.807.8c0 .442.362.8.807.8a.804.804 0 0 0 .807-.8zm0-14.805c0-.442-.36-.8-.807-.8a.804.804 0 0 0-.807.8c0 .442.362.8.807.8a.804.804 0 0 0 .807-.8zm15.132 132.846c0-.552-.451-1-1.008-1-.557 0-1.009.448-1.009 1 0 .553.452 1.001 1.009 1.001.557 0 1.008-.448 1.008-1.001zm0-14.606c0-.553-.451-1-1.008-1-.557 0-1.009.447-1.009 1 0 .552.452 1 1.009 1 .557 0 1.008-.448 1.008-1zm0-14.805c0-.552-.451-1-1.008-1-.557 0-1.009.448-1.009 1 0 .553.452 1 1.009 1 .557 0 1.008-.447 1.008-1zm0-14.805c0-.552-.451-1-1.008-1-.557 0-1.009.448-1.009 1 0 .553.452 1.001 1.009 1.001.557 0 1.008-.448 1.008-1.001zm0-14.805c0-.552-.451-1-1.008-1-.557 0-1.009.448-1.009 1 0 .553.452 1 1.009 1 .557 0 1.008-.447 1.008-1zm0-14.805c0-.552-.451-1-1.008-1-.557 0-1.009.448-1.009 1 0 .553.452 1 1.009 1 .557 0 1.008-.447 1.008-1zm0-14.605c0-.552-.451-1-1.008-1-.557 0-1.009.448-1.009 1 0 .553.452 1 1.009 1 .557 0 1.008-.447 1.008-1zm0-14.805c0-.552-.451-1-1.008-1-.557 0-1.009.448-1.009 1 0 .553.452 1 1.009 1 .557 0 1.008-.447 1.008-1zm0-14.804c0-.553-.451-1-1.008-1-.557 0-1.009.447-1.009 1 0 .552.452 1 1.009 1 .557 0 1.008-.448 1.008-1zm0-14.806c0-.552-.451-1-1.008-1-.557 0-1.009.448-1.009 1 0 .553.452 1 1.009 1 .557 0 1.008-.447 1.008-1zm14.931 132.845c0-.663-.542-1.201-1.21-1.201-.669 0-1.211.538-1.211 1.201s.542 1.2 1.211 1.2c.668 0 1.21-.537 1.21-1.2zm0-14.605c0-.663-.542-1.2-1.21-1.2-.669 0-1.211.537-1.211 1.2 0 .663.542 1.201 1.211 1.201.668 0 1.21-.538 1.21-1.201zm0-14.805c0-.663-.542-1.2-1.21-1.2-.669 0-1.211.537-1.211 1.2 0 .663.542 1.201 1.211 1.201.668 0 1.21-.538 1.21-1.201zm0-14.804c0-.663-.542-1.2-1.21-1.2-.669 0-1.211.537-1.211 1.2 0 .663.542 1.2 1.211 1.2.668 0 1.21-.537 1.21-1.2zm0-14.806c0-.663-.542-1.2-1.21-1.2-.669 0-1.211.537-1.211 1.2 0 .663.542 1.2 1.211 1.2.668 0 1.21-.537 1.21-1.2zm0-14.805c0-.662-.542-1.2-1.21-1.2-.669 0-1.211.538-1.211 1.2 0 .664.542 1.201 1.211 1.201.668 0 1.21-.537 1.21-1.2zm0-14.605c0-.663-.542-1.2-1.21-1.2-.669 0-1.211.537-1.211 1.2 0 .663.542 1.2 1.211 1.2.668 0 1.21-.537 1.21-1.2zm0-14.805c0-.662-.542-1.2-1.21-1.2-.669 0-1.211.538-1.211 1.2 0 .664.542 1.201 1.211 1.201.668 0 1.21-.537 1.21-1.2zm0-14.805c0-.663-.542-1.2-1.21-1.2-.669 0-1.211.537-1.211 1.2 0 .663.542 1.2 1.211 1.2.668 0 1.21-.537 1.21-1.2zm0-14.805c0-.662-.542-1.2-1.21-1.2-.669 0-1.211.538-1.211 1.2 0 .664.542 1.201 1.211 1.201.668 0 1.21-.537 1.21-1.2zm14.931 132.845c0-.663-.542-1.201-1.211-1.201-.668 0-1.21.538-1.21 1.201s.542 1.2 1.21 1.2c.669 0 1.211-.537 1.211-1.2zm-.001-14.605c0-.663-.542-1.2-1.211-1.2-.668 0-1.21.537-1.21 1.2 0 .663.542 1.201 1.21 1.201.669 0 1.211-.538 1.211-1.201zm0-14.805c0-.663-.542-1.2-1.211-1.2-.668 0-1.21.537-1.21 1.2 0 .663.542 1.201 1.21 1.201.669 0 1.211-.538 1.211-1.201zm0-14.804c0-.663-.542-1.2-1.211-1.2-.668 0-1.21.537-1.21 1.2 0 .663.542 1.2 1.21 1.2.669 0 1.211-.537 1.211-1.2zm0-14.806c0-.663-.542-1.2-1.211-1.2-.668 0-1.21.537-1.21 1.2 0 .663.542 1.2 1.21 1.2.669 0 1.211-.537 1.211-1.2zm0-14.805c0-.662-.542-1.2-1.211-1.2-.668 0-1.21.538-1.21 1.2 0 .664.542 1.201 1.21 1.201.669 0 1.211-.537 1.211-1.2zm0-14.605c0-.663-.542-1.2-1.211-1.2-.668 0-1.21.537-1.21 1.2 0 .663.542 1.2 1.21 1.2.669 0 1.211-.537 1.211-1.2zm0-14.805c0-.662-.542-1.2-1.211-1.2-.668 0-1.21.538-1.21 1.2 0 .664.542 1.201 1.21 1.201.669 0 1.211-.537 1.211-1.2zm0-14.805c0-.663-.542-1.2-1.211-1.2-.668 0-1.21.537-1.21 1.2 0 .663.542 1.2 1.21 1.2.669 0 1.211-.537 1.211-1.2zm0-14.805c0-.662-.542-1.2-1.211-1.2-.668 0-1.21.538-1.21 1.2 0 .664.542 1.201 1.21 1.201.669 0 1.211-.537 1.211-1.2zm15.132 132.845c0-.774-.632-1.401-1.412-1.401-.78 0-1.413.627-1.413 1.401 0 .773.633 1.4 1.413 1.4s1.412-.627 1.412-1.4zm0-14.605c0-.773-.632-1.4-1.412-1.4-.78 0-1.413.627-1.413 1.4 0 .774.633 1.401 1.413 1.401s1.412-.627 1.412-1.401zm0-14.804c0-.774-.632-1.401-1.412-1.401-.78 0-1.413.627-1.413 1.401 0 .773.633 1.4 1.413 1.4s1.412-.627 1.412-1.4zm0-14.806c0-.773-.632-1.4-1.412-1.4-.78 0-1.413.627-1.413 1.4 0 .774.633 1.401 1.413 1.401s1.412-.627 1.412-1.401zm0-14.804c0-.774-.632-1.4-1.412-1.4-.78 0-1.413.626-1.413 1.4 0 .773.633 1.4 1.413 1.4s1.412-.627 1.412-1.4zm0-14.806c0-.773-.632-1.4-1.412-1.4-.78 0-1.413.627-1.413 1.4 0 .774.633 1.4 1.413 1.4s1.412-.626 1.412-1.4zm0-14.604c0-.774-.632-1.4-1.412-1.4-.78 0-1.413.626-1.413 1.4 0 .773.633 1.4 1.413 1.4s1.412-.627 1.412-1.4zm0-14.806c0-.773-.632-1.4-1.412-1.4-.78 0-1.413.627-1.413 1.4 0 .774.633 1.4 1.413 1.4s1.412-.626 1.412-1.4zm0-14.804c0-.774-.632-1.4-1.412-1.4-.78 0-1.413.626-1.413 1.4 0 .773.633 1.4 1.413 1.4s1.412-.627 1.412-1.4zm0-14.806c0-.773-.632-1.4-1.412-1.4-.78 0-1.413.627-1.413 1.4 0 .774.633 1.4 1.413 1.4s1.412-.626 1.412-1.4zm14.932 132.845c0-.774-.633-1.401-1.413-1.401s-1.412.627-1.412 1.401c0 .773.632 1.4 1.412 1.4.78 0 1.413-.627 1.413-1.4zm-.001-14.605c0-.773-.633-1.4-1.413-1.4s-1.412.627-1.412 1.4c0 .774.632 1.401 1.412 1.401.78 0 1.413-.627 1.413-1.401zm0-14.804c0-.774-.633-1.401-1.413-1.401s-1.412.627-1.412 1.401c0 .773.632 1.4 1.412 1.4.78 0 1.413-.627 1.413-1.4zm0-14.806c0-.773-.633-1.4-1.413-1.4s-1.412.627-1.412 1.4c0 .774.632 1.401 1.412 1.401.78 0 1.413-.627 1.413-1.401zm0-14.804c0-.774-.633-1.4-1.413-1.4s-1.412.626-1.412 1.4c0 .773.632 1.4 1.412 1.4.78 0 1.413-.627 1.413-1.4zm0-14.606c0-.773-.633-1.4-1.413-1.4s-1.412.627-1.412 1.4c0 .774.632 1.4 1.412 1.4.78 0 1.413-.626 1.413-1.4zm0-14.804c0-.774-.633-1.4-1.413-1.4s-1.412.626-1.412 1.4c0 .773.632 1.4 1.412 1.4.78 0 1.413-.627 1.413-1.4zm0-14.806c0-.773-.633-1.4-1.413-1.4s-1.412.627-1.412 1.4c0 .774.632 1.4 1.412 1.4.78 0 1.413-.626 1.413-1.4zm0-14.804c0-.774-.633-1.4-1.413-1.4s-1.412.626-1.412 1.4c0 .773.632 1.4 1.412 1.4.78 0 1.413-.627 1.413-1.4zm0-14.806c0-.773-.633-1.4-1.413-1.4s-1.412.627-1.412 1.4c0 .774.632 1.4 1.412 1.4.78 0 1.413-.626 1.413-1.4zm15.132 132.845c0-.884-.723-1.601-1.614-1.601-.892 0-1.614.717-1.614 1.601s.722 1.6 1.614 1.6c.891 0 1.614-.716 1.614-1.6zm.001-14.605c0-.884-.723-1.6-1.614-1.6-.892 0-1.614.716-1.614 1.6 0 .884.722 1.601 1.614 1.601.891 0 1.614-.717 1.614-1.601zm0-14.805c0-.884-.723-1.601-1.614-1.601-.892 0-1.614.717-1.614 1.601s.722 1.6 1.614 1.6c.891 0 1.614-.716 1.614-1.6zm0-14.805c0-.884-.723-1.6-1.614-1.6-.892 0-1.614.716-1.614 1.6 0 .884.722 1.601 1.614 1.601.891 0 1.614-.717 1.614-1.601zm0-14.805c0-.884-.723-1.6-1.614-1.6-.892 0-1.614.716-1.614 1.6 0 .884.722 1.6 1.614 1.6.891 0 1.614-.716 1.614-1.6zm0-14.605c0-.883-.723-1.6-1.614-1.6-.892 0-1.614.717-1.614 1.6 0 .885.722 1.601 1.614 1.601.891 0 1.614-.716 1.614-1.6zm0-14.805c0-.884-.723-1.6-1.614-1.6-.892 0-1.614.716-1.614 1.6 0 .884.722 1.6 1.614 1.6.891 0 1.614-.716 1.614-1.6zm0-14.805c0-.883-.723-1.6-1.614-1.6-.892 0-1.614.717-1.614 1.6 0 .885.722 1.601 1.614 1.601.891 0 1.614-.716 1.614-1.6zm0-14.804c0-.884-.723-1.601-1.614-1.601-.892 0-1.614.716-1.614 1.6 0 .884.722 1.601 1.614 1.601.891 0 1.614-.717 1.614-1.6zm0-14.805c0-.884-.723-1.6-1.614-1.6-.892 0-1.614.716-1.614 1.6 0 .884.722 1.6 1.614 1.6.891 0 1.614-.716 1.614-1.6zm14.727 132.844c0-.884-.722-1.601-1.614-1.601-.891 0-1.614.717-1.614 1.601s.723 1.6 1.614 1.6c.892 0 1.614-.716 1.614-1.6zm0-14.605c0-.884-.722-1.6-1.614-1.6-.891 0-1.614.716-1.614 1.6 0 .884.723 1.601 1.614 1.601.892 0 1.614-.717 1.614-1.601zm0-14.805c0-.884-.722-1.601-1.614-1.601-.891 0-1.614.717-1.614 1.601s.723 1.6 1.614 1.6c.892 0 1.614-.716 1.614-1.6zm0-14.805c0-.884-.722-1.6-1.614-1.6-.891 0-1.614.716-1.614 1.6 0 .884.723 1.601 1.614 1.601.892 0 1.614-.717 1.614-1.601zm0-14.805c0-.884-.722-1.6-1.614-1.6-.891 0-1.614.716-1.614 1.6 0 .884.723 1.6 1.614 1.6.892 0 1.614-.716 1.614-1.6zm0-14.805c0-.884-.722-1.6-1.614-1.6-.891 0-1.614.716-1.614 1.6 0 .884.723 1.6 1.614 1.6.892 0 1.614-.716 1.614-1.6zm0-14.605c0-.884-.722-1.6-1.614-1.6-.891 0-1.614.716-1.614 1.6 0 .884.723 1.6 1.614 1.6.892 0 1.614-.716 1.614-1.6zm0-14.805c0-.883-.722-1.6-1.614-1.6-.891 0-1.614.717-1.614 1.6 0 .885.723 1.601 1.614 1.601.892 0 1.614-.716 1.614-1.6zm0-14.804c0-.884-.722-1.601-1.614-1.601-.891 0-1.614.716-1.614 1.6 0 .884.723 1.601 1.614 1.601.892 0 1.614-.717 1.614-1.6zm0-14.805c0-.884-.722-1.6-1.614-1.6-.891 0-1.614.716-1.614 1.6 0 .884.723 1.6 1.614 1.6.892 0 1.614-.716 1.614-1.6z"/></g></svg>