<svg width="124" height="120" viewBox="0 0 124 120" fill="none" xmlns="http://www.w3.org/2000/svg"><path fill-rule="evenodd" clip-rule="evenodd" d="M4.344 15c0-.777.63-1.406 1.406-1.406h112.5c.777 0 1.406.63 1.406 1.406v90c0 .777-.629 1.406-1.406 1.406H5.75A1.406 1.406 0 0 1 4.344 105V15zm2.812 1.406v87.188h109.688V16.406H7.156z" fill="#6F7B8E"/><path fill-rule="evenodd" clip-rule="evenodd" d="M11.844 22.5c0-.777.63-1.406 1.406-1.406h97.5c.777 0 1.406.63 1.406 1.406v60c0 .777-.629 1.406-1.406 1.406h-97.5c-.777 0-1.406-.63-1.406-1.406v-60zm2.812 1.406v57.188h94.688V23.906H14.656z" fill="#6F7B8E"/><path fill-rule="evenodd" clip-rule="evenodd" d="M36.688 31.406a5.156 5.156 0 1 0 0 10.313 5.156 5.156 0 0 0 0-10.313zm-7.97 5.157a7.969 7.969 0 1 1 15.938 0 7.969 7.969 0 0 1-15.937 0zm57.694-2.344c.386.01.75.178 1.008.465l16.875 18.75a1.406 1.406 0 1 1-2.09 1.882L86.321 37.667 65.864 58.125l4.63 4.63a1.406 1.406 0 0 1-1.988 1.99L50.75 46.988 21.744 75.994a1.406 1.406 0 0 1-1.988-1.988l30-30c.549-.55 1.44-.55 1.988 0l12.131 12.13 21.506-21.505a1.406 1.406 0 0 1 1.031-.412zM11.844 93.75c0-.777.63-1.406 1.406-1.406h50.625a1.406 1.406 0 1 1 0 2.812H13.25c-.777 0-1.406-.63-1.406-1.406zm78.281 1.406H69.5a1.406 1.406 0 1 1 0-2.812h20.625a1.406 1.406 0 1 1 0 2.812z" fill="#6F7B8E"/><defs><filter id="filter0_d" x="-2" y="0" width="128" height="128" filterUnits="userSpaceOnUse" color-interpolation-filters="sRGB"><feFlood flood-opacity="0" result="BackgroundImageFix"/><feColorMatrix in="SourceAlpha" values="0 0 0 0 0 0 0 0 0 0 0 0 0 0 0 0 0 0 127 0"/><feOffset dy="4"/><feGaussianBlur stdDeviation="2"/><feColorMatrix values="0 0 0 0 0 0 0 0 0 0 0 0 0 0 0 0 0 0 0.25 0"/><feBlend in2="BackgroundImageFix" result="effect1_dropShadow"/><feBlend in="SourceGraphic" in2="effect1_dropShadow" result="shape"/></filter></defs></svg>