<svg width="43" height="26" viewBox="0 0 43 26" fill="none" xmlns="http://www.w3.org/2000/svg"><path d="M.75 4A3.25 3.25 0 0 1 4 .75h24.297c.884 0 1.73.36 2.343.997l8.654 9a3.25 3.25 0 0 1 0 4.506l-8.654 9a3.25 3.25 0 0 1-2.343.997H4A3.25 3.25 0 0 1 .75 22V4z" fill="#4EB1AA" stroke="#4EB1AA" stroke-width="1.5"/><path d="M8.41 14.69v-.742h2.398v.742H8.41zm6.592-2.7c0 .554.06.969.18 1.245.121.277.316.415.587.415.533 0 .8-.553.8-1.66 0-1.1-.267-1.65-.8-1.65-.27 0-.466.137-.586.41-.12.273-.181.687-.181 1.24zm2.236 0c0 .742-.125 1.304-.376 1.685-.247.377-.612.566-1.093.566-.456 0-.811-.194-1.065-.58-.25-.388-.376-.945-.376-1.67 0-.74.12-1.296.362-1.67.244-.375.603-.562 1.079-.562.472 0 .835.193 1.088.58.254.388.381.938.381 1.651zm2.06 2.862c0 .556.061.973.182 1.25.12.273.317.41.59.41.274 0 .476-.135.606-.406.13-.273.195-.691.195-1.254 0-.557-.065-.969-.195-1.236-.13-.27-.332-.405-.606-.405-.273 0-.47.135-.59.405-.121.267-.181.679-.181 1.236zm2.242 0c0 .739-.125 1.298-.376 1.68-.247.377-.612.566-1.094.566-.462 0-.818-.194-1.069-.581-.247-.388-.371-.943-.371-1.665 0-.74.12-1.296.361-1.67.244-.375.604-.562 1.08-.562.462 0 .821.192 1.078.576.26.381.391.933.391 1.656zm-1.26-4.99L16.32 17h-.718l3.96-7.139h.718z" fill="#fff"/><circle cx="31" cy="13" r="2" fill="#fff"/></svg>