<svg width="27" height="27" viewBox="0 0 27 27" fill="none" xmlns="http://www.w3.org/2000/svg"><path fill-rule="evenodd" clip-rule="evenodd" d="M20.712 27c-3.133 0-5.689-2.576-5.689-5.754 0-3.17 2.556-5.754 5.689-5.754s5.688 2.585 5.688 5.754c0 3.178-2.555 5.754-5.688 5.754z" fill="#4EB1AA"/><path fill-rule="evenodd" clip-rule="evenodd" d="M20.711 24.344a.436.436 0 0 1-.437-.442v-6.197a.44.44 0 0 1 .437-.442.44.44 0 0 1 .438.442v6.197a.436.436 0 0 1-.438.442z" fill="#fff"/><path fill-rule="evenodd" clip-rule="evenodd" d="M20.711 24.344a.435.435 0 0 1-.306-.123l-2.625-2.656a.442.442 0 0 1 0-.629.42.42 0 0 1 .612 0l2.32 2.346 2.319-2.346a.42.42 0 0 1 .612 0 .442.442 0 0 1 0 .629l-2.625 2.655a.434.434 0 0 1-.307.124z" fill="#fff"/><path fill-rule="evenodd" clip-rule="evenodd" d="M10.886 24.3H.436A.443.443 0 0 1 0 23.85V6.75c0-.12.046-.234.127-.318l6.096-6.3A.429.429 0 0 1 6.531 0h12.193c.24 0 .435.202.435.45v7.2c0 .248-.195.45-.435.45a.443.443 0 0 1-.436-.45V.9H6.712L.87 6.936V23.4h10.015c.24 0 .435.202.435.45s-.195.45-.435.45z" fill="#000"/><path fill-rule="evenodd" clip-rule="evenodd" d="M6.531 7.2H.435A.443.443 0 0 1 0 6.75c0-.248.195-.45.435-.45h5.661V.45c0-.248.195-.45.435-.45s.436.202.436.45v6.3c0 .248-.195.45-.436.45z" fill="#000"/><path d="M3.338 16.729v-6.515h2.504c.642 0 1.119.164 1.432.492.315.328.473.791.473 1.391 0 .674-.186 1.187-.558 1.538-.275.26-.724.39-1.347.39H4.135v2.704h-.797zm.797-3.47h1.622c.3 0 .529-.037.688-.111a.763.763 0 0 0 .368-.386c.086-.18.13-.402.13-.665 0-.37-.094-.648-.28-.837-.183-.19-.485-.284-.906-.284H4.135v2.282zm7.446-.669v-2.376h.732v6.515h-.659v-.594a3.246 3.246 0 0 1-.388.416 1.39 1.39 0 0 1-.413.23 1.504 1.504 0 0 1-.542.094c-.52 0-.953-.208-1.298-.625-.343-.417-.514-1.013-.514-1.79 0-.467.066-.9.198-1.3.135-.4.347-.722.635-.96a1.524 1.524 0 0 1 1.011-.364 1.321 1.321 0 0 1 .992.403c.072.077.154.194.246.35zm-2.334 1.816c0 .612.122 1.079.364 1.4.19.252.456.378.801.378.372 0 .67-.148.894-.444.227-.298.34-.778.34-1.44 0-.517-.09-.922-.267-1.214-.224-.37-.53-.554-.918-.554-.221 0-.426.066-.615.199-.186.13-.333.34-.44.63-.106.289-.159.638-.159 1.045zm5.056-1.795v4.118h-.732V12.61h-.598v-.629h.598v-.736c0-.263.034-.466.101-.611a.833.833 0 0 1 .352-.364c.17-.097.387-.146.651-.146.11 0 .227.009.348.027v.726a2.611 2.611 0 0 0-.283-.022c-.154 0-.266.04-.336.12-.067.08-.1.226-.1.439v.567h.72v.63h-.72z" fill="#000"/></svg>