<svg width="32" height="33" viewBox="0 0 32 33" fill="none" xmlns="http://www.w3.org/2000/svg"><path fill-rule="evenodd" clip-rule="evenodd" d="M16.002.854C7.166.854 0 8.017 0 16.854c0 6.55 3.94 12.18 9.58 14.654-.046-1.116-.008-2.459.276-3.674.308-1.299 2.058-8.718 2.058-8.718s-.51-1.022-.51-2.532c0-2.371 1.376-4.142 3.086-4.142 1.454 0 2.158 1.093 2.158 2.403 0 1.462-.933 3.65-1.413 5.677-.4 1.699.85 3.082 2.525 3.082 3.031 0 5.073-3.893 5.073-8.507 0-3.505-2.361-6.13-6.657-6.13-4.853 0-7.876 3.618-7.876 7.66 0 1.396.41 2.378 1.053 3.138.298.352.337.491.23.894-.075.292-.252 1.003-.326 1.283-.107.405-.434.552-.8.401-2.237-.913-3.277-3.36-3.277-6.113 0-4.544 3.833-9.997 11.434-9.997 6.11 0 10.13 4.423 10.13 9.167 0 6.277-3.488 10.966-8.634 10.966-1.725 0-3.35-.933-3.908-1.993 0 0-.93 3.686-1.125 4.397-.339 1.233-1.003 2.467-1.61 3.427 1.439.425 2.959.656 4.534.656C24.838 32.853 32 25.69 32 16.855 32 8.017 24.837.854 16 .854z" fill="#CC2127"/></svg>