<svg width="90" height="90" viewBox="0 0 90 90" fill="none" xmlns="http://www.w3.org/2000/svg"><path d="M8.95 78.353c.201 0 .404-.04.599-.126 4.785-2.084 12.865-3.168 24.025-3.226l1.083 2.17a1.499 1.499 0 002.013.67 1.497 1.497 0 00.67-2.012l-1.498-3A1.502 1.502 0 0034.5 72c-12.224 0-20.778 1.138-26.15 3.476a1.502 1.502 0 00.6 2.878z" fill="#6F7B8E"/><path d="M87 81h-3v-7.5c0-.397-.16-.78-.44-1.06l-9.011-9.011a4.434 4.434 0 00.451-1.93c0-2.48-2.019-4.5-4.5-4.5a4.505 4.505 0 00-4.5 4.5c0 2.482 2.02 4.5 4.5 4.5.693 0 1.341-.168 1.927-.45L81 74.122V81H3c-1.655 0-3 1.346-3 3v4.5a1.5 1.5 0 003 0V84h84v4.5a1.5 1.5 0 103 0V84c0-1.654-1.347-3-3-3zM70.5 63a1.501 1.501 0 010-3 1.501 1.501 0 010 3z" fill="#6F7B8E"/><path d="M21.415 44.868c1.094 2.847 4.712 12.027 7.337 15.964l.237.359C30.915 64.11 34.137 69 45 69c10.861 0 14.085-4.889 16.011-7.81l.237-.358c2.625-3.937 6.242-13.117 7.337-15.964A4.509 4.509 0 0072 40.5v-6a4.509 4.509 0 00-3-4.244V22.5c0-5.922-3.119-16.861-14.654-17.918a3.41 3.41 0 00-.517-1.699C52.355.5 48.215 0 45 0 18.309 0 18 25.245 18 25.5c0 .828.67 1.499 1.497 1.499h.003a1.5 1.5 0 001.5-1.497C21.003 24.584 21.34 3 45 3c4.242 0 5.941.918 6.277 1.461.047.076.174.282-.12.869A1.5 1.5 0 0052.5 7.5c13.299 0 13.498 14.39 13.5 15v9c0 .828.67 1.5 1.5 1.5.828 0 1.5.673 1.5 1.5v6c0 .827-.672 1.5-1.5 1.5-.626 0-1.185.388-1.406.973-.043.119-4.473 11.891-7.342 16.194l-.246.372C56.709 62.266 54.246 66 45 66c-9.248 0-11.71-3.732-13.506-6.46l-.246-.372c-2.87-4.303-7.3-16.075-7.344-16.194A1.5 1.5 0 0022.5 42c-.827 0-1.5-.673-1.5-1.5v-6c0-.407.162-.776.426-1.045.544 1.222 1.656 2.322 3.523 2.508l5.133 3.849C30.482 42.734 32.968 45 36 45h3c3.309 0 6-2.691 6-6 0 3.309 2.691 6 6 6h3c3.03 0 5.519-2.267 5.917-5.19L65.4 35.7a1.499 1.499 0 00.3-2.1 1.498 1.498 0 00-2.1-.3l-3.824 2.868C59.206 34.34 57.517 33 55.5 33h-6a4.505 4.505 0 00-4.5 4.5c0-2.48-2.019-4.5-4.5-4.5h-6c-2.014 0-3.703 1.34-4.276 3.168l-2.862-2.146c1.18-2.853 2.25-7.073 2.553-10.035 4.728-.084 18.406-.662 24.492-4.46 1.38 5.328 5.81 9.812 6.033 10.034a1.498 1.498 0 002.12 0 1.498 1.498 0 000-2.121C62.505 27.384 57 21.818 57 16.5a1.501 1.501 0 00-2.785-.773C52.03 19.365 37.863 21 28.5 21a1.5 1.5 0 00-1.5 1.5c0 2.435-1.15 7.298-2.374 10.29-.479-.288-.614-.825-.626-1.29a1.5 1.5 0 00-1.5-1.5 4.505 4.505 0 00-4.5 4.5v6a4.508 4.508 0 003.415 4.368zM48 37.5c0-.827.672-1.5 1.5-1.5h6c.828 0 1.5.673 1.5 1.5V39c0 1.654-1.346 3-3 3h-3c-1.655 0-3-1.346-3-3v-1.5zm-15 0c0-.827.673-1.5 1.5-1.5h6c.827 0 1.5.673 1.5 1.5V39c0 1.654-1.346 3-3 3h-3c-1.654 0-3-1.346-3-3v-1.5z" fill="#6F7B8E"/><path d="M52.498 54.005a1.503 1.503 0 00-1.493-1.505c-.029 0-2.711-.03-5.335-1.342-.421-.21-.92-.21-1.34 0C41.705 52.47 39.021 52.5 39 52.5a1.5 1.5 0 000 3c.127 0 2.96-.017 6-1.346 3.037 1.33 5.872 1.346 6 1.346a1.5 1.5 0 001.498-1.495zm2.997 18.056a1.506 1.506 0 00-1.331.82l-1.5 2.936A1.503 1.503 0 0053.998 78c.546 0 1.072-.299 1.338-.818l1.081-2.12c8.2.022 14.802.635 19.641 1.823.807.2 1.617-.293 1.814-1.097a1.499 1.499 0 00-1.098-1.815c-5.254-1.292-12.378-1.964-21.28-1.912zM43.5 73.5v3a1.5 1.5 0 003 0v-3a1.5 1.5 0 00-3 0zm0-16.5a1.5 1.5 0 000 3h3a1.5 1.5 0 100-3h-3z" fill="#6F7B8E"/></svg>