<svg width="16" height="17" viewBox="0 0 16 17" fill="none" xmlns="http://www.w3.org/2000/svg"><g clip-path="url(#clip0)" fill="#000"><path d="M8.027 9.286a4.283 4.283 0 0 0 4.282-4.282A4.272 4.272 0 0 0 8.027.734a4.28 4.28 0 0 0-4.283 4.27 4.292 4.292 0 0 0 4.283 4.282zm0-7.435a3.162 3.162 0 0 1 3.152 3.153 3.162 3.162 0 0 1-3.152 3.152 3.162 3.162 0 0 1-3.153-3.152A3.162 3.162 0 0 1 8.027 1.85zM.565 15.973h14.87a.56.56 0 0 0 .565-.565 5.38 5.38 0 0 0-5.373-5.373H5.373A5.38 5.38 0 0 0 0 15.408c0 .315.25.565.565.565zm4.808-4.808h5.254a4.24 4.24 0 0 1 4.204 3.678H1.169a4.252 4.252 0 0 1 4.204-3.678z"/></g><defs><clipPath id="clip0"><path fill="#fff" transform="matrix(-1 0 0 1 16 .354)" d="M0 0h16v16H0z"/></clipPath></defs></svg>