<svg width="15" height="14" viewBox="0 0 15 14" fill="none" xmlns="http://www.w3.org/2000/svg"><path d="M11.788 10.309l.18-.225c.883-1.126 1.358-2.454 1.358-3.85C13.326 2.792 10.52 0 7.06 0 3.623 0 .818 2.813.818 6.257c0 3.444 2.805 6.235 6.265 6.235a6.17 6.17 0 0 0 3.868-1.35l.226-.18 2.918 2.903c.09.09.18.135.294.135a.4.4 0 0 0 .294-.135.46.46 0 0 0 0-.653l-2.895-2.903zm-4.705 1.305c-2.963 0-5.36-2.386-5.36-5.334 0-2.95 2.397-5.335 5.36-5.335a5.34 5.34 0 0 1 5.338 5.335 5.34 5.34 0 0 1-5.338 5.334z" fill="#121B1B"/></svg>