<svg width="52" height="63" viewBox="0 0 52 63" fill="none" xmlns="http://www.w3.org/2000/svg"><path d="M39.619 44.925a13.55 13.55 0 0 1-2.204 7.428h-22.83a13.55 13.55 0 0 1-2.204-7.428c0-7.521 6.098-13.62 13.619-13.62s13.619 6.099 13.619 13.62z" fill="#BAD432"/><path d="M38.448 31.566a.916.916 0 0 0-.019 1.287 17.288 17.288 0 0 1 4.903 12.072 17.24 17.24 0 0 1-4.34 11.459c-.321.358-.29.91.05 1.256a.935.935 0 0 0 1.362-.05 19.121 19.121 0 0 0 4.785-12.665c0-5.181-2.06-9.886-5.41-13.34a.934.934 0 0 0-1.33-.02zM6.808 44.925c0 4.84 1.808 9.286 4.792 12.666a.94.94 0 0 0 1.362.05.92.92 0 0 0 .05-1.258 17.213 17.213 0 0 1-4.346-11.458c0-4.686 1.87-8.945 4.903-12.065a.921.921 0 0 0-.019-1.288.934.934 0 0 0-1.33.019 19.08 19.08 0 0 0-5.411 13.334z" fill="#BAD432"/><path d="M43.259 26.756a.936.936 0 0 0 .006 1.319 24.022 24.022 0 0 1 6.878 16.85c0 6.246-2.39 11.948-6.302 16.238a.935.935 0 0 0 .018 1.293.923.923 0 0 0 1.331-.018C49.42 57.814 52 51.66 52 44.925c0-7.076-2.835-13.49-7.435-18.175a.927.927 0 0 0-1.306.006zm-34.518 0c-.36-.36-.953-.372-1.306-.006C2.835 31.436 0 37.85 0 44.925a25.862 25.862 0 0 0 6.81 17.513.929.929 0 0 0 1.33.018.94.94 0 0 0 .02-1.293c-3.913-4.29-6.303-9.992-6.303-16.238a24.023 24.023 0 0 1 6.878-16.85.93.93 0 0 0 .006-1.32zM26.619.354h-1.238v52h1.238v-52z" fill="#BAD432"/></svg>