<svg width="12" height="11" viewBox="0 0 12 11" fill="none" xmlns="http://www.w3.org/2000/svg"><path d="M9.208 11a.445.445 0 0 1-.266-.09L6 8.716 3.058 10.91a.444.444 0 0 1-.545-.01.492.492 0 0 1-.15-.548l1.25-3.482-2.92-2.176a.49.49 0 0 1-.17-.536.46.46 0 0 1 .436-.332h3.35L5.57.31A.46.46 0 0 1 6 0a.46.46 0 0 1 .43.31l1.263 3.516h3.349c.2 0 .375.134.436.332a.49.49 0 0 1-.17.536L8.386 6.87l1.251 3.482c.071.197.01.42-.15.549a.445.445 0 0 1-.279.098zM6 7.648c.094 0 .187.03.267.09L8.25 9.219l-.846-2.355a.49.49 0 0 1 .163-.557l2.045-1.524H7.375a.46.46 0 0 1-.43-.31L6 1.84l-.946 2.632a.46.46 0 0 1-.429.31H2.389l2.044 1.525a.49.49 0 0 1 .163.557L3.75 9.218l1.983-1.48A.45.45 0 0 1 6 7.647z" fill="#4EB1AA"/><path d="M6 7.648c.094 0 .187.03.267.09L8.25 9.219l-.846-2.355a.49.49 0 0 1 .163-.557l2.045-1.524H7.375a.46.46 0 0 1-.43-.31L6 1.84l-.946 2.632a.46.46 0 0 1-.429.31H2.389l2.044 1.525a.49.49 0 0 1 .163.557L3.75 9.218l1.983-1.48A.45.45 0 0 1 6 7.647z" fill="#4EB1AA"/></svg>