<svg width="23" height="42" viewBox="0 0 23 42" fill="none" xmlns="http://www.w3.org/2000/svg"><path fill-rule="evenodd" clip-rule="evenodd" d="M10.924.685h1.267v12.044c1.833 1.818 7.242 6.992 10.776 8.39l-2.218.946c-1.584 4.48-6.211 18.239-6.211 18.239l-2.726 1.578-2.725-1.578S4.46 26.482 2.876 22.064c-.253-.805-1.435-.887-1.902-.92-.118-.008-.19-.013-.19-.026 3.495-1.382 8.407-6.457 10.14-8.327V.685z" fill="url(#paint0_radial)"/><path d="M19.418 21.157l-5.894 17.62h-1.141V21.79l7.035-.633zM11.113 38.84h-1.14L4.142 21.156l6.971.698V38.84z" fill="#fff"/><defs><radialGradient id="paint0_radial" cx="0" cy="0" r="1" gradientUnits="userSpaceOnUse" gradientTransform="matrix(0 41.1972 -22.1831 0 11.876 .685)"><stop stop-color="#2D7DEC"/><stop offset="1" stop-color="#5A89CB"/></radialGradient></defs></svg>