<svg width="37" height="70" viewBox="0 0 37 70" fill="none" xmlns="http://www.w3.org/2000/svg"><path fill-rule="evenodd" clip-rule="evenodd" d="M16.915.459h2.113v20.075c3.055 3.03 12.07 11.652 17.96 13.98l-3.698 1.579C30.65 43.56 22.938 66.49 22.938 66.49l-4.542 2.63-4.542-2.63S6.142 43.456 3.502 36.093c-.422-1.344-2.392-1.48-3.17-1.535-.196-.014-.316-.022-.316-.043 5.825-2.303 14.012-10.763 16.899-13.88V.46z" fill="url(#paint0_radial)"/><path d="M31.073 34.579l-9.824 29.366h-1.901v-28.31l11.725-1.056zM17.231 64.05H15.33L5.61 34.58l11.62 1.162v28.31z" fill="#fff"/><defs><radialGradient id="paint0_radial" cx="0" cy="0" r="1" gradientUnits="userSpaceOnUse" gradientTransform="matrix(0 68.662 -36.9718 0 18.502 .459)"><stop stop-color="#2D7DEC"/><stop offset="1" stop-color="#5A89CB"/></radialGradient></defs></svg>