<svg width="90" height="90" viewBox="0 0 90 90" fill="none" xmlns="http://www.w3.org/2000/svg"><g clip-path="url(#clip0)" fill="#6F7B8E"><path d="M10.306 7.487l34.5 4.5a1.675 1.675 0 0 0 .388 0L78 7.707v5.209c-.94 1.057-3 3.696-3 6.583 0 3.302 2.691 4.5 4.5 4.5 1.81 0 4.5-1.198 4.5-4.5 0-2.887-2.059-5.526-3-6.583V5.999a1.5 1.5 0 0 0-.112-.56c-.026-.06-.07-.109-.102-.166a1.484 1.484 0 0 0-.198-.295c-.053-.056-.115-.093-.175-.138a1.41 1.41 0 0 0-.269-.183c-.073-.036-.151-.051-.23-.074-.074-.022-.14-.061-.22-.072l-34.5-4.5a1.677 1.677 0 0 0-.387 0l-34.5 4.5a1.501 1.501 0 0 0 0 2.976zM81 19.5c0 1.197-.811 1.478-1.5 1.5-.688-.022-1.5-.303-1.5-1.5 0-1.245.765-2.634 1.5-3.658.735 1.024 1.5 2.414 1.5 3.658zM45 3.011L67.903 6 45 8.987 22.096 6 45 3.011zM54 45c3.03 0 5.519-2.267 5.917-5.19L65.4 35.7a1.499 1.499 0 0 0 .3-2.1 1.498 1.498 0 0 0-2.1-.3l-3.823 2.868C59.205 34.339 57.516 33 55.5 33h-6a4.506 4.506 0 0 0-4.5 4.5c0-2.481-2.02-4.5-4.5-4.5h-6c-2.016 0-3.705 1.34-4.277 3.168L26.4 33.3a1.499 1.499 0 1 0-1.8 2.4l5.482 4.11C30.482 42.733 32.968 45 36 45h3c3.309 0 6-2.691 6-6 0 3.309 2.691 6 6 6h3zm-12-6c0 1.654-1.347 3-3 3h-3c-1.655 0-3-1.346-3-3v-1.5c0-.827.672-1.5 1.5-1.5h6c.828 0 1.5.673 1.5 1.5V39zm6 0v-1.5c0-.827.672-1.5 1.5-1.5h6c.828 0 1.5.673 1.5 1.5V39c0 1.654-1.346 3-3 3h-3c-1.654 0-3-1.346-3-3zm20.939 37.132a1.59 1.59 0 0 0-.123-.301c-.029-.053-.035-.113-.068-.164-.016-.022-.04-.034-.057-.057a1.456 1.456 0 0 0-.222-.219 1.258 1.258 0 0 0-.228-.178c-.025-.017-.04-.04-.069-.056l-6-2.998a1.498 1.498 0 0 0-1.503.093l-9.002 6A1.5 1.5 0 0 0 51 79.5v5.319c-.892.714-3.084 2.18-6 2.18-2.888 0-5.1-1.474-6-2.185V79.5a1.5 1.5 0 0 0-.667-1.249l-9-6a1.498 1.498 0 0 0-1.503-.093l-6 2.999c-.027.014-.042.038-.066.053-.09.05-.165.118-.242.189-.075.066-.15.129-.208.207-.018.024-.045.037-.062.061-.036.054-.042.116-.07.173a1.543 1.543 0 0 0-.119.287c-.024.095-.03.185-.036.281-.006.095-.01.186.002.282.012.105.046.201.08.3.022.06.02.123.049.18.013.027.039.043.054.07.05.086.117.16.186.236.067.075.13.15.208.21.024.018.038.045.062.062l9 6a1.497 1.497 0 0 0 2.08-.415 1.5 1.5 0 0 0-.415-2.081l-6.85-4.566 2.91-1.455L36 80.302V85.5c0 .397.158.78.44 1.06.14.141 3.498 3.44 8.56 3.44 5.063 0 8.42-3.299 8.56-3.44A1.5 1.5 0 0 0 54 85.5v-5.198l7.61-5.071 2.909 1.453-6.851 4.568A1.499 1.499 0 0 0 58.502 84c.285 0 .574-.081.83-.252l9-6c.025-.017.037-.042.06-.059.083-.063.15-.14.22-.22.063-.075.127-.143.175-.227.015-.027.042-.043.056-.072.031-.061.031-.127.052-.19.032-.095.065-.185.077-.284.013-.102.009-.198.001-.298-.006-.09-.01-.176-.034-.266z"/><path d="M75.107 71.058a1.503 1.503 0 0 0 1.95.834 1.5 1.5 0 0 0 .837-1.949C77.864 69.871 75 62.61 75 55.5v-12c0-12.78-6.55-16.202-6.83-16.341a1.493 1.493 0 0 0-1.457.064A1.502 1.502 0 0 0 66 28.5v6c0 5.673-4.34 17.326-5.842 20.33C58.812 57.521 51.693 66 45 66s-13.812-8.478-15.159-11.17c-1.5-3.004-5.84-14.657-5.84-20.33v-6c0-.52-.271-1.002-.713-1.277a1.494 1.494 0 0 0-1.458-.064c-.28.14-6.83 3.56-6.83 16.34v12c0 7.11-2.863 14.372-2.893 14.444a1.5 1.5 0 0 0 2.787 1.115C15.02 70.74 18 63.2 18 55.5v-12c0-6.083 1.586-9.617 3-11.561v2.56c0 6.438 4.724 18.803 6.158 21.671C28.983 59.821 36.972 69 45 69c8.028 0 16.017-9.179 17.841-12.83 1.436-2.868 6.16-15.233 6.16-21.67v-2.558c1.417 1.946 3 5.478 3 11.557v12c0 7.702 2.98 15.24 3.106 15.559z"/><path d="M48.457 54.423C48.41 54.466 47.278 55.5 45 55.5c-2.245 0-3.377-1.004-3.455-1.076a1.498 1.498 0 0 0-2.106.015 1.498 1.498 0 0 0 0 2.121c.198.198 2.04 1.94 5.56 1.94 3.521 0 5.363-1.742 5.561-1.94a1.489 1.489 0 0 0 .01-2.094 1.51 1.51 0 0 0-2.113-.043zm41.465 33.603c-.132-.4-3.405-9.818-16.059-12.981a1.5 1.5 0 0 0-.726 2.91c10.99 2.748 13.827 10.69 13.941 11.02a1.498 1.498 0 1 0 2.844-.95zM69 22.5V12a1.5 1.5 0 1 0-3 0v9.529c-2.48 1.052-10.332 3.97-21 3.97s-18.52-2.918-21-3.97v-9.53a1.5 1.5 0 1 0-3 0v10.5a1.5 1.5 0 0 0 .83 1.343c.38.189 9.474 4.658 23.17 4.658 13.696 0 22.79-4.47 23.17-4.658A1.5 1.5 0 0 0 69 22.5zM16.137 75.045C3.483 78.208.21 87.627.077 88.025a1.5 1.5 0 1 0 2.845.949c.028-.083 2.868-8.252 13.94-11.02a1.5 1.5 0 0 0-.725-2.91z"/></g><defs><clipPath id="clip0"><path fill="#fff" d="M0 0h90v90H0z"/></clipPath></defs></svg>