<svg width="32" height="28" viewBox="0 0 32 28" fill="none" xmlns="http://www.w3.org/2000/svg"><path fill-rule="evenodd" clip-rule="evenodd" d="M32.001 4.01a12.824 12.824 0 0 1-3.77 1.06 6.717 6.717 0 0 0 2.887-3.723 12.93 12.93 0 0 1-4.171 1.631A6.475 6.475 0 0 0 22.155.854c-3.623 0-6.563 3.014-6.563 6.731 0 .528.057 1.04.17 1.533-5.457-.28-10.293-2.958-13.533-7.036A6.854 6.854 0 0 0 1.34 5.47a6.776 6.776 0 0 0 2.92 5.603 6.446 6.446 0 0 1-2.974-.84v.083c0 3.263 2.263 5.985 5.268 6.601-.55.158-1.13.237-1.73.237a6.31 6.31 0 0 1-1.236-.12c.836 2.674 3.26 4.621 6.133 4.673a12.964 12.964 0 0 1-8.154 2.884c-.53 0-1.053-.031-1.566-.093a18.279 18.279 0 0 0 10.064 3.022c12.077 0 18.68-10.256 18.68-19.153 0-.293-.007-.585-.018-.872a13.476 13.476 0 0 0 3.274-3.485z" fill="#00AAEC"/></svg>