<svg width="65" height="65" viewBox="0 0 65 65" fill="none" xmlns="http://www.w3.org/2000/svg"><path fill-rule="evenodd" clip-rule="evenodd" d="M20.485 8.099c-2.073 2.457-2.707 5.558-2.707 8.088v6.904l-.22.22a6.138 6.138 0 0 1-.467.396l-.09.071a7.181 7.181 0 0 0-.597.522c-.394.394-.605.76-.605 1.118v7.252c0 .483.313 1.013.85 1.544.494.49 1.063.869 1.408 1.098l.046.031.241.16.07.282c.07.277.12.58.175.91.154.921.346 2.07 1.087 3.552.858 1.715 2.224 3.7 2.923 4.715.138.2.25.364.327.48l.126.188v.227c0 .894-.033 2.33-.133 3.745-.099 1.389-.267 2.852-.565 3.745-.08.24-.233.446-.372.603a5.09 5.09 0 0 1-.537.514c-.409.345-.951.733-1.58 1.146-1.262.828-2.934 1.8-4.734 2.789-3.604 1.981-7.771 4.065-10.307 5.278l-.648-1.354c2.519-1.204 6.66-3.275 10.232-5.239 1.788-.982 3.42-1.932 4.633-2.728a15.8 15.8 0 0 0 1.438-1.04c.172-.145.295-.264.377-.356.055-.063.076-.097.081-.105.227-.694.387-1.967.485-3.359.09-1.259.124-2.539.13-3.41l-.164-.237c-.682-.99-2.14-3.104-3.053-4.931-.858-1.715-1.106-3.218-1.258-4.135l-.061-.362c-.37-.25-.922-.645-1.423-1.14-.617-.612-1.294-1.511-1.294-2.61v-7.253c0-.962.56-1.694 1.044-2.18.25-.25.511-.463.721-.631l.12-.095.093-.075v-6.25c0-2.745.684-6.238 3.062-9.055C21.738 4.289 25.76 2.25 32.192 2.25c6.41 0 10.444 1.86 12.854 4.717 2.389 2.831 3.061 6.502 3.061 9.88v5.589l.094.076.12.095c.21.168.47.381.72.632.485.485 1.044 1.217 1.044 2.179v7.252c0 1.249-.623 2.253-1.29 2.92a4.802 4.802 0 0 1-1.043.796c-.128.07-.268.14-.413.195-.24 1.177-.667 3.092-1.29 4.337-.343.688-1.015 1.863-1.68 2.942a38.93 38.93 0 0 1-.967 1.503c-.21.308-.419.598-.602.818-.066.701-.034 1.805.079 3.019.124 1.333.339 2.721.59 3.728.012.048.11.242.461.588.325.32.79.693 1.375 1.109 1.168.83 2.75 1.778 4.506 2.74 3.508 1.92 7.635 3.852 10.352 4.939l-.557 1.392c-2.777-1.11-6.958-3.069-10.516-5.016-1.777-.973-3.417-1.953-4.654-2.832-.617-.439-1.152-.864-1.557-1.262-.379-.372-.745-.815-.865-1.294-.276-1.103-.5-2.572-.629-3.953-.127-1.366-.168-2.726-.045-3.588l.035-.247.177-.177c.109-.109.32-.383.612-.81.28-.409.602-.913.928-1.443.655-1.064 1.3-2.196 1.616-2.827.605-1.21 1.028-3.294 1.254-4.427l.121-.603h.615c-.007 0-.006 0 .005-.003.03-.009.138-.038.32-.14.217-.12.47-.304.71-.544.486-.486.852-1.13.852-1.86v-7.252c0-.358-.21-.724-.604-1.118a7.25 7.25 0 0 0-.598-.522l-.089-.071a5.945 5.945 0 0 1-.467-.396l-.22-.22v-6.245c0-3.216-.646-6.469-2.708-8.912-2.04-2.419-5.59-4.184-11.707-4.184-6.095 0-9.655 1.917-11.707 4.349z" fill="#BAC1CC"/></svg>