<svg width="32" height="24" viewBox="0 0 32 24" fill="none" xmlns="http://www.w3.org/2000/svg"><path fill-rule="evenodd" clip-rule="evenodd" d="M12.697 16.367V7.312l8.645 4.543-8.645 4.512zM31.681 5.743s-.313-2.22-1.272-3.199c-1.217-1.284-2.581-1.29-3.206-1.364C22.725.854 16.008.854 16.008.854h-.014s-6.717 0-11.195.326c-.626.074-1.989.08-3.207 1.364C.633 3.522.321 5.743.321 5.743s-.32 2.608-.32 5.216v2.445c0 2.608.32 5.216.32 5.216s.312 2.22 1.271 3.198c1.218 1.284 2.817 1.244 3.529 1.378 2.56.248 10.88.324 10.88.324s6.724-.01 11.202-.336c.625-.076 1.989-.082 3.206-1.366.959-.978 1.272-3.198 1.272-3.198s.32-2.608.32-5.216v-2.445c0-2.608-.32-5.216-.32-5.216z" fill="#CE1312"/></svg>