<svg width="9" height="6" viewBox="0 0 9 6" fill="none" xmlns="http://www.w3.org/2000/svg">
<path d="M8.99735 1.30357C8.99735 1.23661 8.96387 1.16127 8.91364 1.11105L8.49512 0.692522C8.44489 0.642299 8.36956 0.608817 8.3026 0.608817C8.23563 0.608817 8.1603 0.642299 8.11007 0.692522L4.82045 3.98214L1.53083 0.692522C1.48061 0.642299 1.40527 0.608817 1.33831 0.608817C1.26297 0.608817 1.19601 0.642299 1.14579 0.692522L0.72726 1.11105C0.677037 1.16127 0.643555 1.23661 0.643555 1.30357C0.643555 1.37054 0.677037 1.44587 0.72726 1.49609L4.62793 5.39676C4.67815 5.44699 4.75349 5.48047 4.82045 5.48047C4.88742 5.48047 4.96275 5.44699 5.01297 5.39676L8.91364 1.49609C8.96387 1.44587 8.99735 1.37054 8.99735 1.30357Z" fill="black"/>
</svg>
