<svg width="11" height="12" viewBox="0 0 11 12" fill="none" xmlns="http://www.w3.org/2000/svg">
<path d="M5.61241 9.39573C5.39828 9.39573 5.18103 9.31514 5.01965 9.15087C4.69069 8.82232 4.69069 8.2892 5.01965 7.96376L5.4231 7.56082H2.93103C2.41897 7.56082 2 7.14549 2 6.63097C2 6.11955 2.41897 5.70112 2.93103 5.70112H5.43241L5.01655 5.27339C4.69069 4.94794 4.69069 4.41483 5.01965 4.08938C5.33621 3.77013 5.89172 3.77013 6.20828 4.08938L8.35897 6.23702C8.57 6.4481 8.57 6.79215 8.35897 7.00291L6.20828 9.15087C6.04379 9.31514 5.82966 9.39573 5.61241 9.39573Z" fill="#59C7BF"/>
<path fill-rule="evenodd" clip-rule="evenodd" d="M5.5 11.8421C2.46616 11.8421 0 9.38087 0 6.34779C0 3.31825 2.46571 0.853516 5.5 0.853516C8.53429 0.853516 11 3.31825 11 6.34779C11 9.38087 8.53384 11.8421 5.5 11.8421ZM1 6.34779C1 8.82739 3.01724 10.8421 5.5 10.8421C7.98276 10.8421 10 8.82739 10 6.34779C10 3.87129 7.98276 1.85352 5.5 1.85352C3.01724 1.85352 1 3.87129 1 6.34779Z" fill="#59C7BF"/>
</svg>
