<svg width="90" height="90" viewBox="0 0 90 90" fill="none" xmlns="http://www.w3.org/2000/svg">
<g clip-path="url(#clip0)">
<path d="M50.5605 81.4395C49.9739 80.8529 49.0259 80.8529 48.4395 81.4395C47.8529 82.0259 47.8529 82.974 48.4395 83.5604L54.4394 89.5606C54.7319 89.8531 55.116 90 55.4999 90C55.884 90 56.2679 89.8531 56.5604 89.5606C57.147 88.9742 57.147 88.026 56.5604 87.4396L50.5605 81.4395Z" fill="#6F7B8E"/>
<path d="M45 72C44.1705 72 43.5 72.672 43.5 73.5V77.3789L33.4395 87.4394C32.8531 88.026 32.8531 88.974 33.4395 89.5604C33.732 89.8529 34.1161 89.9999 34.5 89.9999C34.8841 89.9999 35.268 89.8529 35.5605 89.5604L46.0605 79.0605C46.341 78.7785 46.4999 78.3974 46.4999 78V73.5C46.4999 72.672 45.8295 72 45 72Z" fill="#6F7B8E"/>
<path d="M88.5 3.00006H46.4999V1.49994C46.4999 0.672012 45.8295 0 45 0C44.1705 0 43.5 0.672012 43.5 1.49994V2.99988H1.49991C0.670399 3.00006 -3.05176e-05 3.67207 -3.05176e-05 4.5V10.4999C-3.05176e-05 11.3279 0.670399 11.9999 1.49991 11.9999H79.4998C80.3294 11.9999 80.9998 11.3279 80.9998 10.4999C80.9998 9.67201 80.3294 9 79.4998 9H2.99985V5.99994H86.9999V9H85.5C84.6705 9 84 9.67201 84 10.4999V61.4999C84 63.9809 81.981 65.9999 79.5 65.9999H10.4999C8.01893 65.9999 5.99991 63.9809 5.99991 61.4999V16.4999C5.99991 15.672 5.32948 14.9999 4.49997 14.9999C3.67046 14.9999 3.00003 15.672 3.00003 16.4999V61.4999C3.00003 65.6353 6.36448 68.9999 10.5001 68.9999H79.5C83.6355 68.9999 87.0001 65.6355 87.0001 61.4999V11.9999H88.5C89.3295 11.9999 90 11.3279 90 10.4999V4.5C90 3.67207 89.3295 3.00006 88.5 3.00006Z" fill="#6F7B8E"/>
<path d="M67.5 30.0001C71.7316 30.0001 71.991 33.7516 72 34.5076C72.0045 35.3326 72.6734 36.0002 73.4999 36.0002C74.3294 36.0002 74.9998 35.3282 74.9998 34.5002C74.9998 31.9052 73.4324 27.0002 67.4998 27.0002C61.5673 27.0002 59.9997 31.9052 59.9997 34.5002V40.5C59.9997 43.0935 61.5672 48.0001 67.4998 48.0001C73.4322 48.0001 74.9998 43.0937 74.9998 40.5C74.9998 39.6751 74.3338 39.009 73.5089 39.0045H73.4999C72.678 39.0045 72.0089 39.6689 72 40.4924C71.991 41.2455 71.7345 45 67.5 45C63.2654 45 63.0089 41.2455 63 40.5V34.5075C63.0089 33.7546 63.2654 30.0001 67.5 30.0001Z" fill="#6F7B8E"/>
<path d="M30.1155 44.0775C30.3555 44.6535 30.912 45 31.5 45C31.6935 45 31.8885 44.9639 32.0774 44.8845C32.8408 44.5649 33.204 43.6874 32.8844 42.9224L25.3844 24.9224C25.1518 24.3645 24.6044 23.9999 23.9999 23.9999C23.3954 23.9999 22.8479 24.3645 22.6155 24.9224L15.1154 42.9224C14.7958 43.6874 15.1574 44.5649 15.9224 44.8845C16.689 45.2055 17.5649 44.8425 17.8845 44.0775L18.75 41.9999H22.5C23.3295 41.9999 23.9999 41.3279 23.9999 40.5C23.9999 39.672 23.3295 39 22.5 39H19.9995L23.9999 29.4001L30.1155 44.0775Z" fill="#6F7B8E"/>
<path d="M40.5 33C39.6705 33 39 33.672 39 34.4999V52.4999C39 53.3279 39.6705 53.9999 40.5 53.9999H46.4999C49.0934 53.9999 54 52.7458 54 47.9999C54 46.0964 53.2109 44.754 52.098 43.8299C53.3596 42.7499 54 41.1269 54 38.9999C54 36.777 53.2995 35.1015 51.921 34.0258C49.629 32.2364 46.4866 32.9578 46.1369 33.0448C45.3329 33.2457 44.8439 34.0589 45.045 34.8643C45.2459 35.6668 46.0589 36.1544 46.8629 35.9549C46.884 35.9489 48.9254 35.4929 50.0744 36.3899C50.6879 36.87 50.9999 37.7475 50.9999 38.9999C50.9999 40.248 50.6909 41.1239 50.082 41.604C49.581 42 48.8849 42.1394 48.2519 42.1635C47.6144 42.0496 47.0129 42 46.4999 42C45.7425 42 45.1033 42.5639 45.0119 43.3169C44.9174 44.0684 45.402 44.7719 46.1369 44.9549C46.2944 44.9953 47.022 45.1619 47.9819 45.1709C49.2959 45.4439 50.9999 46.1549 50.9999 47.9999C50.9999 50.9369 46.6783 50.9984 46.4999 51H41.9999V34.4999C41.9999 33.672 41.3295 33 40.5 33Z" fill="#6F7B8E"/>
</g>
<defs>
<clipPath id="clip0">
<rect width="90" height="90" fill="white"/>
</clipPath>
</defs>
</svg>
