<svg width="60" height="38" viewBox="0 0 60 38" fill="none" xmlns="http://www.w3.org/2000/svg">
<rect x="0.5" y="0.5" width="59" height="37" rx="18.5" stroke="#23AAEA"/>
<path fill-rule="evenodd" clip-rule="evenodd" d="M22 19C22 18.2636 22.597 17.6667 23.3333 17.6667H33.4477L29.0572 13.2761C28.5365 12.7554 28.5365 11.9112 29.0572 11.3905C29.5779 10.8698 30.4221 10.8698 30.9428 11.3905L37.6095 18.0572C38.1302 18.5779 38.1302 19.4221 37.6095 19.9428L30.9428 26.6095C30.4221 27.1302 29.5779 27.1302 29.0572 26.6095C28.5365 26.0888 28.5365 25.2446 29.0572 24.7239L33.4477 20.3333H23.3333C22.597 20.3333 22 19.7364 22 19Z" fill="#6F7B8E"/>
</svg>
