<svg width="24" height="24" viewBox="0 0 24 24" fill="none" xmlns="http://www.w3.org/2000/svg">
<rect x="0.5" y="0.5" width="23" height="23" rx="11.5" stroke="#23AAEA"/>
<path d="M9.13333 10.0275C9.26667 9.9075 9.33333 9.765 9.33333 9.6C9.33333 8.935 9.59167 8.37 10.1083 7.905C10.6306 7.435 11.2611 7.2 12 7.2C12.7389 7.2 13.3667 7.435 13.8833 7.905C14.4056 8.37 14.6667 8.935 14.6667 9.6C14.6667 10.265 14.4056 10.8325 13.8833 11.3025L12.5083 12.45C11.725 13.155 11.3333 14.005 11.3333 15C11.3333 15.165 11.3972 15.3075 11.525 15.4275C11.6583 15.5425 11.8167 15.6 12 15.6C12.1833 15.6 12.3389 15.5425 12.4667 15.4275C12.6 15.3075 12.6667 15.165 12.6667 15C12.6667 14.335 12.9278 13.7675 13.45 13.2975L14.825 12.15C15.6083 11.445 16 10.595 16 9.6C16 8.605 15.6083 7.7575 14.825 7.0575C14.0472 6.3525 13.1056 6 12 6C10.8944 6 9.95 6.3525 9.16667 7.0575C8.38889 7.7575 8 8.605 8 9.6C8 9.765 8.06389 9.9075 8.19167 10.0275C8.325 10.1425 8.48333 10.2 8.66667 10.2C8.85 10.2 9.00556 10.1425 9.13333 10.0275Z" fill="#23AAEA"/>
<path d="M12.7083 17.7083C12.9028 17.5139 13 17.2778 13 17C13 16.7222 12.9028 16.4861 12.7083 16.2917C12.5139 16.0972 12.2778 16 12 16C11.7222 16 11.4861 16.0972 11.2917 16.2917C11.0972 16.4861 11 16.7222 11 17C11 17.2778 11.0972 17.5139 11.2917 17.7083C11.4861 17.9028 11.7222 18 12 18C12.2778 18 12.5139 17.9028 12.7083 17.7083Z" fill="#23AAEA"/>
</svg>
