<svg width="27" height="22" viewBox="0 0 27 22" fill="none" xmlns="http://www.w3.org/2000/svg">
<path d="M13.8886 8.39554C11.7308 8.39554 9.98193 10.1452 9.98193 12.3022C9.98193 14.4599 11.7308 16.2088 13.8886 16.2088C16.0458 16.2088 17.7952 14.4599 17.7952 12.3022C17.7952 10.1452 16.0458 8.39554 13.8886 8.39554ZM24.3062 4.48891H21.1809C20.7512 4.48891 20.2881 4.15554 20.1524 3.74769L19.3446 1.32323C19.2083 0.915641 18.7458 0.582275 18.3161 0.582275H9.46104C9.03131 0.582275 8.56825 0.915641 8.43256 1.32349L7.62466 3.74795C7.48845 4.15554 7.02591 4.48891 6.59618 4.48891H3.47088C2.03844 4.48891 0.866455 5.6609 0.866455 7.09333V18.8132C0.866455 20.2456 2.03844 21.4176 3.47088 21.4176H24.3062C25.7387 21.4176 26.9107 20.2456 26.9107 18.8132V7.09333C26.9107 5.6609 25.7387 4.48891 24.3062 4.48891ZM13.8886 18.8132C10.2926 18.8132 7.37751 15.8981 7.37751 12.3022C7.37751 8.7065 10.2926 5.79112 13.8886 5.79112C17.484 5.79112 20.3996 8.7065 20.3996 12.3022C20.3996 15.8981 17.484 18.8132 13.8886 18.8132ZM23.3947 8.9146C22.8915 8.9146 22.4831 8.50675 22.4831 8.00305C22.4831 7.49988 22.8915 7.0915 23.3947 7.0915C23.8984 7.0915 24.3062 7.49988 24.3062 8.00305C24.3062 8.50675 23.8981 8.9146 23.3947 8.9146Z" fill="white"/>
</svg>
