<svg width="15" height="17" viewBox="0 0 15 17" fill="none" xmlns="http://www.w3.org/2000/svg">
<path d="M4.27502 10.8883H13.1688C14.1773 10.8883 15 10.0728 15 9.07315V5.36391C15 5.36062 15 5.35404 15 5.35075C15 5.34089 15 5.33431 15 5.32445C15 5.31787 15 5.31129 14.9967 5.30472C14.9967 5.29814 14.9934 5.28828 14.9934 5.2817C14.9934 5.27512 14.99 5.26855 14.99 5.26197C14.9867 5.25539 14.9867 5.24882 14.9834 5.23895C14.9801 5.23237 14.9801 5.2258 14.9768 5.21922C14.9735 5.21264 14.9735 5.20607 14.9701 5.19949C14.9668 5.19291 14.9635 5.18634 14.9602 5.17647C14.9569 5.1699 14.9536 5.16332 14.9502 5.16003C14.9469 5.15345 14.9436 5.14688 14.9403 5.1403C14.937 5.13372 14.9337 5.13044 14.9303 5.12386C14.927 5.11728 14.9204 5.11071 14.9171 5.10413C14.9137 5.09755 14.9104 5.09426 14.9038 5.08769C14.9005 5.08111 14.8938 5.07782 14.8905 5.07125C14.8872 5.06467 14.8806 5.06138 14.8773 5.0548C14.8739 5.04823 14.8673 5.04494 14.864 5.04165C14.8574 5.03507 14.854 5.03179 14.8474 5.02521C14.8408 5.02192 14.8374 5.01534 14.8308 5.01206C14.8242 5.00877 14.8175 5.00219 14.8109 4.9989C14.8043 4.99561 14.801 4.99233 14.7943 4.98904C14.7877 4.98575 14.7811 4.98246 14.7744 4.97588C14.7678 4.9726 14.7612 4.96931 14.7545 4.96602C14.7479 4.96273 14.7412 4.95944 14.7346 4.95615C14.728 4.95287 14.7213 4.94958 14.7147 4.94629C14.7081 4.943 14.7014 4.943 14.6948 4.93971C14.6882 4.93642 14.6782 4.93314 14.6716 4.93314C14.6649 4.93314 14.6583 4.92985 14.655 4.92985C14.645 4.92656 14.6384 4.92656 14.6285 4.92656C14.6251 4.92656 14.6218 4.92327 14.6152 4.92327L3.34285 3.38104V1.82237C3.34285 1.80593 3.34285 1.78949 3.33953 1.77634C3.33953 1.77305 3.33953 1.76976 3.33621 1.76318C3.33621 1.75332 3.3329 1.74345 3.3329 1.73359C3.32958 1.72372 3.32958 1.71715 3.32626 1.70728C3.32626 1.7007 3.32294 1.69742 3.32294 1.69084C3.31963 1.68097 3.31631 1.67111 3.31299 1.66124C3.31299 1.65796 3.30967 1.65138 3.30967 1.64809C3.30636 1.63823 3.30304 1.63165 3.2964 1.62178C3.29309 1.6185 3.29309 1.61192 3.28977 1.60863C3.28645 1.60205 3.28314 1.59548 3.2765 1.5889C3.27318 1.58232 3.26987 1.57904 3.26655 1.57246C3.26323 1.56588 3.25991 1.56259 3.2566 1.55602C3.25328 1.54944 3.24664 1.54286 3.24333 1.53629C3.24001 1.533 3.23669 1.52971 3.23338 1.52642C3.22674 1.51985 3.22011 1.51327 3.21347 1.50669C3.21015 1.5034 3.20684 1.50012 3.20352 1.49683C3.19688 1.49025 3.19025 1.48367 3.1803 1.4771C3.17698 1.47381 3.17035 1.47052 3.16703 1.46723C3.16039 1.46066 3.15376 1.45737 3.14712 1.45079C3.13717 1.44421 3.12722 1.43764 3.12059 1.43435C3.11727 1.43106 3.11395 1.43106 3.11063 1.42777C3.09736 1.4212 3.08078 1.41462 3.06751 1.40804L0.622624 0.38866C0.393728 0.293298 0.131657 0.398525 0.0354541 0.62542C-0.0607489 0.852315 0.0454062 1.11209 0.274303 1.20745L2.44385 2.11503V4.12749V4.44646V6.89298V9.07972V11.8419C2.44385 12.7627 3.14049 13.5255 4.03949 13.6406C3.87694 13.9103 3.78074 14.226 3.78074 14.5614C3.78074 15.5512 4.59349 16.3535 5.58869 16.3535C6.58389 16.3535 7.39664 15.5479 7.39664 14.5614C7.39664 14.2325 7.30708 13.9201 7.14784 13.6571H11.1751C11.0159 13.9234 10.9263 14.2325 10.9263 14.5614C10.9263 15.5512 11.739 16.3535 12.7343 16.3535C13.7295 16.3535 14.5422 15.5479 14.5422 14.5614C14.5422 13.5749 13.7295 12.7692 12.7343 12.7692H4.27502C3.75752 12.7692 3.33953 12.3516 3.33953 11.8419V10.6384C3.61155 10.7962 3.93333 10.8883 4.27502 10.8883ZM6.50428 14.5581C6.50428 15.0579 6.09293 15.4624 5.59201 15.4624C5.09109 15.4624 4.67974 15.0546 4.67974 14.5581C4.67974 14.0615 5.09109 13.6538 5.59201 13.6538C6.09293 13.6538 6.50428 14.0583 6.50428 14.5581ZM13.6498 14.5581C13.6498 15.0579 13.2385 15.4624 12.7376 15.4624C12.2367 15.4624 11.8253 15.0546 11.8253 14.5581C11.8253 14.0615 12.2367 13.6538 12.7376 13.6538C13.2385 13.6538 13.6498 14.0583 13.6498 14.5581ZM13.1688 10.0005H4.27502C3.75752 10.0005 3.33953 9.58284 3.33953 9.07315V6.88641V4.43989V4.27547L14.1043 5.74535V9.06986C14.1043 9.58613 13.683 10.0005 13.1688 10.0005Z" fill="black"/>
</svg>
