<svg width="75" height="76" viewBox="0 0 75 76" fill="none" xmlns="http://www.w3.org/2000/svg">
<path fill-rule="evenodd" clip-rule="evenodd" d="M44.1538 1.35352H74V74.3535H1V1.35352H30.1045V9.22676H36.1252V33.8395H31.9572C31.4338 28.5326 27.0043 24.438 21.5512 24.438C17.5372 24.438 14.0513 26.7619 12.3611 30.0365L12.3611 30.0365V30.0366L17.6428 44.4027C18.9104 44.9309 20.178 45.2478 21.6569 45.2478C27.0108 45.2478 31.5272 41.1533 32.0617 35.8465H42.3996C42.8743 41.2045 47.3263 45.3535 52.8155 45.3535C54.6112 45.3535 56.407 44.8254 57.8859 43.9803L62.5338 31.093C61.0549 27.1845 57.2521 24.438 52.8155 24.438C47.4615 24.438 42.9451 28.5326 42.4106 33.8395H38.2379V9.22676H44.1538V1.35352ZM44.1538 0.353516H74H75V1.35352V74.3535V75.3535H74H1H0V74.3535V1.35352V0.353516H1H30.1045H44.1538Z" fill="url(#paint0_radial)"/>
<defs>
<radialGradient id="paint0_radial" cx="0" cy="0" r="1" gradientUnits="userSpaceOnUse" gradientTransform="translate(38.0282 0.353515) rotate(90.4035) scale(75.0019)">
<stop stop-color="#35A7E0"/>
<stop offset="1" stop-color="#579DC0"/>
</radialGradient>
</defs>
</svg>
