<svg width="24" height="24" viewBox="0 0 24 24" fill="none" xmlns="http://www.w3.org/2000/svg">
<path d="M9 10.5C9 11.3284 8.32843 12 7.5 12C6.67157 12 6 11.3284 6 10.5C6 9.67157 6.67157 9 7.5 9C8.32843 9 9 9.67157 9 10.5Z" fill="#6F7B8E"/>
<path d="M13.5 10.5C13.5 11.3284 12.8284 12 12 12C11.1716 12 10.5 11.3284 10.5 10.5C10.5 9.67157 11.1716 9 12 9C12.8284 9 13.5 9.67157 13.5 10.5Z" fill="#6F7B8E"/>
<path d="M18 10.5C18 11.3284 17.3284 12 16.5 12C15.6716 12 15 11.3284 15 10.5C15 9.67157 15.6716 9 16.5 9C17.3284 9 18 9.67157 18 10.5Z" fill="#6F7B8E"/>
<path fill-rule="evenodd" clip-rule="evenodd" d="M5.19728 5.68654C3.36738 6.90647 2.25 8.57442 2.25 10.5C2.25 12.4764 3.23276 13.9282 4.26751 14.9147C4.78399 15.407 5.30268 15.7721 5.69208 16.0135C5.8861 16.1338 6.04613 16.2222 6.15514 16.2794C6.20959 16.308 6.25115 16.3287 6.27766 16.3416L6.30581 16.3551L6.30967 16.3569C6.61702 16.4965 6.79376 16.8245 6.74067 17.1579L6.30489 19.8946L9.26986 17.4238C9.40465 17.3115 9.57455 17.25 9.75001 17.25H12C14.4938 17.2499 16.9705 16.5349 18.8027 15.3134C20.6326 14.0935 21.75 12.4256 21.75 10.5C21.75 8.57442 20.6326 6.90647 18.8027 5.68654C16.9705 4.46504 14.4938 3.75 12 3.75C9.50624 3.75 7.02953 4.46504 5.19728 5.68654ZM10.0215 18.75L12 18.75C14.7562 18.7499 17.5295 17.965 19.6348 16.5615C21.7424 15.1564 23.25 13.0744 23.25 10.5C23.25 7.92558 21.7424 5.84353 19.6348 4.43846C17.5295 3.03496 14.7562 2.25 12 2.25C9.24376 2.25 6.47047 3.03496 4.36522 4.43846C2.25762 5.84353 0.75 7.92558 0.75 10.5C0.75 13.0236 2.01724 14.8418 3.23249 16.0003C3.84102 16.5805 4.44732 17.0067 4.90167 17.2884C5.00003 17.3493 5.09162 17.4038 5.17499 17.4517L4.50933 21.6321C4.46018 21.9407 4.6076 22.2475 4.8793 22.402C5.15101 22.5565 5.49003 22.5263 5.73014 22.3262L10.0215 18.75Z" fill="#6F7B8E"/>
</svg>
