<svg width="46" height="39" viewBox="0 0 46 39" fill="none" xmlns="http://www.w3.org/2000/svg">
<path fill-rule="evenodd" clip-rule="evenodd" d="M7.86539 5.64237C7.86539 6.3818 7.23158 7.0156 6.49215 7.0156C5.75271 7.0156 5.11891 6.3818 5.11891 5.64237C5.11891 4.90293 5.75271 4.26912 6.49215 4.26912C7.33722 4.26912 7.86539 4.90293 7.86539 5.64237ZM42.4076 13.7762L42.1964 10.8184C40.4006 8.81138 36.7034 11.3466 36.7034 11.3466C36.6441 11.417 36.579 11.4952 36.5084 11.58C34.5682 13.9102 28.449 21.2593 22.2316 12.086C19.1682 2.26208 9.23862 1.31138 9.23862 1.31138C9.23862 1.31138 8.92172 0.0437733 7.23158 0.360675C5.54144 0.677578 4.4851 3.42405 4.4851 3.42405L1.84426 11.9804L0.893555 15.4663C0.893555 15.4663 2.37243 20.4311 8.60482 17.1564L13.5696 11.3466L13.3809 27.8614L6.91945 27.8254C6.48882 27.823 6.09984 28.0823 5.93633 28.4807C5.77283 28.879 5.86752 29.3368 6.17568 29.6376L6.18876 29.6494L6.18885 29.6495C6.47628 29.9081 7.29275 30.6427 7.79793 31.0542C8.82325 31.8894 10.3013 33.0013 12.1192 34.1137C15.7374 36.3278 20.7927 38.6 26.3502 38.6C31.9091 38.6 36.73 36.3801 40.1238 34.2081C41.827 33.1181 43.1892 32.0284 44.1277 31.2093C44.5975 30.7994 44.9623 30.4561 45.2121 30.2129L45.6034 29.819L45.6067 29.8155C45.894 29.5091 45.9724 29.0616 45.8065 28.6758C45.6407 28.2899 45.262 28.039 44.842 28.0367L39.5277 28.0071C39.4669 24.5232 39.3208 16.441 39.2386 14.3043C39.8724 13.248 42.4076 13.7762 42.4076 13.7762ZM35.9599 27.9872C34.6261 25.5715 31.599 21.6579 26.0344 21.8043C20.4755 21.8775 17.6515 25.5972 16.4402 27.8785L35.9599 27.9872ZM23.3957 11.3466C23.3957 11.3466 24.1352 15.3607 28.8887 15.3607C33.6422 15.3607 34.3816 11.1353 34.3816 11.1353L23.3957 11.3466ZM13.222 32.3117C11.868 31.4832 10.7124 30.6543 9.80942 29.9542L42.1302 30.1343C41.3075 30.8148 40.2456 31.6218 38.985 32.4286C35.7767 34.4819 31.3546 36.4874 26.3502 36.4874C21.3443 36.4874 16.6813 34.4286 13.222 32.3117Z" fill="url(#paint0_radial)"/>
<defs>
<radialGradient id="paint0_radial" cx="0" cy="0" r="1" gradientUnits="userSpaceOnUse" gradientTransform="translate(23.7099 0.309814) rotate(90.4742) scale(38.2915 44.9996)">
<stop stop-color="#52CC5B"/>
<stop offset="1" stop-color="#5BA861"/>
</radialGradient>
</defs>
</svg>
