<svg width="20" height="20" viewBox="0 0 20 20" fill="none" xmlns="http://www.w3.org/2000/svg">
<path fill-rule="evenodd" clip-rule="evenodd" d="M19.7254 19.5731C19.3207 20.0926 18.6187 20.1453 18.1575 19.6907L10 11.6606L1.84249 19.6907C1.38134 20.1453 0.679304 20.0926 0.274576 19.5731C-0.129068 19.0536 -0.0824109 18.2639 0.379826 17.8093L8.31273 10L0.379826 2.19072C-0.0824109 1.73612 -0.129068 0.94644 0.274576 0.426879C0.679304 -0.0926437 1.38134 -0.145324 1.84249 0.309311L10 8.33939L18.1575 0.309311C18.6187 -0.145324 19.3207 -0.0926437 19.7254 0.426879C20.1291 0.94644 20.0824 1.73612 19.6202 2.19072L11.6873 10L19.6202 17.8093C20.0824 18.2639 20.1291 19.0536 19.7254 19.5731Z" fill="white"/>
</svg>
