<svg width="16" height="16" viewBox="0 0 16 16" fill="none" xmlns="http://www.w3.org/2000/svg">
<path fill-rule="evenodd" clip-rule="evenodd" d="M10.0909 10.5H5.90909C4.16475 10.5 2.72639 11.8101 2.52429 13.5H13.4757C13.2736 11.8101 11.8353 10.5 10.0909 10.5ZM5.90909 9C3.19788 9 1 11.1979 1 13.9091C1 14.5116 1.48842 15 2.09091 15H13.9091C14.5116 15 15 14.5116 15 13.9091C15 11.1979 12.8021 9 10.0909 9H5.90909Z" fill="white"/>
<path fill-rule="evenodd" clip-rule="evenodd" d="M10.0909 10.5H5.90909C4.16475 10.5 2.72639 11.8101 2.52429 13.5H13.4757C13.2736 11.8101 11.8353 10.5 10.0909 10.5ZM5.90909 9C3.19788 9 1 11.1979 1 13.9091C1 14.5116 1.48842 15 2.09091 15H13.9091C14.5116 15 15 14.5116 15 13.9091C15 11.1979 12.8021 9 10.0909 9H5.90909Z" fill="url(#paint0_linear)"/>
<path fill-rule="evenodd" clip-rule="evenodd" d="M8 6.5C9.10457 6.5 10 5.60457 10 4.5C10 3.39543 9.10457 2.5 8 2.5C6.89543 2.5 6 3.39543 6 4.5C6 5.60457 6.89543 6.5 8 6.5ZM8 8C9.933 8 11.5 6.433 11.5 4.5C11.5 2.567 9.933 1 8 1C6.067 1 4.5 2.567 4.5 4.5C4.5 6.433 6.067 8 8 8Z" fill="white"/>
<path fill-rule="evenodd" clip-rule="evenodd" d="M8 6.5C9.10457 6.5 10 5.60457 10 4.5C10 3.39543 9.10457 2.5 8 2.5C6.89543 2.5 6 3.39543 6 4.5C6 5.60457 6.89543 6.5 8 6.5ZM8 8C9.933 8 11.5 6.433 11.5 4.5C11.5 2.567 9.933 1 8 1C6.067 1 4.5 2.567 4.5 4.5C4.5 6.433 6.067 8 8 8Z" fill="url(#paint1_linear)"/>
<defs>
<linearGradient id="paint0_linear" x1="8" y1="1" x2="8" y2="15" gradientUnits="userSpaceOnUse">
<stop stop-color="white"/>
<stop offset="1" stop-color="white" stop-opacity="0"/>
</linearGradient>
<linearGradient id="paint1_linear" x1="8" y1="1" x2="8" y2="15" gradientUnits="userSpaceOnUse">
<stop stop-color="white"/>
<stop offset="1" stop-color="white" stop-opacity="0"/>
</linearGradient>
</defs>
</svg>
