<svg width="676" height="228" viewBox="0 0 676 228" fill="none" xmlns="http://www.w3.org/2000/svg">
<path d="M9.32617 146.5L0 179.722H43.5615L55.2688 143.554H55.156L101.736 0H55.156L9.32617 146.5Z" fill="#0F5862"/>
<path d="M148.59 179.722H179.826V143.554H148.59V87.66H106.668V143.554H55.2688L43.5615 179.722H105.298V220H148.59V179.722Z" fill="#0F5862"/>
<path fill-rule="evenodd" clip-rule="evenodd" d="M148.59 220V179.722V143.554V87.66H106.668V143.554L105.298 179.722V220H148.59Z" fill="#4EB1AA"/>
<mask id="mask0" mask-type="alpha" maskUnits="userSpaceOnUse" x="105" y="87" width="44" height="133">
<path fill-rule="evenodd" clip-rule="evenodd" d="M148.59 220V179.722V143.554V87.66H106.668V143.554L105.298 179.722V220H148.59Z" fill="#2871DE"/>
</mask>
<g mask="url(#mask0)">
<g opacity="0.7" filter="url(#filter0_f)">
<circle cx="87.0615" cy="164.5" r="25" fill="#172F47"/>
</g>
<g opacity="0.7" filter="url(#filter1_f)">
<circle cx="171.062" cy="162.5" r="31" fill="#172F47"/>
</g>
</g>
<path d="M9.32617 146.5L0 179.722H43.5615L55.2688 143.554H55.156L101.736 0H55.156L9.32617 146.5Z" fill="#4EB1AA"/>
<mask id="mask1" mask-type="alpha" maskUnits="userSpaceOnUse" x="0" y="0" width="102" height="180">
<path d="M9.32617 146.5L0 179.722H43.5615L55.2688 143.554H55.156L101.736 0H55.156L9.32617 146.5Z" fill="#2871DE"/>
</mask>
<g mask="url(#mask1)">
<g opacity="0.8" filter="url(#filter2_f)">
<circle cx="74.0615" cy="167.5" r="31" fill="#172F47"/>
</g>
</g>
<path d="M505.388 146.5L496.062 179.722H539.623L551.33 143.554H551.218L597.798 0H551.218L505.388 146.5Z" fill="#0F5862"/>
<path d="M644.652 179.722H675.888V143.554H644.652V87.66H602.73V143.554H551.33L539.623 179.722H601.36V220H644.652V179.722Z" fill="#0F5862"/>
<path fill-rule="evenodd" clip-rule="evenodd" d="M644.652 220V179.722V143.554V87.66H602.73V143.554L601.36 179.722V220H644.652Z" fill="#4EB1AA"/>
<mask id="mask2" mask-type="alpha" maskUnits="userSpaceOnUse" x="601" y="87" width="44" height="133">
<path fill-rule="evenodd" clip-rule="evenodd" d="M644.652 220V179.722V143.554V87.66H602.73V143.554L601.36 179.722V220H644.652Z" fill="#2871DE"/>
</mask>
<g mask="url(#mask2)">
<g opacity="0.7" filter="url(#filter3_f)">
<circle cx="583.123" cy="164.5" r="25" fill="#172F47"/>
</g>
<g opacity="0.7" filter="url(#filter4_f)">
<circle cx="667.123" cy="162.5" r="31" fill="#172F47"/>
</g>
</g>
<path d="M505.388 146.5L496.062 179.722H539.623L551.33 143.554H551.218L597.798 0H551.218L505.388 146.5Z" fill="#4EB1AA"/>
<mask id="mask3" mask-type="alpha" maskUnits="userSpaceOnUse" x="496" y="0" width="102" height="180">
<path d="M505.388 146.5L496.062 179.722H539.623L551.33 143.554H551.218L597.798 0H551.218L505.388 146.5Z" fill="#2871DE"/>
</mask>
<g mask="url(#mask3)">
<g opacity="0.8" filter="url(#filter5_f)">
<circle cx="570.123" cy="167.5" r="31" fill="#172F47"/>
</g>
</g>
<path d="M338.062 227.5C326.071 227.5 315.071 225.009 305.062 220.026C301.837 218.42 298.714 216.556 295.695 214.434C283.304 205.723 273.555 193.163 266.448 176.754C259.524 160.143 256.062 140.391 256.062 117.5C256.062 94.6087 259.524 74.9586 266.448 58.5497C273.555 41.9383 283.304 29.2772 295.695 20.5663C308.086 11.8554 322.208 7.5 338.062 7.5C350.848 7.5 362.508 10.3337 373.042 16C375.569 17.3592 378.031 18.881 380.428 20.5663C392.819 29.2772 402.477 41.9383 409.402 58.5497C416.508 74.9586 420.062 94.6087 420.062 117.5C420.062 140.391 416.508 160.143 409.402 176.754C402.477 193.163 392.819 205.723 380.428 214.434C368.037 223.145 353.915 227.5 338.062 227.5ZM338.062 185.87C349.724 185.87 358.835 180.299 365.395 169.157C372.137 158.016 375.508 140.797 375.508 117.5C375.508 94.2035 372.137 76.9843 365.395 65.8425C363.497 62.6195 361.386 59.8626 359.062 57.5719C353.35 51.9439 346.35 49.1298 338.062 49.1298C326.582 49.1298 317.47 54.7007 310.728 65.8425C304.168 76.9843 300.888 94.2035 300.888 117.5C300.888 140.797 304.168 158.016 310.728 169.157C313.112 173.097 315.792 176.34 318.769 178.887C324.21 183.542 330.641 185.87 338.062 185.87Z" fill="#4EB1AA"/>
<mask id="mask4" mask-type="alpha" maskUnits="userSpaceOnUse" x="256" y="7" width="165" height="221">
<path d="M338.062 227.5C326.071 227.5 315.071 225.009 305.062 220.026C301.837 218.42 298.714 216.556 295.695 214.434C283.304 205.723 273.555 193.163 266.448 176.754C259.524 160.143 256.062 140.391 256.062 117.5C256.062 94.6087 259.524 74.9586 266.448 58.5497C273.555 41.9383 283.304 29.2772 295.695 20.5663C308.086 11.8554 322.208 7.5 338.062 7.5C350.848 7.5 362.508 10.3337 373.042 16C375.569 17.3592 378.031 18.881 380.428 20.5663C392.819 29.2772 402.477 41.9383 409.402 58.5497C416.508 74.9586 420.062 94.6087 420.062 117.5C420.062 140.391 416.508 160.143 409.402 176.754C402.477 193.163 392.819 205.723 380.428 214.434C368.037 223.145 353.915 227.5 338.062 227.5ZM338.062 185.87C349.724 185.87 358.835 180.299 365.395 169.157C372.137 158.016 375.508 140.797 375.508 117.5C375.508 94.2035 372.137 76.9843 365.395 65.8425C363.497 62.6195 361.386 59.8626 359.062 57.5719C353.35 51.9439 346.35 49.1298 338.062 49.1298C326.582 49.1298 317.47 54.7007 310.728 65.8425C304.168 76.9843 300.888 94.2035 300.888 117.5C300.888 140.797 304.168 158.016 310.728 169.157C313.112 173.097 315.792 176.34 318.769 178.887C324.21 183.542 330.641 185.87 338.062 185.87Z" fill="#4EB1AA"/>
</mask>
<g mask="url(#mask4)">
<g opacity="0.8" filter="url(#filter6_f)">
<circle cx="290.062" cy="184.5" r="31" fill="#0F5862"/>
</g>
<g opacity="0.8" filter="url(#filter7_f)">
<circle cx="344.062" cy="35.5" r="31" fill="#172F47"/>
</g>
</g>
<path fill-rule="evenodd" clip-rule="evenodd" d="M295.695 214.434C298.714 216.556 301.837 218.42 305.062 220.026L318.769 178.887C315.792 176.34 313.112 173.097 310.728 169.157C304.168 158.016 300.888 140.797 300.888 117.5C300.888 94.2035 304.168 76.9843 310.728 65.8425C317.47 54.7007 326.582 49.1298 338.062 49.1298C346.35 49.1298 353.35 51.9439 359.062 57.5719C359.094 57.6038 359.126 57.6357 359.158 57.6676L373.042 16C362.508 10.3337 350.848 7.5 338.062 7.5C322.208 7.5 308.086 11.8554 295.695 20.5663C283.304 29.2772 273.555 41.9383 266.448 58.5497C259.524 74.9586 256.062 94.6087 256.062 117.5C256.062 140.391 259.524 160.143 266.448 176.754C273.555 193.163 283.304 205.723 295.695 214.434Z" fill="#0F5862"/>
<defs>
<filter id="filter0_f" x="38.0615" y="115.5" width="98" height="98" filterUnits="userSpaceOnUse" color-interpolation-filters="sRGB">
<feFlood flood-opacity="0" result="BackgroundImageFix"/>
<feBlend mode="normal" in="SourceGraphic" in2="BackgroundImageFix" result="shape"/>
<feGaussianBlur stdDeviation="12" result="effect1_foregroundBlur"/>
</filter>
<filter id="filter1_f" x="116.062" y="107.5" width="110" height="110" filterUnits="userSpaceOnUse" color-interpolation-filters="sRGB">
<feFlood flood-opacity="0" result="BackgroundImageFix"/>
<feBlend mode="normal" in="SourceGraphic" in2="BackgroundImageFix" result="shape"/>
<feGaussianBlur stdDeviation="12" result="effect1_foregroundBlur"/>
</filter>
<filter id="filter2_f" x="19.0615" y="112.5" width="110" height="110" filterUnits="userSpaceOnUse" color-interpolation-filters="sRGB">
<feFlood flood-opacity="0" result="BackgroundImageFix"/>
<feBlend mode="normal" in="SourceGraphic" in2="BackgroundImageFix" result="shape"/>
<feGaussianBlur stdDeviation="12" result="effect1_foregroundBlur"/>
</filter>
<filter id="filter3_f" x="534.123" y="115.5" width="98" height="98" filterUnits="userSpaceOnUse" color-interpolation-filters="sRGB">
<feFlood flood-opacity="0" result="BackgroundImageFix"/>
<feBlend mode="normal" in="SourceGraphic" in2="BackgroundImageFix" result="shape"/>
<feGaussianBlur stdDeviation="12" result="effect1_foregroundBlur"/>
</filter>
<filter id="filter4_f" x="612.123" y="107.5" width="110" height="110" filterUnits="userSpaceOnUse" color-interpolation-filters="sRGB">
<feFlood flood-opacity="0" result="BackgroundImageFix"/>
<feBlend mode="normal" in="SourceGraphic" in2="BackgroundImageFix" result="shape"/>
<feGaussianBlur stdDeviation="12" result="effect1_foregroundBlur"/>
</filter>
<filter id="filter5_f" x="515.123" y="112.5" width="110" height="110" filterUnits="userSpaceOnUse" color-interpolation-filters="sRGB">
<feFlood flood-opacity="0" result="BackgroundImageFix"/>
<feBlend mode="normal" in="SourceGraphic" in2="BackgroundImageFix" result="shape"/>
<feGaussianBlur stdDeviation="12" result="effect1_foregroundBlur"/>
</filter>
<filter id="filter6_f" x="235.062" y="129.5" width="110" height="110" filterUnits="userSpaceOnUse" color-interpolation-filters="sRGB">
<feFlood flood-opacity="0" result="BackgroundImageFix"/>
<feBlend mode="normal" in="SourceGraphic" in2="BackgroundImageFix" result="shape"/>
<feGaussianBlur stdDeviation="12" result="effect1_foregroundBlur"/>
</filter>
<filter id="filter7_f" x="289.062" y="-19.5" width="110" height="110" filterUnits="userSpaceOnUse" color-interpolation-filters="sRGB">
<feFlood flood-opacity="0" result="BackgroundImageFix"/>
<feBlend mode="normal" in="SourceGraphic" in2="BackgroundImageFix" result="shape"/>
<feGaussianBlur stdDeviation="12" result="effect1_foregroundBlur"/>
</filter>
</defs>
</svg>
