<svg width="32" height="33" viewBox="0 0 32 33" fill="none" xmlns="http://www.w3.org/2000/svg">
<path fill-rule="evenodd" clip-rule="evenodd" d="M17.0932 32.8535H1.76713C0.791425 32.8535 0.000976562 32.0626 0.000976562 31.0872V2.61966C0.000976562 1.64408 0.791549 0.853516 1.76713 0.853516H30.2349C31.2103 0.853516 32.001 1.64408 32.001 2.61966V31.0872C32.001 32.0627 31.2102 32.8535 30.2349 32.8535H22.0805V20.4614H26.24L26.8628 15.6319H22.0805V12.5486C22.0805 11.1504 22.4688 10.1975 24.4738 10.1975L27.0312 10.1964V5.87691C26.5889 5.81805 25.0708 5.68656 23.3047 5.68656C19.6175 5.68656 17.0932 7.9372 17.0932 12.0703V15.6319H12.9231V20.4614H17.0932V32.8535Z" fill="#4460A0"/>
</svg>
