<svg width="30" height="30" viewBox="0 0 30 30" fill="none" xmlns="http://www.w3.org/2000/svg">
<path fill-rule="evenodd" clip-rule="evenodd" d="M3.25 1.25H20.0577V5.41892L26.75 1.86336V15.8502L20.0577 13.4057V17.75H3.25V1.25ZM4.75 2.75V16.25H18.5577V11.2609L25.25 13.7054V4.35886L18.5577 7.91441V2.75H4.75Z" fill="#BAC1CC"/>
<path fill-rule="evenodd" clip-rule="evenodd" d="M3.25 25C3.25 22.3766 5.37665 20.25 8 20.25C10.6234 20.25 12.75 22.3766 12.75 25C12.75 26.2572 12.2616 27.4003 11.4641 28.25H18.5359C17.7384 27.4003 17.25 26.2572 17.25 25C17.25 22.3766 19.3766 20.25 22 20.25C24.6234 20.25 26.75 22.3766 26.75 25C26.75 27.6234 24.6234 29.75 22 29.75H8C5.37665 29.75 3.25 27.6234 3.25 25ZM22 28.25C23.7949 28.25 25.25 26.7949 25.25 25C25.25 23.2051 23.7949 21.75 22 21.75C20.2051 21.75 18.75 23.2051 18.75 25C18.75 26.7949 20.2051 28.25 22 28.25ZM8 28.25C9.79493 28.25 11.25 26.7949 11.25 25C11.25 23.2051 9.79493 21.75 8 21.75C6.20507 21.75 4.75 23.2051 4.75 25C4.75 26.7949 6.20507 28.25 8 28.25Z" fill="#BAC1CC"/>
</svg>
