<svg width="30" height="30" viewBox="0 0 30 30" fill="none" xmlns="http://www.w3.org/2000/svg">
<g clip-path="url(#clip0)">
<path fill-rule="evenodd" clip-rule="evenodd" d="M6.59648 4.16327C8.2892 1.99658 11.0004 0.25 15 0.25C18.9996 0.25 21.7108 1.99658 23.4035 4.16327C25.071 6.29766 25.75 8.8359 25.75 10.5V14.1825C26.5849 14.6238 27.233 15.371 27.5453 16.2749C27.9407 16.3368 28.4368 16.5153 28.8734 16.8272C29.4629 17.2483 30 17.9572 30 19C30 20.0428 29.4629 20.7517 28.8734 21.1728C28.4368 21.4847 27.9407 21.6632 27.5453 21.7251C27.1041 23.0021 25.9924 23.9664 24.6311 24.1971C24.4892 24.8177 24.2375 25.5987 23.8416 26.3044C23.315 27.2432 22.4094 28.25 21 28.25H19.7323C19.611 29.0981 18.8816 29.75 18 29.75H15C14.0335 29.75 13.25 28.9665 13.25 28V27C13.25 26.0335 14.0335 25.25 15 25.25H18C18.8816 25.25 19.611 25.9019 19.7323 26.75H21C21.5906 26.75 22.1017 26.3402 22.5334 25.5706C22.771 25.147 22.9472 24.6747 23.069 24.25H22C21.0335 24.25 20.25 23.4665 20.25 22.5V15.5C20.25 14.5335 21.0335 13.75 22 13.75H22.25V11C22.25 9.41318 21.679 7.58744 20.4882 6.16989C19.3142 4.77225 17.5223 3.75 15 3.75C12.4777 3.75 10.6858 4.77225 9.51178 6.16989C8.32104 7.58744 7.75 9.41318 7.75 11V13.75H8C8.9665 13.75 9.75 14.5335 9.75 15.5V22.5C9.75 23.4665 8.9665 24.25 8 24.25H6C4.35793 24.25 2.96237 23.1946 2.45468 21.7251C2.05926 21.6632 1.56318 21.4847 1.12657 21.1728C0.537065 20.7517 0 20.0428 0 19C0 17.9572 0.537065 17.2483 1.12657 16.8272C1.56318 16.5153 2.05926 16.3368 2.45468 16.2749C2.76695 15.371 3.41515 14.6238 4.25 14.1825V10.5C4.25 8.8359 4.92899 6.29766 6.59648 4.16327ZM28.0016 19.9522C27.9179 20.0119 27.8323 20.0608 27.75 20.1003V17.8997C27.8323 17.9392 27.9179 17.9881 28.0016 18.0478C28.2871 18.2517 28.5 18.5428 28.5 19C28.5 19.4572 28.2871 19.7483 28.0016 19.9522ZM26.25 20.5C26.25 21.6581 25.375 22.6119 24.25 22.7363V15.2637C25.375 15.3881 26.25 16.3419 26.25 17.5V20.5ZM22.75 15.25V22.75H22C21.8619 22.75 21.75 22.6381 21.75 22.5V15.5C21.75 15.3619 21.8619 15.25 22 15.25H22.75ZM1.99843 18.0478C2.08207 17.9881 2.16768 17.9392 2.25 17.8997V20.1003C2.16768 20.0608 2.08207 20.0119 1.99843 19.9522C1.71294 19.7483 1.5 19.4572 1.5 19C1.5 18.5428 1.71294 18.2517 1.99843 18.0478ZM23.75 13.75H24.25V10.5C24.25 9.1641 23.679 6.95234 22.2215 5.08673C20.7892 3.25342 18.5004 1.75 15 1.75C11.4996 1.75 9.2108 3.25342 7.77852 5.08673C6.32101 6.95234 5.75 9.1641 5.75 10.5V13.75H6.25V11C6.25 9.08682 6.92896 6.91256 8.36322 5.20511C9.8142 3.47775 12.0223 2.25 15 2.25C17.9777 2.25 20.1858 3.47775 21.6368 5.20511C23.071 6.91256 23.75 9.08682 23.75 11V13.75ZM3.75 17.5C3.75 16.3419 4.62501 15.3881 5.75 15.2637V22.7363C4.62501 22.6119 3.75 21.6581 3.75 20.5V17.5ZM7.25 22.75V15.25H8C8.13807 15.25 8.25 15.3619 8.25 15.5V22.5C8.25 22.6381 8.13807 22.75 8 22.75H7.25ZM14.75 27C14.75 26.8619 14.8619 26.75 15 26.75H18C18.1381 26.75 18.25 26.8619 18.25 27V28C18.25 28.1381 18.1381 28.25 18 28.25H15C14.8619 28.25 14.75 28.1381 14.75 28V27Z" fill="#BAC1CC"/>
</g>
<defs>
<clipPath id="clip0">
<rect width="30" height="30" fill="white"/>
</clipPath>
</defs>
</svg>
