<svg width="24" height="24" viewBox="0 0 24 24" fill="none" xmlns="http://www.w3.org/2000/svg">
<g opacity="0.01">
<rect x="0.5" y="0.5" width="23" height="23" fill="white"/>
<rect x="0.5" y="0.5" width="23" height="23" fill="url(#paint0_linear)"/>
<rect x="0.5" y="0.5" width="23" height="23" stroke="white"/>
<rect x="0.5" y="0.5" width="23" height="23" stroke="url(#paint1_linear)"/>
</g>
<path fill-rule="evenodd" clip-rule="evenodd" d="M1.92117 12.1155C2.01782 12.2399 2.13779 12.3887 2.28065 12.5561C2.7269 13.0789 3.39263 13.7783 4.26456 14.4773C6.0104 15.8769 8.54975 17.25 11.799 17.25C15.0483 17.25 17.5876 15.8769 19.3335 14.4773C20.2054 13.7783 20.8711 13.0789 21.3174 12.5561C21.4603 12.3887 21.5802 12.2399 21.6769 12.1155C21.5784 11.9832 21.4552 11.8234 21.3075 11.6431C20.8605 11.097 20.194 10.3671 19.3216 9.63798C17.5739 8.17731 15.0385 6.75 11.799 6.75C8.55954 6.75 6.02411 8.17731 4.27642 9.63798C3.40403 10.3671 2.73759 11.097 2.29052 11.6431C2.14287 11.8234 2.0196 11.9832 1.92117 12.1155ZM22.599 12.125C23.2337 11.7253 23.2333 11.7248 23.2333 11.7248L23.2317 11.7222L23.2283 11.7168L23.2171 11.6996C23.2078 11.6852 23.1947 11.6651 23.1778 11.6398C23.144 11.5892 23.095 11.5173 23.0311 11.4273C22.9032 11.2474 22.7151 10.9945 22.4682 10.6929C21.9751 10.0905 21.2433 9.28916 20.2836 8.48702C18.367 6.88519 15.5024 5.25 11.799 5.25C8.09565 5.25 5.23108 6.88519 3.31449 8.48702C2.35474 9.28916 1.62295 10.0905 1.12985 10.6929C0.882941 10.9945 0.694851 11.2474 0.566986 11.4273C0.503027 11.5173 0.454053 11.5892 0.420245 11.6398C0.403338 11.6651 0.390215 11.6852 0.380899 11.6996L0.369779 11.7168L0.366363 11.7222L0.365192 11.7241C0.365192 11.7241 0.36438 11.7253 0.999023 12.125L0.36438 11.7253C0.207832 11.9739 0.210838 12.291 0.37207 12.5366L0.999023 12.125C0.37207 12.5366 0.37207 12.5366 0.37207 12.5366L0.372913 12.5379L0.374114 12.5397L0.377591 12.545L0.388835 12.5617C0.398235 12.5756 0.411443 12.595 0.428437 12.6194C0.462418 12.6682 0.51157 12.7374 0.575712 12.8239C0.703944 12.997 0.892414 13.2401 1.13971 13.5299C1.63364 14.1086 2.36613 14.8779 3.32634 15.6477C5.24479 17.1856 8.10544 18.75 11.799 18.75C15.4926 18.75 18.3533 17.1856 20.2717 15.6477C21.2319 14.8779 21.9644 14.1086 22.4583 13.5299C22.7056 13.2401 22.8941 12.997 23.0223 12.8239C23.0865 12.7374 23.1356 12.6682 23.1696 12.6194C23.1866 12.595 23.1998 12.5756 23.2092 12.5617L23.2205 12.545L23.2239 12.5397L23.2251 12.5379C23.2251 12.5379 23.226 12.5366 22.599 12.125ZM22.599 12.125L23.226 12.5366C23.3872 12.291 23.3899 11.9734 23.2333 11.7248L22.599 12.125ZM12 8.75C10.2051 8.75 8.75 10.2051 8.75 12C8.75 13.7949 10.2051 15.25 12 15.25C13.7949 15.25 15.25 13.7949 15.25 12C15.25 10.2051 13.7949 8.75 12 8.75ZM7.25 12C7.25 9.37665 9.37665 7.25 12 7.25C14.6234 7.25 16.75 9.37665 16.75 12C16.75 14.6234 14.6234 16.75 12 16.75C9.37665 16.75 7.25 14.6234 7.25 12Z" fill="#6F7B8E"/>
<path d="M13.5 12C13.5 12.8284 12.8284 13.5 12 13.5C11.1716 13.5 10.5 12.8284 10.5 12C10.5 11.1716 11.1716 10.5 12 10.5C12.8284 10.5 13.5 11.1716 13.5 12Z" fill="#6F7B8E"/>
<defs>
<linearGradient id="paint0_linear" x1="12" y1="0" x2="12" y2="24" gradientUnits="userSpaceOnUse">
<stop stop-color="white"/>
<stop offset="1" stop-color="white" stop-opacity="0"/>
</linearGradient>
<linearGradient id="paint1_linear" x1="12" y1="0" x2="12" y2="24" gradientUnits="userSpaceOnUse">
<stop stop-color="white"/>
<stop offset="1" stop-color="white" stop-opacity="0"/>
</linearGradient>
</defs>
</svg>
