<svg width="24" height="24" viewBox="0 0 24 24" fill="none" xmlns="http://www.w3.org/2000/svg">
<g opacity="0.01">
<rect x="0.5" y="0.5" width="23" height="23" fill="white"/>
<rect x="0.5" y="0.5" width="23" height="23" fill="url(#paint0_linear)"/>
<rect x="0.5" y="0.5" width="23" height="23" stroke="white"/>
<rect x="0.5" y="0.5" width="23" height="23" stroke="url(#paint1_linear)"/>
</g>
<path d="M8.71945 14.7054C9.09445 15.0804 9.28195 15.5357 9.28195 16.0715C9.28195 16.6072 9.09445 17.0625 8.71945 17.4375C8.34445 17.8125 7.88909 18 7.35338 18C6.81766 18 6.3623 17.8125 5.9873 17.4375C5.6123 17.0625 5.4248 16.6072 5.4248 16.0715C5.4248 15.5357 5.6123 15.0804 5.9873 14.7054C6.3623 14.3304 6.81766 14.1429 7.35338 14.1429C7.88909 14.1429 8.34445 14.3304 8.71945 14.7054ZM14.4248 17.307C14.4382 17.4945 14.3813 17.6552 14.254 17.7891C14.1335 17.9297 13.9761 18 13.7819 18H12.4259C12.2585 18 12.1145 17.9465 11.994 17.8393C11.8735 17.7255 11.8065 17.5849 11.7931 17.4174C11.6458 15.884 11.0264 14.5748 9.93485 13.49C8.85003 12.3985 7.54088 11.7791 6.00739 11.6317C5.83998 11.6183 5.69936 11.5514 5.58552 11.4308C5.47838 11.3103 5.4248 11.1663 5.4248 10.9989V9.64289C5.4248 9.4487 5.49512 9.29133 5.63574 9.17079C5.74958 9.05696 5.89355 9.00004 6.06766 9.00004H6.11789C7.18931 9.08709 8.21387 9.35829 9.19155 9.81365C10.1692 10.2623 11.0364 10.8683 11.7931 11.6317C12.5565 12.3884 13.1625 13.2556 13.6112 14.2333C14.0665 15.211 14.3378 16.2355 14.4248 17.307ZM19.5677 17.327C19.5811 17.5078 19.5208 17.6652 19.3869 17.7991C19.2663 17.9331 19.1123 18 18.9248 18H17.4884C17.3143 18 17.1636 17.9431 17.0364 17.8293C16.9159 17.7087 16.8523 17.5648 16.8456 17.3974C16.7652 15.9576 16.427 14.5916 15.8311 13.2991C15.2351 12 14.4583 10.875 13.5007 9.92414C12.5498 8.96655 11.4248 8.18977 10.1257 7.59379C8.83329 6.9978 7.46722 6.65628 6.02748 6.56923C5.86007 6.56253 5.7161 6.49892 5.59556 6.37838C5.48172 6.25115 5.4248 6.10383 5.4248 5.93642V4.50003C5.4248 4.31253 5.49177 4.15852 5.6257 4.03798C5.74623 3.91745 5.89355 3.85718 6.06766 3.85718H6.0978C7.85226 3.94423 9.52972 4.34602 11.1302 5.06253C12.7373 5.77905 14.1636 6.76343 15.4092 8.01566C16.6614 9.2612 17.6458 10.6875 18.3623 12.2947C19.0788 13.8951 19.4806 15.5726 19.5677 17.327Z" fill="#0C2947"/>
<defs>
<linearGradient id="paint0_linear" x1="12" y1="0" x2="12" y2="24" gradientUnits="userSpaceOnUse">
<stop stop-color="white"/>
<stop offset="1" stop-color="white" stop-opacity="0"/>
</linearGradient>
<linearGradient id="paint1_linear" x1="12" y1="0" x2="12" y2="24" gradientUnits="userSpaceOnUse">
<stop stop-color="white"/>
<stop offset="1" stop-color="white" stop-opacity="0"/>
</linearGradient>
</defs>
</svg>
