<svg width="30" height="30" viewBox="0 0 30 30" fill="none" xmlns="http://www.w3.org/2000/svg">
<path d="M11.25 12.25H12.75V13.75H11.25V12.25Z" fill="#BAC1CC"/>
<path d="M14.25 12.25H15.75V13.75H14.25V12.25Z" fill="#BAC1CC"/>
<path d="M17.25 12.25H18.75V13.75H17.25V12.25Z" fill="#BAC1CC"/>
<path d="M20.25 12.25H21.75V13.75H20.25V12.25Z" fill="#BAC1CC"/>
<path d="M24.75 12.25V13.75H23.25V12.25H24.75Z" fill="#BAC1CC"/>
<path d="M6.75 15.25V16.75H5.25V15.25H6.75Z" fill="#BAC1CC"/>
<path d="M8.25 15.25H9.75V16.75H8.25V15.25Z" fill="#BAC1CC"/>
<path d="M11.25 15.25H12.75V16.75H11.25V15.25Z" fill="#BAC1CC"/>
<path d="M14.25 15.25H15.75V16.75H14.25V15.25Z" fill="#BAC1CC"/>
<path d="M17.25 15.25H18.75V16.75H17.25V15.25Z" fill="#BAC1CC"/>
<path d="M20.25 15.25H21.75V16.75H20.25V15.25Z" fill="#BAC1CC"/>
<path d="M24.75 15.25V16.75H23.25V15.25H24.75Z" fill="#BAC1CC"/>
<path d="M6.75 18.25V19.75H5.25V18.25H6.75Z" fill="#BAC1CC"/>
<path d="M8.25 18.25H9.75V19.75H8.25V18.25Z" fill="#BAC1CC"/>
<path d="M11.25 18.25H12.75V19.75H11.25V18.25Z" fill="#BAC1CC"/>
<path d="M14.25 18.25H15.75V19.75H14.25V18.25Z" fill="#BAC1CC"/>
<path d="M17.25 18.25H18.75V19.75H17.25V18.25Z" fill="#BAC1CC"/>
<path d="M20.25 18.25H21.75V19.75H20.25V18.25Z" fill="#BAC1CC"/>
<path d="M24.75 18.25V19.75H23.25V18.25H24.75Z" fill="#BAC1CC"/>
<path d="M6.75 21.25V22.75H5.25V21.25H6.75Z" fill="#BAC1CC"/>
<path d="M8.25 21.25H9.75V22.75H8.25V21.25Z" fill="#BAC1CC"/>
<path d="M11.25 21.25H12.75V22.75H11.25V21.25Z" fill="#BAC1CC"/>
<path d="M14.25 21.25H15.75V22.75H14.25V21.25Z" fill="#BAC1CC"/>
<path d="M17.25 21.25H18.75V22.75H17.25V21.25Z" fill="#BAC1CC"/>
<path d="M20.25 21.25H21.75V22.75H20.25V21.25Z" fill="#BAC1CC"/>
<path d="M24.75 21.25V22.75H23.25V21.25H24.75Z" fill="#BAC1CC"/>
<path d="M6.75 24.25V25.75H5.25V24.25H6.75Z" fill="#BAC1CC"/>
<path d="M8.25 24.25H9.75V25.75H8.25V24.25Z" fill="#BAC1CC"/>
<path d="M11.25 24.25H12.75V25.75H11.25V24.25Z" fill="#BAC1CC"/>
<path d="M14.25 24.25H15.75V25.75H14.25V24.25Z" fill="#BAC1CC"/>
<path fill-rule="evenodd" clip-rule="evenodd" d="M8.75 0H4.75V2.5H0.25V30H29.75V2.5H24.75V0H20.75V2.5H8.75V0ZM8.75 4V6.5H4.75V4H1.75V8.5H28.25V4H24.75V6.5H20.75V4H8.75ZM6.25 5V1.5H7.25V5H6.25ZM22.25 5V1.5H23.25V5H22.25ZM1.75 28.5V10H28.25V28.5H1.75Z" fill="#BAC1CC"/>
</svg>
