<svg width="71" height="72" viewBox="0 0 71 72" fill="none" xmlns="http://www.w3.org/2000/svg">
<path fill-rule="evenodd" clip-rule="evenodd" d="M1 1.35352H70V70.3535H1V1.35352ZM71 0.353516H70H1H0V1.35352V70.3535V71.3535H1H70H71V70.3535V1.35352V0.353516ZM19.599 34.6387C20.799 33.2386 21.799 31.8387 22.399 30.6387C22.999 29.4387 23.599 27.7386 23.899 25.6387C24.399 27.7386 24.999 29.4387 25.599 30.6387C26.199 31.8387 27.099 33.2386 28.399 34.6387L28.999 35.2386C30.699 37.1387 31.499 38.9387 31.499 40.8387C31.499 42.9387 30.799 44.6387 29.299 46.1387C27.799 47.6387 26.099 48.3387 23.999 48.3387C21.999 48.3387 20.199 47.6387 18.699 46.1387C17.199 44.6387 16.499 42.9387 16.499 40.8387C16.499 38.9387 17.299 37.1387 18.999 35.2386L19.599 34.6387ZM34.1989 17.7388C33.5989 18.8387 32.7989 20.0388 31.5989 21.3387L31.0989 21.9388C29.5989 23.6388 28.8989 25.2388 28.8989 26.9388C28.8989 28.7388 29.5989 30.3387 30.8989 31.7388C32.1989 33.0388 33.7989 33.7388 35.6989 33.7388C37.5989 33.7388 39.1989 33.0388 40.4989 31.7388C41.7989 30.4388 42.4989 28.8387 42.4989 26.9388C42.4989 25.2388 41.7989 23.6388 40.2989 21.9388L39.7989 21.3387C38.6989 20.0388 37.7989 18.8387 37.1989 17.7388C36.5989 16.6388 36.0989 15.1388 35.6989 13.2388C35.2989 15.1388 34.7989 16.6388 34.1989 17.7388ZM43.6991 33.2386C44.6991 32.1387 45.4991 31.0387 45.9991 30.0387C46.4991 29.1387 46.8991 27.7386 47.2991 26.1387C47.6991 27.8387 48.0991 29.1387 48.5991 30.1387C49.0991 31.1387 49.8991 32.1387 50.8991 33.3387L51.4991 33.7386C52.7991 35.2386 53.4991 36.7386 53.4991 38.2386C53.4991 39.8387 52.8991 41.2386 51.6991 42.4387C50.4991 43.6387 49.0991 44.2386 47.3991 44.2386C45.6991 44.2386 44.2991 43.6387 43.0991 42.4387C41.8991 41.2386 41.2991 39.8387 41.2991 38.2386C41.2991 36.7386 41.9991 35.2386 43.2991 33.7386L43.6991 33.2386Z" fill="url(#paint0_radial)"/>
<defs>
<radialGradient id="paint0_radial" cx="0" cy="0" r="1" gradientUnits="userSpaceOnUse" gradientTransform="translate(9.96491 0.350905) rotate(90.5732) scale(12.4501 17.6914)">
<stop stop-color="#35CBBA"/>
<stop offset="1" stop-color="#21A697"/>
</radialGradient>
</defs>
</svg>
