<svg width="24" height="24" viewBox="0 0 24 24" fill="none" xmlns="http://www.w3.org/2000/svg">
<g opacity="0.01">
<rect x="0.5" y="0.5" width="23" height="23" fill="white"/>
<rect x="0.5" y="0.5" width="23" height="23" fill="url(#paint0_linear)"/>
<rect x="0.5" y="0.5" width="23" height="23" stroke="white"/>
<rect x="0.5" y="0.5" width="23" height="23" stroke="url(#paint1_linear)"/>
</g>
<path fill-rule="evenodd" clip-rule="evenodd" d="M1.25098 2C1.25098 1.58579 1.58676 1.25 2.00098 1.25H20.001C20.4152 1.25 20.751 1.58579 20.751 2V15C20.751 15.4142 20.4152 15.75 20.001 15.75C19.5868 15.75 19.251 15.4142 19.251 15V11.75H2.75098V19.25H8.00098C8.41519 19.25 8.75098 19.5858 8.75098 20C8.75098 20.4142 8.41519 20.75 8.00098 20.75H2.00098C1.58676 20.75 1.25098 20.4142 1.25098 20V2ZM2.75098 10.25H19.251V2.75H2.75098V10.25ZM8.50098 5.25C8.91519 5.25 9.25098 5.58579 9.25098 6V6.25H12.751V6C12.751 5.58579 13.0868 5.25 13.501 5.25C13.9152 5.25 14.251 5.58579 14.251 6V7C14.251 7.41421 13.9152 7.75 13.501 7.75H8.50098C8.08676 7.75 7.75098 7.41421 7.75098 7V6C7.75098 5.58579 8.08676 5.25 8.50098 5.25ZM8.50098 14.25C8.91519 14.25 9.25098 14.5858 9.25098 15V15.25H12.751V15C12.751 14.5858 13.0868 14.25 13.501 14.25C13.9152 14.25 14.251 14.5858 14.251 15V16C14.251 16.4142 13.9152 16.75 13.501 16.75H8.50098C8.08676 16.75 7.75098 16.4142 7.75098 16V15C7.75098 14.5858 8.08676 14.25 8.50098 14.25ZM22.4706 15.4697C22.7635 15.1768 23.2384 15.1768 23.5313 15.4697C23.8242 15.7626 23.8242 16.2374 23.5313 16.5303L16.5313 23.5303C16.2384 23.8232 15.7635 23.8232 15.4706 23.5303L11.4706 19.5303C11.1778 19.2374 11.1778 18.7626 11.4706 18.4697C11.7635 18.1768 12.2384 18.1768 12.5313 18.4697L16.001 21.9393L22.4706 15.4697Z" fill="#0C2947"/>
<defs>
<linearGradient id="paint0_linear" x1="12" y1="0" x2="12" y2="24" gradientUnits="userSpaceOnUse">
<stop stop-color="white"/>
<stop offset="1" stop-color="white" stop-opacity="0"/>
</linearGradient>
<linearGradient id="paint1_linear" x1="12" y1="0" x2="12" y2="24" gradientUnits="userSpaceOnUse">
<stop stop-color="white"/>
<stop offset="1" stop-color="white" stop-opacity="0"/>
</linearGradient>
</defs>
</svg>
