<svg width="24" height="24" viewBox="0 0 24 24" fill="none" xmlns="http://www.w3.org/2000/svg">
<path d="M11.9999 6.45001C10.694 6.45001 9.60143 7.14124 8.85903 8.00737C8.1228 8.86631 7.64991 9.98837 7.6499 11.0182V13.2C7.64991 13.6142 7.9857 13.95 8.39992 13.95C8.81413 13.95 9.14991 13.6138 9.1499 13.1996V11.0182C9.14991 10.4117 9.44843 9.62463 9.99792 8.98356C10.5412 8.34969 11.2486 7.95001 11.9999 7.95001C12.4141 7.95001 12.7499 7.61423 12.7499 7.20001C12.7499 6.7858 12.4141 6.45001 11.9999 6.45001Z" fill="white"/>
<path d="M11.9999 6.45001C10.694 6.45001 9.60143 7.14124 8.85903 8.00737C8.1228 8.86631 7.64991 9.98837 7.6499 11.0182V13.2C7.64991 13.6142 7.9857 13.95 8.39992 13.95C8.81413 13.95 9.14991 13.6138 9.1499 13.1996V11.0182C9.14991 10.4117 9.44843 9.62463 9.99792 8.98356C10.5412 8.34969 11.2486 7.95001 11.9999 7.95001C12.4141 7.95001 12.7499 7.61423 12.7499 7.20001C12.7499 6.7858 12.4141 6.45001 11.9999 6.45001Z" fill="url(#paint0_linear)"/>
<path fill-rule="evenodd" clip-rule="evenodd" d="M13.9643 3.77935C14.2388 3.38912 14.4 2.91338 14.4 2.4C14.4 1.07452 13.3255 0 12 0C10.6745 0 9.60001 1.07452 9.60001 2.4C9.60001 2.91338 9.7612 3.38912 10.0357 3.77935C7.1259 4.62839 5 7.31593 5 10.5V15.5C3.89543 15.5 3 16.3954 3 17.5V18.5C3 19.6046 3.89543 20.5 5 20.5L8.50001 20.5C8.50002 22.433 10.067 24 12 24C13.933 24 15.5 22.433 15.5 20.5L19 20.5C20.1046 20.5 21 19.6046 21 18.5V17.5C21 16.3954 20.1046 15.5 19 15.5V10.5C19 7.31593 16.8741 4.6284 13.9643 3.77935ZM12.9 2.4C12.9 2.89706 12.4971 3.3 12 3.3C11.5029 3.3 11.1 2.89706 11.1 2.4C11.1 1.90294 11.5029 1.5 12 1.5C12.4971 1.5 12.9 1.90294 12.9 2.4ZM14 20.5H10C10 21.0973 10.2619 21.6335 10.6771 22C11.0297 22.3112 11.4928 22.5 12 22.5C12.5072 22.5 12.9703 22.3112 13.3229 22C13.7381 21.6335 14 21.0973 14 20.5ZM19 19C19.2761 19 19.5 18.7761 19.5 18.5V17.5C19.5 17.2239 19.2761 17 19 17H17.5V10.5C17.5 7.46243 15.0376 5 12 5C8.96243 5 6.5 7.46243 6.5 10.5V17H5C4.72386 17 4.5 17.2239 4.5 17.5V18.5C4.5 18.7761 4.72386 19 5 19H19Z" fill="white"/>
<path fill-rule="evenodd" clip-rule="evenodd" d="M13.9643 3.77935C14.2388 3.38912 14.4 2.91338 14.4 2.4C14.4 1.07452 13.3255 0 12 0C10.6745 0 9.60001 1.07452 9.60001 2.4C9.60001 2.91338 9.7612 3.38912 10.0357 3.77935C7.1259 4.62839 5 7.31593 5 10.5V15.5C3.89543 15.5 3 16.3954 3 17.5V18.5C3 19.6046 3.89543 20.5 5 20.5L8.50001 20.5C8.50002 22.433 10.067 24 12 24C13.933 24 15.5 22.433 15.5 20.5L19 20.5C20.1046 20.5 21 19.6046 21 18.5V17.5C21 16.3954 20.1046 15.5 19 15.5V10.5C19 7.31593 16.8741 4.6284 13.9643 3.77935ZM12.9 2.4C12.9 2.89706 12.4971 3.3 12 3.3C11.5029 3.3 11.1 2.89706 11.1 2.4C11.1 1.90294 11.5029 1.5 12 1.5C12.4971 1.5 12.9 1.90294 12.9 2.4ZM14 20.5H10C10 21.0973 10.2619 21.6335 10.6771 22C11.0297 22.3112 11.4928 22.5 12 22.5C12.5072 22.5 12.9703 22.3112 13.3229 22C13.7381 21.6335 14 21.0973 14 20.5ZM19 19C19.2761 19 19.5 18.7761 19.5 18.5V17.5C19.5 17.2239 19.2761 17 19 17H17.5V10.5C17.5 7.46243 15.0376 5 12 5C8.96243 5 6.5 7.46243 6.5 10.5V17H5C4.72386 17 4.5 17.2239 4.5 17.5V18.5C4.5 18.7761 4.72386 19 5 19H19Z" fill="url(#paint1_linear)"/>
<defs>
<linearGradient id="paint0_linear" x1="12" y1="0" x2="12" y2="24" gradientUnits="userSpaceOnUse">
<stop stop-color="white"/>
<stop offset="1" stop-color="white" stop-opacity="0"/>
</linearGradient>
<linearGradient id="paint1_linear" x1="12" y1="0" x2="12" y2="24" gradientUnits="userSpaceOnUse">
<stop stop-color="white"/>
<stop offset="1" stop-color="white" stop-opacity="0"/>
</linearGradient>
</defs>
</svg>
