<svg width="18" height="18" viewBox="0 0 18 18" fill="none" xmlns="http://www.w3.org/2000/svg">
<g opacity="0.01">
<rect x="0.5" y="0.5" width="17" height="17" fill="white"/>
<rect x="0.5" y="0.5" width="17" height="17" fill="url(#paint0_linear)"/>
<rect x="0.5" y="0.5" width="17" height="17" stroke="white"/>
<rect x="0.5" y="0.5" width="17" height="17" stroke="url(#paint1_linear)"/>
</g>
<path d="M10 1C10 0.447715 9.55229 0 9 0C8.44771 0 8 0.447715 8 1V8H1C0.447715 8 0 8.44771 0 9C0 9.55229 0.447715 10 1 10H8V17C8 17.5523 8.44771 18 9 18C9.55229 18 10 17.5523 10 17V10H17C17.5523 10 18 9.55229 18 9C18 8.44771 17.5523 8 17 8H10V1Z" fill="white"/>
<path d="M10 1C10 0.447715 9.55229 0 9 0C8.44771 0 8 0.447715 8 1V8H1C0.447715 8 0 8.44771 0 9C0 9.55229 0.447715 10 1 10H8V17C8 17.5523 8.44771 18 9 18C9.55229 18 10 17.5523 10 17V10H17C17.5523 10 18 9.55229 18 9C18 8.44771 17.5523 8 17 8H10V1Z" fill="url(#paint2_linear)"/>
<defs>
<linearGradient id="paint0_linear" x1="9" y1="0" x2="9" y2="18" gradientUnits="userSpaceOnUse">
<stop stop-color="white"/>
<stop offset="1" stop-color="white" stop-opacity="0"/>
</linearGradient>
<linearGradient id="paint1_linear" x1="9" y1="0" x2="9" y2="18" gradientUnits="userSpaceOnUse">
<stop stop-color="white"/>
<stop offset="1" stop-color="white" stop-opacity="0"/>
</linearGradient>
<linearGradient id="paint2_linear" x1="9" y1="0" x2="9" y2="18" gradientUnits="userSpaceOnUse">
<stop stop-color="white"/>
<stop offset="1" stop-color="white" stop-opacity="0"/>
</linearGradient>
</defs>
</svg>
