<svg width="16" height="16" viewBox="0 0 16 16" fill="none" xmlns="http://www.w3.org/2000/svg">
<path fill-rule="evenodd" clip-rule="evenodd" d="M3.25 0.75V2H3C1.89543 2 1 2.89543 1 4V14C1 15.1046 1.89543 16 3 16H13C14.1046 16 15 15.1046 15 14V4C15 2.89543 14.1046 2 13 2H12.75V0.75C12.75 0.335786 12.4142 0 12 0C11.5858 0 11.25 0.335786 11.25 0.75V2H4.75V0.75C4.75 0.335786 4.41421 0 4 0C3.58579 0 3.25 0.335786 3.25 0.75ZM3 3.5H13C13.2761 3.5 13.5 3.72386 13.5 4V5.25H2.5V4C2.5 3.72386 2.72386 3.5 3 3.5ZM2.5 6.75V14C2.5 14.2761 2.72386 14.5 3 14.5H13C13.2761 14.5 13.5 14.2761 13.5 14V6.75H2.5Z" fill="#6F7B8E"/>
</svg>
