<svg width="30" height="30" viewBox="0 0 30 30" fill="none" xmlns="http://www.w3.org/2000/svg">
<path fill-rule="evenodd" clip-rule="evenodd" d="M7.10965 12.0129C6.32163 12.8535 5.75 14.1605 5.75 16C5.75 19.046 8.37326 21.25 10.9999 21.25C12.287 21.25 13.3785 20.713 14.1616 20.0977C14.5226 19.814 14.8058 19.523 15.0006 19.2803C15.0002 19.2703 15 19.2602 15 19.25V16.9167C15 16.7178 15.079 16.527 15.2197 16.3863L23.3863 8.21967C23.6792 7.92678 24.1541 7.92678 24.447 8.21967L26.7803 10.553C27.0732 10.8459 27.0732 11.3208 26.7803 11.6137L18.6137 19.7803C18.473 19.921 18.2822 20 18.0833 20H16.3365C16.3042 20.0455 16.2703 20.0912 16.235 20.137C15.9612 20.4929 15.573 20.8964 15.0883 21.2772C14.1212 22.037 12.7127 22.75 10.9999 22.75C7.62674 22.75 4.25 19.954 4.25 16C4.25 13.8394 4.92837 12.1465 6.01535 10.987C7.09874 9.83142 8.54877 9.25 10 9.25C10.9098 9.25 11.8441 9.55242 12.5608 10.1894C13.2912 10.8387 13.75 11.7965 13.75 13C13.75 14.3825 12.8577 15.2547 11.8622 15.5865C10.921 15.9002 9.72294 15.7836 8.96967 15.0303C8.67678 14.7374 8.67678 14.2626 8.96967 13.9697C9.26256 13.6768 9.73744 13.6768 10.0303 13.9697C10.2771 14.2164 10.829 14.3498 11.3878 14.1635C11.8923 13.9953 12.25 13.6175 12.25 13C12.25 12.2035 11.9588 11.6613 11.5642 11.3106C11.1559 10.9476 10.5902 10.75 10 10.75C8.95123 10.75 7.90126 11.1686 7.10965 12.0129ZM16.559 18.5H17.7727L23.356 12.9167L22.0833 11.644L16.5 17.2273V18.441C16.5207 18.4595 16.5405 18.4793 16.559 18.5ZM25.1893 11.0833L24.4167 11.856L23.144 10.5833L23.9167 9.81066L25.1893 11.0833Z" fill="white"/>
<path fill-rule="evenodd" clip-rule="evenodd" d="M7.10965 12.0129C6.32163 12.8535 5.75 14.1605 5.75 16C5.75 19.046 8.37326 21.25 10.9999 21.25C12.287 21.25 13.3785 20.713 14.1616 20.0977C14.5226 19.814 14.8058 19.523 15.0006 19.2803C15.0002 19.2703 15 19.2602 15 19.25V16.9167C15 16.7178 15.079 16.527 15.2197 16.3863L23.3863 8.21967C23.6792 7.92678 24.1541 7.92678 24.447 8.21967L26.7803 10.553C27.0732 10.8459 27.0732 11.3208 26.7803 11.6137L18.6137 19.7803C18.473 19.921 18.2822 20 18.0833 20H16.3365C16.3042 20.0455 16.2703 20.0912 16.235 20.137C15.9612 20.4929 15.573 20.8964 15.0883 21.2772C14.1212 22.037 12.7127 22.75 10.9999 22.75C7.62674 22.75 4.25 19.954 4.25 16C4.25 13.8394 4.92837 12.1465 6.01535 10.987C7.09874 9.83142 8.54877 9.25 10 9.25C10.9098 9.25 11.8441 9.55242 12.5608 10.1894C13.2912 10.8387 13.75 11.7965 13.75 13C13.75 14.3825 12.8577 15.2547 11.8622 15.5865C10.921 15.9002 9.72294 15.7836 8.96967 15.0303C8.67678 14.7374 8.67678 14.2626 8.96967 13.9697C9.26256 13.6768 9.73744 13.6768 10.0303 13.9697C10.2771 14.2164 10.829 14.3498 11.3878 14.1635C11.8923 13.9953 12.25 13.6175 12.25 13C12.25 12.2035 11.9588 11.6613 11.5642 11.3106C11.1559 10.9476 10.5902 10.75 10 10.75C8.95123 10.75 7.90126 11.1686 7.10965 12.0129ZM16.559 18.5H17.7727L23.356 12.9167L22.0833 11.644L16.5 17.2273V18.441C16.5207 18.4595 16.5405 18.4793 16.559 18.5ZM25.1893 11.0833L24.4167 11.856L23.144 10.5833L23.9167 9.81066L25.1893 11.0833Z" fill="url(#paint0_linear)"/>
<path fill-rule="evenodd" clip-rule="evenodd" d="M0.25 26.75V3.25H29.75V26.75H0.25ZM1.75 4.75V25.25H28.25V4.75H1.75Z" fill="white"/>
<path fill-rule="evenodd" clip-rule="evenodd" d="M0.25 26.75V3.25H29.75V26.75H0.25ZM1.75 4.75V25.25H28.25V4.75H1.75Z" fill="url(#paint1_linear)"/>
<defs>
<linearGradient id="paint0_linear" x1="15" y1="3.25" x2="15" y2="26.75" gradientUnits="userSpaceOnUse">
<stop stop-color="white"/>
<stop offset="1" stop-color="white" stop-opacity="0"/>
</linearGradient>
<linearGradient id="paint1_linear" x1="15" y1="3.25" x2="15" y2="26.75" gradientUnits="userSpaceOnUse">
<stop stop-color="white"/>
<stop offset="1" stop-color="white" stop-opacity="0"/>
</linearGradient>
</defs>
</svg>
