<svg width="24" height="24" viewBox="0 0 24 24" fill="none" xmlns="http://www.w3.org/2000/svg">
<path fill-rule="evenodd" clip-rule="evenodd" d="M12.5 2.25C10.2909 2.25 8.5 4.04086 8.5 6.25C8.5 8.45914 10.2909 10.25 12.5 10.25C14.7091 10.25 16.5 8.45914 16.5 6.25C16.5 4.04086 14.7091 2.25 12.5 2.25ZM7 6.25C7 3.21243 9.46243 0.75 12.5 0.75C15.5376 0.75 18 3.21243 18 6.25C18 9.28757 15.5376 11.75 12.5 11.75C9.46243 11.75 7 9.28757 7 6.25ZM1.5 20.5C1.5 16.5134 5.16207 13.5 9 13.5H15C17.2215 13.5 18.8729 14.5139 19.416 14.876C19.7607 15.1057 19.8538 15.5714 19.624 15.916C19.3943 16.2607 18.9286 16.3538 18.584 16.124C18.1271 15.8195 16.7785 15 15 15H9C5.83793 15 3 17.4866 3 20.5C3 20.7185 3.01568 20.8677 3.03594 20.9663C3.03848 20.9787 3.04102 20.9899 3.0435 21H9.5C9.91421 21 10.25 21.3358 10.25 21.75C10.25 22.1642 9.91421 22.5 9.5 22.5H3C2.62082 22.5 2.14934 22.3877 1.83119 21.9249C1.56721 21.5409 1.5 21.0323 1.5 20.5ZM23.5303 15.4697C23.8232 15.7626 23.8232 16.2374 23.5303 16.5303L16.5303 23.5303C16.2374 23.8232 15.7626 23.8232 15.4697 23.5303L11.4697 19.5303C11.1768 19.2374 11.1768 18.7626 11.4697 18.4697C11.7626 18.1768 12.2374 18.1768 12.5303 18.4697L16 21.9393L22.4697 15.4697C22.7626 15.1768 23.2374 15.1768 23.5303 15.4697Z" fill="#67B930"/>
</svg>
