<svg width="30" height="30" viewBox="0 0 30 30" fill="none" xmlns="http://www.w3.org/2000/svg">
<path d="M4 3.75H28.25V22H29.75V2.25H4V3.75Z" fill="white"/>
<path d="M4 3.75H28.25V22H29.75V2.25H4V3.75Z" fill="url(#paint0_linear)"/>
<path d="M2 6.75H25.25V24.5H26.75V5.25H2V6.75Z" fill="white"/>
<path d="M2 6.75H25.25V24.5H26.75V5.25H2V6.75Z" fill="url(#paint1_linear)"/>
<path d="M12.5 19.75H21V18.25H12.5V19.75Z" fill="white"/>
<path d="M12.5 19.75H21V18.25H12.5V19.75Z" fill="url(#paint2_linear)"/>
<path d="M12.5 22.75H18V21.25H12.5V22.75Z" fill="white"/>
<path d="M12.5 22.75H18V21.25H12.5V22.75Z" fill="url(#paint3_linear)"/>
<path fill-rule="evenodd" clip-rule="evenodd" d="M7.5 12.25C5.15279 12.25 3.25 14.1528 3.25 16.5C3.25 18.8472 5.15279 20.75 7.5 20.75C9.84721 20.75 11.75 18.8472 11.75 16.5C11.75 14.1528 9.84721 12.25 7.5 12.25ZM6.75 13.8535C5.59575 14.18 4.75 15.2412 4.75 16.5C4.75 18.0188 5.98122 19.25 7.5 19.25C8.75878 19.25 9.82002 18.4043 10.1465 17.25H6.75V13.8535ZM10.1465 15.75C9.88745 14.8342 9.16584 14.1125 8.25 13.8535V15.75H10.1465Z" fill="white"/>
<path fill-rule="evenodd" clip-rule="evenodd" d="M7.5 12.25C5.15279 12.25 3.25 14.1528 3.25 16.5C3.25 18.8472 5.15279 20.75 7.5 20.75C9.84721 20.75 11.75 18.8472 11.75 16.5C11.75 14.1528 9.84721 12.25 7.5 12.25ZM6.75 13.8535C5.59575 14.18 4.75 15.2412 4.75 16.5C4.75 18.0188 5.98122 19.25 7.5 19.25C8.75878 19.25 9.82002 18.4043 10.1465 17.25H6.75V13.8535ZM10.1465 15.75C9.88745 14.8342 9.16584 14.1125 8.25 13.8535V15.75H10.1465Z" fill="url(#paint4_linear)"/>
<path fill-rule="evenodd" clip-rule="evenodd" d="M23.75 8.25H0.25V26.75H23.75V8.25ZM1.75 25.25V9.75H22.25V25.25H1.75Z" fill="white"/>
<path fill-rule="evenodd" clip-rule="evenodd" d="M23.75 8.25H0.25V26.75H23.75V8.25ZM1.75 25.25V9.75H22.25V25.25H1.75Z" fill="url(#paint5_linear)"/>
<defs>
<linearGradient id="paint0_linear" x1="15" y1="2.25" x2="15" y2="26.75" gradientUnits="userSpaceOnUse">
<stop stop-color="white"/>
<stop offset="1" stop-color="white" stop-opacity="0"/>
</linearGradient>
<linearGradient id="paint1_linear" x1="15" y1="2.25" x2="15" y2="26.75" gradientUnits="userSpaceOnUse">
<stop stop-color="white"/>
<stop offset="1" stop-color="white" stop-opacity="0"/>
</linearGradient>
<linearGradient id="paint2_linear" x1="15" y1="2.25" x2="15" y2="26.75" gradientUnits="userSpaceOnUse">
<stop stop-color="white"/>
<stop offset="1" stop-color="white" stop-opacity="0"/>
</linearGradient>
<linearGradient id="paint3_linear" x1="15" y1="2.25" x2="15" y2="26.75" gradientUnits="userSpaceOnUse">
<stop stop-color="white"/>
<stop offset="1" stop-color="white" stop-opacity="0"/>
</linearGradient>
<linearGradient id="paint4_linear" x1="15" y1="2.25" x2="15" y2="26.75" gradientUnits="userSpaceOnUse">
<stop stop-color="white"/>
<stop offset="1" stop-color="white" stop-opacity="0"/>
</linearGradient>
<linearGradient id="paint5_linear" x1="15" y1="2.25" x2="15" y2="26.75" gradientUnits="userSpaceOnUse">
<stop stop-color="white"/>
<stop offset="1" stop-color="white" stop-opacity="0"/>
</linearGradient>
</defs>
</svg>
