<svg width="24" height="24" viewBox="0 0 24 24" fill="none" xmlns="http://www.w3.org/2000/svg">
<path d="M3.5 0.75C3.23655 0.75 2.99242 0.888224 2.85688 1.11413L1.35688 3.61413C1.28694 3.73069 1.25 3.86407 1.25 4V16C1.25 16.4142 1.58579 16.75 2 16.75H10.5C10.9142 16.75 11.25 16.4142 11.25 16C11.25 15.5858 10.9142 15.25 10.5 15.25H2.75V4.20774L3.92464 2.25H10.1893L12.4697 4.53033C12.6103 4.67098 12.8011 4.75 13 4.75H19.25V9C19.25 9.41421 19.5858 9.75 20 9.75C20.4142 9.75 20.75 9.41421 20.75 9V4C20.75 3.58579 20.4142 3.25 20 3.25H13.3107L11.0303 0.96967C10.8897 0.829018 10.6989 0.75 10.5 0.75H3.5Z" fill="#23AAEA"/>
<path d="M9 5.75C9.41421 5.75 9.75 6.08579 9.75 6.5V10.1893L11.4697 8.46967C11.7626 8.17678 12.2374 8.17678 12.5303 8.46967C12.8232 8.76256 12.8232 9.23744 12.5303 9.53033L9.53033 12.5303C9.45842 12.6022 9.37555 12.6565 9.28709 12.6931C9.19866 12.7298 9.10169 12.75 9 12.75C8.89831 12.75 8.80134 12.7298 8.71291 12.6931C8.62445 12.6565 8.54158 12.6022 8.46967 12.5303L5.46967 9.53033C5.17678 9.23744 5.17678 8.76256 5.46967 8.46967C5.76256 8.17678 6.23744 8.17678 6.53033 8.46967L8.25 10.1893V6.5C8.25 6.08579 8.58579 5.75 9 5.75Z" fill="#23AAEA"/>
<path fill-rule="evenodd" clip-rule="evenodd" d="M21 15V13.5C21 12.8426 20.7625 11.9909 20.217 11.2895C19.6497 10.5601 18.7507 10 17.5 10C16.2493 10 15.3503 10.5601 14.783 11.2895C14.2375 11.9909 14 12.8426 14 13.5V15C12.8954 15 12 15.8954 12 17V21C12 22.1046 12.8954 23 14 23H21C22.1046 23 23 22.1046 23 21V17C23 15.8954 22.1046 15 21 15ZM15.967 12.2105C15.6375 12.6341 15.5 13.1574 15.5 13.5V15H19.5V13.5C19.5 13.1574 19.3625 12.6341 19.033 12.2105C18.7253 11.8149 18.2493 11.5 17.5 11.5C16.7507 11.5 16.2747 11.8149 15.967 12.2105ZM13.5 17C13.5 16.7239 13.7239 16.5 14 16.5H21C21.2761 16.5 21.5 16.7239 21.5 17V21C21.5 21.2761 21.2761 21.5 21 21.5H14C13.7239 21.5 13.5 21.2761 13.5 21V17Z" fill="#23AAEA"/>
</svg>
