<svg width="16" height="16" viewBox="0 0 16 16" xmlns="http://www.w3.org/2000/svg">
<g opacity="0.01">
<rect x="0.5" y="0.5" width="15" height="15" fill="white"/>
<rect x="0.5" y="0.5" width="15" height="15" fill="url(#paint0_linear)"/>
<rect x="0.5" y="0.5" width="15" height="15" stroke="white"/>
<rect x="0.5" y="0.5" width="15" height="15" stroke="url(#paint1_linear)"/>
</g>
<path fill-rule="evenodd" clip-rule="evenodd" d="M11.447 2.21967C11.1541 1.92678 10.6792 1.92678 10.3863 2.21967L2.21967 10.3863C2.07902 10.527 2 10.7178 2 10.9167V13.25C2 13.6642 2.33579 14 2.75 14H5.08333C5.28225 14 5.47301 13.921 5.61366 13.7803L13.7803 5.61366C14.0732 5.32077 14.0732 4.8459 13.7803 4.553L11.447 2.21967ZM3.5 12.5V11.2273L9.16661 5.56071L10.4393 6.83339L4.77267 12.5H3.5ZM11.4999 5.77273L12.1893 5.08333L10.9167 3.81066L10.2273 4.50005L11.4999 5.77273Z"/>
<path fill-rule="evenodd" clip-rule="evenodd" d="M11.447 2.21967C11.1541 1.92678 10.6792 1.92678 10.3863 2.21967L2.21967 10.3863C2.07902 10.527 2 10.7178 2 10.9167V13.25C2 13.6642 2.33579 14 2.75 14H5.08333C5.28225 14 5.47301 13.921 5.61366 13.7803L13.7803 5.61366C14.0732 5.32077 14.0732 4.8459 13.7803 4.553L11.447 2.21967ZM3.5 12.5V11.2273L9.16661 5.56071L10.4393 6.83339L4.77267 12.5H3.5ZM11.4999 5.77273L12.1893 5.08333L10.9167 3.81066L10.2273 4.50005L11.4999 5.77273Z"/>
<defs>
<linearGradient id="paint0_linear" x1="8" y1="0" x2="8" y2="16" gradientUnits="userSpaceOnUse">
<stop stop-color="white"/>
<stop offset="1" stop-color="white" stop-opacity="0"/>
</linearGradient>
<linearGradient id="paint1_linear" x1="8" y1="0" x2="8" y2="16" gradientUnits="userSpaceOnUse">
<stop stop-color="white"/>
<stop offset="1" stop-color="white" stop-opacity="0"/>
</linearGradient>
<linearGradient id="paint2_linear" x1="8" y1="2" x2="8" y2="14" gradientUnits="userSpaceOnUse">
<stop stop-color="white"/>
<stop offset="1" stop-color="white" stop-opacity="0"/>
</linearGradient>
</defs>
</svg>
