<svg width="38" height="38" viewBox="0 0 38 38" fill="none" xmlns="http://www.w3.org/2000/svg">
<path fill-rule="evenodd" clip-rule="evenodd" d="M1.25 8C1.25 7.0335 2.0335 6.25 3 6.25H35C35.9665 6.25 36.75 7.0335 36.75 8V30C36.75 30.9665 35.9665 31.75 35 31.75H3C2.0335 31.75 1.25 30.9665 1.25 30V8ZM3 7.75C2.86193 7.75 2.75 7.86193 2.75 8V30C2.75 30.1381 2.86193 30.25 3 30.25H35C35.1381 30.25 35.25 30.1381 35.25 30V8C35.25 7.86193 35.1381 7.75 35 7.75H3Z" fill="#6F7B8E"/>
<path fill-rule="evenodd" clip-rule="evenodd" d="M4.46934 9.13634C4.76224 8.84344 5.23711 8.84344 5.53 9.13634L14.53 18.1363C14.6902 18.2965 14.8483 18.4645 15.0101 18.6364C15.4179 19.0696 15.849 19.5276 16.3945 19.9472C17.1233 20.5079 17.9664 20.9167 18.9997 20.9167C20.033 20.9167 20.876 20.5079 21.6049 19.9472C22.1504 19.5276 22.5815 19.0696 22.9893 18.6364C23.1511 18.4645 23.3092 18.2965 23.4693 18.1363L32.4693 9.13634C32.7622 8.84344 33.2371 8.84344 33.53 9.13634C33.8229 9.42923 33.8229 9.9041 33.53 10.197L24.53 19.197C24.4221 19.3049 24.2974 19.4374 24.1578 19.5858C23.7327 20.0375 23.1691 20.6364 22.5195 21.1361C21.6233 21.8255 20.4664 22.4167 18.9997 22.4167C17.533 22.4167 16.376 21.8255 15.4799 21.1361C14.8302 20.6364 14.2666 20.0375 13.8416 19.5858C13.7019 19.4374 13.5772 19.3049 13.4693 19.197L4.46934 10.197C4.17645 9.9041 4.17645 9.42923 4.46934 9.13634ZM12.53 20.1363C12.8229 20.4292 12.8229 20.9041 12.53 21.197L5.53 28.197C5.23711 28.4899 4.76224 28.4899 4.46934 28.197C4.17645 27.9041 4.17645 27.4292 4.46934 27.1363L11.4693 20.1363C11.7622 19.8434 12.2371 19.8434 12.53 20.1363ZM25.47 20.1363C25.7629 19.8434 26.2378 19.8434 26.5307 20.1363L33.5307 27.1363C33.8235 27.4292 33.8235 27.9041 33.5307 28.197C33.2378 28.4899 32.7629 28.4899 32.47 28.197L25.47 21.197C25.1771 20.9041 25.1771 20.4292 25.47 20.1363Z" fill="#6F7B8E"/>
</svg>
