<svg width="24" height="24" viewBox="0 0 24 24" fill="none" xmlns="http://www.w3.org/2000/svg">
<g opacity="0.01">
<rect x="0.5" y="0.5" width="23" height="23" fill="white"/>
<rect x="0.5" y="0.5" width="23" height="23" fill="url(#paint0_linear)"/>
<rect x="0.5" y="0.5" width="23" height="23" stroke="white"/>
<rect x="0.5" y="0.5" width="23" height="23" stroke="url(#paint1_linear)"/>
</g>
<path d="M15.7281 10.3461C14.8375 11.2367 13.7627 11.682 12.5038 11.682C11.2448 11.682 10.1701 11.2367 9.27944 10.3461C8.38881 9.45546 7.9435 8.38403 7.9435 7.1318C7.9435 5.87287 8.38881 4.7981 9.27944 3.90747C10.1701 3.01685 11.2448 2.57153 12.5038 2.57153C13.7627 2.57153 14.8375 3.01685 15.7281 3.90747C16.6187 4.7981 17.064 5.87287 17.064 7.1318C17.064 8.38403 16.6187 9.45546 15.7281 10.3461ZM14.0808 5.54475C13.6455 5.10278 13.1198 4.8818 12.5038 4.8818C11.8877 4.8818 11.3587 5.10278 10.9167 5.54475C10.4814 5.98002 10.2638 6.50903 10.2638 7.1318C10.2638 7.74787 10.4814 8.27689 10.9167 8.71886C11.3587 9.15412 11.8877 9.37176 12.5038 9.37176C13.1198 9.37176 13.6455 9.15412 14.0808 8.71886C14.5227 8.27689 14.7437 7.74787 14.7437 7.1318C14.7437 6.50903 14.5227 5.98002 14.0808 5.54475ZM17.7571 12.2345C17.8442 12.4153 17.8944 12.5827 17.9078 12.7367C17.9212 12.884 17.9044 13.018 17.8576 13.1385C17.8174 13.259 17.7303 13.3896 17.5964 13.5302C17.4625 13.6642 17.3185 13.7881 17.1645 13.9019C17.0172 14.009 16.8129 14.1463 16.5518 14.3137C15.7817 14.8026 14.727 15.1173 13.3877 15.2579L14.121 15.9811L16.8029 18.6631C17.0038 18.8706 17.1042 19.1184 17.1042 19.4064C17.1042 19.6943 17.0038 19.9387 16.8029 20.1396L16.6823 20.2702C16.4747 20.4711 16.227 20.5715 15.939 20.5715C15.6511 20.5715 15.4033 20.4711 15.1957 20.2702C14.7471 19.8148 13.8531 18.9175 12.5138 17.5782L9.83189 20.2702C9.6243 20.4711 9.37653 20.5715 9.08859 20.5715C8.80064 20.5715 8.55622 20.4711 8.35533 20.2702L8.23479 20.1396C8.0272 19.9387 7.92341 19.6943 7.92341 19.4064C7.92341 19.1184 8.0272 18.8706 8.23479 18.6631L10.9167 15.9811L11.6399 15.2579C10.2806 15.1173 9.21917 14.8026 8.45578 14.3137C8.19461 14.1463 7.98703 14.009 7.83301 13.9019C7.68569 13.7881 7.54506 13.6642 7.41113 13.5302C7.2772 13.3896 7.1868 13.259 7.13993 13.1385C7.09975 13.018 7.08636 12.884 7.09975 12.7367C7.11314 12.5827 7.16336 12.4153 7.25042 12.2345C7.31738 12.1006 7.41113 11.9834 7.53167 11.8829C7.6522 11.7825 7.79283 11.7088 7.95354 11.6619C8.11426 11.6151 8.30176 11.6218 8.51604 11.682C8.73033 11.7423 8.94796 11.8595 9.16895 12.0336C9.20243 12.0604 9.25265 12.0972 9.31962 12.1441C9.38658 12.191 9.53055 12.2747 9.75153 12.3952C9.97252 12.509 10.2035 12.6095 10.4446 12.6965C10.6857 12.7836 10.9937 12.8639 11.3687 12.9376C11.7437 13.0113 12.1221 13.0481 12.5038 13.0481C13.1131 13.0481 13.6957 12.9644 14.2515 12.797C14.8073 12.6229 15.2091 12.4521 15.4569 12.2847L15.8386 12.0336C16.0596 11.8595 16.2772 11.7423 16.4915 11.682C16.7058 11.6218 16.8933 11.6151 17.054 11.6619C17.2147 11.7088 17.3553 11.7825 17.4759 11.8829C17.5964 11.9834 17.6902 12.1006 17.7571 12.2345Z" fill="#0C2947"/>
<defs>
<linearGradient id="paint0_linear" x1="12" y1="0" x2="12" y2="24" gradientUnits="userSpaceOnUse">
<stop stop-color="white"/>
<stop offset="1" stop-color="white" stop-opacity="0"/>
</linearGradient>
<linearGradient id="paint1_linear" x1="12" y1="0" x2="12" y2="24" gradientUnits="userSpaceOnUse">
<stop stop-color="white"/>
<stop offset="1" stop-color="white" stop-opacity="0"/>
</linearGradient>
</defs>
</svg>
