<svg width="24" height="24" viewBox="0 0 24 24" fill="none" xmlns="http://www.w3.org/2000/svg">
<path d="M13 18C13 18.5523 12.5523 19 12 19C11.4477 19 11 18.5523 11 18C11 17.4477 11.4477 17 12 17C12.5523 17 13 17.4477 13 18Z" fill="white"/>
<path d="M13 18C13 18.5523 12.5523 19 12 19C11.4477 19 11 18.5523 11 18C11 17.4477 11.4477 17 12 17C12.5523 17 13 17.4477 13 18Z" fill="url(#paint0_linear)"/>
<path d="M12 7C11.4477 7 11 7.44772 11 8V14C11 14.5523 11.4477 15 12 15C12.5523 15 13 14.5523 13 14V8C13 7.44772 12.5523 7 12 7Z" fill="white"/>
<path d="M12 7C11.4477 7 11 7.44772 11 8V14C11 14.5523 11.4477 15 12 15C12.5523 15 13 14.5523 13 14V8C13 7.44772 12.5523 7 12 7Z" fill="url(#paint1_linear)"/>
<path fill-rule="evenodd" clip-rule="evenodd" d="M10.0514 2.875C10.9174 1.375 13.0825 1.375 13.9485 2.875L23.0418 18.625C23.9078 20.125 22.8253 22 21.0932 22H2.90668C1.17462 22 0.0920953 20.125 0.95812 18.625L10.0514 2.875ZM12.6495 3.625C12.3608 3.125 11.6391 3.125 11.3504 3.625L2.25716 19.375C1.96848 19.875 2.32933 20.5 2.90668 20.5H21.0932C21.6706 20.5 22.0314 19.875 21.7427 19.375L12.6495 3.625Z" fill="white"/>
<path fill-rule="evenodd" clip-rule="evenodd" d="M10.0514 2.875C10.9174 1.375 13.0825 1.375 13.9485 2.875L23.0418 18.625C23.9078 20.125 22.8253 22 21.0932 22H2.90668C1.17462 22 0.0920953 20.125 0.95812 18.625L10.0514 2.875ZM12.6495 3.625C12.3608 3.125 11.6391 3.125 11.3504 3.625L2.25716 19.375C1.96848 19.875 2.32933 20.5 2.90668 20.5H21.0932C21.6706 20.5 22.0314 19.875 21.7427 19.375L12.6495 3.625Z" fill="url(#paint2_linear)"/>
<defs>
<linearGradient id="paint0_linear" x1="12" y1="7" x2="12" y2="19" gradientUnits="userSpaceOnUse">
<stop stop-color="white"/>
<stop offset="1" stop-color="white" stop-opacity="0"/>
</linearGradient>
<linearGradient id="paint1_linear" x1="12" y1="7" x2="12" y2="19" gradientUnits="userSpaceOnUse">
<stop stop-color="white"/>
<stop offset="1" stop-color="white" stop-opacity="0"/>
</linearGradient>
<linearGradient id="paint2_linear" x1="11.9999" y1="1.75" x2="11.9999" y2="22" gradientUnits="userSpaceOnUse">
<stop stop-color="white"/>
<stop offset="1" stop-color="white" stop-opacity="0"/>
</linearGradient>
</defs>
</svg>
