<svg width="30" height="30" viewBox="0 0 30 30" fill="none" xmlns="http://www.w3.org/2000/svg">
<path d="M20.5303 9.46967C20.8232 9.76256 20.8232 10.2374 20.5303 10.5303L16.0607 15L20.5303 19.4697C20.8232 19.7626 20.8232 20.2374 20.5303 20.5303C20.2374 20.8232 19.7626 20.8232 19.4697 20.5303L15 16.0607L10.5303 20.5303C10.2374 20.8232 9.76256 20.8232 9.46967 20.5303C9.17678 20.2374 9.17678 19.7626 9.46967 19.4697L13.9393 15L9.46967 10.5303C9.17678 10.2374 9.17678 9.76256 9.46967 9.46967C9.76256 9.17678 10.2374 9.17678 10.5303 9.46967L15 13.9393L19.4697 9.46967C19.7626 9.17678 20.2374 9.17678 20.5303 9.46967Z" fill="white"/>
<path d="M20.5303 9.46967C20.8232 9.76256 20.8232 10.2374 20.5303 10.5303L16.0607 15L20.5303 19.4697C20.8232 19.7626 20.8232 20.2374 20.5303 20.5303C20.2374 20.8232 19.7626 20.8232 19.4697 20.5303L15 16.0607L10.5303 20.5303C10.2374 20.8232 9.76256 20.8232 9.46967 20.5303C9.17678 20.2374 9.17678 19.7626 9.46967 19.4697L13.9393 15L9.46967 10.5303C9.17678 10.2374 9.17678 9.76256 9.46967 9.46967C9.76256 9.17678 10.2374 9.17678 10.5303 9.46967L15 13.9393L19.4697 9.46967C19.7626 9.17678 20.2374 9.17678 20.5303 9.46967Z" fill="url(#paint0_linear)"/>
<path fill-rule="evenodd" clip-rule="evenodd" d="M27.75 2.25H2.25V27.75H27.75V2.25ZM3.75 26.25V3.75H26.25V26.25H3.75Z" fill="white"/>
<path fill-rule="evenodd" clip-rule="evenodd" d="M27.75 2.25H2.25V27.75H27.75V2.25ZM3.75 26.25V3.75H26.25V26.25H3.75Z" fill="url(#paint1_linear)"/>
<defs>
<linearGradient id="paint0_linear" x1="15" y1="2.25" x2="15" y2="27.75" gradientUnits="userSpaceOnUse">
<stop stop-color="white"/>
<stop offset="1" stop-color="white" stop-opacity="0"/>
</linearGradient>
<linearGradient id="paint1_linear" x1="15" y1="2.25" x2="15" y2="27.75" gradientUnits="userSpaceOnUse">
<stop stop-color="white"/>
<stop offset="1" stop-color="white" stop-opacity="0"/>
</linearGradient>
</defs>
</svg>
