<svg width="18" height="18" viewBox="0 0 18 18" fill="none" xmlns="http://www.w3.org/2000/svg">
<path d="M8.99749 7.46652H16.2799C16.3602 7.91518 16.4004 8.34375 16.4004 8.75223C16.4004 10.2054 16.0957 11.5045 15.4863 12.6496C14.877 13.7879 14.0064 14.6786 12.8747 15.3214C11.7497 15.9643 10.4573 16.2857 8.99749 16.2857C7.94615 16.2857 6.94503 16.0815 5.99414 15.673C5.04325 15.2712 4.22294 14.7254 3.5332 14.0357C2.84347 13.346 2.29436 12.5257 1.88588 11.5748C1.4841 10.6239 1.2832 9.62277 1.2832 8.57143C1.2832 7.52009 1.4841 6.51897 1.88588 5.56808C2.29436 4.61719 2.84347 3.79687 3.5332 3.10714C4.22294 2.41741 5.04325 1.87165 5.99414 1.46987C6.94503 1.06138 7.94615 0.857142 8.99749 0.857142C11.0064 0.857142 12.7307 1.53013 14.1705 2.87612L12.0711 4.89509C11.2475 4.09821 10.2229 3.69978 8.99749 3.69978C8.13365 3.69978 7.33343 3.91741 6.59682 4.35268C5.86691 4.78795 5.28767 5.38058 4.8591 6.13058C4.43052 6.87388 4.21624 7.6875 4.21624 8.57143C4.21624 9.45536 4.43052 10.2723 4.8591 11.0223C5.28767 11.7656 5.86691 12.3549 6.59682 12.7902C7.33343 13.2254 8.13365 13.4431 8.99749 13.4431C9.58008 13.4431 10.1158 13.3627 10.6046 13.202C11.0935 13.0413 11.4953 12.8404 11.81 12.5993C12.1247 12.3583 12.3993 12.0837 12.6336 11.7757C12.868 11.4676 13.0388 11.1763 13.1459 10.9018C13.2598 10.6272 13.3368 10.3661 13.377 10.1183H8.99749V7.46652Z" fill="#4285F4"/>
</svg>
