<svg width="71" height="72" viewBox="0 0 71 72" fill="none" xmlns="http://www.w3.org/2000/svg">
<path fill-rule="evenodd" clip-rule="evenodd" d="M1 1.26733H70V70.2673H1V1.26733ZM71 0.267334H70H1H0V1.26733V70.2673V71.2673H1H70H71V70.2673V1.26733V0.267334ZM29.3002 21.2673C30.3002 20.2673 31.4002 19.7673 32.6002 19.7673C34.5002 19.7673 36.5002 20.9673 38.3002 23.5674C37.4002 23.2673 36.6002 23.0674 35.7002 23.0674C34.4002 23.0674 33.3002 23.5674 32.4002 24.3673L25.0002 31.7673L25.8002 32.5674L23.0002 35.3673L18.2002 30.5674L21.0002 27.7673L21.9002 28.6674L29.3002 21.2673ZM23.1002 25.7673L26.5002 22.3673L27.2002 23.0674L23.8002 26.4673L23.1002 25.7673ZM45.0002 26.0674L48.7002 29.7673L52.5002 25.9673C52.5148 26.0403 52.5294 26.1111 52.5437 26.1804C52.6272 26.5862 52.7002 26.9403 52.7002 27.3673C52.7002 28.7673 52.3002 29.8673 51.3002 30.8673C50.3002 31.7673 49.2002 32.2673 47.8002 32.2673C47.3002 32.2673 46.8002 32.1674 46.3002 32.0674L41.5002 36.8673L52.3002 47.2673L48.0002 51.5674L37.7002 40.6674L33.1002 45.2673C33.2002 45.7673 33.3002 46.2673 33.3002 46.7673C33.3002 48.1674 32.8002 49.2673 31.9002 50.2673C30.9002 51.1674 29.8002 51.6674 28.4002 51.6674C27.9728 51.6674 27.6185 51.5944 27.2124 51.5106C27.1433 51.4963 27.0728 51.4818 27.0002 51.4673L30.8002 47.6674L27.1002 43.9673L23.3002 47.7673C23.2856 47.6945 23.271 47.6237 23.2567 47.5543C23.1731 47.1486 23.1002 46.7944 23.1002 46.3673C23.1002 44.9673 23.5002 43.8673 24.5002 42.8673C25.5002 41.9673 26.6002 41.4673 28.0002 41.4673C28.4269 41.4673 28.7808 41.5402 29.1862 41.6237C29.2558 41.6381 29.3269 41.6527 29.4002 41.6674L34.1002 36.9673L27.3002 29.8673L30.7002 26.4673L37.7002 33.2673L42.7002 28.3673C42.6856 28.2943 42.671 28.2235 42.6567 28.1542C42.5731 27.7484 42.5002 27.3943 42.5002 26.9673C42.5002 25.5674 42.9002 24.4673 43.9002 23.4673C44.9002 22.5674 46.0002 22.0674 47.4002 22.0674C47.8272 22.0674 48.1813 22.1404 48.5871 22.224C48.6564 22.2383 48.7272 22.2528 48.8002 22.2673L45.0002 26.0674Z" fill="url(#paint0_radial)"/>
<defs>
<radialGradient id="paint0_radial" cx="0" cy="0" r="1" gradientUnits="userSpaceOnUse" gradientTransform="translate(9.33519 0.267334) rotate(90) scale(71 18.6704)">
<stop stop-color="#8A9096"/>
<stop offset="1" stop-color="#666C73"/>
</radialGradient>
</defs>
</svg>
