<svg width="16" height="16" viewBox="0 0 16 16" fill="none" xmlns="http://www.w3.org/2000/svg">
<path d="M13.9261 11.3828C13.9746 11.2657 14.0016 11.1375 14.0019 11.003L14.002 11L14.0019 10.997C14.0012 10.7254 13.8921 10.4792 13.7156 10.2995C13.7132 10.2971 13.7108 10.2947 13.7085 10.2923L10.7091 7.29289C10.3185 6.90237 9.68537 6.90237 9.29485 7.29289C8.90432 7.68342 8.90432 8.31658 9.29485 8.70711L10.5877 10H4.00195V2C4.00195 1.44771 3.55424 1 3.00195 1C2.44967 1 2.00195 1.44771 2.00195 2V11C2.00195 11.5523 2.44967 12 3.00195 12H10.5877L9.29485 13.2929C8.90432 13.6834 8.90432 14.3166 9.29485 14.7071C9.68537 15.0976 10.3185 15.0976 10.7091 14.7071L13.7085 11.7077C13.7108 11.7053 13.7132 11.7029 13.7156 11.7005C13.8082 11.6062 13.8784 11.498 13.9261 11.3828Z" fill="#23AAEA"/>
</svg>
