<svg width="24" height="24" viewBox="0 0 24 24" fill="none" xmlns="http://www.w3.org/2000/svg">
<path fill-rule="evenodd" clip-rule="evenodd" d="M4.75 0.75C4.75 0.335786 5.08579 0 5.5 0C5.91421 0 6.25 0.335786 6.25 0.75V5H7C7.55228 5 8 5.44772 8 6V11C8 11.5523 7.55228 12 7 12H6.25V23.25C6.25 23.6642 5.91421 24 5.5 24C5.08579 24 4.75 23.6642 4.75 23.25V12H4C3.44772 12 3 11.5523 3 11V6C3 5.44772 3.44772 5 4 5H4.75V0.75ZM4.5 10.5V6.5H6.5V10.5H4.5Z" fill="white"/>
<path fill-rule="evenodd" clip-rule="evenodd" d="M4.75 0.75C4.75 0.335786 5.08579 0 5.5 0C5.91421 0 6.25 0.335786 6.25 0.75V5H7C7.55228 5 8 5.44772 8 6V11C8 11.5523 7.55228 12 7 12H6.25V23.25C6.25 23.6642 5.91421 24 5.5 24C5.08579 24 4.75 23.6642 4.75 23.25V12H4C3.44772 12 3 11.5523 3 11V6C3 5.44772 3.44772 5 4 5H4.75V0.75ZM4.5 10.5V6.5H6.5V10.5H4.5Z" fill="url(#paint0_linear)"/>
<path fill-rule="evenodd" clip-rule="evenodd" d="M11.25 0.75C11.25 0.335786 11.5858 0 12 0C12.4142 0 12.75 0.335786 12.75 0.75V13H13.5C14.0523 13 14.5 13.4477 14.5 14V19C14.5 19.5523 14.0523 20 13.5 20H12.75V23.25C12.75 23.6642 12.4142 24 12 24C11.5858 24 11.25 23.6642 11.25 23.25V20H10.5C9.94772 20 9.5 19.5523 9.5 19V14C9.5 13.4477 9.94772 13 10.5 13H11.25V0.75ZM11 18.5V14.5H13V18.5H11Z" fill="white"/>
<path fill-rule="evenodd" clip-rule="evenodd" d="M11.25 0.75C11.25 0.335786 11.5858 0 12 0C12.4142 0 12.75 0.335786 12.75 0.75V13H13.5C14.0523 13 14.5 13.4477 14.5 14V19C14.5 19.5523 14.0523 20 13.5 20H12.75V23.25C12.75 23.6642 12.4142 24 12 24C11.5858 24 11.25 23.6642 11.25 23.25V20H10.5C9.94772 20 9.5 19.5523 9.5 19V14C9.5 13.4477 9.94772 13 10.5 13H11.25V0.75ZM11 18.5V14.5H13V18.5H11Z" fill="url(#paint1_linear)"/>
<path fill-rule="evenodd" clip-rule="evenodd" d="M17.75 0.75C17.75 0.335787 18.0858 0 18.5 0C18.9142 0 19.25 0.335786 19.25 0.75V7H20C20.5523 7 21 7.44772 21 8V13C21 13.5523 20.5523 14 20 14H19.25V23.25C19.25 23.6642 18.9142 24 18.5 24C18.0858 24 17.75 23.6642 17.75 23.25V14H17C16.4477 14 16 13.5523 16 13V8C16 7.44772 16.4477 7 17 7H17.75V0.75ZM17.5 12.5V8.5H19.5V12.5H17.5Z" fill="white"/>
<path fill-rule="evenodd" clip-rule="evenodd" d="M17.75 0.75C17.75 0.335787 18.0858 0 18.5 0C18.9142 0 19.25 0.335786 19.25 0.75V7H20C20.5523 7 21 7.44772 21 8V13C21 13.5523 20.5523 14 20 14H19.25V23.25C19.25 23.6642 18.9142 24 18.5 24C18.0858 24 17.75 23.6642 17.75 23.25V14H17C16.4477 14 16 13.5523 16 13V8C16 7.44772 16.4477 7 17 7H17.75V0.75ZM17.5 12.5V8.5H19.5V12.5H17.5Z" fill="url(#paint2_linear)"/>
<defs>
<linearGradient id="paint0_linear" x1="12" y1="0" x2="12" y2="24" gradientUnits="userSpaceOnUse">
<stop stop-color="white"/>
<stop offset="1" stop-color="white" stop-opacity="0"/>
</linearGradient>
<linearGradient id="paint1_linear" x1="12" y1="0" x2="12" y2="24" gradientUnits="userSpaceOnUse">
<stop stop-color="white"/>
<stop offset="1" stop-color="white" stop-opacity="0"/>
</linearGradient>
<linearGradient id="paint2_linear" x1="12" y1="0" x2="12" y2="24" gradientUnits="userSpaceOnUse">
<stop stop-color="white"/>
<stop offset="1" stop-color="white" stop-opacity="0"/>
</linearGradient>
</defs>
</svg>
