<svg width="24" height="24" viewBox="0 0 24 24" fill="none" xmlns="http://www.w3.org/2000/svg">
<g opacity="0.01">
<rect x="0.5" y="0.5" width="23" height="23" fill="white"/>
<rect x="0.5" y="0.5" width="23" height="23" fill="url(#paint0_linear)"/>
<rect x="0.5" y="0.5" width="23" height="23" stroke="white"/>
<rect x="0.5" y="0.5" width="23" height="23" stroke="url(#paint1_linear)"/>
</g>
<path fill-rule="evenodd" clip-rule="evenodd" d="M12 3.75C4.95444 3.75 2.75 8.61605 2.75 11C2.75 13.0197 3.93363 14.6464 4.56567 15.3724C4.74462 15.578 4.79798 15.8644 4.70505 16.1206L3.80611 18.5988L6.6954 17.3146C6.8923 17.2271 7.11733 17.2285 7.31313 17.3185C8.2317 17.7405 9.62516 18.25 12 18.25C19.0456 18.25 21.25 13.3839 21.25 11C21.25 8.61605 19.0456 3.75 12 3.75ZM1.25 11C1.25 7.87043 4.04556 2.25 12 2.25C19.9544 2.25 22.75 7.87043 22.75 11C22.75 14.1296 19.9544 19.75 12 19.75C9.6173 19.75 8.07375 19.2791 7.00034 18.8206L2.8046 20.6854C2.52979 20.8075 2.2086 20.7537 1.98862 20.5486C1.76864 20.3436 1.6924 20.027 1.79495 19.7442L3.14839 16.0132C2.39479 15.0629 1.25 13.2623 1.25 11Z" fill="white"/>
<path fill-rule="evenodd" clip-rule="evenodd" d="M12 3.75C4.95444 3.75 2.75 8.61605 2.75 11C2.75 13.0197 3.93363 14.6464 4.56567 15.3724C4.74462 15.578 4.79798 15.8644 4.70505 16.1206L3.80611 18.5988L6.6954 17.3146C6.8923 17.2271 7.11733 17.2285 7.31313 17.3185C8.2317 17.7405 9.62516 18.25 12 18.25C19.0456 18.25 21.25 13.3839 21.25 11C21.25 8.61605 19.0456 3.75 12 3.75ZM1.25 11C1.25 7.87043 4.04556 2.25 12 2.25C19.9544 2.25 22.75 7.87043 22.75 11C22.75 14.1296 19.9544 19.75 12 19.75C9.6173 19.75 8.07375 19.2791 7.00034 18.8206L2.8046 20.6854C2.52979 20.8075 2.2086 20.7537 1.98862 20.5486C1.76864 20.3436 1.6924 20.027 1.79495 19.7442L3.14839 16.0132C2.39479 15.0629 1.25 13.2623 1.25 11Z" fill="url(#paint2_linear)"/>
<path d="M12 8C12.5523 8 13 7.55228 13 7C13 6.44772 12.5523 6 12 6C11.4477 6 11 6.44772 11 7C11 7.55228 11.4477 8 12 8Z" fill="white"/>
<path d="M12 8C12.5523 8 13 7.55228 13 7C13 6.44772 12.5523 6 12 6C11.4477 6 11 6.44772 11 7C11 7.55228 11.4477 8 12 8Z" fill="url(#paint3_linear)"/>
<path d="M13 10.5C13 9.94772 12.5523 9.5 12 9.5C11.4477 9.5 11 9.94772 11 10.5V15C11 15.5523 11.4477 16 12 16C12.5523 16 13 15.5523 13 15V10.5Z" fill="white"/>
<path d="M13 10.5C13 9.94772 12.5523 9.5 12 9.5C11.4477 9.5 11 9.94772 11 10.5V15C11 15.5523 11.4477 16 12 16C12.5523 16 13 15.5523 13 15V10.5Z" fill="url(#paint4_linear)"/>
<defs>
<linearGradient id="paint0_linear" x1="12" y1="0" x2="12" y2="24" gradientUnits="userSpaceOnUse">
<stop stop-color="white"/>
<stop offset="1" stop-color="white" stop-opacity="0"/>
</linearGradient>
<linearGradient id="paint1_linear" x1="12" y1="0" x2="12" y2="24" gradientUnits="userSpaceOnUse">
<stop stop-color="white"/>
<stop offset="1" stop-color="white" stop-opacity="0"/>
</linearGradient>
<linearGradient id="paint2_linear" x1="12" y1="2.25" x2="12" y2="20.75" gradientUnits="userSpaceOnUse">
<stop stop-color="white"/>
<stop offset="1" stop-color="white" stop-opacity="0"/>
</linearGradient>
<linearGradient id="paint3_linear" x1="12" y1="2.25" x2="12" y2="20.75" gradientUnits="userSpaceOnUse">
<stop stop-color="white"/>
<stop offset="1" stop-color="white" stop-opacity="0"/>
</linearGradient>
<linearGradient id="paint4_linear" x1="12" y1="2.25" x2="12" y2="20.75" gradientUnits="userSpaceOnUse">
<stop stop-color="white"/>
<stop offset="1" stop-color="white" stop-opacity="0"/>
</linearGradient>
</defs>
</svg>
