<svg width="24" height="24" viewBox="0 0 24 24" fill="none" xmlns="http://www.w3.org/2000/svg">
<g opacity="0.01">
<rect x="0.5" y="0.5" width="23" height="23" fill="white"/>
<rect x="0.5" y="0.5" width="23" height="23" fill="url(#paint0_linear)"/>
<rect x="0.5" y="0.5" width="23" height="23" stroke="white"/>
<rect x="0.5" y="0.5" width="23" height="23" stroke="url(#paint1_linear)"/>
</g>
<path d="M20.414 6.66961C19.9653 7.32586 19.4229 7.88501 18.7867 8.34706C18.7934 8.44081 18.7968 8.58144 18.7968 8.76894C18.7968 9.63947 18.6696 10.51 18.4151 11.3805C18.1606 12.2444 17.7722 13.0747 17.2499 13.8716C16.7343 14.6685 16.1182 15.375 15.4017 15.991C14.6852 16.6004 13.8213 17.0893 12.8102 17.4576C11.799 17.8192 10.7175 18 9.56576 18C7.75103 18 6.09031 17.5145 4.58362 16.5435C4.81799 16.5703 5.07915 16.5837 5.3671 16.5837C6.8738 16.5837 8.21643 16.1216 9.395 15.1975C8.69188 15.1841 8.06241 14.9698 7.50661 14.5547C6.95081 14.1328 6.56911 13.5971 6.36152 12.9475C6.5825 12.981 6.78674 12.9977 6.97424 12.9977C7.26219 12.9977 7.54679 12.9609 7.82804 12.8872C7.07804 12.7332 6.45527 12.3616 5.95973 11.7723C5.47089 11.1763 5.22648 10.4866 5.22648 9.70309V9.66291C5.68183 9.91738 6.17067 10.0547 6.69299 10.0747C6.25103 9.7801 5.89947 9.39505 5.63831 8.91961C5.37714 8.44416 5.24656 7.92854 5.24656 7.37273C5.24656 6.78345 5.39389 6.23769 5.68853 5.73546C6.4988 6.73322 7.48317 7.53345 8.64165 8.13613C9.80683 8.73211 11.0524 9.06358 12.3783 9.13055C12.3247 8.87608 12.2979 8.62831 12.2979 8.38724C12.2979 7.48992 12.6126 6.72653 13.2421 6.09706C13.8783 5.4609 14.645 5.14282 15.5423 5.14282C16.4798 5.14282 17.27 5.48434 17.9129 6.16738C18.6428 6.02675 19.3292 5.76559 19.972 5.38389C19.7242 6.15398 19.2488 6.74997 18.5457 7.17184C19.1684 7.10488 19.7912 6.93746 20.414 6.66961Z" fill="#0C2947"/>
<defs>
<linearGradient id="paint0_linear" x1="12" y1="0" x2="12" y2="24" gradientUnits="userSpaceOnUse">
<stop stop-color="white"/>
<stop offset="1" stop-color="white" stop-opacity="0"/>
</linearGradient>
<linearGradient id="paint1_linear" x1="12" y1="0" x2="12" y2="24" gradientUnits="userSpaceOnUse">
<stop stop-color="white"/>
<stop offset="1" stop-color="white" stop-opacity="0"/>
</linearGradient>
</defs>
</svg>
