<svg width="30" height="30" viewBox="0 0 30 30" fill="none" xmlns="http://www.w3.org/2000/svg">
<path fill-rule="evenodd" clip-rule="evenodd" d="M15 0.25C15.4142 0.25 15.75 0.585786 15.75 1V2.25H29.75V6.75H28.25V23.75H15.75V24.6632L19.9983 28.4394C20.3079 28.7146 20.3357 29.1887 20.0606 29.4983C19.7854 29.8079 19.3113 29.8357 19.0017 29.5606L15 26.0035L10.9983 29.5606C10.6887 29.8357 10.2146 29.8079 9.93944 29.4983C9.66425 29.1887 9.69214 28.7146 10.0017 28.4394L14.25 24.6632V23.75H1.75V6.75H0.25V2.25H14.25V1C14.25 0.585786 14.5858 0.25 15 0.25ZM1.75 5.25H28.25V3.75H1.75V5.25ZM3.25 6.75V22.25H26.75V6.75H3.25Z" fill="#BAC1CC"/>
<path fill-rule="evenodd" clip-rule="evenodd" d="M23.6379 17.2705C22.8784 18.179 21.7564 18.75 20.3572 18.75C17.9409 18.75 16.6937 17.3417 16.1494 16.727C16.0776 16.646 16.0181 16.5787 15.9697 16.5303C15.6768 16.2374 15.6768 15.7626 15.9697 15.4697C16.2626 15.1768 16.7375 15.1768 17.0303 15.4697C17.1126 15.5519 17.1984 15.6463 17.2907 15.7478C17.8537 16.3671 18.6563 17.25 20.3572 17.25C21.315 17.25 22.0145 16.8737 22.4871 16.3084C22.9724 15.728 23.25 14.907 23.25 14C23.25 12.0559 21.8303 10.75 20.3572 10.75C19.2236 10.75 18.3011 11.2793 17.5127 12.03C16.8276 12.6824 16.2972 13.4472 15.8416 14.1043C15.7633 14.2171 15.6873 14.3267 15.6131 14.432C15.5488 14.5232 15.4799 14.6229 15.4063 14.7294C14.9554 15.3814 14.3283 16.2882 13.5217 17.0563C12.569 17.9635 11.2951 18.75 9.64287 18.75C7.25883 18.75 5.25002 16.6875 5.25002 14C5.25002 11.5799 6.99296 9.25 9.64287 9.25C12.0591 9.25 13.3063 10.6583 13.8506 11.273C13.9224 11.354 13.9819 11.4213 14.0303 11.4697C14.3232 11.7626 14.3232 12.2374 14.0303 12.5303C13.7375 12.8232 13.2626 12.8232 12.9697 12.5303C12.8874 12.4481 12.8016 12.3537 12.7093 12.2522C12.1463 11.6329 11.3437 10.75 9.64287 10.75C8.00707 10.75 6.75002 12.2096 6.75002 14C6.75002 15.9441 8.16977 17.25 9.64287 17.25C10.7764 17.25 11.6989 16.7207 12.4873 15.97C13.1724 15.3176 13.7028 14.5528 14.1585 13.8957C14.2367 13.7829 14.3127 13.6733 14.3869 13.568C14.4512 13.4768 14.5201 13.3771 14.5938 13.2706C15.0447 12.6186 15.6717 11.7118 16.4784 10.9437C17.431 10.0365 18.705 9.25 20.3572 9.25C22.7412 9.25 24.75 11.3125 24.75 14C24.75 15.1982 24.3848 16.3772 23.6379 17.2705Z" fill="#BAC1CC"/>
</svg>
