<svg width="30" height="30" viewBox="0 0 30 30" fill="none" xmlns="http://www.w3.org/2000/svg">
<path fill-rule="evenodd" clip-rule="evenodd" d="M10.1893 0.25H27.75V29.75H2.25V8.18934L10.1893 0.25ZM26.25 1.75H11.25V9.25H3.75V28.25H26.25V1.75ZM4.81066 7.75H9.75V2.81066L4.81066 7.75Z" fill="white"/>
<path fill-rule="evenodd" clip-rule="evenodd" d="M10.1893 0.25H27.75V29.75H2.25V8.18934L10.1893 0.25ZM26.25 1.75H11.25V9.25H3.75V28.25H26.25V1.75ZM4.81066 7.75H9.75V2.81066L4.81066 7.75Z" fill="url(#paint0_linear)"/>
<path fill-rule="evenodd" clip-rule="evenodd" d="M6 11.25H24V18.75H6V11.25ZM7.5 12.75V17.25H22.5V12.75H7.5Z" fill="white"/>
<path fill-rule="evenodd" clip-rule="evenodd" d="M6 11.25H24V18.75H6V11.25ZM7.5 12.75V17.25H22.5V12.75H7.5Z" fill="url(#paint1_linear)"/>
<path d="M13 5H14.5V6.5H13V5Z" fill="white"/>
<path d="M13 5H14.5V6.5H13V5Z" fill="url(#paint2_linear)"/>
<path d="M13 7.75H14.5V9.25H13V7.75Z" fill="white"/>
<path d="M13 7.75H14.5V9.25H13V7.75Z" fill="url(#paint3_linear)"/>
<path d="M6 21H7.5V22.5H6V21Z" fill="white"/>
<path d="M6 21H7.5V22.5H6V21Z" fill="url(#paint4_linear)"/>
<path d="M6 24H7.5V25.5H6V24Z" fill="white"/>
<path d="M6 24H7.5V25.5H6V24Z" fill="url(#paint5_linear)"/>
<path d="M15.5 5H24V6.5H15.5V5Z" fill="white"/>
<path d="M15.5 5H24V6.5H15.5V5Z" fill="url(#paint6_linear)"/>
<path d="M15.5 7.75H24V9.25H15.5V7.75Z" fill="white"/>
<path d="M15.5 7.75H24V9.25H15.5V7.75Z" fill="url(#paint7_linear)"/>
<path d="M8.75 21H24V22.5H8.75V21Z" fill="white"/>
<path d="M8.75 21H24V22.5H8.75V21Z" fill="url(#paint8_linear)"/>
<path d="M8.75 24H24V25.5H8.75V24Z" fill="white"/>
<path d="M8.75 24H24V25.5H8.75V24Z" fill="url(#paint9_linear)"/>
<defs>
<linearGradient id="paint0_linear" x1="15" y1="0.25" x2="15" y2="29.75" gradientUnits="userSpaceOnUse">
<stop stop-color="white"/>
<stop offset="1" stop-color="white" stop-opacity="0"/>
</linearGradient>
<linearGradient id="paint1_linear" x1="15" y1="0.25" x2="15" y2="29.75" gradientUnits="userSpaceOnUse">
<stop stop-color="white"/>
<stop offset="1" stop-color="white" stop-opacity="0"/>
</linearGradient>
<linearGradient id="paint2_linear" x1="15" y1="0.25" x2="15" y2="29.75" gradientUnits="userSpaceOnUse">
<stop stop-color="white"/>
<stop offset="1" stop-color="white" stop-opacity="0"/>
</linearGradient>
<linearGradient id="paint3_linear" x1="15" y1="0.25" x2="15" y2="29.75" gradientUnits="userSpaceOnUse">
<stop stop-color="white"/>
<stop offset="1" stop-color="white" stop-opacity="0"/>
</linearGradient>
<linearGradient id="paint4_linear" x1="15" y1="0.25" x2="15" y2="29.75" gradientUnits="userSpaceOnUse">
<stop stop-color="white"/>
<stop offset="1" stop-color="white" stop-opacity="0"/>
</linearGradient>
<linearGradient id="paint5_linear" x1="15" y1="0.25" x2="15" y2="29.75" gradientUnits="userSpaceOnUse">
<stop stop-color="white"/>
<stop offset="1" stop-color="white" stop-opacity="0"/>
</linearGradient>
<linearGradient id="paint6_linear" x1="15" y1="0.25" x2="15" y2="29.75" gradientUnits="userSpaceOnUse">
<stop stop-color="white"/>
<stop offset="1" stop-color="white" stop-opacity="0"/>
</linearGradient>
<linearGradient id="paint7_linear" x1="15" y1="0.25" x2="15" y2="29.75" gradientUnits="userSpaceOnUse">
<stop stop-color="white"/>
<stop offset="1" stop-color="white" stop-opacity="0"/>
</linearGradient>
<linearGradient id="paint8_linear" x1="15" y1="0.25" x2="15" y2="29.75" gradientUnits="userSpaceOnUse">
<stop stop-color="white"/>
<stop offset="1" stop-color="white" stop-opacity="0"/>
</linearGradient>
<linearGradient id="paint9_linear" x1="15" y1="0.25" x2="15" y2="29.75" gradientUnits="userSpaceOnUse">
<stop stop-color="white"/>
<stop offset="1" stop-color="white" stop-opacity="0"/>
</linearGradient>
</defs>
</svg>
