<svg width="16" height="16" viewBox="0 0 16 16" fill="none" xmlns="http://www.w3.org/2000/svg">
<path fill-rule="evenodd" clip-rule="evenodd" d="M3 7V5C3 2.23858 5.23858 0 8 0C10.7614 0 13 2.23858 13 5V7C14.1046 7 15 7.89543 15 9V14C15 15.1046 14.1046 16 13 16H3C1.89543 16 1 15.1046 1 14V9C1 7.89543 1.89543 7 3 7ZM11.5 5V7H4.5V5C4.5 3.067 6.067 1.5 8 1.5C9.933 1.5 11.5 3.067 11.5 5ZM13 8.5H3C2.72386 8.5 2.5 8.72386 2.5 9V14C2.5 14.2761 2.72386 14.5 3 14.5H13C13.2761 14.5 13.5 14.2761 13.5 14V9C13.5 8.72386 13.2761 8.5 13 8.5Z" fill="#6F7B8E"/>
</svg>
