<svg width="24" height="24" viewBox="0 0 24 24" fill="none" xmlns="http://www.w3.org/2000/svg">
<path fill-rule="evenodd" clip-rule="evenodd" d="M15.1354 15.749H8.86266C6.24615 15.749 4.08861 17.7142 3.78546 20.249H20.2126C19.9094 17.7142 17.7519 15.749 15.1354 15.749ZM8.86266 13.499C4.79584 13.499 1.49902 16.7958 1.49902 20.8627C1.49902 21.7664 2.23165 22.499 3.13539 22.499H20.8627C21.7664 22.499 22.499 21.7664 22.499 20.8627C22.499 16.7958 19.2022 13.499 15.1354 13.499H8.86266Z" fill="white"/>
<path fill-rule="evenodd" clip-rule="evenodd" d="M15.1354 15.749H8.86266C6.24615 15.749 4.08861 17.7142 3.78546 20.249H20.2126C19.9094 17.7142 17.7519 15.749 15.1354 15.749ZM8.86266 13.499C4.79584 13.499 1.49902 16.7958 1.49902 20.8627C1.49902 21.7664 2.23165 22.499 3.13539 22.499H20.8627C21.7664 22.499 22.499 21.7664 22.499 20.8627C22.499 16.7958 19.2022 13.499 15.1354 13.499H8.86266Z" fill="url(#paint0_linear)"/>
<path fill-rule="evenodd" clip-rule="evenodd" d="M11.999 9.74902C13.6559 9.74902 14.999 8.40588 14.999 6.74902C14.999 5.09217 13.6559 3.74902 11.999 3.74902C10.3422 3.74902 8.99902 5.09217 8.99902 6.74902C8.99902 8.40588 10.3422 9.74902 11.999 9.74902ZM11.999 11.999C14.8985 11.999 17.249 9.64852 17.249 6.74902C17.249 3.84953 14.8985 1.49902 11.999 1.49902C9.09953 1.49902 6.74902 3.84953 6.74902 6.74902C6.74902 9.64852 9.09953 11.999 11.999 11.999Z" fill="white"/>
<path fill-rule="evenodd" clip-rule="evenodd" d="M11.999 9.74902C13.6559 9.74902 14.999 8.40588 14.999 6.74902C14.999 5.09217 13.6559 3.74902 11.999 3.74902C10.3422 3.74902 8.99902 5.09217 8.99902 6.74902C8.99902 8.40588 10.3422 9.74902 11.999 9.74902ZM11.999 11.999C14.8985 11.999 17.249 9.64852 17.249 6.74902C17.249 3.84953 14.8985 1.49902 11.999 1.49902C9.09953 1.49902 6.74902 3.84953 6.74902 6.74902C6.74902 9.64852 9.09953 11.999 11.999 11.999Z" fill="url(#paint1_linear)"/>
<defs>
<linearGradient id="paint0_linear" x1="11.999" y1="1.49902" x2="11.999" y2="22.499" gradientUnits="userSpaceOnUse">
<stop stop-color="white"/>
<stop offset="1" stop-color="white" stop-opacity="0"/>
</linearGradient>
<linearGradient id="paint1_linear" x1="11.999" y1="1.49902" x2="11.999" y2="22.499" gradientUnits="userSpaceOnUse">
<stop stop-color="white"/>
<stop offset="1" stop-color="white" stop-opacity="0"/>
</linearGradient>
</defs>
</svg>
