<svg width="16" height="16" viewBox="0 0 16 16" fill="none" xmlns="http://www.w3.org/2000/svg">
<path fill-rule="evenodd" clip-rule="evenodd" d="M15 6.5C15 9.53757 12.5376 12 9.5 12C8.3425 12 7.26852 11.6424 6.38248 11.0317L2.20711 15.2071C1.81658 15.5976 1.18342 15.5976 0.792893 15.2071C0.402369 14.8166 0.402369 14.1834 0.792893 13.7929L4.96826 9.61752C4.35756 8.73148 4 7.6575 4 6.5C4 3.46243 6.46243 1 9.5 1C12.5376 1 15 3.46243 15 6.5ZM13 6.5C13 8.433 11.433 10 9.5 10C7.567 10 6 8.433 6 6.5C6 4.567 7.567 3 9.5 3C11.433 3 13 4.567 13 6.5Z" fill="#C8D0D9"/>
</svg>
