<svg width="38" height="38" viewBox="0 0 38 38" fill="none" xmlns="http://www.w3.org/2000/svg">
<path fill-rule="evenodd" clip-rule="evenodd" d="M6.25 2C6.25 1.58579 6.58579 1.25 7 1.25H31C31.4142 1.25 31.75 1.58579 31.75 2V13C31.75 13.4142 31.4142 13.75 31 13.75C30.5858 13.75 30.25 13.4142 30.25 13V2.75H7.75V13C7.75 13.4142 7.41421 13.75 7 13.75C6.58579 13.75 6.25 13.4142 6.25 13V2ZM11.25 7C11.25 6.58579 11.5858 6.25 12 6.25H26C26.4142 6.25 26.75 6.58579 26.75 7C26.75 7.41421 26.4142 7.75 26 7.75H12C11.5858 7.75 11.25 7.41421 11.25 7ZM5.03033 9.46967C5.32322 9.76256 5.32322 10.2374 5.03033 10.5303L3.53033 12.0303C3.48436 12.0763 3.4405 12.1199 3.39862 12.1615C3.1901 12.3686 3.03097 12.5267 2.90671 12.688C2.76488 12.8722 2.75 12.9616 2.75 13V35C2.75 35.1381 2.86193 35.25 3 35.25H35C35.1381 35.25 35.25 35.1381 35.25 35V13C35.25 12.9616 35.2351 12.8722 35.0933 12.688C34.969 12.5267 34.8099 12.3686 34.6013 12.1614C34.5595 12.1199 34.5156 12.0763 34.4697 12.0303L32.9697 10.5303C32.6768 10.2374 32.6768 9.76256 32.9697 9.46967C33.2626 9.17678 33.7374 9.17678 34.0303 9.46967L35.5303 10.9697C35.5648 11.0042 35.6011 11.0401 35.6386 11.0772C35.8458 11.2823 36.0905 11.5245 36.2817 11.7728C36.5149 12.0755 36.75 12.4861 36.75 13V35C36.75 35.9665 35.9665 36.75 35 36.75H3C2.0335 36.75 1.25 35.9665 1.25 35V13C1.25 12.4861 1.48512 12.0755 1.71829 11.7728C1.90947 11.5245 2.1542 11.2823 2.36137 11.0772C2.39888 11.0401 2.43516 11.0042 2.46967 10.9697L3.96967 9.46967C4.26256 9.17678 4.73744 9.17678 5.03033 9.46967ZM11.25 11C11.25 10.5858 11.5858 10.25 12 10.25H26C26.4142 10.25 26.75 10.5858 26.75 11C26.75 11.4142 26.4142 11.75 26 11.75H12C11.5858 11.75 11.25 11.4142 11.25 11ZM4.46869 14.1364C4.76159 13.8435 5.23646 13.8435 5.52935 14.1364L14.5294 23.1364C14.6895 23.2965 14.8476 23.4645 15.0094 23.6364C15.4172 24.0696 15.8483 24.5276 16.3938 24.9472C17.1227 25.5079 17.9657 25.9167 18.999 25.9167C20.0323 25.9167 20.8754 25.5079 21.6042 24.9472C22.1497 24.5276 22.5808 24.0696 22.9886 23.6364C23.1504 23.4645 23.3085 23.2965 23.4687 23.1364L32.4687 14.1364C32.7616 13.8435 33.2365 13.8435 33.5294 14.1364C33.8222 14.4292 33.8222 14.9041 33.5294 15.197L24.5294 24.197C24.4215 24.3049 24.2968 24.4374 24.1571 24.5858C23.7321 25.0375 23.1685 25.6364 22.5188 26.1362C21.6227 26.8255 20.4657 27.4167 18.999 27.4167C17.5323 27.4167 16.3754 26.8255 15.4792 26.1362C14.8296 25.6364 14.266 25.0375 13.8409 24.5858C13.7013 24.4374 13.5766 24.3049 13.4687 24.197L4.46869 15.197C4.1758 14.9041 4.1758 14.4292 4.46869 14.1364ZM11.25 15C11.25 14.5858 11.5858 14.25 12 14.25H26C26.4142 14.25 26.75 14.5858 26.75 15C26.75 15.4142 26.4142 15.75 26 15.75H12C11.5858 15.75 11.25 15.4142 11.25 15ZM12.5294 25.1363C12.8222 25.4292 12.8222 25.9041 12.5294 26.197L5.52935 33.197C5.23646 33.4898 4.76159 33.4898 4.46869 33.197C4.1758 32.9041 4.1758 32.4292 4.46869 32.1363L11.4687 25.1363C11.7616 24.8434 12.2365 24.8434 12.5294 25.1363ZM25.4697 26.197C25.1768 25.9041 25.1768 25.4292 25.4697 25.1363C25.7626 24.8434 26.2374 24.8434 26.5303 25.1363L33.5303 32.1363C33.8232 32.4292 33.8232 32.9041 33.5303 33.197C33.2374 33.4898 32.7626 33.4898 32.4697 33.197L25.4697 26.197Z" fill="#6F7B8E"/>
</svg>
