<svg width="24" height="24" viewBox="0 0 24 24" fill="none" xmlns="http://www.w3.org/2000/svg">
<g opacity="0.01">
<rect x="0.5" y="0.5" width="23" height="23" fill="white"/>
<rect x="0.5" y="0.5" width="23" height="23" fill="url(#paint0_linear)"/>
<rect x="0.5" y="0.5" width="23" height="23" stroke="white"/>
<rect x="0.5" y="0.5" width="23" height="23" stroke="url(#paint1_linear)"/>
</g>
<path d="M20.614 7.79472C20.768 8.22329 20.2658 9.20766 19.1073 10.7478C18.9466 10.9621 18.729 11.2467 18.4544 11.6016C18.1866 11.9432 18.0024 12.1842 17.902 12.3249C17.8015 12.4655 17.6977 12.6329 17.5906 12.8271C17.4901 13.0146 17.45 13.1552 17.47 13.249C17.4968 13.336 17.5404 13.4499 17.6006 13.5905C17.6676 13.7311 17.7781 13.8751 17.9321 14.0224C18.0861 14.1697 18.277 14.3472 18.5046 14.5548C18.5314 14.5682 18.5482 14.5815 18.5549 14.5949C19.4991 15.4722 20.1386 16.2121 20.4734 16.8148C20.4935 16.8483 20.5136 16.8918 20.5337 16.9454C20.5604 16.9923 20.5839 17.0793 20.604 17.2065C20.6308 17.3338 20.6308 17.4476 20.604 17.5481C20.5772 17.6485 20.4935 17.7423 20.3529 17.8293C20.2122 17.9097 20.0147 17.9499 19.7602 17.9499L17.1888 17.99C17.0281 18.0235 16.8406 18.0068 16.6263 17.9398C16.412 17.8728 16.2379 17.7992 16.104 17.7188L15.9031 17.5983C15.7022 17.4577 15.4678 17.2434 15.2 16.9554C14.9321 16.6675 14.7011 16.4097 14.5069 16.182C14.3194 15.9476 14.1151 15.7534 13.8941 15.5994C13.6799 15.4387 13.4924 15.3851 13.3316 15.4387C13.3116 15.4454 13.2848 15.4588 13.2513 15.4789C13.2178 15.4923 13.1609 15.5391 13.0805 15.6195C13.0002 15.6999 12.9265 15.8003 12.8596 15.9208C12.7993 16.0347 12.7424 16.2088 12.6888 16.4432C12.6419 16.6708 12.6218 16.9286 12.6285 17.2166C12.6285 17.317 12.6151 17.4108 12.5883 17.4978C12.5683 17.5782 12.5448 17.6385 12.518 17.6786L12.4779 17.7289C12.3573 17.8561 12.1799 17.9298 11.9455 17.9499H10.7904C10.3149 17.9766 9.82607 17.9231 9.32384 17.7891C8.8216 17.6485 8.37964 17.4711 7.99794 17.2568C7.62294 17.0358 7.27808 16.8148 6.96334 16.5938C6.65531 16.3661 6.42093 16.172 6.26022 16.0112L6.0091 15.7702C5.94214 15.7032 5.84839 15.6028 5.72785 15.4688C5.61401 15.3349 5.37629 15.0302 5.01468 14.5548C4.65308 14.0793 4.29817 13.5737 3.94995 13.038C3.60174 12.5023 3.18991 11.7958 2.71446 10.9186C2.24571 10.0414 1.81044 9.13066 1.40866 8.18646C1.36848 8.07932 1.34839 7.98891 1.34839 7.91525C1.34839 7.84159 1.35843 7.78802 1.37852 7.75454L1.4187 7.69427C1.51915 7.56704 1.71 7.50342 1.99125 7.50342L4.74348 7.48333C4.82384 7.49673 4.90084 7.52016 4.9745 7.55365C5.04817 7.58043 5.10174 7.60722 5.13522 7.634L5.18544 7.66414C5.29259 7.7378 5.37294 7.84494 5.42651 7.98557C5.56044 8.32039 5.71446 8.6686 5.88857 9.03021C6.06267 9.38512 6.19995 9.65632 6.3004 9.84382L6.46111 10.1351C6.65531 10.5369 6.84281 10.8851 7.02361 11.1798C7.20442 11.4744 7.36513 11.7054 7.50575 11.8728C7.65308 12.0336 7.7937 12.1608 7.92763 12.2545C8.06156 12.3483 8.1754 12.3952 8.26915 12.3952C8.3629 12.3952 8.4533 12.3784 8.54035 12.3449C8.55375 12.3382 8.57049 12.3215 8.59058 12.2947C8.61067 12.2679 8.65084 12.1943 8.71111 12.0737C8.77138 11.9532 8.81491 11.7958 8.84169 11.6016C8.87517 11.4074 8.90866 11.1362 8.94214 10.788C8.97562 10.4398 8.97562 10.0213 8.94214 9.53244C8.92875 9.26458 8.89861 9.02016 8.85174 8.79918C8.80486 8.5782 8.75799 8.42418 8.71111 8.33713L8.65084 8.21659C8.48343 7.98891 8.19884 7.84494 7.79705 7.78467C7.71 7.77128 7.72674 7.69092 7.84727 7.5436C7.95442 7.41637 8.08165 7.31592 8.22897 7.24226C8.58388 7.06816 9.3841 6.9878 10.6296 7.00119C11.1787 7.00789 11.6308 7.05141 11.9857 7.13177C12.1196 7.16525 12.2301 7.21213 12.3171 7.2724C12.4109 7.32597 12.4812 7.40632 12.5281 7.51347C12.575 7.61391 12.6084 7.72106 12.6285 7.8349C12.6553 7.94204 12.6687 8.09271 12.6687 8.2869C12.6687 8.4811 12.6654 8.66525 12.6587 8.83936C12.652 9.01347 12.6419 9.25119 12.6285 9.55253C12.6218 9.84717 12.6185 10.1217 12.6185 10.3762C12.6185 10.4499 12.6151 10.5905 12.6084 10.7981C12.6017 11.0057 12.5984 11.1664 12.5984 11.2802C12.6051 11.394 12.6185 11.5313 12.6386 11.692C12.6587 11.8461 12.6955 11.9766 12.7491 12.0838C12.8093 12.1842 12.8863 12.2646 12.9801 12.3249C13.0337 12.3382 13.0906 12.3516 13.1508 12.365C13.2111 12.3784 13.2982 12.3416 13.412 12.2545C13.5258 12.1675 13.6531 12.0536 13.7937 11.913C13.9343 11.7657 14.1084 11.5414 14.316 11.24C14.5236 10.932 14.7513 10.5704 14.9991 10.1552C15.4008 9.45878 15.7591 8.70543 16.0738 7.89516C16.1006 7.8282 16.1341 7.77128 16.1743 7.7244C16.2145 7.67083 16.2513 7.634 16.2848 7.61391L16.325 7.58378C16.3383 7.57708 16.3551 7.57039 16.3752 7.56369C16.3953 7.5503 16.4388 7.54025 16.5058 7.53356C16.5727 7.52016 16.6397 7.51682 16.7066 7.52351L19.5995 7.50342C19.8607 7.46994 20.075 7.47999 20.2424 7.53356C20.4098 7.58043 20.5136 7.634 20.5537 7.69427L20.614 7.79472Z" fill="#0C2947"/>
<defs>
<linearGradient id="paint0_linear" x1="12" y1="0" x2="12" y2="24" gradientUnits="userSpaceOnUse">
<stop stop-color="white"/>
<stop offset="1" stop-color="white" stop-opacity="0"/>
</linearGradient>
<linearGradient id="paint1_linear" x1="12" y1="0" x2="12" y2="24" gradientUnits="userSpaceOnUse">
<stop stop-color="white"/>
<stop offset="1" stop-color="white" stop-opacity="0"/>
</linearGradient>
</defs>
</svg>
