<svg width="24" height="24" viewBox="0 0 24 24" fill="none" xmlns="http://www.w3.org/2000/svg">
<g clip-path="url(#clip0)">
<g opacity="0.01">
<rect x="0.500977" y="0.5" width="23" height="23" fill="white"/>
<rect x="0.500977" y="0.5" width="23" height="23" fill="url(#paint0_linear)"/>
<rect x="0.500977" y="0.5" width="23" height="23" stroke="white"/>
<rect x="0.500977" y="0.5" width="23" height="23" stroke="url(#paint1_linear)"/>
</g>
<path fill-rule="evenodd" clip-rule="evenodd" d="M1.25195 2C1.25195 1.58579 1.58774 1.25 2.00195 1.25H20.002C20.4162 1.25 20.752 1.58579 20.752 2V15C20.752 15.4142 20.4162 15.75 20.002 15.75C19.5877 15.75 19.252 15.4142 19.252 15V11.75H2.75195V19.25H13.502C13.9162 19.25 14.252 19.5858 14.252 20C14.252 20.4142 13.9162 20.75 13.502 20.75H2.00195C1.58774 20.75 1.25195 20.4142 1.25195 20V2ZM2.75195 10.25H19.252V2.75H2.75195V10.25ZM8.50195 5.25C8.91617 5.25 9.25195 5.58579 9.25195 6V6.25H12.752V6C12.752 5.58579 13.0877 5.25 13.502 5.25C13.9162 5.25 14.252 5.58579 14.252 6V7C14.252 7.41421 13.9162 7.75 13.502 7.75H8.50195C8.08774 7.75 7.75195 7.41421 7.75195 7V6C7.75195 5.58579 8.08774 5.25 8.50195 5.25ZM8.50195 14.25C8.91617 14.25 9.25195 14.5858 9.25195 15V15.25H12.752V15C12.752 14.5858 13.0877 14.25 13.502 14.25C13.9162 14.25 14.252 14.5858 14.252 15V16C14.252 16.4142 13.9162 16.75 13.502 16.75H8.50195C8.08774 16.75 7.75195 16.4142 7.75195 16V15C7.75195 14.5858 8.08774 14.25 8.50195 14.25ZM15.4716 15.4697C15.7645 15.1768 16.2394 15.1768 16.5323 15.4697L19.502 18.4393L22.4716 15.4697C22.7645 15.1768 23.2394 15.1768 23.5323 15.4697C23.8252 15.7626 23.8252 16.2374 23.5323 16.5303L20.5626 19.5L23.5323 22.4697C23.8252 22.7626 23.8252 23.2374 23.5323 23.5303C23.2394 23.8232 22.7645 23.8232 22.4716 23.5303L19.502 20.5607L16.5323 23.5303C16.2394 23.8232 15.7645 23.8232 15.4716 23.5303C15.1787 23.2374 15.1787 22.7626 15.4716 22.4697L18.4413 19.5L15.4716 16.5303C15.1787 16.2374 15.1787 15.7626 15.4716 15.4697Z" fill="#0C2947"/>
</g>
<defs>
<linearGradient id="paint0_linear" x1="12.001" y1="0" x2="12.001" y2="24" gradientUnits="userSpaceOnUse">
<stop stop-color="white"/>
<stop offset="1" stop-color="white" stop-opacity="0"/>
</linearGradient>
<linearGradient id="paint1_linear" x1="12.001" y1="0" x2="12.001" y2="24" gradientUnits="userSpaceOnUse">
<stop stop-color="white"/>
<stop offset="1" stop-color="white" stop-opacity="0"/>
</linearGradient>
<clipPath id="clip0">
<rect width="24" height="24" fill="white" transform="translate(0.000976562)"/>
</clipPath>
</defs>
</svg>
