<svg width="24" height="24" viewBox="0 0 24 24" xmlns="http://www.w3.org/2000/svg">
<path d="M11.999 7.95605C12.4132 7.95605 12.749 8.29184 12.749 8.70605V14.707L15.9732 11.5248C16.268 11.2338 16.7428 11.2369 17.0338 11.5318C17.3248 11.8266 17.3216 12.3014 17.0268 12.5924L12.5268 17.0338C12.3806 17.1781 12.1898 17.2502 11.9991 17.25C11.7822 17.25 11.5867 17.1579 11.4498 17.0107L6.97316 12.5924C6.67835 12.3014 6.67524 11.8266 6.96621 11.5318C7.25717 11.2369 7.73204 11.2338 8.02684 11.5248L11.249 14.705V8.70605C11.249 8.29184 11.5848 7.95605 11.999 7.95605Z"/>
<path d="M11.999 7.95605C12.4132 7.95605 12.749 8.29184 12.749 8.70605V14.707L15.9732 11.5248C16.268 11.2338 16.7428 11.2369 17.0338 11.5318C17.3248 11.8266 17.3216 12.3014 17.0268 12.5924L12.5268 17.0338C12.3806 17.1781 12.1898 17.2502 11.9991 17.25C11.7822 17.25 11.5867 17.1579 11.4498 17.0107L6.97316 12.5924C6.67835 12.3014 6.67524 11.8266 6.96621 11.5318C7.25717 11.2369 7.73204 11.2338 8.02684 11.5248L11.249 14.705V8.70605C11.249 8.29184 11.5848 7.95605 11.999 7.95605Z"/>
<path fill-rule="evenodd" clip-rule="evenodd" d="M3 1.25C2.74924 1.25 2.51506 1.37533 2.37596 1.58397L0.375962 4.58397C0.293829 4.70718 0.25 4.85193 0.25 5V21C0.25 21.4142 0.585786 21.75 1 21.75H23C23.4142 21.75 23.75 21.4142 23.75 21V5C23.75 4.58579 23.4142 4.25 23 4.25H14.8513L12.5762 1.51986C12.4337 1.34887 12.2226 1.25 12 1.25H3ZM1.75 5.22708L3.40139 2.75H11.6487L13.9238 5.48014C14.0663 5.65113 14.2774 5.75 14.5 5.75H22.25V20.25H1.75V5.22708Z"/>
<path fill-rule="evenodd" clip-rule="evenodd" d="M3 1.25C2.74924 1.25 2.51506 1.37533 2.37596 1.58397L0.375962 4.58397C0.293829 4.70718 0.25 4.85193 0.25 5V21C0.25 21.4142 0.585786 21.75 1 21.75H23C23.4142 21.75 23.75 21.4142 23.75 21V5C23.75 4.58579 23.4142 4.25 23 4.25H14.8513L12.5762 1.51986C12.4337 1.34887 12.2226 1.25 12 1.25H3ZM1.75 5.22708L3.40139 2.75H11.6487L13.9238 5.48014C14.0663 5.65113 14.2774 5.75 14.5 5.75H22.25V20.25H1.75V5.22708Z"/>
<defs>
<linearGradient id="paint0_linear" x1="12" y1="1.25" x2="12" y2="21.75" gradientUnits="userSpaceOnUse">
<stop stop-color="white"/>
<stop offset="1" stop-color="white" stop-opacity="0"/>
</linearGradient>
<linearGradient id="paint1_linear" x1="12" y1="1.25" x2="12" y2="21.75" gradientUnits="userSpaceOnUse">
<stop stop-color="white"/>
<stop offset="1" stop-color="white" stop-opacity="0"/>
</linearGradient>
</defs>
</svg>
