<svg width="24" height="25" viewBox="0 0 24 25" xmlns="http://www.w3.org/2000/svg">
<path fill-rule="evenodd" clip-rule="evenodd" d="M10.5 1.75C8.70507 1.75 7.25 3.20507 7.25 5C7.25 6.79493 8.70507 8.25 10.5 8.25C12.2949 8.25 13.75 6.79493 13.75 5C13.75 3.20507 12.2949 1.75 10.5 1.75ZM5.75 5C5.75 2.37665 7.87665 0.25 10.5 0.25C13.1234 0.25 15.25 2.37665 15.25 5C15.25 7.62335 13.1234 9.75 10.5 9.75C7.87665 9.75 5.75 7.62335 5.75 5ZM0.75 17.75C0.75 13.8393 3.99271 10.75 7.54478 10.75H12.9179C13.488 10.75 13.989 10.9132 14.3317 11.0622C14.5064 11.1381 14.6491 11.2143 14.7503 11.273C14.8011 11.3025 14.8421 11.3278 14.872 11.347C14.887 11.3566 14.8993 11.3647 14.9087 11.371L14.9207 11.3791L14.925 11.3821L14.9268 11.3833L14.928 11.3841C14.9281 11.3842 14.9283 11.3843 14.5 12L14.928 11.3841C15.268 11.6206 15.3522 12.0883 15.1157 12.4283C14.8799 12.7672 14.4148 12.8517 14.075 12.618C14.0744 12.6176 14.0738 12.6171 14.0732 12.6167C14.073 12.6166 14.0733 12.6168 14.0732 12.6167C14.0738 12.6171 14.0744 12.6176 14.075 12.618L14.0628 12.61C14.0501 12.6019 14.0281 12.5882 13.9981 12.5708C13.9376 12.5357 13.8467 12.4869 13.7338 12.4378C13.5012 12.3368 13.2112 12.25 12.9179 12.25H7.54478C4.82818 12.25 2.25 14.6607 2.25 17.75C2.25 17.9719 2.26424 18.1266 2.28354 18.2315C2.28473 18.238 2.28591 18.2441 2.28709 18.25H14C14.4142 18.25 14.75 18.5858 14.75 19C14.75 19.4142 14.4142 19.75 14 19.75H2.17164C1.99587 19.75 1.78274 19.7244 1.56911 19.6234C1.34548 19.5177 1.16793 19.3514 1.03974 19.1432C0.808839 18.7682 0.75 18.275 0.75 17.75ZM17.7401 12.9646C17.4053 13.3797 17.25 13.9488 17.25 14.5C17.25 14.9142 16.9142 15.25 16.5 15.25C16.0858 15.25 15.75 14.9142 15.75 14.5C15.75 13.7012 15.9697 12.7703 16.5724 12.0229C17.1968 11.2487 18.1702 10.75 19.5 10.75C20.8054 10.75 21.7837 11.1939 22.4199 11.9574C23.0361 12.6968 23.25 13.6386 23.25 14.5C23.25 15.3863 23.0247 16.0675 22.645 16.6081C22.2776 17.1312 21.8007 17.4696 21.4106 17.7248C21.3231 17.7821 21.2421 17.8341 21.167 17.8823C20.8728 18.0714 20.6679 18.2031 20.5023 18.3707C20.3438 18.5313 20.25 18.7004 20.25 19V19.75C20.25 20.1642 19.9142 20.5 19.5 20.5C19.0858 20.5 18.75 20.1642 18.75 19.75V19C18.75 18.2625 19.0312 17.7256 19.4352 17.3166C19.7301 17.0181 20.1119 16.7747 20.4158 16.5811C20.4773 16.5419 20.5356 16.5047 20.5894 16.4696C20.9493 16.234 21.2224 16.0238 21.4175 15.746C21.6003 15.4858 21.75 15.1137 21.75 14.5C21.75 13.8614 21.5889 13.3032 21.2676 12.9176C20.9663 12.5561 20.4446 12.25 19.5 12.25C18.5798 12.25 18.0532 12.5763 17.7401 12.9646Z"/>
<path d="M21 23.5C21 24.3284 20.3284 25 19.5 25C18.6716 25 18 24.3284 18 23.5C18 22.6716 18.6716 22 19.5 22C20.3284 22 21 22.6716 21 23.5Z"/>
</svg>
