<svg width="71" height="72" viewBox="0 0 71 72" fill="none" xmlns="http://www.w3.org/2000/svg">
<rect y="0.5271" width="71.0001" height="70.6441" fill="white"/>
<path fill-rule="evenodd" clip-rule="evenodd" d="M70.0001 1.35352H1V70.3536H70.0001V1.35352ZM70.0001 0.353516H71.0001V1.35352V70.3536V71.3536H70.0001H1H0V70.3536V1.35352V0.353516H1H70.0001Z" fill="#BAD432"/>
<path d="M48.8665 43.4948C48.8665 46.0909 48.0988 48.5054 46.7802 50.5272H25.1673C23.8488 48.5054 23.0811 46.0909 23.0811 43.4948C23.0811 36.3745 28.8535 30.6021 35.9738 30.6021C43.0941 30.6021 48.8665 36.3745 48.8665 43.4948Z" fill="#BAD432"/>
<path d="M47.758 30.8481C47.4181 31.188 47.4123 31.7272 47.7405 32.0671C50.612 35.0265 52.3818 39.0584 52.3818 43.4947C52.3818 47.6555 50.8289 51.453 48.2738 54.3422C47.969 54.6821 47.9983 55.2036 48.3206 55.5318C48.684 55.8951 49.27 55.8658 49.6099 55.4849C52.4287 52.2852 54.1399 48.0775 54.1399 43.4947C54.1399 38.5896 52.1884 34.1357 49.018 30.8657C48.6723 30.5141 48.1097 30.4965 47.758 30.8481ZM17.8059 43.4947C17.8059 48.0775 19.5171 52.2852 22.3418 55.4849C22.6817 55.8658 23.2677 55.8893 23.6311 55.5318C23.9534 55.2095 23.9827 54.6879 23.678 54.3422C21.117 51.453 19.564 47.6555 19.564 43.4947C19.564 39.0584 21.3338 35.0265 24.2054 32.0729C24.5336 31.733 24.5218 31.188 24.1878 30.854C23.8362 30.5023 23.2736 30.5199 22.9278 30.8715C19.7574 34.1358 17.8059 38.5896 17.8059 43.4947Z" fill="#BAD432"/>
<path d="M52.3121 26.2948C51.9663 26.6405 51.978 27.1914 52.3179 27.543C56.344 31.657 58.8288 37.2887 58.8288 43.4948C58.8288 49.4079 56.5667 54.8053 52.8629 58.8665C52.5406 59.2181 52.5465 59.7514 52.8805 60.0913C53.2321 60.4429 53.8065 60.437 54.1405 60.0737C58.1431 55.696 60.5869 49.8709 60.5869 43.4948C60.5869 36.7965 57.9028 30.7252 53.5486 26.2889C53.2087 25.949 52.652 25.9549 52.3121 26.2948ZM19.6349 26.2948C19.295 25.9549 18.7324 25.9431 18.3984 26.2889C14.0441 30.7252 11.3601 36.7965 11.3601 43.4948C11.3601 49.8767 13.8039 55.7019 17.8065 60.0737C18.1405 60.437 18.7148 60.437 19.0664 60.0913C19.4005 59.7572 19.4005 59.2181 19.084 58.8665C15.3803 54.8053 13.1182 49.4079 13.1182 43.4948C13.1182 37.2887 15.603 31.657 19.629 27.543C19.9748 27.1914 19.9806 26.6405 19.6349 26.2948Z" fill="#BAD432"/>
<path d="M36.5598 1.30029H35.3877V50.527H36.5598V1.30029Z" fill="#BAD432"/>
</svg>
