<svg width="71" height="72" viewBox="0 0 71 72" fill="none" xmlns="http://www.w3.org/2000/svg">
<path fill-rule="evenodd" clip-rule="evenodd" d="M1 1.35352H70V70.3535H1V1.35352ZM71 0.353516H70H1H0V1.35352V70.3535V71.3535H1H70H71V70.3535V1.35352V0.353516ZM19.4001 22.7535C20.1001 22.7535 20.7001 22.1535 20.7001 21.4535C20.7001 20.7535 20.2001 20.1535 19.4001 20.1535C18.7001 20.1535 18.1001 20.7535 18.1001 21.4535C18.1001 22.1535 18.7001 22.7535 19.4001 22.7535ZM53.2001 26.3535L53.4001 29.1535C53.4001 29.1535 51.0001 28.6535 50.4001 29.6535C50.4779 31.6762 50.6162 39.3274 50.6738 42.6255L55.7054 42.6535C56.103 42.6557 56.4615 42.8933 56.6185 43.2585C56.7756 43.6238 56.7013 44.0474 56.4294 44.3374L56.4262 44.3408L56.0557 44.7136C55.8194 44.9439 55.4739 45.2688 55.0293 45.6569C54.1407 46.4324 52.8512 47.4639 51.2389 48.4958C48.0261 50.552 43.4623 52.6535 38.1998 52.6535C32.9387 52.6535 28.153 50.5025 24.7279 48.4065C23.0069 47.3533 21.6077 46.3007 20.637 45.5101C20.1587 45.1205 19.3857 44.4249 19.1137 44.1802L19.1013 44.1691C18.8096 43.8843 18.7199 43.4509 18.8747 43.0738C19.0295 42.6967 19.3977 42.4512 19.8054 42.4535L25.9214 42.4876L26.1001 26.8535L21.4001 32.3535C15.5001 35.4535 14.1001 30.7535 14.1001 30.7535L15.0001 27.4535L17.5001 19.3535C17.5001 19.3535 18.5001 16.7535 20.1001 16.4535C21.7001 16.1535 22.0001 17.3535 22.0001 17.3535C22.0001 17.3535 31.4001 18.2535 34.3001 27.5535C40.186 36.2376 45.9787 29.2805 47.8155 27.0745C47.8823 26.9942 47.9439 26.9202 48.0001 26.8535C48.0001 26.8535 51.5001 24.4535 53.2001 26.3535ZM28.8176 42.5037L47.2963 42.6067C46.0336 40.3198 43.168 36.6149 37.9001 36.7535C32.6376 36.8228 29.9642 40.3441 28.8176 42.5037ZM45.7999 26.6535L35.3999 26.8535C35.3999 26.8535 36.0999 30.6535 40.5999 30.6535C45.0999 30.6535 45.7999 26.6535 45.7999 26.6535ZM25.7718 46.7005C24.4901 45.9162 23.3961 45.1315 22.5412 44.4688L53.1383 44.6392C52.3594 45.2835 51.3542 46.0475 50.1608 46.8112C47.1236 48.755 42.9374 50.6535 38.1998 50.6535C33.4609 50.6535 29.0466 48.7045 25.7718 46.7005Z" fill="url(#paint0_radial)"/>
<defs>
<radialGradient id="paint0_radial" cx="0" cy="0" r="1" gradientUnits="userSpaceOnUse" gradientTransform="translate(9.46667 0.353515) rotate(90.1061) scale(71.0001 18.6713)">
<stop stop-color="#52CC5B"/>
<stop offset="1" stop-color="#5BA861"/>
</radialGradient>
</defs>
</svg>
