<svg width="90" height="90" viewBox="0 0 90 90" fill="none" xmlns="http://www.w3.org/2000/svg">
<g clip-path="url(#clip0)">
<path d="M27 27.186L31.0349 23.7363L29.0852 21.4563L27 23.2368V21H9V39H27V27.186ZM12 36V24H24V25.8003L18.0117 30.9287L14.5378 27.4951L12.438 29.6294L17.874 35.001L24 29.7554V36H12Z" fill="#67B930"/>
<path d="M27 51.186L31.0349 47.7363L29.0852 45.4563L27 47.2368V45H9V63H27V51.186ZM12 60V48H24V49.8003L18.0117 54.9287L14.5378 51.4951L12.438 53.6294L17.874 59.001L24 53.7554V60H12Z" fill="#67B930"/>
<path d="M0 0V75H50.6162C50.8667 75.9001 50.9956 76.8289 51 77.7627V78H48V90H81V78H77.9788L77.9883 76.8003C77.9949 76.1792 78.1296 75.5662 78.3838 75H90V0H0ZM78 87H51V81H78V87ZM54 78V77.7627C53.9985 75.5676 53.4631 73.4055 52.4399 71.4631L50.874 68.4946L45.717 54.3948C45.687 54.3135 45.6504 54.2351 45.6072 54.1604C45.3069 53.636 45.3508 52.9827 45.7185 52.5029C46.0862 52.0232 46.7058 51.8108 47.2903 51.9646C47.6748 52.0657 48.0022 52.3169 48.1992 52.6619L51.4021 58.2122C52.0811 59.3877 53.4653 59.9612 54.7764 59.6096C56.0881 59.2581 57 58.0701 57 56.7122V36C57 35.1716 57.6716 34.5 58.5 34.5C59.3284 34.5 60 35.1716 60 36V49.5C59.9971 50.2822 60.5962 50.9348 61.3755 51L73.8735 52.0408C76.199 52.2466 77.9861 54.1875 78 56.5217V68.6836C78.0029 69.5713 77.7415 70.4399 77.25 71.1797L76.2524 72.6797C75.4409 73.8962 75.0029 75.3237 74.9941 76.7864L74.9788 78H54ZM87 72H80.217C80.7297 70.9695 80.9978 69.8342 81 68.6836V56.5217C80.9773 52.6304 77.9985 49.3945 74.1226 49.0503L63 48.1201V36C63 33.5149 60.9851 31.5 58.5 31.5C56.0149 31.5 54 33.5149 54 36V56.7122L50.7993 51.1619C49.5491 49.0811 46.8743 48.3662 44.7532 49.5469C42.6321 50.7275 41.8293 53.3767 42.939 55.5359L48.0916 69.6167C48.115 69.6797 48.1421 69.7412 48.1743 69.8013L49.3323 72H3V15H87V72ZM3 12V3H87V12H3Z" fill="#23AAEA"/>
<path d="M6 6H9V9H6V6Z" fill="#23AAEA"/>
<path d="M12 6H15V9H12V6Z" fill="#23AAEA"/>
<path d="M18 6H21V9H18V6Z" fill="#23AAEA"/>
<path d="M45 21H51V24H45V21Z" fill="#23AAEA"/>
<path d="M54 21H81V24H54V21Z" fill="#23AAEA"/>
<path d="M45 27H81V30H45V27Z" fill="#23AAEA"/>
<path d="M45 34.5H51V37.5H45V34.5Z" fill="#23AAEA"/>
<path d="M66 34.5H81V37.5H66V34.5Z" fill="#23AAEA"/>
<path d="M66 40.5H81V43.5H66V40.5Z" fill="#23AAEA"/>
<path d="M45 40.5H51V43.5H45V40.5Z" fill="#23AAEA"/>
</g>
<defs>
<clipPath id="clip0">
<rect width="90" height="90" fill="white"/>
</clipPath>
</defs>
</svg>
