<svg width="90" height="90" viewBox="0 0 90 90" fill="none" xmlns="http://www.w3.org/2000/svg">
<g clip-path="url(#clip0)">
<path d="M13.5 55.5C9.35815 55.5 6 52.1418 6 48C6 43.8582 9.35815 40.5 13.5 40.5C17.6418 40.5 21 43.8582 21 48C20.9949 52.1404 17.6404 55.4949 13.5 55.5ZM13.5 43.5C11.0149 43.5 9 45.5149 9 48C9 50.4851 11.0149 52.5 13.5 52.5C15.9851 52.5 18 50.4851 18 48C18 45.5149 15.9851 43.5 13.5 43.5Z" fill="#23AAEA"/>
<path d="M90 76.5H24V85.5H27V90H30V85.5H84V90H87V85.5H90V76.5ZM87 82.5H27V79.5H87V82.5Z" fill="#23AAEA"/>
<path d="M19.5 87H3V67.5C3.00513 63.3596 6.35962 60.0051 10.5 60H20.4507L28.7893 69H33.9631C33.9631 69 33.3721 71.7839 33.3706 72H26.9084L19.1082 63.4863L16.8977 65.5137L25.5916 75H73.8003C75.2087 75.0073 76.4297 74.0273 76.7278 72.6511L82.062 48.6511C82.2598 47.762 82.043 46.831 81.4724 46.1213C80.9019 45.4116 80.0405 44.9985 79.1294 45H41.6997C40.2913 44.9927 39.0703 45.9727 38.7722 47.3489L34.6289 66H30.0989L21.7603 57H10.5C4.70361 57.0066 0.00659179 61.7036 0 67.5V90H22.5V73.5H19.5V87ZM41.6997 48H79.1294L73.8003 72H36.3706L41.6997 48Z" fill="#23AAEA"/>
<path d="M24 49.6216V36H16.5C12.3596 35.9949 9.00513 32.6404 9 28.5V7.5C9.00513 3.35962 12.3596 0.00512696 16.5 0H73.5C77.6404 0.00512696 80.9949 3.35962 81 7.5V28.5C80.9949 32.6404 77.6404 35.9949 73.5 36H41.0266L24 49.6216ZM16.5 3C14.0149 3 12 5.01489 12 7.5V28.5C12 30.9851 14.0149 33 16.5 33H27V43.3784L39.9734 33H73.5C75.9851 33 78 30.9851 78 28.5V7.5C78 5.01489 75.9851 3 73.5 3H16.5Z" fill="#67B930"/>
<path d="M27 10.5H30V13.5H27V10.5Z" fill="#67B930"/>
<path d="M33 10.5H63V13.5H33V10.5Z" fill="#67B930"/>
<path d="M27 16.5H30V19.5H27V16.5Z" fill="#67B930"/>
<path d="M33 16.5H63V19.5H33V16.5Z" fill="#67B930"/>
<path d="M27 22.5H30V25.5H27V22.5Z" fill="#67B930"/>
<path d="M33 22.5H63V25.5H33V22.5Z" fill="#67B930"/>
</g>
<defs>
<clipPath id="clip0">
<rect width="90" height="90" fill="white"/>
</clipPath>
</defs>
</svg>
