<svg width="90" height="90" viewBox="0 0 90 90" fill="none" xmlns="http://www.w3.org/2000/svg">
<g clip-path="url(#clip0)">
<path d="M82.5 9H79.5V12H82.5C84.9851 12 87 14.0149 87 16.5V54H76.5V0H32.3789L13.5 18.8789V54H3V16.5C3 14.0149 5.01489 12 7.5 12H18V9H7.5C3.35962 9.00513 0.00512696 12.3596 0 16.5V64.5C0.00512696 68.6404 3.35962 71.9949 7.5 72H33V78H24C21.5149 78 19.5 80.0149 19.5 82.5V90H70.5V82.5C70.5 80.0149 68.4851 78 66 78H63V81H66C66.8284 81 67.5 81.6716 67.5 82.5V87H22.5V82.5C22.5 81.6716 23.1716 81 24 81H60V78H57V72H82.5C86.6404 71.9949 89.9949 68.6404 90 64.5V16.5C89.9949 12.3596 86.6404 9.00513 82.5 9ZM31.5 5.12109V18H18.6211L31.5 5.12109ZM16.5 21H34.5V3H73.5V54H16.5V21ZM54 78H36V72H54V78ZM82.5 69H7.5C5.01489 69 3 66.9851 3 64.5V57H87V64.5C87 66.9851 84.9851 69 82.5 69Z" fill="#23AAEA"/>
<path d="M45 58.5C42.5149 58.5 40.5 60.5149 40.5 63C40.5 65.4851 42.5149 67.5 45 67.5C47.4851 67.5 49.5 65.4851 49.5 63C49.5 60.5149 47.4851 58.5 45 58.5ZM45 64.5C44.1716 64.5 43.5 63.8284 43.5 63C43.5 62.1716 44.1716 61.5 45 61.5C45.8284 61.5 46.5 62.1716 46.5 63C46.5 63.8284 45.8284 64.5 45 64.5Z" fill="#23AAEA"/>
<path d="M37.5 12H40.5V15H37.5V12Z" fill="#67B930"/>
<path d="M43.5 12H67.5V15H43.5V12Z" fill="#67B930"/>
<path d="M37.5 18H40.5V21H37.5V18Z" fill="#67B930"/>
<path d="M43.5 18H67.5V21H43.5V18Z" fill="#67B930"/>
<path d="M22.5 42H67.5V24H22.5V42ZM25.5 27H64.5V39H25.5V27Z" fill="#67B930"/>
<path d="M22.5 45H25.5V48H22.5V45Z" fill="#67B930"/>
<path d="M28.5 45H67.5V48H28.5V45Z" fill="#67B930"/>
</g>
<defs>
<clipPath id="clip0">
<rect width="90" height="90" fill="white"/>
</clipPath>
</defs>
</svg>
