<svg width="120" height="120" viewBox="0 0 120 120" fill="none" xmlns="http://www.w3.org/2000/svg">
<g opacity="0.5">
<path d="M114 4H6C2.68652 4 0 6.68652 0 10V86C0 89.3135 2.68652 92 6 92H42V104H22V116H98V104H78V92H114C117.313 92 120 89.3135 120 86V10C120 6.68652 117.313 4 114 4ZM94 108V112H26V108H94ZM74 104H46V92H74V104ZM116 86C116 87.1045 115.104 88 114 88H6C4.89551 88 4 87.1045 4 86V10C4 8.89551 4.89551 8 6 8H114C115.104 8 116 8.89551 116 10V86Z" fill="#23AAEA"/>
<path d="M64.0001 20H72.0001V24H64.0001V20Z" fill="#23AAEA"/>
<path d="M75.9999 20H104V24H75.9999V20Z" fill="#23AAEA"/>
<path d="M64.0001 28H72.0001V32H64.0001V28Z" fill="#23AAEA"/>
<path d="M92 28H104V32H92V28Z" fill="#23AAEA"/>
<path d="M88 36H104V40H88V36Z" fill="#23AAEA"/>
<path d="M70 44H74V48H70V44Z" fill="#23AAEA"/>
<path d="M78 44H104V48H78V44Z" fill="#23AAEA"/>
<path d="M60 52H104V56H60V52Z" fill="#23AAEA"/>
<path d="M60 60H104V64H60V60Z" fill="#23AAEA"/>
<path fill-rule="evenodd" clip-rule="evenodd" d="M8 76V12H112V76H8ZM12 72V16H108V72H12Z" fill="#23AAEA"/>
<path d="M32 42C26.4775 42 22 37.5225 22 32C22 26.4775 26.4775 22 32 22C37.5225 22 42 26.4775 42 32C41.9932 37.5205 37.5205 41.9932 32 42ZM32 26C28.6865 26 26 28.6865 26 32C26 35.3135 28.6865 38 32 38C35.3135 38 38 35.3135 38 32C38 28.6865 35.3135 26 32 26Z" fill="#67B930"/>
<path d="M18 54V70H14V54C14.0068 48.4795 18.4795 44.0068 24 44H47.5479L60.0977 38.0283C61.9033 37.3145 63.9463 37.5469 65.5439 38.6504C65.572 38.6695 65.5955 38.6931 65.6187 38.7166C65.6384 38.7363 65.6578 38.7559 65.6797 38.7725L86.5381 27.1523L88.4844 30.6484L67.8438 42.1416C68.501 44.96 66.9307 47.8213 64.2002 48.7803L48.4355 56H46V70H42V52H47.5645L62.6943 45.082C63.4531 44.8516 63.9795 44.1611 64 43.3682C64 42.7939 63.7207 42.2559 63.251 41.9258C62.7812 41.5957 62.1797 41.5166 61.6396 41.7119L48.4521 48H24C20.6865 48 18 50.6865 18 54Z" fill="#67B930"/>
</g>
</svg>
