<svg width="30" height="30" viewBox="0 0 30 30" xmlns="http://www.w3.org/2000/svg">
<path fill-rule="evenodd" clip-rule="evenodd" d="M0.25 3C0.25 2.58579 0.585786 2.25 1 2.25H29C29.4142 2.25 29.75 2.58579 29.75 3V27C29.75 27.4142 29.4142 27.75 29 27.75H1C0.585786 27.75 0.25 27.4142 0.25 27V3ZM1.75 3.75V26.25H28.25V3.75H1.75ZM3.25 6C3.25 5.58579 3.58579 5.25 4 5.25H26C26.4142 5.25 26.75 5.58579 26.75 6V21C26.75 21.4142 26.4142 21.75 26 21.75H4C3.58579 21.75 3.25 21.4142 3.25 21V6ZM4.75 6.75V20.25H25.25V6.75H4.75ZM9.5 8.75C9.08579 8.75 8.75 9.08579 8.75 9.5C8.75 9.91421 9.08579 10.25 9.5 10.25C9.91421 10.25 10.25 9.91421 10.25 9.5C10.25 9.08579 9.91421 8.75 9.5 8.75ZM7.25 9.5C7.25 8.25736 8.25736 7.25 9.5 7.25C10.7426 7.25 11.75 8.25736 11.75 9.5C11.75 10.7426 10.7426 11.75 9.5 11.75C8.25736 11.75 7.25 10.7426 7.25 9.5ZM18.9989 10.0833C19.2035 10.083 19.3994 10.1663 19.541 10.3139L23.541 14.4806C23.8279 14.7794 23.8182 15.2542 23.5194 15.541C23.2206 15.8279 22.7458 15.8182 22.459 15.5194L19.0015 11.9179L16.0601 14.9994L17.0303 15.9697C17.3232 16.2626 17.3232 16.7374 17.0303 17.0303C16.7374 17.3232 16.2626 17.3232 15.9697 17.0303L12.5 13.5607L7.53033 18.5303C7.23744 18.8232 6.76256 18.8232 6.46967 18.5303C6.17678 18.2374 6.17678 17.7626 6.46967 17.4697L11.9697 11.9697C12.2626 11.6768 12.7374 11.6768 13.0303 11.9697L14.9991 13.9385L18.4575 10.3155C18.5988 10.1675 18.7943 10.0836 18.9989 10.0833ZM14 23.25V24.75H3.5V23.25H14ZM20 24.75H15V23.25H20V24.75Z"/>
<path fill-rule="evenodd" clip-rule="evenodd" d="M0.25 3C0.25 2.58579 0.585786 2.25 1 2.25H29C29.4142 2.25 29.75 2.58579 29.75 3V27C29.75 27.4142 29.4142 27.75 29 27.75H1C0.585786 27.75 0.25 27.4142 0.25 27V3ZM1.75 3.75V26.25H28.25V3.75H1.75ZM3.25 6C3.25 5.58579 3.58579 5.25 4 5.25H26C26.4142 5.25 26.75 5.58579 26.75 6V21C26.75 21.4142 26.4142 21.75 26 21.75H4C3.58579 21.75 3.25 21.4142 3.25 21V6ZM4.75 6.75V20.25H25.25V6.75H4.75ZM9.5 8.75C9.08579 8.75 8.75 9.08579 8.75 9.5C8.75 9.91421 9.08579 10.25 9.5 10.25C9.91421 10.25 10.25 9.91421 10.25 9.5C10.25 9.08579 9.91421 8.75 9.5 8.75ZM7.25 9.5C7.25 8.25736 8.25736 7.25 9.5 7.25C10.7426 7.25 11.75 8.25736 11.75 9.5C11.75 10.7426 10.7426 11.75 9.5 11.75C8.25736 11.75 7.25 10.7426 7.25 9.5ZM18.9989 10.0833C19.2035 10.083 19.3994 10.1663 19.541 10.3139L23.541 14.4806C23.8279 14.7794 23.8182 15.2542 23.5194 15.541C23.2206 15.8279 22.7458 15.8182 22.459 15.5194L19.0015 11.9179L16.0601 14.9994L17.0303 15.9697C17.3232 16.2626 17.3232 16.7374 17.0303 17.0303C16.7374 17.3232 16.2626 17.3232 15.9697 17.0303L12.5 13.5607L7.53033 18.5303C7.23744 18.8232 6.76256 18.8232 6.46967 18.5303C6.17678 18.2374 6.17678 17.7626 6.46967 17.4697L11.9697 11.9697C12.2626 11.6768 12.7374 11.6768 13.0303 11.9697L14.9991 13.9385L18.4575 10.3155C18.5988 10.1675 18.7943 10.0836 18.9989 10.0833ZM14 23.25V24.75H3.5V23.25H14ZM20 24.75H15V23.25H20V24.75Z"/>
<defs>
<linearGradient id="paint0_linear" x1="15" y1="2.25" x2="15" y2="27.75" gradientUnits="userSpaceOnUse">
<stop stop-color="white"/>
<stop offset="1" stop-color="white" stop-opacity="0"/>
</linearGradient>
</defs>
</svg>
