<svg width="90" height="90" viewBox="0 0 90 90" fill="none" xmlns="http://www.w3.org/2000/svg">
<path d="M6 6H9V9H6V6Z" fill="#23AAEA"/>
<path d="M12 6H15V9H12V6Z" fill="#23AAEA"/>
<path d="M18 6H21V9H18V6Z" fill="#23AAEA"/>
<path d="M0 0V79.5H7.5V76.5H3V15H87V76.5H82.5V79.5H90V0H0ZM87 12H3V3H87V12Z" fill="#23AAEA"/>
<path d="M33 76.5H57V79.5H33V76.5Z" fill="#23AAEA"/>
<path d="M39 55.0503L57.0901 45L39 34.9497V55.0503ZM42 40.0503L50.9099 45L42 49.9497V40.0503Z" fill="#23AAEA"/>
<path d="M28.5 60H61.5V63H28.5V60Z" fill="#23AAEA"/>
<path d="M9 63H18V60H12V24H78V60H72V63H81V21H9V63Z" fill="#23AAEA"/>
<path d="M76.3667 72.1729C75.8232 69.156 73.5015 66.7727 70.5 66.1501V51C70.5 36.917 59.083 25.5 45 25.5C30.917 25.5 19.5 36.917 19.5 51V66.1501C16.4993 66.772 14.1775 69.1553 13.6333 72.1707C10.9182 72.7954 8.99561 75.2139 9.00001 78C9.0066 80.7825 10.9255 83.1958 13.6348 83.8293C14.2771 87.3948 17.3767 89.9919 21 90H28.5C30.1567 90 31.5 88.6567 31.5 87V69C31.5 67.3433 30.1567 66 28.5 66H27V51C27 41.0588 35.0588 33 45 33C54.9412 33 63 41.0588 63 51V66H61.5C59.8433 66 58.5 67.3433 58.5 69V87C58.5 88.6567 59.8433 90 61.5 90H69C72.6233 89.9919 75.7229 87.3948 76.3652 83.8293C78.4856 83.3379 80.1724 81.7346 80.77 79.6414C81.3677 77.5488 80.7817 75.2959 79.2407 73.7593C78.4504 72.9712 77.4544 72.4211 76.3667 72.1729ZM12 78C11.9912 76.9299 12.5662 75.9397 13.5 75.4167V80.5833C12.575 80.0515 12.0029 79.0671 12 78ZM24 87H21C18.5149 87 16.5 84.9851 16.5 82.5V73.5C16.5 71.0149 18.5149 69 21 69H24V87ZM28.5 69V87H27V69H28.5ZM45 30C33.4072 30.0125 24.0125 39.4072 24 51V66H22.5V51C22.5 38.5737 32.5737 28.5 45 28.5C57.4263 28.5 67.5 38.5737 67.5 51V66H66V51C65.9876 39.4072 56.5928 30.0125 45 30ZM63 87H61.5V69H63V87ZM73.5 82.5C73.5 84.9851 71.4851 87 69 87H66V69H69C71.4851 69 73.5 71.0149 73.5 73.5V82.5ZM76.5 80.5833V75.4167C77.4273 75.9463 77.9993 76.9321 77.9993 78C77.9993 79.0679 77.4273 80.0537 76.5 80.5833Z" fill="#67B930"/>
</svg>
