<svg width="90" height="90" viewBox="0 0 90 90" fill="none" xmlns="http://www.w3.org/2000/svg">
<g clip-path="url(#clip0)">
<path d="M33 6H36V9H33V6Z" fill="#23AAEA"/>
<path d="M39 6H42V9H39V6Z" fill="#23AAEA"/>
<path d="M45 6H48V9H45V6Z" fill="#23AAEA"/>
<path d="M6 81H9V84H6V81Z" fill="#23AAEA"/>
<path d="M12 81H42V84H12V81Z" fill="#23AAEA"/>
<path d="M45 81H48V84H45V81Z" fill="#23AAEA"/>
<path d="M27 0V21H10.5C4.70435 21.0073 0.00732422 25.7043 0 31.5V82.5C0.00512696 86.6404 3.35962 89.9949 7.5 90H54V66H90V0H27ZM21 24V37.6978L18 35.6997L15 37.7007V24H21ZM51 87H7.5C5.01489 87 3 84.9851 3 82.5C3 80.0149 5.01489 78 7.5 78H51V87ZM51 75H7.5C5.87183 75.0059 4.29053 75.5464 3 76.5388V31.5C3.00513 27.3596 6.35962 24.0051 10.5 24H12V43.3022L18 39.3003L24 43.2993V24H27V66H51V75ZM87 63H30V15H87V63ZM30 12V3H87V12H30Z" fill="#23AAEA"/>
<path d="M84 21H33V54H84V21ZM81 51H36V24H81V51Z" fill="#67B930"/>
<path d="M52.5 27.3003V47.7151L68.8308 37.5L52.5 27.3003ZM55.5 32.7151L63.1692 37.5L55.5 42.3003V32.7151Z" fill="#67B930"/>
<path d="M39 61.5H42V60H84V57H42V55.5H39V57H33V60H39V61.5Z" fill="#67B930"/>
</g>
<defs>
<clipPath id="clip0">
<rect width="90" height="90" fill="white"/>
</clipPath>
</defs>
</svg>
