<svg width="64" height="64" viewBox="0 0 64 64" fill="none" xmlns="http://www.w3.org/2000/svg">
<path fill-rule="evenodd" clip-rule="evenodd" d="M1.25 8C1.25 7.58579 1.58579 7.25 2 7.25H62C62.4142 7.25 62.75 7.58579 62.75 8V56C62.75 56.4142 62.4142 56.75 62 56.75H2C1.58579 56.75 1.25 56.4142 1.25 56V8ZM2.75 8.75V55.25H61.25V8.75H2.75Z" fill="#6F7B8E"/>
<path fill-rule="evenodd" clip-rule="evenodd" d="M5.25 12C5.25 11.5858 5.58579 11.25 6 11.25H58C58.4142 11.25 58.75 11.5858 58.75 12V44C58.75 44.4142 58.4142 44.75 58 44.75H6C5.58579 44.75 5.25 44.4142 5.25 44V12ZM6.75 12.75V43.25H57.25V12.75H6.75Z" fill="#6F7B8E"/>
<path fill-rule="evenodd" clip-rule="evenodd" d="M18.5 16.75C16.9812 16.75 15.75 17.9812 15.75 19.5C15.75 21.0188 16.9812 22.25 18.5 22.25C20.0188 22.25 21.25 21.0188 21.25 19.5C21.25 17.9812 20.0188 16.75 18.5 16.75ZM14.25 19.5C14.25 17.1528 16.1528 15.25 18.5 15.25C20.8472 15.25 22.75 17.1528 22.75 19.5C22.75 21.8472 20.8472 23.75 18.5 23.75C16.1528 23.75 14.25 21.8472 14.25 19.5ZM45.0197 18.2503C45.2254 18.2557 45.4198 18.3453 45.5575 18.4983L54.5575 28.4983C54.8346 28.8062 54.8096 29.2804 54.5017 29.5575C54.1938 29.8346 53.7196 29.8096 53.4425 29.5017L44.9714 20.0893L34.0607 31L36.5303 33.4697C36.8232 33.7626 36.8232 34.2374 36.5303 34.5303C36.2374 34.8232 35.7626 34.8232 35.4697 34.5303L26 25.0607L10.5303 40.5303C10.2374 40.8232 9.76256 40.8232 9.46967 40.5303C9.17678 40.2374 9.17678 39.7626 9.46967 39.4697L25.4697 23.4697C25.7626 23.1768 26.2374 23.1768 26.5303 23.4697L33 29.9393L44.4697 18.4697C44.6152 18.3242 44.814 18.2449 45.0197 18.2503ZM5.25 50C5.25 49.5858 5.58579 49.25 6 49.25H33C33.4142 49.25 33.75 49.5858 33.75 50C33.75 50.4142 33.4142 50.75 33 50.75H6C5.58579 50.75 5.25 50.4142 5.25 50ZM47 50.75H36C35.5858 50.75 35.25 50.4142 35.25 50C35.25 49.5858 35.5858 49.25 36 49.25H47C47.4142 49.25 47.75 49.5858 47.75 50C47.75 50.4142 47.4142 50.75 47 50.75Z" fill="#6F7B8E"/>
</svg>
