<svg width="120" height="120" viewBox="0 0 120 120" fill="none" xmlns="http://www.w3.org/2000/svg">
<g clip-path="url(#clip0)">
<path d="M24 30H28V34H24V30Z" fill="#23AAEA"/>
<path d="M32 30H36V34H32V30Z" fill="#23AAEA"/>
<path d="M40 30H44V34H40V30Z" fill="#23AAEA"/>
<path d="M48 30H52V34H48V30Z" fill="#23AAEA"/>
<path d="M55.9998 30H59.9998V34H55.9998V30Z" fill="#23AAEA"/>
<path d="M8 42V38H12V42H8Z" fill="#23AAEA"/>
<path d="M16 38H20V42H16V38Z" fill="#23AAEA"/>
<path d="M24 38H28V42H24V38Z" fill="#23AAEA"/>
<path d="M32 38H36V42H32V38Z" fill="#23AAEA"/>
<path d="M40 38H44V42H40V38Z" fill="#23AAEA"/>
<path d="M48 38H52V42H48V38Z" fill="#23AAEA"/>
<path d="M55.9998 38H59.9998V42H55.9998V38Z" fill="#23AAEA"/>
<path d="M8 50V46H12V50H8Z" fill="#23AAEA"/>
<path d="M16 46H20V50H16V46Z" fill="#23AAEA"/>
<path d="M24 46H28V50H24V46Z" fill="#23AAEA"/>
<path d="M32 46H36V50H32V46Z" fill="#23AAEA"/>
<path d="M8 58V54H12V58H8Z" fill="#23AAEA"/>
<path d="M16 54H20V58H16V54Z" fill="#23AAEA"/>
<path d="M24 54H28V58H24V54Z" fill="#23AAEA"/>
<path d="M32 54H36V58H32V54Z" fill="#23AAEA"/>
<path d="M8 66V62H12V66H8Z" fill="#23AAEA"/>
<path d="M16 62H20V66H16V62Z" fill="#23AAEA"/>
<path d="M24 62H28V66H24V62Z" fill="#23AAEA"/>
<path d="M32 62H36V66H32V62Z" fill="#23AAEA"/>
<path fill-rule="evenodd" clip-rule="evenodd" d="M20 2H10V8H0V74H42V103H76.9998V106.097L65.1354 116.643C64.3098 117.377 64.2355 118.641 64.9693 119.467C65.7031 120.292 66.9673 120.367 67.7928 119.633L78.9998 109.671L90.207 119.633C91.0325 120.367 92.2967 120.292 93.0305 119.467C93.7644 118.641 93.69 117.377 92.8644 116.643L80.9998 106.097V103H116V56.0666H120V44H81V40.1381C81 39.0335 80.1046 38.1381 79 38.1381C77.8954 38.1381 77 39.0335 77 40.1381V44H68V8H58V2H48V7.96484H20V2ZM64 44V26H4V70H42V56.0666H38V44H64ZM58 18V12H64V22H4V12H10V18H20V11.9648H48V18H58ZM16 14H14V6H16V14ZM52 14H54V6H52V14ZM112 99V56.0666H46V99H112ZM42 52.0666V48H116V52.0666H42Z" fill="#23AAEA"/>
<path d="M79 68.1381C80.1046 68.1381 81 69.0335 81 70.1381V74.1381H85C86.1046 74.1381 87 75.0335 87 76.1381C87 77.2426 86.1046 78.1381 85 78.1381H81V82.1381C81 83.2426 80.1046 84.1381 79 84.1381C77.8954 84.1381 77 83.2426 77 82.1381V78.1381H73C71.8954 78.1381 71 77.2426 71 76.1381C71 75.0335 71.8954 74.1381 73 74.1381H77V70.1381C77 69.0335 77.8954 68.1381 79 68.1381Z" fill="#67B930"/>
<path fill-rule="evenodd" clip-rule="evenodd" d="M79 93C88.3888 93 96 85.3888 96 76C96 66.6112 88.3888 59 79 59C69.6112 59 62 66.6112 62 76C62 85.3888 69.6112 93 79 93ZM79 89C86.1797 89 92 83.1797 92 76C92 68.8203 86.1797 63 79 63C71.8203 63 66 68.8203 66 76C66 83.1797 71.8203 89 79 89Z" fill="#67B930"/>
</g>
<defs>
<clipPath id="clip0">
<rect width="120" height="120" fill="white"/>
</clipPath>
</defs>
</svg>
