<svg width="90" height="90" viewBox="0 0 90 90" fill="none" xmlns="http://www.w3.org/2000/svg">
<g clip-path="url(#clip0)">
<path d="M77.2214 82.8948L61.3125 66.9858L45.4036 82.8948L36.9177 74.4089L52.8267 58.5L36.9177 42.5911L45.4036 34.1052L61.3125 50.0142L77.2214 34.1052L85.7073 42.5911L69.7983 58.5L85.7073 74.4089L77.2214 82.8948ZM61.3125 62.7437L77.2214 78.6526L81.4651 74.4089L65.5562 58.5L81.4651 42.5911L77.2214 38.3474L61.3125 54.2563L45.4036 38.3474L41.1599 42.5911L57.0688 58.5L41.1599 74.4089L45.4036 78.6526L61.3125 62.7437Z" fill="#67B930"/>
<path d="M67.3125 42V0H23.1914L4.3125 18.8789V90H67.3125V75H64.3125V87H7.3125V21H25.3125V3H64.3125V42H67.3125ZM9.43359 18L22.3125 5.12109V18H9.43359Z" fill="#23AAEA"/>
<path d="M31.3125 12H34.3125V15H31.3125V12Z" fill="#23AAEA"/>
<path d="M37.3125 12H58.3125V15H37.3125V12Z" fill="#23AAEA"/>
<path d="M31.3125 18H34.3125V21H31.3125V18Z" fill="#23AAEA"/>
<path d="M37.3125 18H58.3125V21H37.3125V18Z" fill="#23AAEA"/>
<path d="M13.3125 45H16.3125V48H13.3125V45Z" fill="#23AAEA"/>
<path d="M19.3125 45H34.3125V48H19.3125V45Z" fill="#23AAEA"/>
<path d="M34.3125 42H13.3125V24H58.3125V40.5H55.3125V27H16.3125V39H34.3125V42Z" fill="#23AAEA"/>
</g>
<defs>
<clipPath id="clip0">
<rect width="90" height="90" fill="white"/>
</clipPath>
</defs>
</svg>
