<svg width="120" height="120" viewBox="0 0 120 120" fill="none" xmlns="http://www.w3.org/2000/svg">
<g opacity="0.5" clip-path="url(#clip0)">
<path d="M38 27C29.1631 27 22 34.1631 22 43C22 51.8369 29.1631 59 38 59C46.8369 59 54 51.8369 54 43C53.9902 34.168 46.832 27.0098 38 27ZM38 55C31.3731 55 26 49.627 26 43C26 36.373 31.3731 31 38 31C44.627 31 50 36.373 50 43C49.9932 49.625 44.625 54.9932 38 55Z" fill="#23AAEA"/>
<path d="M116 81V17C115.993 11.4795 111.521 7.00684 106 7H14C8.47949 7.00684 4.00684 11.4795 4 17V65.2217C1.43555 67.8301 -0.000976065 71.3418 4.97581e-07 75V113H76V101H110C115.521 100.993 119.993 96.5205 120 91V81H116ZM14 11H106C109.313 11 112 13.6865 112 17V81H76V77H108V15H12V61.1602C10.6133 61.3594 9.26465 61.7666 8 62.3701V17C8 13.6865 10.6865 11 14 11ZM75.8398 73C74.8467 66.1182 68.9531 61.0078 62 61H16V19H104V73H75.8398ZM72 109H60V79H56V109H20V79H16V109H4V75C4.00684 69.4795 8.47949 65.0068 14 65H62C67.5205 65.0068 71.9932 69.4795 72 75V109ZM116 91C116 94.3135 113.313 97 110 97H76V85H116V91Z" fill="#23AAEA"/>
<path d="M82 41C76.4775 41 72 36.5225 72 31C72 25.4775 76.4775 21 82 21C87.5225 21 92 25.4775 92 31C91.9932 36.5205 87.5205 40.9932 82 41ZM82 25C78.6865 25 76 27.6865 76 31C76 34.3135 78.6865 37 82 37C85.3135 37 88 34.3135 88 31C88 27.6865 85.3135 25 82 25Z" fill="#67B930"/>
<path d="M90 43H74C68.4795 43.0068 64.0068 47.4795 64 53V59H68V53C68 49.6865 70.6865 47 74 47H90C93.3135 47 96 49.6865 96 53V65H100V53C99.9932 47.4795 95.5205 43.0068 90 43Z" fill="#67B930"/>
</g>
<defs>
<clipPath id="clip0">
<rect width="120" height="120" fill="white"/>
</clipPath>
</defs>
</svg>
