<svg width="84" height="40" viewBox="0 0 84 40" fill="none" xmlns="http://www.w3.org/2000/svg">
<path fill-rule="evenodd" clip-rule="evenodd" d="M84 19.7647C84 29.9876 76.7944 39.5294 66.1379 39.5294C54.069 39.5294 48.5131 31.8442 44.2798 26.1772C44.0965 25.9318 43.916 25.6901 43.7379 25.4531C43.258 24.8141 43.3877 23.9076 44.0276 23.4284C44.6675 22.9492 45.5753 23.0787 46.0552 23.7177C46.2045 23.9165 46.3544 24.1167 46.5052 24.318C50.7954 30.0474 55.7297 36.637 66.1379 36.637C74.7918 36.637 81.1034 28.8245 81.1034 19.7647C81.1034 9.85115 73.9248 2.8924 66.1379 2.8924C60.372 2.8924 55.7658 5.64852 51.9993 9.29385C48.7555 12.4334 46.2403 16.1226 44.192 19.1271C43.8453 19.6356 43.512 20.1246 43.1908 20.5879C42.8886 21.0238 42.5688 21.4934 42.2308 21.9897C40.1917 24.9844 37.4925 28.9484 34.0166 32.3125C29.9382 36.2597 24.6479 39.5294 17.8621 39.5294C8.26962 39.5294 0 31.0621 0 19.7647C0 9.54186 7.20564 7.62939e-06 17.8621 7.62939e-06C29.746 7.62939e-06 35.4869 7.68527 39.7202 13.3522C39.9035 13.5977 40.084 13.8393 40.2621 14.0763C40.742 14.7153 40.6123 15.6218 39.9724 16.101C39.3325 16.5802 38.4247 16.4507 37.9448 15.8118C37.7955 15.6129 37.6456 15.4127 37.4949 15.2114C33.2046 9.48206 28.2703 2.8924 17.8621 2.8924C9.20816 2.8924 2.89655 10.7049 2.89655 19.7647C2.89655 29.6783 10.0752 36.637 17.8621 36.637C23.628 36.637 28.2342 33.8809 32.0007 30.2356C35.2445 27.096 37.7597 23.4068 39.808 20.4023C40.1547 19.8938 40.488 19.4048 40.8092 18.9415C41.1114 18.5056 41.4312 18.036 41.7692 17.5397C43.8083 14.545 46.5075 10.581 49.9834 7.21692C54.0618 3.26971 59.3521 7.62939e-06 66.1379 7.62939e-06C75.7304 7.62939e-06 84 8.46737 84 19.7647Z" fill="#2A58AD"/>
</svg>
