<svg width="160" height="38" viewBox="0 0 160 38" fill="none" xmlns="http://www.w3.org/2000/svg">
<rect x="0.5" y="0.5" width="159" height="37" rx="2.5" fill="white"/>
<rect x="0.5" y="0.5" width="159" height="37" rx="2.5" fill="url(#paint0_linear)"/>
<rect x="0.5" y="0.5" width="159" height="37" rx="2.5" stroke="#C8D0D9"/>
<path d="M42.1105 23.9998H37.2465V13.3278H41.9985C42.9159 13.3278 43.6412 13.5784 44.1745 14.0798C44.7185 14.5811 44.9905 15.2371 44.9905 16.0478C44.9905 16.6878 44.8092 17.2318 44.4465 17.6798C44.0839 18.1171 43.6412 18.3891 43.1185 18.4958C43.6839 18.5811 44.1692 18.8798 44.5745 19.3918C44.9905 19.9038 45.1985 20.4798 45.1985 21.1198C45.1985 21.9838 44.9212 22.6824 44.3665 23.2158C43.8225 23.7384 43.0705 23.9998 42.1105 23.9998ZM41.7745 17.9518C42.3612 17.9518 42.8145 17.7918 43.1345 17.4718C43.4545 17.1518 43.6145 16.7411 43.6145 16.2398C43.6145 15.7384 43.4492 15.3278 43.1185 15.0078C42.7985 14.6771 42.3505 14.5118 41.7745 14.5118H38.5745V17.9518H41.7745ZM41.8385 22.8158C42.4572 22.8158 42.9425 22.6504 43.2945 22.3198C43.6465 21.9891 43.8225 21.5411 43.8225 20.9758C43.8225 20.4531 43.6465 20.0158 43.2945 19.6638C42.9532 19.3118 42.4679 19.1358 41.8385 19.1358H38.5745V22.8158H41.8385ZM51.069 24.1918C49.981 24.1918 49.1117 23.7384 48.461 22.8318V26.9438H47.261V16.2718H48.461V17.4238C48.749 17.0184 49.1224 16.6931 49.581 16.4478C50.0397 16.2024 50.5357 16.0798 51.069 16.0798C52.093 16.0798 52.9197 16.4478 53.549 17.1838C54.189 17.9091 54.509 18.8904 54.509 20.1278C54.509 21.3651 54.189 22.3518 53.549 23.0878C52.9197 23.8238 52.093 24.1918 51.069 24.1918ZM50.765 23.1198C51.5224 23.1198 52.125 22.8424 52.573 22.2878C53.021 21.7224 53.245 21.0024 53.245 20.1278C53.245 19.2531 53.021 18.5384 52.573 17.9838C52.125 17.4291 51.5224 17.1518 50.765 17.1518C50.3064 17.1518 49.8584 17.2744 49.421 17.5198C48.9944 17.7544 48.6744 18.0424 48.461 18.3838V21.8718C48.6744 22.2238 48.9944 22.5224 49.421 22.7678C49.8584 23.0024 50.3064 23.1198 50.765 23.1198ZM59.9053 24.1918C58.7533 24.1918 57.8093 23.8184 57.0733 23.0718C56.3373 22.3144 55.9693 21.3331 55.9693 20.1278C55.9693 18.9971 56.332 18.0424 57.0573 17.2638C57.7826 16.4744 58.6893 16.0798 59.7773 16.0798C60.9186 16.0798 61.82 16.4744 62.4813 17.2638C63.1533 18.0424 63.4893 19.0291 63.4893 20.2238V20.5278H57.2333C57.2866 21.2851 57.564 21.9198 58.0653 22.4318C58.5666 22.9438 59.2173 23.1998 60.0173 23.1998C60.9773 23.1998 61.772 22.8744 62.4013 22.2238L62.9773 23.0078C62.188 23.7971 61.164 24.1918 59.9053 24.1918ZM62.3053 19.6478C62.2946 18.9864 62.0706 18.3944 61.6333 17.8718C61.196 17.3384 60.572 17.0718 59.7613 17.0718C58.9933 17.0718 58.3853 17.3331 57.9373 17.8558C57.5 18.3784 57.2653 18.9758 57.2333 19.6478H62.3053ZM73.3209 23.9998H72.1209V17.9358L69.6089 23.9998H69.1609L66.6329 17.9358V23.9998H65.4329V16.2718H67.0169L69.3849 21.9998L71.7209 16.2718H73.3209V23.9998ZM76.8662 23.9998H75.4582L77.5222 20.9598C76.9355 20.8851 76.4555 20.6398 76.0822 20.2238C75.7195 19.8078 75.5382 19.2798 75.5382 18.6398C75.5382 17.9571 75.7568 17.3918 76.1942 16.9438C76.6315 16.4958 77.2288 16.2718 77.9862 16.2718H82.0662V23.9998H80.8662V21.0078H78.7542L76.8662 23.9998ZM78.1142 19.9518H80.8662V17.3278H78.1142C77.6982 17.3278 77.3675 17.4504 77.1222 17.6958C76.8875 17.9304 76.7702 18.2451 76.7702 18.6398C76.7702 19.0344 76.8875 19.3544 77.1222 19.5998C77.3568 19.8344 77.6875 19.9518 78.1142 19.9518Z" fill="#6F7B8E"/>
<path d="M90.4772 17.7758H89.7412L89.8212 15.9358L88.2852 16.9438L87.9332 16.3038L89.5652 15.4718L87.9332 14.6398L88.2852 14.0158L89.8212 15.0078L89.7412 13.1678H90.4772L90.3812 15.0078L91.9172 14.0158L92.2852 14.6398L90.6532 15.4718L92.2852 16.3038L91.9172 16.9438L90.3812 15.9358L90.4772 17.7758Z" fill="#67B930"/>
<path d="M18 20C17.5858 20 17.25 19.6642 17.25 19.25V15.25C17.25 14.8358 17.5858 14.5 18 14.5C18.4142 14.5 18.75 14.8358 18.75 15.25V18.5H20.5C20.9142 18.5 21.25 18.8358 21.25 19.25C21.25 19.6642 20.9142 20 20.5 20H18Z" fill="#6F7B8E"/>
<path fill-rule="evenodd" clip-rule="evenodd" d="M18 27C22.4183 27 26 23.4183 26 19C26 14.5817 22.4183 11 18 11C13.5817 11 10 14.5817 10 19C10 23.4183 13.5817 27 18 27ZM18 25.5C21.5899 25.5 24.5 22.5899 24.5 19C24.5 15.4101 21.5899 12.5 18 12.5C14.4101 12.5 11.5 15.4101 11.5 19C11.5 22.5899 14.4101 25.5 18 25.5Z" fill="#6F7B8E"/>
<defs>
<linearGradient id="paint0_linear" x1="80" y1="0" x2="80" y2="38" gradientUnits="userSpaceOnUse">
<stop stop-color="white"/>
<stop offset="1" stop-color="white" stop-opacity="0"/>
</linearGradient>
</defs>
</svg>
