<svg width="350" height="38" viewBox="0 0 350 38" fill="none" xmlns="http://www.w3.org/2000/svg">
<rect x="0.5" y="0.5" width="349" height="37" rx="2.5" fill="white"/>
<rect x="0.5" y="0.5" width="349" height="37" rx="2.5" fill="url(#paint0_linear)"/>
<rect x="0.5" y="0.5" width="349" height="37" rx="2.5" stroke="#C8D0D9"/>
<path d="M22.1025 23.9998H20.7745V22.9598C19.2385 22.8531 18.0279 22.4158 17.1425 21.6478C16.2572 20.8798 15.8145 19.8878 15.8145 18.6718C15.8145 17.4664 16.2572 16.4798 17.1425 15.7118C18.0279 14.9438 19.2385 14.5064 20.7745 14.3998V13.3278H22.1025V14.3998C23.6279 14.5064 24.8385 14.9491 25.7345 15.7278C26.6305 16.4958 27.0785 17.4771 27.0785 18.6718C27.0785 19.8878 26.6305 20.8798 25.7345 21.6478C24.8492 22.4158 23.6385 22.8531 22.1025 22.9598V23.9998ZM24.7425 20.7838C25.3825 20.2291 25.7025 19.5251 25.7025 18.6718C25.7025 17.8184 25.3825 17.1144 24.7425 16.5598C24.1025 16.0051 23.2225 15.6798 22.1025 15.5838V21.7598C23.2225 21.6638 24.1025 21.3384 24.7425 20.7838ZM18.1345 16.5598C17.5052 17.1144 17.1905 17.8184 17.1905 18.6718C17.1905 19.5251 17.5052 20.2291 18.1345 20.7838C18.7745 21.3384 19.6545 21.6638 20.7745 21.7598V15.5838C19.6545 15.6798 18.7745 16.0051 18.1345 16.5598ZM35.1212 23.9998H33.9212V23.1198C33.2705 23.8344 32.4172 24.1918 31.3612 24.1918C30.6465 24.1918 30.0172 23.9624 29.4732 23.5038C28.9292 23.0451 28.6572 22.4211 28.6572 21.6318C28.6572 20.8211 28.9238 20.1971 29.4572 19.7598C30.0012 19.3118 30.6358 19.0878 31.3612 19.0878C32.4598 19.0878 33.3132 19.4398 33.9212 20.1438V18.7518C33.9212 18.2398 33.7398 17.8398 33.3772 17.5518C33.0145 17.2638 32.5452 17.1198 31.9692 17.1198C31.0625 17.1198 30.2732 17.4771 29.6012 18.1918L29.0412 17.3598C29.8625 16.5064 30.8918 16.0798 32.1292 16.0798C33.0145 16.0798 33.7345 16.2931 34.2892 16.7198C34.8438 17.1464 35.1212 17.8024 35.1212 18.6878V23.9998ZM31.7932 23.3278C32.7532 23.3278 33.4625 23.0078 33.9212 22.3678V20.9118C33.4625 20.2718 32.7532 19.9518 31.7932 19.9518C31.2385 19.9518 30.7798 20.1118 30.4172 20.4318C30.0652 20.7411 29.8892 21.1464 29.8892 21.6478C29.8892 22.1384 30.0652 22.5438 30.4172 22.8638C30.7798 23.1731 31.2385 23.3278 31.7932 23.3278ZM45.4147 23.9998H44.2147V17.9358L41.7027 23.9998H41.2547L38.7267 17.9358V23.9998H37.5267V16.2718H39.1107L41.4787 21.9998L43.8147 16.2718H45.4147V23.9998ZM48.9599 23.9998H47.8079V16.2718H49.0079V22.1758L53.0559 16.2718H54.2399V23.9998H53.0399V17.9838L48.9599 23.9998ZM55.724 24.1918V23.1998C56.0867 23.1998 56.3854 22.9598 56.62 22.4798C56.8547 21.9998 57.0467 21.1998 57.196 20.0798L57.692 16.2718H63.068V23.9998H61.868V17.3278H58.748L58.396 20.2238C58.2254 21.6424 57.9267 22.6611 57.5 23.2798C57.0734 23.8878 56.4814 24.1918 55.724 24.1918ZM66.6162 23.9998H65.4642V16.2718H66.6642V22.1758L70.7122 16.2718H71.8962V23.9998H70.6962V17.9838L66.6162 23.9998ZM75.4443 23.9998H74.0363L76.1003 20.9598C75.5136 20.8851 75.0336 20.6398 74.6603 20.2238C74.2976 19.8078 74.1163 19.2798 74.1163 18.6398C74.1163 17.9571 74.335 17.3918 74.7723 16.9438C75.2096 16.4958 75.807 16.2718 76.5643 16.2718H80.6443V23.9998H79.4443V21.0078H77.3323L75.4443 23.9998ZM76.6923 19.9518H79.4443V17.3278H76.6923C76.2763 17.3278 75.9456 17.4504 75.7003 17.6958C75.4656 17.9304 75.3483 18.2451 75.3483 18.6398C75.3483 19.0344 75.4656 19.3544 75.7003 19.5998C75.935 19.8344 76.2656 19.9518 76.6923 19.9518Z" fill="#6F7B8E"/>
<path d="M89.2793 18.1438H88.2713L88.3513 16.3838L86.8633 17.3278L86.3673 16.4638L87.9193 15.6638L86.3673 14.8638L86.8633 13.9838L88.3513 14.9278L88.2713 13.1678H89.2793L89.1993 14.9278L90.6713 13.9838L91.1833 14.8638L89.6313 15.6638L91.1833 16.4638L90.6713 17.3278L89.1993 16.3838L89.2793 18.1438Z" fill="#67B930"/>
<defs>
<linearGradient id="paint0_linear" x1="175" y1="0" x2="175" y2="38" gradientUnits="userSpaceOnUse">
<stop stop-color="white"/>
<stop offset="1" stop-color="white" stop-opacity="0"/>
</linearGradient>
</defs>
</svg>
