<svg width="160" height="38" viewBox="0 0 160 38" fill="none" xmlns="http://www.w3.org/2000/svg">
<rect x="0.5" y="0.5" width="159" height="37" rx="2.5" fill="white"/>
<rect x="0.5" y="0.5" width="159" height="37" rx="2.5" fill="url(#paint0_linear)"/>
<rect x="0.5" y="0.5" width="159" height="37" rx="2.5" stroke="#C8D0D9"/>
<path d="M46.5105 25.9678V22.9278C46.9799 22.8958 47.3532 22.7838 47.6305 22.5918C47.9079 22.3998 48.1585 21.9944 48.3825 21.3758C48.6172 20.7571 48.8092 19.8611 48.9585 18.6878L49.6145 13.3278H56.1425V22.8158H57.1185V25.9678H55.7905V23.9998H47.8385V25.9678H46.5105ZM50.2705 18.7838C50.0252 20.8424 49.4812 22.1864 48.6385 22.8158H54.8145V14.5118H50.7985L50.2705 18.7838ZM64.793 23.9998H63.593V23.1198C62.9424 23.8344 62.089 24.1918 61.033 24.1918C60.3184 24.1918 59.689 23.9624 59.145 23.5038C58.601 23.0451 58.329 22.4211 58.329 21.6318C58.329 20.8211 58.5957 20.1971 59.129 19.7598C59.673 19.3118 60.3077 19.0878 61.033 19.0878C62.1317 19.0878 62.985 19.4398 63.593 20.1438V18.7518C63.593 18.2398 63.4117 17.8398 63.049 17.5518C62.6864 17.2638 62.217 17.1198 61.641 17.1198C60.7344 17.1198 59.945 17.4771 59.273 18.1918L58.713 17.3598C59.5344 16.5064 60.5637 16.0798 61.801 16.0798C62.6864 16.0798 63.4064 16.2931 63.961 16.7198C64.5157 17.1464 64.793 17.8024 64.793 18.6878V23.9998ZM61.465 23.3278C62.425 23.3278 63.1344 23.0078 63.593 22.3678V20.9118C63.1344 20.2718 62.425 19.9518 61.465 19.9518C60.9104 19.9518 60.4517 20.1118 60.089 20.4318C59.737 20.7411 59.561 21.1464 59.561 21.6478C59.561 22.1384 59.737 22.5438 60.089 22.8638C60.4517 23.1731 60.9104 23.3278 61.465 23.3278ZM69.8065 23.9998H68.6065V17.3278H66.3665V16.2718H72.0625V17.3278H69.8065V23.9998ZM79.668 23.9998H78.468V23.1198C77.8174 23.8344 76.964 24.1918 75.908 24.1918C75.1934 24.1918 74.564 23.9624 74.02 23.5038C73.476 23.0451 73.204 22.4211 73.204 21.6318C73.204 20.8211 73.4707 20.1971 74.004 19.7598C74.548 19.3118 75.1827 19.0878 75.908 19.0878C77.0067 19.0878 77.86 19.4398 78.468 20.1438V18.7518C78.468 18.2398 78.2867 17.8398 77.924 17.5518C77.5614 17.2638 77.092 17.1198 76.516 17.1198C75.6094 17.1198 74.82 17.4771 74.148 18.1918L73.588 17.3598C74.4094 16.5064 75.4387 16.0798 76.676 16.0798C77.5614 16.0798 78.2814 16.2931 78.836 16.7198C79.3907 17.1464 79.668 17.8024 79.668 18.6878V23.9998ZM76.34 23.3278C77.3 23.3278 78.0094 23.0078 78.468 22.3678V20.9118C78.0094 20.2718 77.3 19.9518 76.34 19.9518C75.7854 19.9518 75.3267 20.1118 74.964 20.4318C74.612 20.7411 74.436 21.1464 74.436 21.6478C74.436 22.1384 74.612 22.5438 74.964 22.8638C75.3267 23.1731 75.7854 23.3278 76.34 23.3278Z" fill="#6F7B8E"/>
<path d="M88.0865 17.7758H87.3505L87.4305 15.9358L85.8945 16.9438L85.5425 16.3038L87.1745 15.4718L85.5425 14.6398L85.8945 14.0158L87.4305 15.0078L87.3505 13.1678H88.0865L87.9905 15.0078L89.5265 14.0158L89.8945 14.6398L88.2625 15.4718L89.8945 16.3038L89.5265 16.9438L87.9905 15.9358L88.0865 17.7758Z" fill="#67B930"/>
<path fill-rule="evenodd" clip-rule="evenodd" d="M18.25 11.75V13H18C16.8954 13 16 13.8954 16 15V25C16 26.1046 16.8954 27 18 27H28C29.1046 27 30 26.1046 30 25V15C30 13.8954 29.1046 13 28 13H27.75V11.75C27.75 11.3358 27.4142 11 27 11C26.5858 11 26.25 11.3358 26.25 11.75V13H19.75V11.75C19.75 11.3358 19.4142 11 19 11C18.5858 11 18.25 11.3358 18.25 11.75ZM18 14.5H28C28.2761 14.5 28.5 14.7239 28.5 15V16.25H17.5V15C17.5 14.7239 17.7239 14.5 18 14.5ZM17.5 17.75V25C17.5 25.2761 17.7239 25.5 18 25.5H28C28.2761 25.5 28.5 25.2761 28.5 25V17.75H17.5Z" fill="#6F7B8E"/>
<defs>
<linearGradient id="paint0_linear" x1="80" y1="0" x2="80" y2="38" gradientUnits="userSpaceOnUse">
<stop stop-color="white"/>
<stop offset="1" stop-color="white" stop-opacity="0"/>
</linearGradient>
</defs>
</svg>
