<svg width="160" height="59" viewBox="0 0 160 59" fill="none" xmlns="http://www.w3.org/2000/svg">
<path fill-rule="evenodd" clip-rule="evenodd" d="M62.5695 17.4227V17.4412C62.5695 18.5365 61.8725 19.4468 60.91 19.7951V28.3779C60.91 31.1239 59.594 33.5367 57.5877 35.0729C57.5877 35.0847 57.591 35.0965 57.591 35.1082C57.591 36.9675 56.1058 38.4734 54.2721 38.4734C54.0895 38.4734 53.912 38.4481 53.7361 38.4179C52.762 41.4869 50.4835 43.8509 47.6342 44.7494V45.2037C47.6342 46.1325 46.8907 46.8863 45.9747 46.8863H44.3152C43.3992 46.8863 42.6557 46.1325 42.6557 45.2037V25.0128C42.6557 24.084 43.3992 23.3302 44.3152 23.3302H45.9747C46.8907 23.3302 47.6342 24.084 47.6342 25.0128V25.4654C49.4413 26.0408 51.0145 27.2069 52.1728 28.7733C51.8144 25.6791 51.222 22.6976 50.3806 19.8927C49.2223 19.9247 48.1552 19.1776 47.8847 17.988L47.5114 16.3475C47.4765 16.1978 47.5064 16.0548 47.4997 15.905C42.5329 7.16402 35.4656 5.04772 28.7955 5.04772C22.1255 5.04772 15.0581 7.16402 10.0913 15.905C10.0847 16.0548 10.1145 16.1978 10.0797 16.3475L9.7063 17.988C9.43581 19.1776 8.36876 19.9247 7.21044 19.8927C6.36909 22.6976 5.77665 25.6791 5.4182 28.7733C6.57652 27.2069 8.14971 26.0408 9.95688 25.4654V25.0128C9.95688 24.084 10.7003 23.3302 11.6164 23.3302H13.2758C14.1919 23.3302 14.9353 24.084 14.9353 25.0128V45.2037C14.9353 46.1325 14.1919 46.8863 13.2758 46.8863H11.6164C10.7003 46.8863 9.95688 46.1325 9.95688 45.2037V44.7494C7.10755 43.8509 4.82909 41.4869 3.85497 38.4179C3.67907 38.4481 3.5015 38.4734 3.31896 38.4734C1.48523 38.4734 0 36.9675 0 35.1082C0 33.249 1.48523 31.7431 3.31896 31.7431C3.38036 31.7431 3.43844 31.7565 3.49984 31.7616C3.7637 27.3802 4.50715 23.1973 5.6887 19.3206C5.00499 18.7284 4.63991 17.8013 4.85564 16.8523L5.22902 15.2118C5.53769 13.859 6.86527 13.016 8.20115 13.3206C13.4036 3.13762 21.4443 0 28.7955 0C36.1467 0 44.1874 3.13762 49.3899 13.3206C50.7258 13.016 52.0534 13.859 52.362 15.2118L52.7354 16.8523C52.9511 17.8013 52.586 18.7284 51.9023 19.3206C53.0839 23.1973 53.8273 27.3802 54.0912 31.7616C54.1526 31.7565 54.2107 31.7431 54.2721 31.7431C55.4586 31.7431 56.4908 32.3791 57.0783 33.3281C58.4042 32.0964 59.2505 30.3449 59.2505 28.3779V19.7951C58.288 19.4468 57.591 18.5365 57.591 17.4412V17.4227C56.5887 16.6537 55.9316 15.4473 55.9316 14.076V9.02832C55.9316 6.70468 57.7885 4.82188 60.0803 4.82188C62.372 4.82188 64.229 6.70468 64.229 9.02832V14.076C64.229 15.4473 63.5718 16.6537 62.5695 17.4227Z" fill="#67B930"/>
<path d="M21.5632 58.2389V53.9112L25.3963 53.1693V24.9976L21.5632 24.2557V19.9033H25.3963H32.6173H36.4751V24.2557L32.6173 24.9976V52.6995H44.8914L45.2376 49.3963H50.7523V58.2389H21.5632Z" fill="#0C2947"/>
<path d="M67.6558 58.6717C64.441 58.6717 61.8719 57.6413 59.9485 55.5805C58.0251 53.5197 57.0634 50.9025 57.0634 47.7288V46.9045C57.0634 43.5935 57.9701 40.8664 59.7836 38.7232C61.6108 36.58 64.0563 35.5152 67.12 35.5289C70.1288 35.5289 72.4644 36.4357 74.1267 38.2492C75.7891 40.0627 76.6203 42.515 76.6203 45.6062V48.8829H63.3076L63.2663 49.0065C63.3763 50.4766 63.864 51.6856 64.7295 52.6335C65.6088 53.5815 66.7972 54.0555 68.2947 54.0555C69.6273 54.0555 70.7333 53.925 71.6126 53.6639C72.4918 53.3892 73.4535 52.9633 74.4977 52.3862L76.1257 56.0957C75.2052 56.8238 74.0099 57.4352 72.5399 57.9298C71.0836 58.4244 69.4556 58.6717 67.6558 58.6717ZM67.12 40.1657C66.0072 40.1657 65.1279 40.5916 64.4822 41.4434C63.8365 42.2952 63.4381 43.4149 63.287 44.8025L63.3488 44.9056H70.7264V44.3698C70.7264 43.0921 70.4242 42.0754 69.8197 41.3198C69.2289 40.5504 68.329 40.1657 67.12 40.1657Z" fill="#0C2947"/>
<path d="M78.8459 29.7175V26.0905H88.0577V44.7201H89.3972L92.8593 39.836L90.9016 39.5681V35.9411H101.865V39.5681L99.2272 40.1657L95.2086 45.6887L100.835 54.1585L103.122 54.6325V58.2389H92.8181V54.6325L94.0546 54.4264L90.6337 48.9035H88.0577V54.0143L90.6543 54.6325V58.2389H79.1551V54.6325L82.0608 54.0143V30.3357L78.8459 29.7175Z" fill="#0C2947"/>
<path d="M114.127 30.48V35.9411H118.042V40.1657H114.127V51.5207C114.127 52.3862 114.305 53.0045 114.663 53.3754C115.02 53.7464 115.501 53.9318 116.105 53.9318C116.517 53.9318 116.874 53.9181 117.177 53.8906C117.493 53.8494 117.843 53.7876 118.228 53.7052L118.743 58.0534C118.07 58.2595 117.403 58.4106 116.744 58.5068C116.084 58.6167 115.37 58.6717 114.601 58.6717C112.526 58.6717 110.926 58.1015 109.799 56.9612C108.686 55.8209 108.13 54.0143 108.13 51.5413V40.1657H104.853V35.9411H108.13V30.48H114.127Z" fill="#0C2947"/>
<path d="M120.371 46.8839C120.371 43.5592 121.298 40.8389 123.153 38.7232C125.021 36.5937 127.597 35.5289 130.881 35.5289C134.178 35.5289 136.754 36.5868 138.609 38.7026C140.477 40.8183 141.412 43.5454 141.412 46.8839V47.3167C141.412 50.6689 140.477 53.4029 138.609 55.5186C136.754 57.6207 134.192 58.6717 130.922 58.6717C127.611 58.6717 125.021 57.6207 123.153 55.5186C121.298 53.4029 120.371 50.6689 120.371 47.3167V46.8839ZM126.388 47.3167C126.388 49.35 126.746 50.9849 127.46 52.2214C128.174 53.4441 129.329 54.0555 130.922 54.0555C132.475 54.0555 133.608 53.4372 134.323 52.2008C135.051 50.9643 135.415 49.3363 135.415 47.3167V46.8839C135.415 44.9056 135.051 43.2913 134.323 42.0411C133.594 40.7908 132.447 40.1657 130.881 40.1657C129.315 40.1657 128.174 40.7908 127.46 42.0411C126.746 43.2913 126.388 44.9056 126.388 46.8839V47.3167Z" fill="#0C2947"/>
<path d="M144.482 54.6325L147.367 54.0143V40.1863L144.173 39.5681V35.9411H152.973L153.241 39.1972C153.763 38.0431 154.436 37.1432 155.26 36.4975C156.085 35.8518 157.039 35.5289 158.125 35.5289C158.441 35.5289 158.77 35.5564 159.114 35.6114C159.471 35.6526 159.766 35.7075 160 35.7762L159.361 41.258L156.888 41.1961C156.009 41.1961 155.281 41.3679 154.704 41.7113C154.127 42.0548 153.687 42.5425 153.385 43.1745V54.0143L156.27 54.6325V58.2389H144.482V54.6325Z" fill="#0C2947"/>
</svg>
