<svg width="22" height="22" viewBox="0 0 22 22" fill="none" xmlns="http://www.w3.org/2000/svg">
<path d="M15.2071 6.79289C14.8166 6.40237 14.1834 6.40237 13.7929 6.79289L14.415 7.41502C13.7929 6.79289 13.7929 6.79285 13.7929 6.79289L11 9.58579L8.20711 6.79289C7.81658 6.40237 7.18342 6.40237 6.79289 6.79289C6.40237 7.18342 6.40237 7.81658 6.79289 8.20711L9.58579 11L6.79289 13.7929C6.40237 14.1834 6.40237 14.8166 6.79289 15.2071C7.18342 15.5976 7.81658 15.5976 8.20711 15.2071L11 12.4142L13.7927 15.2069C13.7927 15.2069 13.7929 15.2071 14.415 14.585L13.7927 15.2069C14.1832 15.5974 14.8166 15.5976 15.2071 15.2071C15.5976 14.8166 15.5976 14.1834 15.2071 13.7929L12.4142 11L15.2069 8.20735C15.5974 7.81682 15.5976 7.18342 15.2071 6.79289Z" fill="#E64A19"/>
</svg>
