<svg width="14" height="15" viewBox="0 0 14 15" fill="none" xmlns="http://www.w3.org/2000/svg">
<path d="M13.6102 9.49011C13.8623 8.76857 13.9998 7.99372 13.9998 7.18722C13.9998 6.38073 13.8623 5.60587 13.6102 4.88434C13.604 4.86266 13.5968 4.84152 13.5879 4.82119C12.6157 2.12228 10.0297 0.187256 6.9999 0.187256C3.97013 0.187256 1.38407 2.12228 0.411877 4.82119C0.403047 4.84159 0.395688 4.86266 0.389601 4.88434C0.137538 5.60587 0 6.38073 0 7.18722C0 7.99372 0.137538 8.76857 0.389601 9.49011C0.395755 9.51178 0.403047 9.53292 0.411877 9.55326C1.38414 12.2522 3.97013 14.1872 6.9999 14.1872C10.0297 14.1872 12.6157 12.2522 13.5879 9.55326C13.5968 9.53292 13.604 9.51185 13.6102 9.49011ZM6.9999 13.1838C6.73332 13.1838 6.30351 12.7014 5.94429 11.6235C5.77089 11.1034 5.63208 10.5055 5.53094 9.85509H8.46886C8.36772 10.5055 8.22891 11.1034 8.05558 11.6235C7.69628 12.7014 7.26648 13.1838 6.9999 13.1838ZM5.40919 8.85165C5.36095 8.31662 5.33547 7.75844 5.33547 7.18722C5.33547 6.616 5.36095 6.05782 5.40919 5.52279H8.59055C8.63878 6.05782 8.66426 6.616 8.66426 7.18722C8.66426 7.75844 8.63878 8.31662 8.59055 8.85165H5.40919ZM1.00337 7.18729C1.00337 6.60998 1.08558 6.05153 1.23857 5.52286H4.40274C4.35585 6.06893 4.33203 6.62858 4.33203 7.18729C4.33203 7.746 4.35578 8.30565 4.40274 8.85172H1.23857C1.08558 8.32298 1.00337 7.7646 1.00337 7.18729ZM6.9999 1.19069C7.26648 1.19069 7.69635 1.67314 8.05558 2.75097C8.22891 3.27108 8.36778 3.86899 8.46886 4.51935H5.53087C5.63202 3.86893 5.77082 3.27108 5.94422 2.75097C6.30351 1.67314 6.73332 1.19069 6.9999 1.19069ZM9.59699 5.52286H12.7612C12.9141 6.05153 12.9964 6.60998 12.9964 7.18729C12.9964 7.7646 12.9141 8.32304 12.7612 8.85172H9.59699C9.64389 8.30565 9.6677 7.746 9.6677 7.18729C9.6677 6.62858 9.64389 6.06893 9.59699 5.52286ZM12.3691 4.51942H9.48186C9.30339 3.28874 8.9972 2.18463 8.56767 1.39914C10.233 1.85062 11.6128 3.0033 12.3691 4.51942ZM5.43207 1.39907C5.00253 2.18456 4.69635 3.28867 4.51787 4.51942H1.63065C2.38704 3.0033 3.7667 1.85062 5.43207 1.39907ZM1.63065 9.85509H4.51787C4.69635 11.0858 5.00253 12.1899 5.43207 12.9754C3.7667 12.5239 2.38704 11.3713 1.63065 9.85509ZM8.56767 12.9754C8.9972 12.1899 9.30339 11.0858 9.48186 9.85509H12.3691C11.6128 11.3713 10.233 12.5239 8.56767 12.9754Z" fill="#121B1B"/>
</svg>
