<svg width="45" height="41" viewBox="0 0 45 41" fill="none" xmlns="http://www.w3.org/2000/svg">
<path fill-rule="evenodd" clip-rule="evenodd" d="M43.0165 11.9871V11.9998C43.0165 12.7534 42.5373 13.3797 41.8756 13.6193V19.5244C41.8756 21.4137 40.9709 23.0738 39.5916 24.1307C39.5916 24.1388 39.5938 24.1469 39.5938 24.155C39.5938 25.4342 38.5727 26.4703 37.3121 26.4703C37.1866 26.4703 37.0645 26.4529 36.9435 26.4321C36.2738 28.5436 34.7074 30.1701 32.7485 30.7882V31.1008C32.7485 31.7398 32.2374 32.2584 31.6076 32.2584H30.4667C29.8369 32.2584 29.3258 31.7398 29.3258 31.1008V17.2092C29.3258 16.5702 29.8369 16.0515 30.4667 16.0515H31.6076C32.2374 16.0515 32.7485 16.5702 32.7485 17.2092V17.5206C33.9909 17.9165 35.0725 18.7187 35.8688 19.7965C35.6224 17.6676 35.2151 15.6163 34.6367 13.6865C33.8403 13.7085 33.1067 13.1945 32.9208 12.376L32.6641 11.2473C32.6401 11.1443 32.6606 11.0459 32.6561 10.9429C29.2414 4.92896 24.3826 3.47291 19.7969 3.47291C15.2112 3.47291 10.3525 4.92896 6.93777 10.9429C6.93321 11.0459 6.95374 11.1443 6.92978 11.2473L6.67308 12.376C6.48712 13.1945 5.75352 13.7085 4.95718 13.6865C4.37875 15.6163 3.97145 17.6676 3.72502 19.7965C4.52136 18.7187 5.60292 17.9165 6.84536 17.5206V17.2092C6.84536 16.5702 7.35648 16.0515 7.98625 16.0515H9.12714C9.75692 16.0515 10.268 16.5702 10.268 17.2092V31.1008C10.268 31.7398 9.75692 32.2584 9.12714 32.2584H7.98625C7.35648 32.2584 6.84536 31.7398 6.84536 31.1008V30.7882C4.88644 30.1701 3.32 28.5436 2.65029 26.4321C2.52936 26.4529 2.40728 26.4703 2.28179 26.4703C1.0211 26.4703 0 25.4342 0 24.155C0 22.8758 1.0211 21.8397 2.28179 21.8397C2.324 21.8397 2.36393 21.849 2.40614 21.8524C2.58754 18.838 3.09866 15.9601 3.91098 13.2929C3.44093 12.8854 3.18994 12.2475 3.33825 11.5946L3.59495 10.4659C3.80716 9.53519 4.71987 8.95522 5.63829 9.16475C9.21499 2.15873 14.743 0 19.7969 0C24.8509 0 30.3788 2.15873 33.9555 9.16475C34.874 8.95522 35.7867 9.53519 35.9989 10.4659L36.2556 11.5946C36.4039 12.2475 36.1529 12.8854 35.6829 13.2929C36.4952 15.9601 37.0063 18.838 37.1877 21.8524C37.2299 21.849 37.2698 21.8397 37.3121 21.8397C38.1278 21.8397 38.8374 22.2773 39.2413 22.9302C40.1529 22.0828 40.7347 20.8777 40.7347 19.5244V13.6193C40.073 13.3797 39.5938 12.7534 39.5938 11.9998V11.9871C38.9047 11.458 38.453 10.628 38.453 9.68453V6.21162C38.453 4.61292 39.7296 3.31753 41.3052 3.31753C42.8808 3.31753 44.1574 4.61292 44.1574 6.21162V9.68453C44.1574 10.628 43.7056 11.458 43.0165 11.9871Z" fill="#67B930"/>
<path d="M14.8247 40.0693V37.0918L17.4599 36.5814V17.1988L14.8247 16.6884V13.6938H17.4599H22.4244H25.0766V16.6884L22.4244 17.1988V36.2581H30.8628L31.1009 33.9855H34.8922V40.0693H14.8247Z" fill="white"/>
<path d="M14.8247 40.0693V37.0918L17.4599 36.5814V17.1988L14.8247 16.6884V13.6938H17.4599H22.4244H25.0766V16.6884L22.4244 17.1988V36.2581H30.8628L31.1009 33.9855H34.8922V40.0693H14.8247Z" fill="url(#paint0_linear)"/>
<defs>
<linearGradient id="paint0_linear" x1="24.8585" y1="13.6938" x2="24.8585" y2="40.0693" gradientUnits="userSpaceOnUse">
<stop stop-color="white"/>
<stop offset="1" stop-color="white" stop-opacity="0"/>
</linearGradient>
</defs>
</svg>
