<svg width="216" height="150" viewBox="0 0 216 150" fill="none" xmlns="http://www.w3.org/2000/svg">
<mask id="mask0" mask-type="alpha" maskUnits="userSpaceOnUse" x="0" y="0" width="216" height="150">
<rect x="0.522461" y="0.853516" width="215.477" height="149" fill="#C4C4C4"/>
</mask>
<g mask="url(#mask0)">
<path d="M2.07247 144.905C2.07247 144.794 1.98214 144.705 1.87071 144.705C1.75928 144.705 1.66895 144.794 1.66895 144.905C1.66895 145.015 1.75928 145.105 1.87071 145.105C1.98214 145.105 2.07247 145.015 2.07247 144.905Z" fill="#59C7BF"/>
<path d="M2.07247 130.3C2.07247 130.189 1.98214 130.1 1.87071 130.1C1.75928 130.1 1.66895 130.189 1.66895 130.3C1.66895 130.411 1.75928 130.5 1.87071 130.5C1.98214 130.5 2.07247 130.411 2.07247 130.3Z" fill="#59C7BF"/>
<path d="M2.07247 115.495C2.07247 115.385 1.98214 115.295 1.87071 115.295C1.75928 115.295 1.66895 115.385 1.66895 115.495C1.66895 115.606 1.75928 115.695 1.87071 115.695C1.98214 115.695 2.07247 115.606 2.07247 115.495Z" fill="#59C7BF"/>
<path d="M2.07247 100.69C2.07247 100.58 1.98214 100.49 1.87071 100.49C1.75928 100.49 1.66895 100.58 1.66895 100.69C1.66895 100.801 1.75928 100.89 1.87071 100.89C1.98214 100.89 2.07247 100.801 2.07247 100.69Z" fill="#59C7BF"/>
<path d="M2.07247 85.8852C2.07247 85.7747 1.98214 85.6851 1.87071 85.6851C1.75928 85.6851 1.66895 85.7747 1.66895 85.8852C1.66895 85.9958 1.75928 86.0854 1.87071 86.0854C1.98214 86.0854 2.07247 85.9958 2.07247 85.8852Z" fill="#59C7BF"/>
<path d="M2.07247 71.0801C2.07247 70.9696 1.98214 70.88 1.87071 70.88C1.75928 70.88 1.66895 70.9696 1.66895 71.0801C1.66895 71.1907 1.75928 71.2803 1.87071 71.2803C1.98214 71.2803 2.07247 71.1907 2.07247 71.0801Z" fill="#59C7BF"/>
<path d="M2.07247 56.4752C2.07247 56.3646 1.98214 56.275 1.87071 56.275C1.75928 56.275 1.66895 56.3646 1.66895 56.4752C1.66895 56.5857 1.75928 56.6753 1.87071 56.6753C1.98214 56.6753 2.07247 56.5857 2.07247 56.4752Z" fill="#59C7BF"/>
<path d="M2.07247 41.6707C2.07247 41.5601 1.98214 41.4705 1.87071 41.4705C1.75928 41.4705 1.66895 41.5601 1.66895 41.6707C1.66895 41.7812 1.75928 41.8708 1.87071 41.8708C1.98214 41.8708 2.07247 41.7812 2.07247 41.6707Z" fill="#59C7BF"/>
<path d="M2.07247 26.8652C2.07247 26.7547 1.98214 26.6651 1.87071 26.6651C1.75928 26.6651 1.66895 26.7547 1.66895 26.8652C1.66895 26.9758 1.75928 27.0654 1.87071 27.0654C1.98214 27.0654 2.07247 26.9758 2.07247 26.8652Z" fill="#59C7BF"/>
<path d="M2.07247 12.0604C2.07247 11.9499 1.98214 11.8603 1.87071 11.8603C1.75928 11.8603 1.66895 11.9499 1.66895 12.0604C1.66895 12.171 1.75928 12.2606 1.87071 12.2606C1.98214 12.2606 2.07247 12.171 2.07247 12.0604Z" fill="#59C7BF"/>
<path d="M17.0031 144.905C17.0031 144.794 16.9128 144.705 16.8014 144.705C16.6899 144.705 16.5996 144.794 16.5996 144.905C16.5996 145.015 16.6899 145.105 16.8014 145.105C16.9128 145.105 17.0031 145.015 17.0031 144.905Z" fill="#59C7BF"/>
<path d="M17.0031 130.3C17.0031 130.189 16.9128 130.1 16.8014 130.1C16.6899 130.1 16.5996 130.189 16.5996 130.3C16.5996 130.411 16.6899 130.5 16.8014 130.5C16.9128 130.5 17.0031 130.411 17.0031 130.3Z" fill="#59C7BF"/>
<path d="M17.0031 115.495C17.0031 115.385 16.9128 115.295 16.8014 115.295C16.6899 115.295 16.5996 115.385 16.5996 115.495C16.5996 115.606 16.6899 115.695 16.8014 115.695C16.9128 115.695 17.0031 115.606 17.0031 115.495Z" fill="#59C7BF"/>
<path d="M17.0031 100.69C17.0031 100.58 16.9128 100.49 16.8014 100.49C16.6899 100.49 16.5996 100.58 16.5996 100.69C16.5996 100.801 16.6899 100.89 16.8014 100.89C16.9128 100.89 17.0031 100.801 17.0031 100.69Z" fill="#59C7BF"/>
<path d="M17.0031 85.8852C17.0031 85.7747 16.9128 85.6851 16.8014 85.6851C16.6899 85.6851 16.5996 85.7747 16.5996 85.8852C16.5996 85.9958 16.6899 86.0854 16.8014 86.0854C16.9128 86.0854 17.0031 85.9958 17.0031 85.8852Z" fill="#59C7BF"/>
<path d="M17.0031 71.2803C17.0031 71.1697 16.9128 71.0801 16.8014 71.0801C16.6899 71.0801 16.5996 71.1697 16.5996 71.2803C16.5996 71.3908 16.6899 71.4804 16.8014 71.4804C16.9128 71.4804 17.0031 71.3908 17.0031 71.2803Z" fill="#59C7BF"/>
<path d="M17.0031 56.4752C17.0031 56.3646 16.9128 56.275 16.8014 56.275C16.6899 56.275 16.5996 56.3646 16.5996 56.4752C16.5996 56.5857 16.6899 56.6753 16.8014 56.6753C16.9128 56.6753 17.0031 56.5857 17.0031 56.4752Z" fill="#59C7BF"/>
<path d="M17.0031 41.6707C17.0031 41.5601 16.9128 41.4705 16.8014 41.4705C16.6899 41.4705 16.5996 41.5601 16.5996 41.6707C16.5996 41.7812 16.6899 41.8708 16.8014 41.8708C16.9128 41.8708 17.0031 41.7812 17.0031 41.6707Z" fill="#59C7BF"/>
<path d="M17.0031 26.8652C17.0031 26.7547 16.9128 26.6651 16.8014 26.6651C16.6899 26.6651 16.5996 26.7547 16.5996 26.8652C16.5996 26.9758 16.6899 27.0654 16.8014 27.0654C16.9128 27.0654 17.0031 26.9758 17.0031 26.8652Z" fill="#59C7BF"/>
<path d="M17.0031 12.0604C17.0031 11.9499 16.9128 11.8603 16.8014 11.8603C16.6899 11.8603 16.5996 11.9499 16.5996 12.0604C16.5996 12.171 16.6899 12.2606 16.8014 12.2606C16.9128 12.2606 17.0031 12.171 17.0031 12.0604Z" fill="#59C7BF"/>
<path d="M32.1352 144.905C32.1352 144.684 31.9545 144.505 31.7317 144.505C31.5088 144.505 31.3281 144.684 31.3281 144.905C31.3281 145.126 31.5088 145.305 31.7317 145.305C31.9545 145.305 32.1352 145.126 32.1352 144.905Z" fill="#59C7BF"/>
<path d="M32.1352 130.3C32.1352 130.079 31.9545 129.9 31.7317 129.9C31.5088 129.9 31.3281 130.079 31.3281 130.3C31.3281 130.521 31.5088 130.7 31.7317 130.7C31.9545 130.7 32.1352 130.521 32.1352 130.3Z" fill="#59C7BF"/>
<path d="M32.1352 115.495C32.1352 115.274 31.9545 115.095 31.7317 115.095C31.5088 115.095 31.3281 115.274 31.3281 115.495C31.3281 115.716 31.5088 115.895 31.7317 115.895C31.9545 115.895 32.1352 115.716 32.1352 115.495Z" fill="#59C7BF"/>
<path d="M32.1352 100.69C32.1352 100.469 31.9545 100.29 31.7317 100.29C31.5088 100.29 31.3281 100.469 31.3281 100.69C31.3281 100.911 31.5088 101.09 31.7317 101.09C31.9545 101.09 32.1352 100.911 32.1352 100.69Z" fill="#59C7BF"/>
<path d="M32.1352 85.8851C32.1352 85.6642 31.9545 85.485 31.7317 85.485C31.5088 85.485 31.3281 85.6642 31.3281 85.8851C31.3281 86.1061 31.5088 86.2853 31.7317 86.2853C31.9545 86.2853 32.1352 86.1061 32.1352 85.8851Z" fill="#59C7BF"/>
<path d="M32.1352 71.0803C32.1352 70.8593 31.9545 70.6801 31.7317 70.6801C31.5088 70.6801 31.3281 70.8593 31.3281 71.0803C31.3281 71.3013 31.5088 71.4804 31.7317 71.4804C31.9545 71.4804 32.1352 71.3013 32.1352 71.0803Z" fill="#59C7BF"/>
<path d="M32.1352 56.4759C32.1352 56.2549 31.9545 56.0758 31.7317 56.0758C31.5088 56.0758 31.3281 56.2549 31.3281 56.4759C31.3281 56.6969 31.5088 56.876 31.7317 56.876C31.9545 56.876 32.1352 56.6969 32.1352 56.4759Z" fill="#59C7BF"/>
<path d="M32.1352 41.6705C32.1352 41.4495 31.9545 41.2704 31.7317 41.2704C31.5088 41.2704 31.3281 41.4495 31.3281 41.6705C31.3281 41.8915 31.5088 42.0707 31.7317 42.0707C31.9545 42.0707 32.1352 41.8915 32.1352 41.6705Z" fill="#59C7BF"/>
<path d="M32.1352 26.866C32.1352 26.645 31.9545 26.4659 31.7317 26.4659C31.5088 26.4659 31.3281 26.645 31.3281 26.866C31.3281 27.087 31.5088 27.2661 31.7317 27.2661C31.9545 27.2661 32.1352 27.087 32.1352 26.866Z" fill="#59C7BF"/>
<path d="M32.1352 12.0606C32.1352 11.8396 31.9545 11.6604 31.7317 11.6604C31.5088 11.6604 31.3281 11.8396 31.3281 12.0606C31.3281 12.2816 31.5088 12.4607 31.7317 12.4607C31.9545 12.4607 32.1352 12.2816 32.1352 12.0606Z" fill="#59C7BF"/>
<path d="M46.8637 144.905C46.8637 144.684 46.683 144.505 46.4602 144.505C46.2373 144.505 46.0566 144.684 46.0566 144.905C46.0566 145.126 46.2373 145.305 46.4602 145.305C46.683 145.305 46.8637 145.126 46.8637 144.905Z" fill="#59C7BF"/>
<path d="M46.8637 130.3C46.8637 130.079 46.683 129.9 46.4602 129.9C46.2373 129.9 46.0566 130.079 46.0566 130.3C46.0566 130.521 46.2373 130.7 46.4602 130.7C46.683 130.7 46.8637 130.521 46.8637 130.3Z" fill="#59C7BF"/>
<path d="M46.8637 115.495C46.8637 115.274 46.683 115.095 46.4602 115.095C46.2373 115.095 46.0566 115.274 46.0566 115.495C46.0566 115.716 46.2373 115.895 46.4602 115.895C46.683 115.895 46.8637 115.716 46.8637 115.495Z" fill="#59C7BF"/>
<path d="M46.8637 100.69C46.8637 100.469 46.683 100.29 46.4602 100.29C46.2373 100.29 46.0566 100.469 46.0566 100.69C46.0566 100.911 46.2373 101.09 46.4602 101.09C46.683 101.09 46.8637 100.911 46.8637 100.69Z" fill="#59C7BF"/>
<path d="M46.8637 85.8851C46.8637 85.6642 46.683 85.485 46.4602 85.485C46.2373 85.485 46.0566 85.6642 46.0566 85.8851C46.0566 86.1061 46.2373 86.2853 46.4602 86.2853C46.683 86.2853 46.8637 86.1061 46.8637 85.8851Z" fill="#59C7BF"/>
<path d="M46.8637 71.0803C46.8637 70.8593 46.683 70.6801 46.4602 70.6801C46.2373 70.6801 46.0566 70.8593 46.0566 71.0803C46.0566 71.3013 46.2373 71.4804 46.4602 71.4804C46.683 71.4804 46.8637 71.3013 46.8637 71.0803Z" fill="#59C7BF"/>
<path d="M46.8637 56.4759C46.8637 56.2549 46.683 56.0758 46.4602 56.0758C46.2373 56.0758 46.0566 56.2549 46.0566 56.4759C46.0566 56.6969 46.2373 56.876 46.4602 56.876C46.683 56.876 46.8637 56.6969 46.8637 56.4759Z" fill="#59C7BF"/>
<path d="M46.8637 41.6705C46.8637 41.4495 46.683 41.2704 46.4602 41.2704C46.2373 41.2704 46.0566 41.4495 46.0566 41.6705C46.0566 41.8915 46.2373 42.0707 46.4602 42.0707C46.683 42.0707 46.8637 41.8915 46.8637 41.6705Z" fill="#59C7BF"/>
<path d="M46.8637 26.866C46.8637 26.645 46.683 26.4659 46.4602 26.4659C46.2373 26.4659 46.0566 26.645 46.0566 26.866C46.0566 27.087 46.2373 27.2661 46.4602 27.2661C46.683 27.2661 46.8637 27.087 46.8637 26.866Z" fill="#59C7BF"/>
<path d="M46.8637 12.0606C46.8637 11.8396 46.683 11.6604 46.4602 11.6604C46.2373 11.6604 46.0566 11.8396 46.0566 12.0606C46.0566 12.2816 46.2373 12.4607 46.4602 12.4607C46.683 12.4607 46.8637 12.2816 46.8637 12.0606Z" fill="#59C7BF"/>
<path d="M61.9957 144.905C61.9957 144.573 61.7247 144.304 61.3904 144.304C61.0562 144.304 60.7852 144.573 60.7852 144.905C60.7852 145.236 61.0562 145.505 61.3904 145.505C61.7247 145.505 61.9957 145.236 61.9957 144.905Z" fill="#59C7BF"/>
<path d="M61.9957 130.3C61.9957 129.968 61.7247 129.7 61.3904 129.7C61.0562 129.7 60.7852 129.968 60.7852 130.3C60.7852 130.631 61.0562 130.9 61.3904 130.9C61.7247 130.9 61.9957 130.631 61.9957 130.3Z" fill="#59C7BF"/>
<path d="M61.9957 115.495C61.9957 115.163 61.7247 114.895 61.3904 114.895C61.0562 114.895 60.7852 115.163 60.7852 115.495C60.7852 115.826 61.0562 116.095 61.3904 116.095C61.7247 116.095 61.9957 115.826 61.9957 115.495Z" fill="#59C7BF"/>
<path d="M61.9957 100.69C61.9957 100.359 61.7247 100.09 61.3904 100.09C61.0562 100.09 60.7852 100.359 60.7852 100.69C60.7852 101.022 61.0562 101.29 61.3904 101.29C61.7247 101.29 61.9957 101.022 61.9957 100.69Z" fill="#59C7BF"/>
<path d="M61.9957 85.8852C61.9957 85.5537 61.7247 85.285 61.3904 85.285C61.0562 85.285 60.7852 85.5537 60.7852 85.8852C60.7852 86.2167 61.0562 86.4854 61.3904 86.4854C61.7247 86.4854 61.9957 86.2167 61.9957 85.8852Z" fill="#59C7BF"/>
<path d="M61.9957 71.0804C61.9957 70.7489 61.7247 70.4802 61.3904 70.4802C61.0562 70.4802 60.7852 70.7489 60.7852 71.0804C60.7852 71.4119 61.0562 71.6806 61.3904 71.6806C61.7247 71.6806 61.9957 71.4119 61.9957 71.0804Z" fill="#59C7BF"/>
<path d="M61.9957 56.4755C61.9957 56.144 61.7247 55.8753 61.3904 55.8753C61.0562 55.8753 60.7852 56.144 60.7852 56.4755C60.7852 56.807 61.0562 57.0757 61.3904 57.0757C61.7247 57.0757 61.9957 56.807 61.9957 56.4755Z" fill="#59C7BF"/>
<path d="M61.9957 41.6709C61.9957 41.3394 61.7247 41.0707 61.3904 41.0707C61.0562 41.0707 60.7852 41.3394 60.7852 41.6709C60.7852 42.0024 61.0562 42.2711 61.3904 42.2711C61.7247 42.2711 61.9957 42.0024 61.9957 41.6709Z" fill="#59C7BF"/>
<path d="M61.9957 26.8655C61.9957 26.534 61.7247 26.2653 61.3904 26.2653C61.0562 26.2653 60.7852 26.534 60.7852 26.8655C60.7852 27.197 61.0562 27.4657 61.3904 27.4657C61.7247 27.4657 61.9957 27.197 61.9957 26.8655Z" fill="#59C7BF"/>
<path d="M61.9957 12.0604C61.9957 11.729 61.7247 11.4602 61.3904 11.4602C61.0562 11.4602 60.7852 11.729 60.7852 12.0604C60.7852 12.3919 61.0562 12.6606 61.3904 12.6606C61.7247 12.6606 61.9957 12.3919 61.9957 12.0604Z" fill="#59C7BF"/>
<path d="M77.1287 144.905C77.1287 144.463 76.7674 144.104 76.3217 144.104C75.876 144.104 75.5147 144.463 75.5147 144.905C75.5147 145.347 75.876 145.705 76.3217 145.705C76.7674 145.705 77.1287 145.347 77.1287 144.905Z" fill="#59C7BF"/>
<path d="M77.1287 130.3C77.1287 129.858 76.7674 129.5 76.3217 129.5C75.876 129.5 75.5147 129.858 75.5147 130.3C75.5147 130.742 75.876 131.1 76.3217 131.1C76.7674 131.1 77.1287 130.742 77.1287 130.3Z" fill="#59C7BF"/>
<path d="M77.1287 115.495C77.1287 115.053 76.7674 114.695 76.3217 114.695C75.876 114.695 75.5147 115.053 75.5147 115.495C75.5147 115.937 75.876 116.296 76.3217 116.296C76.7674 116.296 77.1287 115.937 77.1287 115.495Z" fill="#59C7BF"/>
<path d="M77.1287 100.69C77.1287 100.248 76.7674 99.8899 76.3217 99.8899C75.876 99.8899 75.5147 100.248 75.5147 100.69C75.5147 101.132 75.876 101.49 76.3217 101.49C76.7674 101.49 77.1287 101.132 77.1287 100.69Z" fill="#59C7BF"/>
<path d="M77.1287 85.8853C77.1287 85.4433 76.7674 85.085 76.3217 85.085C75.876 85.085 75.5147 85.4433 75.5147 85.8853C75.5147 86.3273 75.876 86.6856 76.3217 86.6856C76.7674 86.6856 77.1287 86.3273 77.1287 85.8853Z" fill="#59C7BF"/>
<path d="M77.1287 71.0808C77.1287 70.6388 76.7674 70.2805 76.3217 70.2805C75.876 70.2805 75.5147 70.6388 75.5147 71.0808C75.5147 71.5228 75.876 71.881 76.3217 71.881C76.7674 71.881 77.1287 71.5228 77.1287 71.0808Z" fill="#59C7BF"/>
<path d="M77.1287 56.4756C77.1287 56.0336 76.7674 55.6753 76.3217 55.6753C75.876 55.6753 75.5147 56.0336 75.5147 56.4756C75.5147 56.9175 75.876 57.2758 76.3217 57.2758C76.7674 57.2758 77.1287 56.9175 77.1287 56.4756Z" fill="#59C7BF"/>
<path d="M77.1287 41.6702C77.1287 41.2282 76.7674 40.8699 76.3217 40.8699C75.876 40.8699 75.5147 41.2282 75.5147 41.6702C75.5147 42.1122 75.876 42.4705 76.3217 42.4705C76.7674 42.4705 77.1287 42.1122 77.1287 41.6702Z" fill="#59C7BF"/>
<path d="M77.1287 26.8653C77.1287 26.4233 76.7674 26.0651 76.3217 26.0651C75.876 26.0651 75.5147 26.4233 75.5147 26.8653C75.5147 27.3073 75.876 27.6656 76.3217 27.6656C76.7674 27.6656 77.1287 27.3073 77.1287 26.8653Z" fill="#59C7BF"/>
<path d="M77.1287 12.0605C77.1287 11.6185 76.7674 11.2603 76.3217 11.2603C75.876 11.2603 75.5147 11.6185 75.5147 12.0605C75.5147 12.5025 75.876 12.8608 76.3217 12.8608C76.7674 12.8608 77.1287 12.5025 77.1287 12.0605Z" fill="#59C7BF"/>
<path d="M92.0584 144.905C92.0584 144.463 91.6971 144.104 91.2514 144.104C90.8057 144.104 90.4443 144.463 90.4443 144.905C90.4443 145.347 90.8057 145.705 91.2514 145.705C91.6971 145.705 92.0584 145.347 92.0584 144.905Z" fill="#59C7BF"/>
<path d="M92.0584 130.3C92.0584 129.858 91.6971 129.5 91.2514 129.5C90.8057 129.5 90.4443 129.858 90.4443 130.3C90.4443 130.742 90.8057 131.1 91.2514 131.1C91.6971 131.1 92.0584 130.742 92.0584 130.3Z" fill="#59C7BF"/>
<path d="M92.0584 115.495C92.0584 115.053 91.6971 114.695 91.2514 114.695C90.8057 114.695 90.4443 115.053 90.4443 115.495C90.4443 115.937 90.8057 116.296 91.2514 116.296C91.6971 116.296 92.0584 115.937 92.0584 115.495Z" fill="#59C7BF"/>
<path d="M92.0584 100.69C92.0584 100.248 91.6971 99.8899 91.2514 99.8899C90.8057 99.8899 90.4443 100.248 90.4443 100.69C90.4443 101.132 90.8057 101.49 91.2514 101.49C91.6971 101.49 92.0584 101.132 92.0584 100.69Z" fill="#59C7BF"/>
<path d="M92.0584 85.8853C92.0584 85.4433 91.6971 85.085 91.2514 85.085C90.8057 85.085 90.4443 85.4433 90.4443 85.8853C90.4443 86.3273 90.8057 86.6856 91.2514 86.6856C91.6971 86.6856 92.0584 86.3273 92.0584 85.8853Z" fill="#59C7BF"/>
<path d="M92.0584 71.0808C92.0584 70.6388 91.6971 70.2805 91.2514 70.2805C90.8057 70.2805 90.4443 70.6388 90.4443 71.0808C90.4443 71.5228 90.8057 71.881 91.2514 71.881C91.6971 71.881 92.0584 71.5228 92.0584 71.0808Z" fill="#59C7BF"/>
<path d="M92.0584 56.4756C92.0584 56.0336 91.6971 55.6753 91.2514 55.6753C90.8057 55.6753 90.4443 56.0336 90.4443 56.4756C90.4443 56.9175 90.8057 57.2758 91.2514 57.2758C91.6971 57.2758 92.0584 56.9175 92.0584 56.4756Z" fill="#59C7BF"/>
<path d="M92.0584 41.6702C92.0584 41.2282 91.6971 40.8699 91.2514 40.8699C90.8057 40.8699 90.4443 41.2282 90.4443 41.6702C90.4443 42.1122 90.8057 42.4705 91.2514 42.4705C91.6971 42.4705 92.0584 42.1122 92.0584 41.6702Z" fill="#59C7BF"/>
<path d="M92.0584 26.8653C92.0584 26.4233 91.6971 26.0651 91.2514 26.0651C90.8057 26.0651 90.4443 26.4233 90.4443 26.8653C90.4443 27.3073 90.8057 27.6656 91.2514 27.6656C91.6971 27.6656 92.0584 27.3073 92.0584 26.8653Z" fill="#59C7BF"/>
<path d="M92.0584 12.0605C92.0584 11.6185 91.6971 11.2603 91.2514 11.2603C90.8057 11.2603 90.4443 11.6185 90.4443 12.0605C90.4443 12.5025 90.8057 12.8608 91.2514 12.8608C91.6971 12.8608 92.0584 12.5025 92.0584 12.0605Z" fill="#59C7BF"/>
<path d="M107.19 144.906C107.19 144.354 106.739 143.906 106.182 143.906C105.625 143.906 105.173 144.354 105.173 144.906C105.173 145.459 105.625 145.907 106.182 145.907C106.739 145.907 107.19 145.459 107.19 144.906Z" fill="#59C7BF"/>
<path d="M107.19 130.3C107.19 129.747 106.739 129.3 106.182 129.3C105.625 129.3 105.173 129.747 105.173 130.3C105.173 130.852 105.625 131.3 106.182 131.3C106.739 131.3 107.19 130.852 107.19 130.3Z" fill="#59C7BF"/>
<path d="M107.19 115.495C107.19 114.943 106.739 114.495 106.182 114.495C105.625 114.495 105.173 114.943 105.173 115.495C105.173 116.048 105.625 116.495 106.182 116.495C106.739 116.495 107.19 116.048 107.19 115.495Z" fill="#59C7BF"/>
<path d="M107.19 100.69C107.19 100.138 106.739 99.6899 106.182 99.6899C105.625 99.6899 105.173 100.138 105.173 100.69C105.173 101.243 105.625 101.691 106.182 101.691C106.739 101.691 107.19 101.243 107.19 100.69Z" fill="#59C7BF"/>
<path d="M107.19 85.8854C107.19 85.333 106.739 84.8851 106.182 84.8851C105.625 84.8851 105.173 85.333 105.173 85.8854C105.173 86.4379 105.625 86.8858 106.182 86.8858C106.739 86.8858 107.19 86.4379 107.19 85.8854Z" fill="#59C7BF"/>
<path d="M107.19 71.0803C107.19 70.5278 106.739 70.08 106.182 70.08C105.625 70.08 105.173 70.5278 105.173 71.0803C105.173 71.6328 105.625 72.0806 106.182 72.0806C106.739 72.0806 107.19 71.6328 107.19 71.0803Z" fill="#59C7BF"/>
<path d="M107.19 56.4753C107.19 55.9229 106.739 55.475 106.182 55.475C105.625 55.475 105.173 55.9229 105.173 56.4753C105.173 57.0278 105.625 57.4757 106.182 57.4757C106.739 57.4757 107.19 57.0278 107.19 56.4753Z" fill="#59C7BF"/>
<path d="M107.19 41.6703C107.19 41.1178 106.739 40.6699 106.182 40.6699C105.625 40.6699 105.173 41.1178 105.173 41.6703C105.173 42.2227 105.625 42.6706 106.182 42.6706C106.739 42.6706 107.19 42.2227 107.19 41.6703Z" fill="#59C7BF"/>
<path d="M107.19 26.8658C107.19 26.3133 106.739 25.8654 106.182 25.8654C105.625 25.8654 105.173 26.3133 105.173 26.8658C105.173 27.4182 105.625 27.8661 106.182 27.8661C106.739 27.8661 107.19 27.4182 107.19 26.8658Z" fill="#59C7BF"/>
<path d="M107.19 12.0603C107.19 11.5078 106.739 11.06 106.182 11.06C105.625 11.06 105.173 11.5078 105.173 12.0603C105.173 12.6128 105.625 13.0606 106.182 13.0606C106.739 13.0606 107.19 12.6128 107.19 12.0603Z" fill="#59C7BF"/>
<path d="M122.121 144.905C122.121 144.242 121.579 143.704 120.911 143.704C120.242 143.704 119.7 144.242 119.7 144.905C119.7 145.568 120.242 146.105 120.911 146.105C121.579 146.105 122.121 145.568 122.121 144.905Z" fill="#59C7BF"/>
<path d="M122.121 130.3C122.121 129.637 121.579 129.1 120.911 129.1C120.242 129.1 119.7 129.637 119.7 130.3C119.7 130.963 120.242 131.501 120.911 131.501C121.579 131.501 122.121 130.963 122.121 130.3Z" fill="#59C7BF"/>
<path d="M122.121 115.495C122.121 114.832 121.579 114.295 120.911 114.295C120.242 114.295 119.7 114.832 119.7 115.495C119.7 116.158 120.242 116.696 120.911 116.696C121.579 116.696 122.121 116.158 122.121 115.495Z" fill="#59C7BF"/>
<path d="M122.121 100.691C122.121 100.028 121.579 99.4902 120.911 99.4902C120.242 99.4902 119.7 100.028 119.7 100.691C119.7 101.354 120.242 101.891 120.911 101.891C121.579 101.891 122.121 101.354 122.121 100.691Z" fill="#59C7BF"/>
<path d="M122.121 85.8852C122.121 85.2223 121.579 84.6848 120.911 84.6848C120.242 84.6848 119.7 85.2223 119.7 85.8852C119.7 86.5482 120.242 87.0856 120.911 87.0856C121.579 87.0856 122.121 86.5482 122.121 85.8852Z" fill="#59C7BF"/>
<path d="M122.121 71.0807C122.121 70.4178 121.579 69.8803 120.911 69.8803C120.242 69.8803 119.7 70.4178 119.7 71.0807C119.7 71.7437 120.242 72.2811 120.911 72.2811C121.579 72.2811 122.121 71.7437 122.121 71.0807Z" fill="#59C7BF"/>
<path d="M122.121 56.4752C122.121 55.8123 121.579 55.2748 120.911 55.2748C120.242 55.2748 119.7 55.8123 119.7 56.4752C119.7 57.1382 120.242 57.6756 120.911 57.6756C121.579 57.6756 122.121 57.1382 122.121 56.4752Z" fill="#59C7BF"/>
<path d="M122.121 41.6706C122.121 41.0077 121.579 40.4702 120.911 40.4702C120.242 40.4702 119.7 41.0077 119.7 41.6706C119.7 42.3336 120.242 42.871 120.911 42.871C121.579 42.871 122.121 42.3336 122.121 41.6706Z" fill="#59C7BF"/>
<path d="M122.121 26.8653C122.121 26.2023 121.579 25.6649 120.911 25.6649C120.242 25.6649 119.7 26.2023 119.7 26.8653C119.7 27.5282 120.242 28.0657 120.911 28.0657C121.579 28.0657 122.121 27.5282 122.121 26.8653Z" fill="#59C7BF"/>
<path d="M122.121 12.0607C122.121 11.3978 121.579 10.8603 120.911 10.8603C120.242 10.8603 119.7 11.3978 119.7 12.0607C119.7 12.7237 120.242 13.2611 120.911 13.2611C121.579 13.2611 122.121 12.7237 122.121 12.0607Z" fill="#59C7BF"/>
<path d="M137.052 144.905C137.052 144.242 136.51 143.704 135.841 143.704C135.173 143.704 134.631 144.242 134.631 144.905C134.631 145.568 135.173 146.105 135.841 146.105C136.51 146.105 137.052 145.568 137.052 144.905Z" fill="#59C7BF"/>
<path d="M137.051 130.3C137.051 129.637 136.509 129.1 135.84 129.1C135.172 129.1 134.63 129.637 134.63 130.3C134.63 130.963 135.172 131.501 135.84 131.501C136.509 131.501 137.051 130.963 137.051 130.3Z" fill="#59C7BF"/>
<path d="M137.051 115.495C137.051 114.832 136.509 114.295 135.84 114.295C135.172 114.295 134.63 114.832 134.63 115.495C134.63 116.158 135.172 116.696 135.84 116.696C136.509 116.696 137.051 116.158 137.051 115.495Z" fill="#59C7BF"/>
<path d="M137.051 100.691C137.051 100.028 136.509 99.4902 135.84 99.4902C135.172 99.4902 134.63 100.028 134.63 100.691C134.63 101.354 135.172 101.891 135.84 101.891C136.509 101.891 137.051 101.354 137.051 100.691Z" fill="#59C7BF"/>
<path d="M137.051 85.8852C137.051 85.2223 136.509 84.6848 135.84 84.6848C135.172 84.6848 134.63 85.2223 134.63 85.8852C134.63 86.5482 135.172 87.0856 135.84 87.0856C136.509 87.0856 137.051 86.5482 137.051 85.8852Z" fill="#59C7BF"/>
<path d="M137.051 71.0807C137.051 70.4178 136.509 69.8803 135.84 69.8803C135.172 69.8803 134.63 70.4178 134.63 71.0807C134.63 71.7437 135.172 72.2811 135.84 72.2811C136.509 72.2811 137.051 71.7437 137.051 71.0807Z" fill="#59C7BF"/>
<path d="M137.051 56.4752C137.051 55.8123 136.509 55.2748 135.84 55.2748C135.172 55.2748 134.63 55.8123 134.63 56.4752C134.63 57.1382 135.172 57.6756 135.84 57.6756C136.509 57.6756 137.051 57.1382 137.051 56.4752Z" fill="#59C7BF"/>
<path d="M137.051 41.6706C137.051 41.0077 136.509 40.4702 135.84 40.4702C135.172 40.4702 134.63 41.0077 134.63 41.6706C134.63 42.3336 135.172 42.871 135.84 42.871C136.509 42.871 137.051 42.3336 137.051 41.6706Z" fill="#59C7BF"/>
<path d="M137.051 26.8653C137.051 26.2023 136.509 25.6649 135.84 25.6649C135.172 25.6649 134.63 26.2023 134.63 26.8653C134.63 27.5282 135.172 28.0657 135.84 28.0657C136.509 28.0657 137.051 27.5282 137.051 26.8653Z" fill="#59C7BF"/>
<path d="M137.051 12.0607C137.051 11.3978 136.509 10.8603 135.84 10.8603C135.172 10.8603 134.63 11.3978 134.63 12.0607C134.63 12.7237 135.172 13.2611 135.84 13.2611C136.509 13.2611 137.051 12.7237 137.051 12.0607Z" fill="#59C7BF"/>
<path d="M152.183 144.905C152.183 144.131 151.551 143.504 150.771 143.504C149.991 143.504 149.358 144.131 149.358 144.905C149.358 145.678 149.991 146.305 150.771 146.305C151.551 146.305 152.183 145.678 152.183 144.905Z" fill="#59C7BF"/>
<path d="M152.183 130.3C152.183 129.527 151.551 128.9 150.771 128.9C149.991 128.9 149.358 129.527 149.358 130.3C149.358 131.074 149.991 131.701 150.771 131.701C151.551 131.701 152.183 131.074 152.183 130.3Z" fill="#59C7BF"/>
<path d="M152.183 115.496C152.183 114.722 151.551 114.095 150.771 114.095C149.991 114.095 149.358 114.722 149.358 115.496C149.358 116.269 149.991 116.896 150.771 116.896C151.551 116.896 152.183 116.269 152.183 115.496Z" fill="#59C7BF"/>
<path d="M152.183 100.69C152.183 99.9167 151.551 99.2897 150.771 99.2897C149.991 99.2897 149.358 99.9167 149.358 100.69C149.358 101.464 149.991 102.091 150.771 102.091C151.551 102.091 152.183 101.464 152.183 100.69Z" fill="#59C7BF"/>
<path d="M152.183 85.8856C152.183 85.1121 151.551 84.4851 150.771 84.4851C149.991 84.4851 149.358 85.1121 149.358 85.8856C149.358 86.6591 149.991 87.2861 150.771 87.2861C151.551 87.2861 152.183 86.6591 152.183 85.8856Z" fill="#59C7BF"/>
<path d="M152.183 71.0802C152.183 70.3068 151.551 69.6798 150.771 69.6798C149.991 69.6798 149.358 70.3068 149.358 71.0802C149.358 71.8537 149.991 72.4807 150.771 72.4807C151.551 72.4807 152.183 71.8537 152.183 71.0802Z" fill="#59C7BF"/>
<path d="M152.183 56.4756C152.183 55.7021 151.551 55.0751 150.771 55.0751C149.991 55.0751 149.358 55.7021 149.358 56.4756C149.358 57.249 149.991 57.876 150.771 57.876C151.551 57.876 152.183 57.249 152.183 56.4756Z" fill="#59C7BF"/>
<path d="M152.183 41.6702C152.183 40.8968 151.551 40.2697 150.771 40.2697C149.991 40.2697 149.358 40.8968 149.358 41.6702C149.358 42.4437 149.991 43.0707 150.771 43.0707C151.551 43.0707 152.183 42.4437 152.183 41.6702Z" fill="#59C7BF"/>
<path d="M152.183 26.8657C152.183 26.0922 151.551 25.4652 150.771 25.4652C149.991 25.4652 149.358 26.0922 149.358 26.8657C149.358 27.6391 149.991 28.2662 150.771 28.2662C151.551 28.2662 152.183 27.6391 152.183 26.8657Z" fill="#59C7BF"/>
<path d="M152.183 12.0603C152.183 11.2868 151.551 10.6598 150.771 10.6598C149.991 10.6598 149.358 11.2868 149.358 12.0603C149.358 12.8337 149.991 13.4607 150.771 13.4607C151.551 13.4607 152.183 12.8337 152.183 12.0603Z" fill="#59C7BF"/>
<path d="M167.115 144.905C167.115 144.131 166.482 143.504 165.702 143.504C164.922 143.504 164.29 144.131 164.29 144.905C164.29 145.678 164.922 146.305 165.702 146.305C166.482 146.305 167.115 145.678 167.115 144.905Z" fill="#59C7BF"/>
<path d="M167.114 130.3C167.114 129.527 166.481 128.9 165.701 128.9C164.921 128.9 164.289 129.527 164.289 130.3C164.289 131.074 164.921 131.701 165.701 131.701C166.481 131.701 167.114 131.074 167.114 130.3Z" fill="#59C7BF"/>
<path d="M167.114 115.496C167.114 114.722 166.481 114.095 165.701 114.095C164.921 114.095 164.289 114.722 164.289 115.496C164.289 116.269 164.921 116.896 165.701 116.896C166.481 116.896 167.114 116.269 167.114 115.496Z" fill="#59C7BF"/>
<path d="M167.114 100.69C167.114 99.9167 166.481 99.2897 165.701 99.2897C164.921 99.2897 164.289 99.9167 164.289 100.69C164.289 101.464 164.921 102.091 165.701 102.091C166.481 102.091 167.114 101.464 167.114 100.69Z" fill="#59C7BF"/>
<path d="M167.114 85.8856C167.114 85.1121 166.481 84.4851 165.701 84.4851C164.921 84.4851 164.289 85.1121 164.289 85.8856C164.289 86.6591 164.921 87.2861 165.701 87.2861C166.481 87.2861 167.114 86.6591 167.114 85.8856Z" fill="#59C7BF"/>
<path d="M167.114 71.2801C167.114 70.5066 166.481 69.8796 165.701 69.8796C164.921 69.8796 164.289 70.5066 164.289 71.2801C164.289 72.0536 164.921 72.6806 165.701 72.6806C166.481 72.6806 167.114 72.0536 167.114 71.2801Z" fill="#59C7BF"/>
<path d="M167.114 56.4756C167.114 55.7021 166.481 55.0751 165.701 55.0751C164.921 55.0751 164.289 55.7021 164.289 56.4756C164.289 57.249 164.921 57.876 165.701 57.876C166.481 57.876 167.114 57.249 167.114 56.4756Z" fill="#59C7BF"/>
<path d="M167.114 41.6702C167.114 40.8968 166.481 40.2697 165.701 40.2697C164.921 40.2697 164.289 40.8968 164.289 41.6702C164.289 42.4437 164.921 43.0707 165.701 43.0707C166.481 43.0707 167.114 42.4437 167.114 41.6702Z" fill="#59C7BF"/>
<path d="M167.114 26.8657C167.114 26.0922 166.481 25.4652 165.701 25.4652C164.921 25.4652 164.289 26.0922 164.289 26.8657C164.289 27.6391 164.921 28.2662 165.701 28.2662C166.481 28.2662 167.114 27.6391 167.114 26.8657Z" fill="#59C7BF"/>
<path d="M167.114 12.0603C167.114 11.2868 166.481 10.6598 165.701 10.6598C164.921 10.6598 164.289 11.2868 164.289 12.0603C164.289 12.8337 164.921 13.4607 165.701 13.4607C166.481 13.4607 167.114 12.8337 167.114 12.0603Z" fill="#59C7BF"/>
<path d="M182.246 144.905C182.246 144.021 181.523 143.304 180.632 143.304C179.74 143.304 179.018 144.021 179.018 144.905C179.018 145.789 179.74 146.505 180.632 146.505C181.523 146.505 182.246 145.789 182.246 144.905Z" fill="#59C7BF"/>
<path d="M182.247 130.3C182.247 129.416 181.524 128.7 180.633 128.7C179.741 128.7 179.019 129.416 179.019 130.3C179.019 131.184 179.741 131.901 180.633 131.901C181.524 131.901 182.247 131.184 182.247 130.3Z" fill="#59C7BF"/>
<path d="M182.247 115.495C182.247 114.611 181.524 113.894 180.633 113.894C179.741 113.894 179.019 114.611 179.019 115.495C179.019 116.379 179.741 117.095 180.633 117.095C181.524 117.095 182.247 116.379 182.247 115.495Z" fill="#59C7BF"/>
<path d="M182.247 100.69C182.247 99.8063 181.524 99.0897 180.633 99.0897C179.741 99.0897 179.019 99.8063 179.019 100.69C179.019 101.574 179.741 102.291 180.633 102.291C181.524 102.291 182.247 101.574 182.247 100.69Z" fill="#59C7BF"/>
<path d="M182.247 85.8849C182.247 85.001 181.524 84.2844 180.633 84.2844C179.741 84.2844 179.019 85.001 179.019 85.8849C179.019 86.7689 179.741 87.4854 180.633 87.4854C181.524 87.4854 182.247 86.7689 182.247 85.8849Z" fill="#59C7BF"/>
<path d="M182.247 71.2805C182.247 70.3966 181.524 69.68 180.633 69.68C179.741 69.68 179.019 70.3966 179.019 71.2805C179.019 72.1645 179.741 72.8811 180.633 72.8811C181.524 72.8811 182.247 72.1645 182.247 71.2805Z" fill="#59C7BF"/>
<path d="M182.247 56.4752C182.247 55.5912 181.524 54.8746 180.633 54.8746C179.741 54.8746 179.019 55.5912 179.019 56.4752C179.019 57.3591 179.741 58.0757 180.633 58.0757C181.524 58.0757 182.247 57.3591 182.247 56.4752Z" fill="#59C7BF"/>
<path d="M182.247 41.6709C182.247 40.7869 181.524 40.0703 180.633 40.0703C179.741 40.0703 179.019 40.7869 179.019 41.6709C179.019 42.5548 179.741 43.2714 180.633 43.2714C181.524 43.2714 182.247 42.5548 182.247 41.6709Z" fill="#59C7BF"/>
<path d="M182.247 26.8655C182.247 25.9815 181.524 25.265 180.633 25.265C179.741 25.265 179.019 25.9815 179.019 26.8655C179.019 27.7494 179.741 28.466 180.633 28.466C181.524 28.466 182.247 27.7494 182.247 26.8655Z" fill="#59C7BF"/>
<path d="M182.247 12.061C182.247 11.177 181.524 10.4604 180.633 10.4604C179.741 10.4604 179.019 11.177 179.019 12.061C179.019 12.9449 179.741 13.6615 180.633 13.6615C181.524 13.6615 182.247 12.9449 182.247 12.061Z" fill="#59C7BF"/>
<path d="M196.974 144.905C196.974 144.021 196.252 143.304 195.36 143.304C194.469 143.304 193.746 144.021 193.746 144.905C193.746 145.789 194.469 146.505 195.36 146.505C196.252 146.505 196.974 145.789 196.974 144.905Z" fill="#59C7BF"/>
<path d="M196.974 130.3C196.974 129.416 196.252 128.7 195.36 128.7C194.469 128.7 193.746 129.416 193.746 130.3C193.746 131.184 194.469 131.901 195.36 131.901C196.252 131.901 196.974 131.184 196.974 130.3Z" fill="#59C7BF"/>
<path d="M196.974 115.495C196.974 114.611 196.252 113.894 195.36 113.894C194.469 113.894 193.746 114.611 193.746 115.495C193.746 116.379 194.469 117.095 195.36 117.095C196.252 117.095 196.974 116.379 196.974 115.495Z" fill="#59C7BF"/>
<path d="M196.974 100.69C196.974 99.8063 196.252 99.0897 195.36 99.0897C194.469 99.0897 193.746 99.8063 193.746 100.69C193.746 101.574 194.469 102.291 195.36 102.291C196.252 102.291 196.974 101.574 196.974 100.69Z" fill="#59C7BF"/>
<path d="M196.974 85.8849C196.974 85.001 196.252 84.2844 195.36 84.2844C194.469 84.2844 193.746 85.001 193.746 85.8849C193.746 86.7689 194.469 87.4854 195.36 87.4854C196.252 87.4854 196.974 86.7689 196.974 85.8849Z" fill="#59C7BF"/>
<path d="M196.974 71.08C196.974 70.1961 196.252 69.4795 195.36 69.4795C194.469 69.4795 193.746 70.1961 193.746 71.08C193.746 71.964 194.469 72.6806 195.36 72.6806C196.252 72.6806 196.974 71.964 196.974 71.08Z" fill="#59C7BF"/>
<path d="M196.974 56.4752C196.974 55.5912 196.252 54.8746 195.36 54.8746C194.469 54.8746 193.746 55.5912 193.746 56.4752C193.746 57.3591 194.469 58.0757 195.36 58.0757C196.252 58.0757 196.974 57.3591 196.974 56.4752Z" fill="#59C7BF"/>
<path d="M196.974 41.6709C196.974 40.7869 196.252 40.0703 195.36 40.0703C194.469 40.0703 193.746 40.7869 193.746 41.6709C193.746 42.5548 194.469 43.2714 195.36 43.2714C196.252 43.2714 196.974 42.5548 196.974 41.6709Z" fill="#59C7BF"/>
<path d="M196.974 26.8655C196.974 25.9815 196.252 25.265 195.36 25.265C194.469 25.265 193.746 25.9815 193.746 26.8655C193.746 27.7494 194.469 28.466 195.36 28.466C196.252 28.466 196.974 27.7494 196.974 26.8655Z" fill="#59C7BF"/>
<path d="M196.974 12.061C196.974 11.177 196.252 10.4604 195.36 10.4604C194.469 10.4604 193.746 11.177 193.746 12.061C193.746 12.9449 194.469 13.6615 195.36 13.6615C196.252 13.6615 196.974 12.9449 196.974 12.061Z" fill="#59C7BF"/>
</g>
</svg>
