<svg width="124" height="120" viewBox="0 0 124 120" fill="none" xmlns="http://www.w3.org/2000/svg">
<path fill-rule="evenodd" clip-rule="evenodd" d="M4.34375 15C4.34375 14.2233 4.97335 13.5938 5.75 13.5938H118.25C119.027 13.5938 119.656 14.2233 119.656 15V105C119.656 105.777 119.027 106.406 118.25 106.406H5.75C4.97335 106.406 4.34375 105.777 4.34375 105V15ZM7.15625 16.4062V103.594H116.844V16.4062H7.15625Z" fill="#6F7B8E"/>
<path fill-rule="evenodd" clip-rule="evenodd" d="M11.8438 22.5C11.8438 21.7233 12.4733 21.0938 13.25 21.0938H110.75C111.527 21.0938 112.156 21.7233 112.156 22.5V82.5C112.156 83.2767 111.527 83.9062 110.75 83.9062H13.25C12.4733 83.9062 11.8438 83.2767 11.8438 82.5V22.5ZM14.6562 23.9062V81.0938H109.344V23.9062H14.6562Z" fill="#6F7B8E"/>
<path fill-rule="evenodd" clip-rule="evenodd" d="M36.6875 31.4062C33.8398 31.4062 31.5312 33.7148 31.5312 36.5625C31.5312 39.4102 33.8398 41.7188 36.6875 41.7188C39.5352 41.7188 41.8438 39.4102 41.8438 36.5625C41.8438 33.7148 39.5352 31.4062 36.6875 31.4062ZM28.7188 36.5625C28.7188 32.1615 32.2865 28.5938 36.6875 28.5938C41.0885 28.5938 44.6562 32.1615 44.6562 36.5625C44.6562 40.9635 41.0885 44.5312 36.6875 44.5312C32.2865 44.5312 28.7188 40.9635 28.7188 36.5625ZM86.412 34.2192C86.7976 34.2294 87.1622 34.3975 87.4203 34.6843L104.295 53.4343C104.815 54.0115 104.768 54.9007 104.191 55.4203C103.613 55.9398 102.724 55.893 102.205 55.3157L86.3213 37.6675L65.8637 58.125L70.4944 62.7556C71.0435 63.3048 71.0435 64.1952 70.4944 64.7444C69.9452 65.2935 69.0548 65.2935 68.5056 64.7444L50.75 46.9887L21.7444 75.9944C21.1952 76.5435 20.3048 76.5435 19.7556 75.9944C19.2065 75.4452 19.2065 74.5548 19.7556 74.0056L49.7556 44.0056C50.3048 43.4565 51.1952 43.4565 51.7444 44.0056L63.875 56.1363L85.3806 34.6306C85.6534 34.3578 86.0263 34.2091 86.412 34.2192ZM11.8438 93.75C11.8438 92.9733 12.4733 92.3438 13.25 92.3438H63.875C64.6516 92.3438 65.2812 92.9733 65.2812 93.75C65.2812 94.5267 64.6516 95.1562 63.875 95.1562H13.25C12.4733 95.1562 11.8438 94.5267 11.8438 93.75ZM90.125 95.1562H69.5C68.7234 95.1562 68.0938 94.5267 68.0938 93.75C68.0938 92.9733 68.7234 92.3438 69.5 92.3438H90.125C90.9017 92.3438 91.5312 92.9733 91.5312 93.75C91.5312 94.5267 90.9017 95.1562 90.125 95.1562Z" fill="#6F7B8E"/>
<defs>
<filter id="filter0_d" x="-2" y="0" width="128" height="128" filterUnits="userSpaceOnUse" color-interpolation-filters="sRGB">
<feFlood flood-opacity="0" result="BackgroundImageFix"/>
<feColorMatrix in="SourceAlpha" type="matrix" values="0 0 0 0 0 0 0 0 0 0 0 0 0 0 0 0 0 0 127 0"/>
<feOffset dy="4"/>
<feGaussianBlur stdDeviation="2"/>
<feColorMatrix type="matrix" values="0 0 0 0 0 0 0 0 0 0 0 0 0 0 0 0 0 0 0.25 0"/>
<feBlend mode="normal" in2="BackgroundImageFix" result="effect1_dropShadow"/>
<feBlend mode="normal" in="SourceGraphic" in2="effect1_dropShadow" result="shape"/>
</filter>
</defs>
</svg>
