<svg width="43" height="26" viewBox="0 0 43 26" fill="none" xmlns="http://www.w3.org/2000/svg">
<path d="M0.75 4C0.75 2.20507 2.20507 0.75 4 0.75H28.297C29.1811 0.75 30.027 1.11014 30.6397 1.7474L39.2936 10.7474C40.5033 12.0055 40.5033 13.9945 39.2936 15.2526L30.6397 24.2526C30.027 24.8899 29.1811 25.25 28.297 25.25H4C2.20507 25.25 0.75 23.7949 0.75 22V4Z" fill="#4EB1AA" stroke="#4EB1AA" stroke-width="1.5"/>
<path d="M8.41016 14.6904V13.9482H10.8076V14.6904H8.41016ZM15.002 11.9902C15.002 12.5436 15.0622 12.9587 15.1826 13.2354C15.3031 13.512 15.4984 13.6504 15.7686 13.6504C16.3024 13.6504 16.5693 13.097 16.5693 11.9902C16.5693 10.89 16.3024 10.3398 15.7686 10.3398C15.4984 10.3398 15.3031 10.4766 15.1826 10.75C15.0622 11.0234 15.002 11.4368 15.002 11.9902ZM17.2383 11.9902C17.2383 12.7324 17.113 13.2939 16.8623 13.6748C16.6149 14.0524 16.2503 14.2412 15.7686 14.2412C15.3128 14.2412 14.958 14.0475 14.7041 13.6602C14.4535 13.2728 14.3281 12.7161 14.3281 11.9902C14.3281 11.2513 14.4486 10.6947 14.6895 10.3203C14.9336 9.94596 15.2933 9.75879 15.7686 9.75879C16.2406 9.75879 16.6035 9.95247 16.8574 10.3398C17.1113 10.7272 17.2383 11.2773 17.2383 11.9902ZM19.2988 14.8516C19.2988 15.4082 19.359 15.8249 19.4795 16.1016C19.5999 16.375 19.7969 16.5117 20.0703 16.5117C20.3438 16.5117 20.5456 16.3766 20.6758 16.1064C20.806 15.833 20.8711 15.4147 20.8711 14.8516C20.8711 14.2949 20.806 13.8831 20.6758 13.6162C20.5456 13.346 20.3438 13.2109 20.0703 13.2109C19.7969 13.2109 19.5999 13.346 19.4795 13.6162C19.359 13.8831 19.2988 14.2949 19.2988 14.8516ZM21.54 14.8516C21.54 15.5905 21.4147 16.1504 21.1641 16.5312C20.9167 16.9089 20.5521 17.0977 20.0703 17.0977C19.6081 17.0977 19.2516 16.904 19.001 16.5166C18.7536 16.1292 18.6299 15.5742 18.6299 14.8516C18.6299 14.1126 18.7503 13.556 18.9912 13.1816C19.2354 12.8073 19.5951 12.6201 20.0703 12.6201C20.5326 12.6201 20.8923 12.8122 21.1494 13.1963C21.4098 13.5771 21.54 14.1289 21.54 14.8516ZM20.2803 9.86133L16.3203 17H15.6025L19.5625 9.86133H20.2803Z" fill="white"/>
<circle cx="31" cy="13" r="2" fill="white"/>
</svg>
