<svg width="27" height="27" viewBox="0 0 27 27" fill="none" xmlns="http://www.w3.org/2000/svg">
<path fill-rule="evenodd" clip-rule="evenodd" d="M20.7116 27.0001C17.5786 27.0001 15.0232 24.424 15.0232 21.246C15.0232 18.0768 17.5786 15.4919 20.7116 15.4919C23.8446 15.4919 26.4 18.0768 26.4 21.246C26.4 24.424 23.8446 27.0001 20.7116 27.0001Z" fill="#4EB1AA"/>
<path fill-rule="evenodd" clip-rule="evenodd" d="M20.7113 24.3444C20.4662 24.3444 20.2737 24.1496 20.2737 23.9018V17.7051C20.2737 17.4652 20.4662 17.2625 20.7113 17.2625C20.9563 17.2625 21.1488 17.4652 21.1488 17.7051V23.9018C21.1488 24.1496 20.9563 24.3444 20.7113 24.3444Z" fill="white"/>
<path fill-rule="evenodd" clip-rule="evenodd" d="M20.7114 24.3444C20.5977 24.3444 20.4839 24.3002 20.4051 24.2205L17.7797 21.5648C17.6047 21.3877 17.6047 21.1044 17.7797 20.9363C17.946 20.7592 18.226 20.7592 18.3923 20.9363L20.7114 23.2821L23.0305 20.9363C23.1968 20.7592 23.4769 20.7592 23.6431 20.9363C23.8182 21.1044 23.8182 21.3877 23.6431 21.5648L21.0177 24.2205C20.939 24.3002 20.8252 24.3444 20.7114 24.3444Z" fill="white"/>
<path fill-rule="evenodd" clip-rule="evenodd" d="M10.8858 24.3H0.435433C0.195074 24.3 0 24.0984 0 23.85V6.74999C0 6.63029 0.0461559 6.51599 0.127146 6.43229L6.2232 0.1323C6.30506 0.0476999 6.41566 0 6.53149 0H18.7236C18.964 0 19.159 0.2016 19.159 0.449999V7.64999C19.159 7.89839 18.964 8.09999 18.7236 8.09999C18.4832 8.09999 18.2882 7.89839 18.2882 7.64999V0.899999H6.71176L0.870865 6.93629V23.4H10.8858C11.1262 23.4 11.3212 23.6016 11.3212 23.85C11.3212 24.0984 11.1262 24.3 10.8858 24.3Z" fill="black"/>
<path fill-rule="evenodd" clip-rule="evenodd" d="M6.53149 7.19999H0.435433C0.195074 7.19999 0 6.99839 0 6.74999C0 6.50159 0.195074 6.29999 0.435433 6.29999H6.09606V0.449999C6.09606 0.2016 6.29113 0 6.53149 0C6.77185 0 6.96692 0.2016 6.96692 0.449999V6.74999C6.96692 6.99839 6.77185 7.19999 6.53149 7.19999Z" fill="black"/>
<path d="M3.33838 16.7287V10.2136H5.84196C6.48369 10.2136 6.96095 10.3776 7.27373 10.7056C7.5892 11.0336 7.74694 11.4974 7.74694 12.0972C7.74694 12.7709 7.56089 13.2836 7.18879 13.6352C6.91376 13.8952 6.46482 14.0252 5.84196 14.0252H4.13516V16.7287H3.33838ZM4.13516 13.2584H5.75702C6.05632 13.2584 6.28551 13.2215 6.4446 13.1476C6.60638 13.0708 6.72906 12.9423 6.81265 12.7621C6.89893 12.5818 6.94208 12.3602 6.94208 12.0972C6.94208 11.7279 6.84905 11.4487 6.663 11.2596C6.47965 11.0705 6.17766 10.9759 5.75702 10.9759H4.13516V13.2584Z" fill="black"/>
<path d="M11.5812 12.5892V10.2136H12.3132V16.7287H11.654V16.1348C11.5057 16.318 11.3763 16.4569 11.2657 16.5514C11.1552 16.643 11.0176 16.7198 10.8532 16.7819C10.6914 16.8439 10.5107 16.875 10.3112 16.875C9.79079 16.875 9.35802 16.6667 9.01289 16.25C8.67045 15.8334 8.49923 15.2366 8.49923 14.4595C8.49923 13.9927 8.56529 13.5598 8.69741 13.1609C8.83223 12.7591 9.0439 12.4385 9.33241 12.1992C9.62092 11.9569 9.95796 11.8358 10.3435 11.8358C10.57 11.8358 10.7628 11.8742 10.9219 11.951C11.0837 12.0249 11.2212 12.1209 11.3345 12.2391C11.4073 12.3159 11.4895 12.4326 11.5812 12.5892ZM9.24747 14.4063C9.24747 15.0179 9.36881 15.4848 9.61148 15.8068C9.80023 16.058 10.0672 16.1836 10.4123 16.1836C10.7844 16.1836 11.0824 16.0358 11.3061 15.7404C11.5326 15.4419 11.6459 14.9618 11.6459 14.3C11.6459 13.7829 11.5569 13.3781 11.379 13.0856C11.1552 12.7163 10.8491 12.5316 10.4608 12.5316C10.2397 12.5316 10.0348 12.5981 9.84607 12.731C9.66002 12.861 9.51306 13.0708 9.40521 13.3604C9.30005 13.6499 9.24747 13.9986 9.24747 14.4063Z" fill="black"/>
<path d="M14.3032 12.6114V16.7287H13.5711V12.6114H12.9725V11.982H13.5711V11.2463C13.5711 10.9833 13.6048 10.7795 13.6722 10.6347C13.7396 10.4899 13.8569 10.3688 14.0241 10.2713C14.194 10.1738 14.411 10.125 14.6753 10.125C14.7858 10.125 14.9018 10.1339 15.0231 10.1516V10.8784C14.8991 10.8637 14.8047 10.8563 14.74 10.8563C14.5863 10.8563 14.4744 10.8962 14.4043 10.9759C14.3369 11.0557 14.3032 11.202 14.3032 11.4147V11.982H15.0231V12.6114H14.3032Z" fill="black"/>
</svg>
