<svg width="32" height="33" viewBox="0 0 32 33" fill="none" xmlns="http://www.w3.org/2000/svg">
<path fill-rule="evenodd" clip-rule="evenodd" d="M16.0019 0.853516C7.16603 0.853516 0.000976562 8.01668 0.000976562 16.8545C0.000976562 23.4042 3.941 29.0339 9.58009 31.5082C9.53493 30.3924 9.57257 29.049 9.85668 27.8335C10.1653 26.5352 11.9151 19.1161 11.9151 19.1161C11.9151 19.1161 11.4052 18.0944 11.4052 16.5835C11.4052 14.2127 12.7807 12.4422 14.491 12.4422C15.9455 12.4422 16.6492 13.5354 16.6492 14.8449C16.6492 16.3069 15.7159 18.4952 15.2361 20.5217C14.8353 22.2207 16.0866 23.6037 17.7612 23.6037C20.7924 23.6037 22.8339 19.7107 22.8339 15.0971C22.8339 11.5917 20.4725 8.96688 16.1769 8.96688C11.3243 8.96688 8.30062 12.5852 8.30062 16.6268C8.30062 18.0229 8.7108 19.0051 9.3543 19.7653C9.65159 20.1171 9.6911 20.2564 9.58385 20.659C9.50859 20.9507 9.33172 21.6619 9.25834 21.9422C9.15109 22.3468 8.8237 22.4935 8.45867 22.343C6.22147 21.4305 5.18096 18.9825 5.18096 16.2298C5.18096 11.6858 9.01374 6.23295 16.6153 6.23295C22.7248 6.23295 26.7457 10.6565 26.7457 15.4C26.7457 21.6769 23.2573 26.3658 18.1112 26.3658C16.3858 26.3658 14.7601 25.4326 14.2031 24.3732C14.2031 24.3732 13.2736 28.0593 13.0779 28.7705C12.7393 30.0029 12.0751 31.2372 11.4673 32.1968C12.9067 32.6221 14.427 32.8535 16.0019 32.8535C24.8378 32.8535 32.001 25.6903 32.001 16.8545C32.001 8.01668 24.8378 0.853516 16.0019 0.853516Z" fill="#CC2127"/>
</svg>
