<svg width="90" height="90" viewBox="0 0 90 90" fill="none" xmlns="http://www.w3.org/2000/svg">
<path d="M8.95042 78.3526C9.15134 78.3526 9.35384 78.3121 9.54895 78.2265C14.3339 76.143 22.4144 75.0586 33.5744 75.0015L34.6574 77.1704C35.0293 77.9115 35.9309 78.2144 36.6704 77.8409C37.4113 77.4703 37.713 76.5703 37.3408 75.8294L35.8423 72.8294C35.5872 72.3208 35.0683 71.9998 34.4999 71.9998C22.2764 71.9998 13.7218 73.1368 8.3503 75.4754C7.59128 75.8069 7.24481 76.6904 7.57476 77.4508C7.82102 78.0151 8.37157 78.3526 8.95042 78.3526Z" fill="#6F7B8E"/>
<path d="M86.9999 81H83.9999V73.5C83.9999 73.1025 83.8408 72.72 83.5604 72.4395L74.5485 63.4289C74.8304 62.8424 75.0001 62.193 75.0001 61.4999C75.0001 59.0189 72.981 56.9999 70.5001 56.9999C68.0191 56.9999 66.0001 59.0189 66.0001 61.4999C66.0001 63.9809 68.0191 65.9999 70.5001 65.9999C71.193 65.9999 71.8411 65.8305 72.4275 65.5499L81 74.1208V81H3.00006C1.34543 81 0 82.3455 0 84.0001V88.5001C0 89.328 0.672012 90 1.49994 90C2.32787 90 2.99988 89.328 2.99988 88.5001V84.0001H86.9999V88.5001C86.9999 89.328 87.6704 90 88.4999 90C89.3294 90 89.9998 89.328 89.9998 88.5001V84.0001C90 82.3455 88.653 81 86.9999 81ZM70.5001 63C69.6721 63 69.0001 62.3266 69.0001 61.5001C69.0001 60.6736 69.6721 60.0002 70.5001 60.0002C71.328 60.0002 72 60.6736 72 61.5001C72 62.3266 71.328 63 70.5001 63Z" fill="#6F7B8E"/>
<path d="M21.4154 44.868C22.509 47.7149 26.1269 56.8949 28.752 60.8324L28.989 61.1909C30.915 64.1113 34.1369 68.9998 45 68.9998C55.8615 68.9998 59.085 64.1113 61.011 61.1909L61.248 60.8324C63.8729 56.8949 67.4895 47.7149 68.5846 44.868C70.5437 44.3806 72 42.6074 72 40.5V34.5001C72 32.5441 70.746 30.876 68.9999 30.2565V22.5C68.9999 16.5779 65.8814 5.63854 54.3465 4.58244C54.324 3.87439 54.09 3.30451 53.829 2.88299C52.3545 0.49957 48.2145 0 45 0C18.309 0 18 25.245 18 25.5001C18 26.328 18.6704 26.9986 19.497 26.9986H19.4999C20.3265 26.9986 20.9969 26.3296 20.9999 25.5016C21.0029 24.5837 21.3404 3.00006 44.9998 3.00006C49.2418 3.00006 50.9414 3.91799 51.2773 4.46098C51.3239 4.53744 51.4514 4.74293 51.1573 5.32951C50.9247 5.79445 50.9502 6.34658 51.2232 6.78902C51.4978 7.23006 51.9792 7.50006 52.4997 7.50006C65.7988 7.50006 65.9981 21.8895 65.9997 22.5V31.5C65.9997 32.3279 66.6701 32.9999 67.4996 32.9999C68.3276 32.9999 68.9996 33.6734 68.9996 34.4999V40.5C68.9996 41.3265 68.3276 41.9999 67.4996 41.9999C66.8742 41.9999 66.3147 42.3884 66.0941 42.9734C66.0507 43.0919 61.6212 54.864 58.7515 59.1674L58.5056 59.5394C56.7086 62.2665 54.2456 65.9999 44.9996 65.9999C35.7522 65.9999 33.2907 62.2665 31.4937 59.5394L31.2478 59.1674C28.3783 54.864 23.9488 43.0919 23.9038 42.9734C23.6848 42.3884 23.1253 41.9999 22.4998 41.9999C21.6733 41.9999 20.9999 41.3265 20.9999 40.5V34.5001C20.9999 34.0935 21.162 33.7245 21.4258 33.4545C21.9704 34.6771 23.0818 35.7766 24.9493 35.9626L30.0823 39.8116C30.4829 42.7335 32.9685 45 36 45H39.0001C42.309 45 45 42.309 45 39.0001C45 42.309 47.691 45 50.9999 45H54C57.0299 45 59.5185 42.7335 59.9175 39.8101L65.3999 35.7001C66.063 35.2035 66.198 34.2631 65.7 33.6001C65.2034 32.937 64.263 32.8006 63.5999 33.3L59.7765 36.168C59.2051 34.3396 57.516 33.0001 55.4999 33.0001H49.5C47.019 33.0001 45 35.0191 45 37.5001C45 35.0191 42.981 33.0001 40.5 33.0001H34.5001C32.4856 33.0001 30.7965 34.3396 30.2237 36.168L27.3616 34.0216C28.5421 31.1687 29.6116 26.949 29.9146 23.9866C34.6426 23.9026 48.3212 23.3251 54.4066 19.527C55.7866 24.8549 60.2162 29.3386 60.4396 29.5606C61.026 30.147 61.9741 30.147 62.5605 29.5606C63.147 28.974 63.147 28.026 62.5605 27.4396C62.505 27.3841 57.0001 21.8176 57.0001 16.5001C57.0001 15.8266 56.5501 15.2341 55.9005 15.0541C55.254 14.8741 54.5595 15.1501 54.2146 15.7275C52.0305 19.3649 37.8631 21.0001 28.5001 21.0001C27.6722 21.0001 27.0002 21.6721 27.0002 22.5C27.0002 24.9346 25.8497 29.7976 24.6257 32.7901C24.1473 32.5021 24.0123 31.9651 24.0003 31.5C24.0003 30.6721 23.3283 30.0001 22.5004 30.0001C20.0194 30.0001 18.0004 32.0191 18.0004 34.5001V40.5C18 42.6074 19.4565 44.3806 21.4154 44.868ZM48.0001 37.4999C48.0001 36.6734 48.6721 36 49.5 36H55.4999C56.3279 36 56.9999 36.6734 56.9999 37.4999V38.9999C56.9999 40.6543 55.6545 41.9999 53.9998 41.9999H50.9998C49.3453 41.9999 47.9997 40.6545 47.9997 38.9999L48.0001 37.4999ZM32.9999 37.4999C32.9999 36.6734 33.6734 36 34.4999 36H40.5C41.3265 36 41.9999 36.6734 41.9999 37.4999V38.9999C41.9999 40.6543 40.6545 41.9999 38.9999 41.9999H36C34.3456 41.9999 32.9999 40.6545 32.9999 38.9999V37.4999Z" fill="#6F7B8E"/>
<path d="M52.4985 54.0046C52.5 53.178 51.831 52.5046 51.0045 52.5001C50.976 52.5001 48.294 52.47 45.6704 51.1576C45.2489 50.9476 44.7509 50.9476 44.3294 51.1576C41.7059 52.4702 39.0224 52.5001 38.9999 52.5001C38.1719 52.5001 37.4999 53.1721 37.4999 54C37.4999 54.8279 38.1719 55.4999 38.9999 55.4999C39.1273 55.4999 41.9609 55.4834 44.9998 54.1545C48.0373 55.4834 50.8723 55.4999 50.9998 55.4999C51.8265 55.4999 52.4955 54.8309 52.4985 54.0046Z" fill="#6F7B8E"/>
<path d="M55.4955 72.0615C54.9346 72.0645 54.4201 72.3795 54.1635 72.8805L52.6635 75.8174C52.287 76.5554 52.5811 77.4599 53.3176 77.8365C53.5351 77.9474 53.7692 77.9999 53.9986 77.9999C54.5446 77.9999 55.071 77.7015 55.3366 77.1824L56.4182 75.0614C64.6172 75.0839 71.2202 75.6974 76.0591 76.8855C76.8661 77.085 77.6762 76.5916 77.8727 75.7876C78.0706 74.9821 77.5802 74.1705 76.7747 73.9726C71.5215 72.681 64.3966 72.009 55.4955 72.0615Z" fill="#6F7B8E"/>
<path d="M43.5001 73.5V76.5C43.5001 77.328 44.1721 78 45 78C45.8279 78 46.5 77.328 46.5 76.5V73.5C46.5 72.672 45.8279 72 45 72C44.1721 72 43.5001 72.672 43.5001 73.5Z" fill="#6F7B8E"/>
<path d="M43.5 57.0001C42.6721 57.0001 42.0001 57.6721 42.0001 58.5C42.0001 59.328 42.6721 60 43.5 60H46.5001C47.3296 60 48 59.328 48 58.5C48 57.6721 47.3296 57.0001 46.5001 57.0001H43.5Z" fill="#6F7B8E"/>
</svg>
