<svg width="16" height="17" viewBox="0 0 16 17" fill="none" xmlns="http://www.w3.org/2000/svg">
<g clip-path="url(#clip0)">
<path d="M8.02657 9.28611C10.3911 9.28611 12.309 7.3682 12.309 5.00368C12.309 2.63917 10.3911 0.734375 8.02657 0.734375C5.66205 0.734375 3.74414 2.65228 3.74414 5.00368C3.74414 7.35508 5.66202 9.28611 8.02657 9.28611ZM8.02657 1.85096C9.76055 1.85096 11.1793 3.26967 11.1793 5.00368C11.1793 6.73769 9.76055 8.15637 8.02657 8.15637C6.29259 8.15637 4.87385 6.73766 4.87385 5.00365C4.87385 3.26965 6.29256 1.85096 8.02657 1.85096Z" fill="black"/>
<path d="M0.564855 15.9725H15.4351C15.7504 15.9725 16 15.7229 16 15.4077C16 12.452 13.5961 10.0349 10.6273 10.0349H5.37275C2.41708 10.0349 0 12.4388 0 15.4077C0 15.7229 0.249586 15.9725 0.564855 15.9725ZM5.37275 11.1646H10.6273C12.7816 11.1646 14.555 12.7673 14.8309 14.8428H1.16912C1.44498 12.7804 3.2184 11.1646 5.37275 11.1646Z" fill="black"/>
</g>
<defs>
<clipPath id="clip0">
<rect width="16" height="16" fill="white" transform="matrix(-1 0 0 1 16 0.353516)"/>
</clipPath>
</defs>
</svg>
