<svg width="15" height="14" viewBox="0 0 15 14" fill="none" xmlns="http://www.w3.org/2000/svg">
<path d="M11.7877 10.3087L11.9686 10.0836C12.8507 8.9582 13.3256 7.63023 13.3256 6.23473C13.3256 2.791 10.5211 0 7.06069 0C3.62288 0 0.818359 2.8135 0.818359 6.25723C0.818359 9.70096 3.62288 12.492 7.0833 12.492C8.48556 12.492 9.86521 12.0193 10.9508 11.1415L11.177 10.9614L14.0946 13.865C14.1851 13.955 14.2755 14 14.3886 14C14.5017 14 14.5922 13.955 14.6827 13.865C14.8636 13.6624 14.8636 13.4148 14.6827 13.2122L11.7877 10.3087ZM7.0833 11.6141C4.12046 11.6141 1.72304 9.2283 1.72304 6.27974C1.72304 3.33119 4.12046 0.945338 7.0833 0.945338C10.0235 0.945338 12.4209 3.33119 12.4209 6.27974C12.4209 9.2283 10.0235 11.6141 7.0833 11.6141Z" fill="#121B1B"/>
</svg>
