<svg width="52" height="63" viewBox="0 0 52 63" fill="none" xmlns="http://www.w3.org/2000/svg">
<path d="M39.619 44.925C39.619 47.6673 38.808 50.2178 37.4151 52.3535H14.5847C13.1918 50.2178 12.3809 47.6673 12.3809 44.925C12.3809 37.4035 18.4785 31.3059 25.9999 31.3059C33.5213 31.3059 39.619 37.4035 39.619 44.925Z" fill="#BAD432"/>
<path d="M38.4481 31.5658C38.0891 31.9249 38.0829 32.4944 38.4295 32.8535C41.4629 35.9797 43.3324 40.2387 43.3324 44.9249C43.3324 49.3201 41.6919 53.3316 38.9929 56.3835C38.671 56.7425 38.7019 57.2935 39.0424 57.6401C39.4262 58.0239 40.0453 57.993 40.4043 57.5906C43.3819 54.2106 45.1895 49.7658 45.1895 44.9249C45.1895 39.7435 43.1281 35.0387 39.7791 31.5844C39.4138 31.213 38.8195 31.1944 38.4481 31.5658ZM6.80859 44.9249C6.80859 49.7658 8.61621 54.2106 11.6 57.5906C11.9591 57.993 12.5781 58.0178 12.9619 57.6401C13.3024 57.2997 13.3334 56.7487 13.0115 56.3835C10.3062 53.3316 8.66574 49.3201 8.66574 44.9249C8.66574 40.2387 10.5353 35.9797 13.5686 32.8597C13.9153 32.5006 13.9029 31.9249 13.55 31.572C13.1786 31.2006 12.5843 31.2192 12.2191 31.5906C8.87002 35.0387 6.80859 39.7435 6.80859 44.9249Z" fill="#BAD432"/>
<path d="M43.259 26.7559C42.8938 27.1212 42.9062 27.7031 43.2652 28.0745C47.5181 32.4202 50.1429 38.3693 50.1429 44.925C50.1429 51.1712 47.7533 56.8726 43.841 61.1626C43.5005 61.534 43.5067 62.0974 43.8595 62.4564C44.231 62.8279 44.8376 62.8217 45.1905 62.4379C49.4186 57.8136 52 51.6602 52 44.925C52 37.8493 49.1648 31.4359 44.5652 26.7498C44.2062 26.3907 43.6181 26.3969 43.259 26.7559ZM8.74095 26.7559C8.38191 26.3969 7.78762 26.3845 7.43476 26.7498C2.83524 31.4359 0 37.8493 0 44.925C0 51.6664 2.58143 57.8198 6.80952 62.4379C7.16238 62.8217 7.76905 62.8217 8.14048 62.4564C8.49333 62.1036 8.49333 61.534 8.15905 61.1626C4.24667 56.8726 1.85714 51.1712 1.85714 44.925C1.85714 38.3693 4.48191 32.4202 8.73476 28.0745C9.1 27.7031 9.10619 27.1212 8.74095 26.7559Z" fill="#BAD432"/>
<path d="M26.619 0.353516H25.3809V52.3535H26.619V0.353516Z" fill="#BAD432"/>
</svg>
