<svg width="12" height="11" viewBox="0 0 12 11" fill="none" xmlns="http://www.w3.org/2000/svg">
<path d="M9.20839 11C9.11489 11 9.02185 10.9703 8.94164 10.9106L6.00003 8.71487L3.05842 10.911C2.89434 11.033 2.67296 11.0292 2.513 10.9015C2.35258 10.7728 2.29208 10.5509 2.36266 10.3534L3.61393 6.87117L0.692024 4.69365C0.529773 4.57265 0.461022 4.35648 0.521981 4.15848C0.582482 3.96048 0.758941 3.82609 0.958318 3.82609H4.30739L5.57057 0.310391C5.63794 0.12387 5.8089 0 6.00003 0C6.19116 0 6.36212 0.12387 6.42949 0.310391L7.69267 3.82609H11.0417C11.2411 3.82609 11.4171 3.96048 11.4781 4.15848C11.539 4.35648 11.4698 4.57265 11.308 4.69365L8.38614 6.87117L9.6374 10.3534C9.70798 10.5504 9.64702 10.7728 9.48706 10.9015C9.40548 10.967 9.30694 11 9.20839 11ZM6.00003 7.64835C6.09353 7.64835 6.18703 7.678 6.26678 7.73778L8.25047 9.21896L7.40392 6.864C7.33104 6.66074 7.39796 6.43261 7.56663 6.30683L9.61173 4.78261H7.37504C7.18392 4.78261 7.01296 4.65874 6.94558 4.47222L6.00003 1.84035L5.05448 4.47222C4.9871 4.65874 4.81614 4.78261 4.62502 4.78261H2.38879L4.43298 6.30683C4.6021 6.43261 4.66856 6.66074 4.59568 6.864L3.74959 9.21848L5.73328 7.7373C5.81303 7.67848 5.90653 7.64835 6.00003 7.64835Z" fill="#4EB1AA"/>
<path d="M6.00003 7.64835C6.09353 7.64835 6.18703 7.678 6.26678 7.73778L8.25047 9.21896L7.40392 6.864C7.33104 6.66074 7.39796 6.43261 7.56663 6.30683L9.61173 4.78261H7.37504C7.18392 4.78261 7.01296 4.65874 6.94558 4.47222L6.00003 1.84035L5.05448 4.47222C4.9871 4.65874 4.81614 4.78261 4.62502 4.78261H2.38879L4.43298 6.30683C4.6021 6.43261 4.66856 6.66074 4.59568 6.864L3.74959 9.21848L5.73328 7.7373C5.81303 7.67848 5.90653 7.64835 6.00003 7.64835Z" fill="#4EB1AA"/>
</svg>
