<svg width="23" height="42" viewBox="0 0 23 42" fill="none" xmlns="http://www.w3.org/2000/svg">
<path fill-rule="evenodd" clip-rule="evenodd" d="M10.9237 0.68457H12.1913V12.7294C14.0243 14.5469 19.4333 19.7208 22.9673 21.1181L20.749 22.0647C19.1645 26.5457 14.5377 40.304 14.5377 40.304L11.8123 41.8818L9.087 40.304C9.087 40.304 4.46024 26.4825 2.87573 22.0647C2.62277 21.2587 1.44098 21.1765 0.974376 21.144C0.856429 21.1358 0.78418 21.1308 0.78418 21.1181C4.27912 19.7362 9.19111 14.6608 10.9237 12.7908V0.68457Z" fill="url(#paint0_radial)"/>
<path d="M19.418 21.1565L13.5237 38.7762H12.3828V21.7903L19.418 21.1565Z" fill="white"/>
<path d="M11.1134 38.8396H9.97259L4.1416 21.1565L11.1134 21.8537V38.8396Z" fill="white"/>
<defs>
<radialGradient id="paint0_radial" cx="0" cy="0" r="1" gradientUnits="userSpaceOnUse" gradientTransform="translate(11.8757 0.68457) rotate(90) scale(41.1972 22.1831)">
<stop stop-color="#2D7DEC"/>
<stop offset="1" stop-color="#5A89CB"/>
</radialGradient>
</defs>
</svg>
