<svg width="90" height="90" viewBox="0 0 90 90" fill="none" xmlns="http://www.w3.org/2000/svg">
<g clip-path="url(#clip0)">
<path d="M10.3062 7.48724L44.8066 11.9873C44.8711 11.9948 44.9356 11.9992 45.0001 11.9992C45.0646 11.9992 45.1291 11.9947 45.1936 11.9873L78.0005 7.70767V12.9158C77.06 13.9733 75.0004 16.6118 75.0004 19.4993C75.0004 22.8009 77.6914 23.9994 79.5004 23.9994C81.3094 23.9994 84.0005 22.8009 84.0005 19.4993C84.0005 16.6118 81.941 13.9733 81.0004 12.9158V5.99924C81.0004 5.80131 80.9584 5.61375 80.8879 5.43972C80.8624 5.3782 80.8188 5.33021 80.7859 5.27326C80.7274 5.16832 80.6688 5.06478 80.588 4.97777C80.5354 4.92222 80.4725 4.88478 80.4126 4.83978C80.3271 4.7707 80.2431 4.70478 80.1441 4.65679C80.0707 4.62075 79.9926 4.60581 79.9132 4.58331C79.8397 4.56081 79.7736 4.52179 79.6941 4.51124L45.1938 0.0112061C45.0648 -0.00373538 44.9358 -0.00373538 44.8067 0.0112061L10.3064 4.51124C9.55934 4.6088 9 5.24619 9 5.99924C8.99965 6.75229 9.55916 7.38986 10.3062 7.48724ZM81.0002 19.4993C81.0002 20.6964 80.1886 20.9768 79.5002 20.9993C78.8117 20.9768 78.0003 20.6963 78.0003 19.4993C78.0003 18.2543 78.7653 16.8652 79.5002 15.8408C80.2352 16.8654 81.0002 18.2545 81.0002 19.4993ZM44.9999 3.01129L67.9035 5.99924L44.9999 8.98737L22.0963 5.99924L44.9999 3.01129Z" fill="#6F7B8E"/>
<path d="M54 44.9996C57.03 44.9996 59.5185 42.7331 59.9175 39.8096L65.4 35.6997C66.0631 35.2031 66.1981 34.2626 65.7001 33.5996C65.2035 32.9365 64.2631 32.8001 63.6 33.2995L59.7766 36.1676C59.2051 34.3391 57.516 32.9997 55.4999 32.9997H49.5C47.019 32.9997 44.9999 35.0187 44.9999 37.4997C44.9999 35.0187 42.9809 32.9997 40.4999 32.9997H34.4999C32.4839 32.9997 30.7949 34.3391 30.2233 36.1676L26.3998 33.2995C25.7384 32.803 24.7964 32.938 24.2998 33.5996C23.8018 34.2626 23.9368 35.2031 24.5998 35.6997L30.0823 39.8096C30.4813 42.7331 32.9683 44.9996 35.9999 44.9996H38.9999C42.309 44.9996 44.9999 42.3086 44.9999 38.9996C44.9999 42.3088 47.691 44.9996 50.9999 44.9996H54ZM41.9998 38.9996C41.9998 40.6541 40.6528 41.9997 38.9998 41.9997H35.9997C34.3452 41.9997 32.9996 40.6543 32.9996 38.9996V37.4997C32.9996 36.6732 33.6716 35.9997 34.4996 35.9997H40.4995C41.3275 35.9997 41.9995 36.6732 41.9995 37.4997L41.9998 38.9996ZM48 38.9996V37.4997C48 36.6732 48.672 35.9997 49.5 35.9997H55.4999C56.3279 35.9997 56.9999 36.6732 56.9999 37.4997V38.9996C56.9999 40.6541 55.6545 41.9997 53.9998 41.9997H50.9997C49.3455 41.9995 48 40.6541 48 38.9996Z" fill="#6F7B8E"/>
<path d="M68.9387 76.1323C68.9102 76.0258 68.8652 75.9298 68.8157 75.8308C68.7872 75.7783 68.7812 75.7183 68.7482 75.6673C68.7316 75.6448 68.7077 75.6329 68.6912 75.6104C68.6283 75.5279 68.5502 75.4604 68.4692 75.3914C68.3971 75.3254 68.3266 75.2609 68.2412 75.2128C68.2157 75.1962 68.2008 75.1723 68.1721 75.1572L62.1721 72.1587C61.6891 71.9172 61.116 71.9532 60.6692 72.2517L51.6675 78.2517C51.2506 78.5293 51.0001 78.9988 51.0001 79.4998V84.8188C50.1076 85.5328 47.9162 86.9997 45.0001 86.9997C42.1125 86.9997 39.9001 85.5252 39.0001 84.8142V79.4996C39.0001 78.9986 38.7496 78.5291 38.3327 78.2515L29.3326 72.2515C28.8856 71.9531 28.3125 71.917 27.8297 72.1585L21.8297 75.157C21.8026 75.1706 21.7877 75.1945 21.7637 75.2096C21.6737 75.2606 21.5987 75.3281 21.5222 75.3986C21.4472 75.4647 21.3723 75.5276 21.3137 75.6056C21.2958 75.6297 21.2687 75.6431 21.2522 75.6672C21.2162 75.7211 21.2102 75.7827 21.1817 75.8396C21.1351 75.9342 21.0901 76.0256 21.0632 76.1275C21.0392 76.2221 21.0332 76.3121 21.0272 76.4081C21.0212 76.5027 21.0167 76.5941 21.0288 76.69C21.0408 76.795 21.0754 76.891 21.1098 76.9901C21.1308 77.05 21.1293 77.1132 21.1578 77.1701C21.1714 77.1972 21.1968 77.2135 21.2118 77.2392C21.2614 77.3262 21.3289 77.3997 21.3978 77.4761C21.4653 77.5512 21.5282 77.6261 21.6062 77.6862C21.6303 77.7041 21.6437 77.7312 21.6678 77.7477L30.6678 83.7477C30.9243 83.9188 31.2138 83.9998 31.4988 83.9998C31.9832 83.9998 32.4603 83.7658 32.7482 83.3323C33.2088 82.6424 33.0228 81.7107 32.3327 81.2518L25.4821 76.6858L28.3922 75.2309L36.0002 80.3024V85.4999C36.0002 85.8974 36.1577 86.2799 36.4397 86.5604C36.5806 86.7014 39.9377 90 45.0003 90C50.0628 90 53.4199 86.7014 53.5609 86.5604C53.8414 86.2799 54.0003 85.8974 54.0003 85.4999V80.3024L61.61 75.2309L64.5185 76.6844L57.6679 81.252C56.9779 81.7109 56.792 82.6424 57.2523 83.3325C57.5403 83.766 58.0173 84 58.5018 84C58.7867 84 59.0762 83.9189 59.3327 83.7479L68.3328 77.7479C68.3569 77.7314 68.3688 77.7059 68.3913 77.6894C68.4753 77.6264 68.5413 77.5484 68.6117 77.4689C68.6747 77.3939 68.7392 77.3264 68.7872 77.2424C68.8021 77.2153 68.8292 77.1989 68.8427 77.1703C68.8742 77.1088 68.8742 77.0428 68.8953 76.9797C68.9268 76.8852 68.9598 76.7952 68.9717 76.6962C68.9853 76.5942 68.9807 76.4983 68.9733 76.3977C68.9672 76.3079 68.9626 76.2223 68.9387 76.1323Z" fill="#6F7B8E"/>
<path d="M75.1067 71.0578C75.3423 71.6428 75.9048 71.9998 76.5002 71.9998C76.6861 71.9998 76.8737 71.9654 77.0567 71.8919C77.8263 71.5859 78.1996 70.7129 77.8938 69.9433C77.8637 69.8713 75.0002 62.6099 75.0002 55.4998V43.4997C75.0002 30.7196 68.4497 27.298 68.1707 27.1586C67.7072 26.926 67.1536 26.9485 66.7128 27.2231C66.2703 27.4976 66.0003 27.9791 66.0003 28.4996V34.4996C66.0003 40.1726 61.6594 51.8263 60.1578 54.8292C58.8124 57.5217 51.6932 65.9998 45.0003 65.9998C38.3074 65.9998 31.1882 57.5218 29.8411 54.8292C28.3412 51.8261 24.0001 40.1726 24.0001 34.4996V28.4996C24.0001 27.9791 23.73 27.4976 23.2876 27.2231C22.8452 26.9485 22.293 26.926 21.8297 27.1586C21.5507 27.2981 15.0002 30.7196 15.0002 43.4997V55.4998C15.0002 62.6099 12.1367 69.8714 12.1066 69.9433C11.8006 70.7129 12.1741 71.5859 12.9437 71.8919C13.7103 72.1979 14.5862 71.826 14.8936 71.0578C15.0197 70.7398 18.0001 63.2007 18.0001 55.4996V43.4995C18.0001 37.4169 19.5856 33.8829 21.0001 31.939V34.4994C21.0001 40.9375 25.7236 53.302 27.1576 56.1701C28.9831 59.8211 36.9723 68.9997 45.0003 68.9997C53.0283 68.9997 61.0174 59.8211 62.8413 56.1701C64.2768 53.302 69.0004 40.9375 69.0004 34.4994V31.942C70.4179 33.8875 72.0005 37.42 72.0005 43.4995V55.4996C72.0001 63.2007 74.9807 70.7398 75.1067 71.0578Z" fill="#6F7B8E"/>
<path d="M48.4574 54.4226C48.4094 54.466 47.2784 55.4996 44.9999 55.4996C42.7545 55.4996 41.6233 54.4961 41.5455 54.4242C40.962 53.8527 40.0214 53.8571 39.4394 54.4391C38.8528 55.0257 38.8528 55.9737 39.4394 56.5601C39.6373 56.758 41.4794 58.4997 44.9999 58.4997C48.5205 58.4997 50.3625 56.7582 50.5605 56.5601C51.1395 55.9811 51.1379 55.0542 50.5694 54.466C49.998 53.8782 49.0559 53.8617 48.4574 54.4226Z" fill="#6F7B8E"/>
<path d="M89.9222 88.0259C89.7902 87.6269 86.5172 78.2083 73.8631 75.0449C73.0591 74.8408 72.2461 75.3329 72.0451 76.1355C71.8442 76.9395 72.3331 77.7539 73.1371 77.955C84.1277 80.703 86.9642 88.6442 87.0782 88.9741C87.2867 89.6027 87.8717 90.0002 88.5003 90.0002C88.6562 90.0002 88.8169 89.9761 88.9744 89.9237C89.7603 89.6609 90.1849 88.812 89.9222 88.0259Z" fill="#6F7B8E"/>
<path d="M69.0001 22.4995V11.9994C69.0001 11.1715 68.3296 10.4995 67.5001 10.4995C66.6706 10.4995 66.0001 11.1715 66.0001 11.9994V21.529C63.5191 22.5805 55.668 25.4996 44.9999 25.4996C34.3319 25.4996 26.4807 22.5805 23.9997 21.529V11.9994C23.9997 11.1715 23.3293 10.4995 22.4998 10.4995C21.6702 10.4995 20.9998 11.1715 20.9998 11.9994V22.4995C20.9998 23.068 21.3208 23.587 21.8293 23.8419C22.2102 24.0309 31.3035 28.4995 44.9999 28.4995C58.6964 28.4995 67.7896 24.0309 68.1705 23.8419C68.6791 23.587 69.0001 23.068 69.0001 22.4995Z" fill="#6F7B8E"/>
<path d="M16.1368 75.0449C3.48272 78.2085 0.209649 87.6271 0.077636 88.0259C-0.184807 88.8119 0.239708 89.6609 1.02563 89.9235C1.18313 89.9761 1.34222 90 1.49972 90C2.12814 90 2.71314 89.6025 2.9218 88.9739C2.95028 88.8915 5.78987 80.7224 16.8629 77.9548C17.667 77.7539 18.156 76.9393 17.9549 76.1353C17.7538 75.3328 16.9392 74.8408 16.1368 75.0449Z" fill="#6F7B8E"/>
</g>
<defs>
<clipPath id="clip0">
<rect width="90" height="90" fill="white"/>
</clipPath>
</defs>
</svg>
