<svg width="32" height="28" viewBox="0 0 32 28" fill="none" xmlns="http://www.w3.org/2000/svg">
<path fill-rule="evenodd" clip-rule="evenodd" d="M32.001 4.01037C30.8252 4.54582 29.5592 4.90793 28.2313 5.06972C29.5874 4.23765 30.628 2.91828 31.1182 1.34659C29.8485 2.11703 28.4454 2.67752 26.9466 2.97799C25.752 1.67018 24.0446 0.853516 22.1551 0.853516C18.5319 0.853516 15.5925 3.86784 15.5925 7.58519C15.5925 8.11294 15.6488 8.62527 15.7615 9.11835C10.3051 8.83714 5.46861 6.15988 2.2286 2.08236C1.66324 3.08007 1.34018 4.23765 1.34018 5.47034C1.34018 7.80476 2.49907 9.86567 4.26088 11.0733C3.18651 11.0406 2.17225 10.7343 1.28571 10.2336V10.3164C1.28571 13.5792 3.54902 16.3007 6.55424 16.9171C6.00391 17.075 5.42353 17.154 4.82436 17.154C4.40175 17.154 3.98853 17.1135 3.58846 17.0346C4.42429 19.708 6.84725 21.6552 9.721 21.7073C7.47459 23.5139 4.64217 24.5906 1.56745 24.5906C1.03778 24.5906 0.513743 24.5598 0.000976562 24.4982C2.90665 26.405 6.3589 27.5202 10.0647 27.5202C22.142 27.5202 28.7441 17.2638 28.7441 8.36718C28.7441 8.07441 28.7384 7.78165 28.7272 7.49466C30.01 6.5451 31.1238 5.36056 32.001 4.01037Z" fill="#00AAEC"/>
</svg>
