<svg width="65" height="65" viewBox="0 0 65 65" fill="none" xmlns="http://www.w3.org/2000/svg">
<path fill-rule="evenodd" clip-rule="evenodd" d="M20.4853 8.09904C18.4121 10.5561 17.7775 13.6571 17.7775 16.1868V23.0909L17.5578 23.3106C17.4332 23.4351 17.251 23.5798 17.0907 23.707C17.0599 23.7314 17.03 23.7551 17.0015 23.778C16.7997 23.9394 16.5931 24.1105 16.404 24.2996C16.0097 24.6938 15.7994 25.0603 15.7994 25.4176V32.6703C15.7994 33.1533 16.1123 33.6831 16.6487 34.2144C17.1433 34.7043 17.7121 35.0829 18.0566 35.3122C18.0725 35.3228 18.0879 35.3331 18.1028 35.343L18.3441 35.5038L18.4144 35.7851C18.4837 36.0624 18.5342 36.3643 18.5895 36.6956C18.7434 37.6164 18.9353 38.7649 19.6763 40.247C20.5339 41.9621 21.8998 43.9465 22.5987 44.9617C22.7371 45.1627 22.8493 45.3257 22.9262 45.4411L23.0522 45.6301V45.8571C23.0522 46.7507 23.0188 48.1862 22.9185 49.6025C22.8201 50.9908 22.652 52.4542 22.3544 53.3471C22.2743 53.5873 22.1209 53.7927 21.9822 53.9504C21.8338 54.1191 21.6498 54.2913 21.4454 54.4636C21.0361 54.8085 20.4935 55.1965 19.8644 55.6097C18.603 56.4382 16.9306 57.4094 15.1306 58.399C11.5271 60.3801 7.36005 62.4635 4.82359 63.6766L4.17641 62.3234C6.69489 61.1189 10.8356 59.0485 14.4079 57.0845C16.1958 56.1016 17.8283 55.1524 19.0408 54.356C19.6487 53.9567 20.1353 53.606 20.4789 53.3165C20.6509 53.1715 20.7743 53.0525 20.8557 52.9599C20.9107 52.8974 20.932 52.8631 20.9372 52.8551C21.1639 52.1615 21.3236 50.8875 21.4222 49.4964C21.5114 48.2372 21.5463 46.9573 21.5515 46.0866C21.5038 46.017 21.4489 45.9374 21.3878 45.8487C20.7061 44.8599 19.2481 42.7447 18.3347 40.9178C17.4774 39.2032 17.229 37.7005 17.0774 36.7831C17.0553 36.6494 17.0353 36.5282 17.0157 36.4206C16.6464 36.1706 16.0939 35.7761 15.5931 35.2801C14.9756 34.6685 14.2994 33.7698 14.2994 32.6703V25.4176C14.2994 24.4562 14.8584 23.7238 15.3433 23.2389C15.5937 22.9884 15.8541 22.7749 16.0644 22.6067C16.1075 22.5722 16.147 22.5407 16.1832 22.5119C16.2175 22.4846 16.2488 22.4596 16.2775 22.4367V16.1868C16.2775 13.4418 16.9615 9.94935 19.3389 7.13173C21.7375 4.2889 25.7604 2.25 32.1923 2.25C38.6025 2.25 42.636 4.11093 45.0457 6.9669C47.4348 9.7984 48.1071 13.4687 48.1071 16.8462V22.4358C48.1358 22.4587 48.1671 22.4846 48.2014 22.5119C48.2376 22.5407 48.2771 22.5722 48.3202 22.6067C48.5305 22.7749 48.7909 22.9884 49.0413 23.2389C49.5262 23.7238 50.0852 24.4562 50.0852 25.4176V32.6703C50.0852 33.919 49.4619 34.923 48.7941 35.5908C48.4573 35.9275 48.0926 36.1966 47.7523 36.3857C47.6243 36.4568 47.4844 36.5252 47.3392 36.5813C47.0989 37.7576 46.6723 39.673 46.0499 40.9178C45.706 41.6058 45.0336 42.781 44.3695 43.8601C44.0361 44.4019 43.6997 44.9278 43.4023 45.3632C43.1922 45.6709 42.9834 45.9608 42.7996 46.1806C42.7342 46.8822 42.7656 47.9855 42.8786 49.1997C43.0028 50.5327 43.2177 51.9213 43.4694 52.928C43.4814 52.9762 43.5781 53.1698 43.93 53.5155C44.2555 53.8352 44.7191 54.2089 45.3046 54.6249C46.4729 55.4549 48.0553 56.4031 49.8107 57.3641C53.3194 59.2849 57.4461 61.2168 60.1632 62.3036L59.6061 63.6964C56.8287 62.5854 52.6476 60.6272 49.0904 58.6799C47.3129 57.7068 45.6728 56.7265 44.4358 55.8477C43.8187 55.4092 43.284 54.9835 42.8789 54.5855C42.5002 54.2135 42.134 53.7711 42.0142 53.2918C41.7383 52.1886 41.5137 50.72 41.3851 49.3388C41.2579 47.9728 41.2168 46.6129 41.34 45.7511L41.3753 45.5036L41.5521 45.3268C41.6608 45.2181 41.8721 44.9441 42.1636 44.5173C42.4432 44.108 42.7661 43.6036 43.092 43.074C43.7467 42.0102 44.3929 40.8777 44.7083 40.247C45.3129 39.0378 45.7358 36.953 45.9624 35.8199L46.083 35.217H46.6978C46.6906 35.217 46.6922 35.2166 46.7026 35.2137C46.7335 35.2053 46.8414 35.1758 47.0238 35.0745C47.2398 34.9545 47.4932 34.7703 47.7334 34.5301C48.2195 34.0441 48.5852 33.3996 48.5852 32.6703V25.4176C48.5852 25.0603 48.3749 24.6938 47.9807 24.2996C47.7916 24.1105 47.5849 23.9394 47.3831 23.778C47.3546 23.7551 47.3247 23.7314 47.294 23.707C47.1337 23.5798 46.9514 23.4351 46.8268 23.3106L46.6071 23.0909V16.8462C46.6071 13.6302 45.9608 10.3774 43.8993 7.9342C41.8585 5.51544 38.3096 3.75 32.1923 3.75C26.0968 3.75 22.5372 5.66714 20.4853 8.09904Z" fill="#BAC1CC"/>
</svg>
