<svg width="32" height="24" viewBox="0 0 32 24" fill="none" xmlns="http://www.w3.org/2000/svg">
<path fill-rule="evenodd" clip-rule="evenodd" d="M12.6973 16.3668L12.6963 7.31201L21.3423 11.855L12.6973 16.3668ZM31.681 5.74296C31.681 5.74296 31.368 3.52231 30.409 2.54443C29.192 1.26038 27.828 1.25434 27.203 1.17981C22.725 0.853516 16.008 0.853516 16.008 0.853516H15.994C15.994 0.853516 9.27698 0.853516 4.79898 1.17981C4.17298 1.25434 2.80998 1.26038 1.59198 2.54443C0.632976 3.52231 0.320977 5.74296 0.320977 5.74296C0.320977 5.74296 0.000976562 8.35133 0.000976562 10.9587V13.4039C0.000976562 16.0123 0.320977 18.6197 0.320977 18.6197C0.320977 18.6197 0.632976 20.8403 1.59198 21.8182C2.80998 23.1022 4.40898 23.062 5.12098 23.1959C7.68098 23.4436 16.001 23.5202 16.001 23.5202C16.001 23.5202 22.725 23.5101 27.203 23.1838C27.828 23.1083 29.192 23.1022 30.409 21.8182C31.368 20.8403 31.681 18.6197 31.681 18.6197C31.681 18.6197 32.001 16.0123 32.001 13.4039V10.9587C32.001 8.35133 31.681 5.74296 31.681 5.74296Z" fill="#CE1312"/>
</svg>
